<svg width="150.454mm" height="106.373mm" viewBox="0 0 150.454 106.373" xmlns="http://www.w3.org/2000/svg"><g id="svgGroup" stroke-linecap="round" fill-rule="evenodd" font-size="9pt" stroke="#000" stroke-width="0.25mm" fill="none" style="stroke:#000;stroke-width:0.25mm;fill:none"><path d="M 90.415 67.574 L 108.142 70.7 L 105.016 88.426 L 87.289 85.3 L 90.415 67.574 Z M 19.259 41.64 L 37.19 40.071 L 38.759 58.002 L 20.828 59.571 L 19.259 41.64 Z M 0 39.51 L 17.932 37.941 L 19.5 55.873 L 1.569 57.442 L 0 39.51 Z M 20.915 60.567 L 38.846 58.998 L 40.415 76.93 L 22.484 78.499 L 20.915 60.567 Z M 113.183 72.669 L 130.097 78.826 L 123.941 95.74 L 107.026 89.584 L 113.183 72.669 Z M 41.215 48 L 59.215 48 L 59.215 66 L 41.215 66 L 41.215 48 Z M 41.215 29 L 59.215 29 L 59.215 47 L 41.215 47 L 41.215 29 Z M 41.215 10 L 59.215 10 L 59.215 28 L 41.215 28 L 41.215 10 Z M 60.215 38 L 78.215 38 L 78.215 56 L 60.215 56 L 60.215 38 Z M 60.215 19 L 78.215 19 L 78.215 37 L 60.215 37 L 60.215 19 Z M 60.215 0 L 78.215 0 L 78.215 18 L 60.215 18 L 60.215 0 Z M 79.215 48 L 97.215 48 L 97.215 66 L 79.215 66 L 79.215 48 Z M 79.215 29 L 97.215 29 L 97.215 47 L 79.215 47 L 79.215 29 Z M 79.215 10 L 97.215 10 L 97.215 28 L 79.215 28 L 79.215 10 Z M 98.215 50 L 116.215 50 L 116.215 68 L 98.215 68 L 98.215 50 Z M 98.215 31 L 116.215 31 L 116.215 49 L 98.215 49 L 98.215 31 Z M 98.215 12 L 116.215 12 L 116.215 30 L 98.215 30 L 98.215 12 Z M 121.215 53.8 L 139.215 53.8 L 139.215 71.8 L 121.215 71.8 L 121.215 53.8 Z M 134.866 81.785 L 150.454 90.785 L 141.454 106.373 L 125.866 97.373 L 134.866 81.785 Z" vector-effect="non-scaling-stroke"/></g></svg>