0
SECTION
2
HEADER
9
$INSUNITS
70
4
0
ENDSEC
0
SECTION
2
TABLES
0
TABLE
2
LTYPE
0
LTYPE
72
65
70
64
2
CONTINUOUS
3
______
73
0
40
0
0
ENDTAB
0
TABLE
2
LAYER
0
ENDTAB
0
ENDSEC
0
SECTION
2
ENTITIES
0
LINE
8
0
10
107.3004644
20
-182.3420147
11
125.231969
21
-180.7732113
0
LINE
8
0
10
125.231969
20
-180.7732113
11
126.8007724
21
-198.7047159
0
LINE
8
0
10
126.8007724
20
-198.7047159
11
108.8692678
21
-200.2735193
0
LINE
8
0
10
108.8692678
20
-200.2735193
11
107.3004644
21
-182.3420147
0
LINE
8
0
10
105.6445052
20
-163.4143155
11
123.5760098
21
-161.8455121
0
LINE
8
0
10
123.5760098
20
-161.8455121
11
125.1448132
21
-179.7770167
0
LINE
8
0
10
125.1448132
20
-179.7770167
11
107.2133086
21
-181.3458201
0
LINE
8
0
10
107.2133086
20
-181.3458201
11
105.6445052
21
-163.4143155
0
LINE
8
0
10
86.3856142
20
-161.2847347
11
104.3171188
21
-159.7159313
0
LINE
8
0
10
104.3171188
20
-159.7159313
11
105.8859222
21
-177.6474359
0
LINE
8
0
10
105.8859222
20
-177.6474359
11
87.9544176
21
-179.2162393
0
LINE
8
0
10
87.9544176
20
-179.2162393
11
86.3856142
21
-161.2847347
0
LINE
8
0
10
127.6010522
20
-169.7747256
11
145.6010522
21
-169.7747256
0
LINE
8
0
10
145.6010522
20
-169.7747256
11
145.6010522
21
-187.7747256
0
LINE
8
0
10
145.6010522
20
-187.7747256
11
127.6010522
21
-187.7747256
0
LINE
8
0
10
127.6010522
20
-187.7747256
11
127.6010522
21
-169.7747256
0
LINE
8
0
10
127.6010522
20
-150.7747256
11
145.6010522
21
-150.7747256
0
LINE
8
0
10
145.6010522
20
-150.7747256
11
145.6010522
21
-168.7747256
0
LINE
8
0
10
145.6010522
20
-168.7747256
11
127.6010522
21
-168.7747256
0
LINE
8
0
10
127.6010522
20
-168.7747256
11
127.6010522
21
-150.7747256
0
LINE
8
0
10
127.6010522
20
-131.7747256
11
145.6010522
21
-131.7747256
0
LINE
8
0
10
145.6010522
20
-131.7747256
11
145.6010522
21
-149.7747256
0
LINE
8
0
10
145.6010522
20
-149.7747256
11
127.6010522
21
-149.7747256
0
LINE
8
0
10
127.6010522
20
-149.7747256
11
127.6010522
21
-131.7747256
0
LINE
8
0
10
146.6010522
20
-159.7747256
11
164.6010522
21
-159.7747256
0
LINE
8
0
10
164.6010522
20
-159.7747256
11
164.6010522
21
-177.7747256
0
LINE
8
0
10
164.6010522
20
-177.7747256
11
146.6010522
21
-177.7747256
0
LINE
8
0
10
146.6010522
20
-177.7747256
11
146.6010522
21
-159.7747256
0
LINE
8
0
10
146.6010522
20
-140.7747256
11
164.6010522
21
-140.7747256
0
LINE
8
0
10
164.6010522
20
-140.7747256
11
164.6010522
21
-158.7747256
0
LINE
8
0
10
164.6010522
20
-158.7747256
11
146.6010522
21
-158.7747256
0
LINE
8
0
10
146.6010522
20
-158.7747256
11
146.6010522
21
-140.7747256
0
LINE
8
0
10
146.6010522
20
-121.7747255
11
164.6010522
21
-121.7747255
0
LINE
8
0
10
164.6010522
20
-121.7747255
11
164.6010522
21
-139.7747255
0
LINE
8
0
10
164.6010522
20
-139.7747255
11
146.6010522
21
-139.7747255
0
LINE
8
0
10
146.6010522
20
-139.7747255
11
146.6010522
21
-121.7747255
0
LINE
8
0
10
165.6010522
20
-169.7747256
11
183.6010522
21
-169.7747256
0
LINE
8
0
10
183.6010522
20
-169.7747256
11
183.6010522
21
-187.7747256
0
LINE
8
0
10
183.6010522
20
-187.7747256
11
165.6010522
21
-187.7747256
0
LINE
8
0
10
165.6010522
20
-187.7747256
11
165.6010522
21
-169.7747256
0
LINE
8
0
10
165.6010522
20
-150.7747256
11
183.6010522
21
-150.7747256
0
LINE
8
0
10
183.6010522
20
-150.7747256
11
183.6010522
21
-168.7747256
0
LINE
8
0
10
183.6010522
20
-168.7747256
11
165.6010522
21
-168.7747256
0
LINE
8
0
10
165.6010522
20
-168.7747256
11
165.6010522
21
-150.7747256
0
LINE
8
0
10
165.6010522
20
-131.7747255
11
183.6010522
21
-131.7747255
0
LINE
8
0
10
183.6010522
20
-131.7747255
11
183.6010522
21
-149.7747255
0
LINE
8
0
10
183.6010522
20
-149.7747255
11
165.6010522
21
-149.7747255
0
LINE
8
0
10
165.6010522
20
-149.7747255
11
165.6010522
21
-131.7747255
0
LINE
8
0
10
184.6010522
20
-171.7747256
11
202.6010522
21
-171.7747256
0
LINE
8
0
10
202.6010522
20
-171.7747256
11
202.6010522
21
-189.7747256
0
LINE
8
0
10
202.6010522
20
-189.7747256
11
184.6010522
21
-189.7747256
0
LINE
8
0
10
184.6010522
20
-189.7747256
11
184.6010522
21
-171.7747256
0
LINE
8
0
10
184.6010522
20
-152.7747256
11
202.6010522
21
-152.7747256
0
LINE
8
0
10
202.6010522
20
-152.7747256
11
202.6010522
21
-170.7747256
0
LINE
8
0
10
202.6010522
20
-170.7747256
11
184.6010522
21
-170.7747256
0
LINE
8
0
10
184.6010522
20
-170.7747256
11
184.6010522
21
-152.7747256
0
LINE
8
0
10
184.6010522
20
-133.7747255
11
202.6010522
21
-133.7747255
0
LINE
8
0
10
202.6010522
20
-133.7747255
11
202.6010522
21
-151.7747255
0
LINE
8
0
10
202.6010522
20
-151.7747255
11
184.6010522
21
-151.7747255
0
LINE
8
0
10
184.6010522
20
-151.7747255
11
184.6010522
21
-133.7747255
0
LINE
8
0
10
176.800616
20
-189.3486222
11
194.5271556
21
-192.4742894
0
LINE
8
0
10
194.5271556
20
-192.4742894
11
191.4014884
21
-210.200829
0
LINE
8
0
10
191.4014884
20
-210.200829
11
173.6749488
21
-207.0751618
0
LINE
8
0
10
173.6749488
20
-207.0751618
11
176.800616
21
-189.3486222
0
LINE
8
0
10
199.5683848
20
-194.4440718
11
216.482852
21
-200.6004344
0
LINE
8
0
10
216.482852
20
-200.6004344
11
210.3264894
21
-217.5149016
0
LINE
8
0
10
210.3264894
20
-217.5149016
11
193.4120222
21
-211.358539
0
LINE
8
0
10
193.4120222
20
-211.358539
11
199.5683848
21
-194.4440718
0
LINE
8
0
10
221.2514958
20
-203.559284
11
236.839953
21
-212.559284
0
LINE
8
0
10
236.839953
20
-212.559284
11
227.839953
21
-228.1477412
0
LINE
8
0
10
227.839953
20
-228.1477412
11
212.2514958
21
-219.1477412
0
LINE
8
0
10
212.2514958
20
-219.1477412
11
221.2514958
21
-203.559284
0
LINE
8
0
10
207.6010522
20
-175.5747256
11
225.6010522
21
-175.5747256
0
LINE
8
0
10
225.6010522
20
-175.5747256
11
225.6010522
21
-193.5747256
0
LINE
8
0
10
225.6010522
20
-193.5747256
11
207.6010522
21
-193.5747256
0
LINE
8
0
10
207.6010522
20
-193.5747256
11
207.6010522
21
-175.5747256
0
ENDSEC
0
EOF