%TF.GenerationSoftware,KiCad,Pcbnew,7.0.6-0*%
%TF.CreationDate,2023-08-12T20:04:25+02:00*%
%TF.ProjectId,jwe,6a77652e-6b69-4636-9164-5f7063625858,v1.0.0*%
%TF.SameCoordinates,Original*%
%TF.FileFunction,Soldermask,Bot*%
%TF.FilePolarity,Negative*%
%FSLAX46Y46*%
G04 Gerber Fmt 4.6, Leading zero omitted, Abs format (unit mm)*
G04 Created by KiCad (PCBNEW 7.0.6-0) date 2023-08-12 20:04:25*
%MOMM*%
%LPD*%
G01*
G04 APERTURE LIST*
G04 Aperture macros list*
%AMRoundRect*
0 Rectangle with rounded corners*
0 $1 Rounding radius*
0 $2 $3 $4 $5 $6 $7 $8 $9 X,Y pos of 4 corners*
0 Add a 4 corners polygon primitive as box body*
4,1,4,$2,$3,$4,$5,$6,$7,$8,$9,$2,$3,0*
0 Add four circle primitives for the rounded corners*
1,1,$1+$1,$2,$3*
1,1,$1+$1,$4,$5*
1,1,$1+$1,$6,$7*
1,1,$1+$1,$8,$9*
0 Add four rect primitives between the rounded corners*
20,1,$1+$1,$2,$3,$4,$5,0*
20,1,$1+$1,$4,$5,$6,$7,0*
20,1,$1+$1,$6,$7,$8,$9,0*
20,1,$1+$1,$8,$9,$2,$3,0*%
%AMFreePoly0*
4,1,16,0.635355,1.035355,0.650000,1.000000,0.650000,-0.250000,0.635355,-0.285355,0.600000,-0.300000,-0.600000,-0.300000,-0.635355,-0.285355,-0.650000,-0.250000,-0.650000,1.000000,-0.635355,1.035355,-0.600000,1.050000,-0.564645,1.035355,0.000000,0.470710,0.564645,1.035355,0.600000,1.050000,0.635355,1.035355,0.635355,1.035355,$1*%
%AMFreePoly1*
4,1,14,0.635355,0.435355,0.650000,0.400000,0.650000,0.200000,0.635355,0.164645,0.035355,-0.435355,0.000000,-0.450000,-0.035355,-0.435355,-0.635355,0.164645,-0.650000,0.200000,-0.650000,0.400000,-0.635355,0.435355,-0.600000,0.450000,0.600000,0.450000,0.635355,0.435355,0.635355,0.435355,$1*%
G04 Aperture macros list end*
%ADD10C,0.100000*%
%ADD11C,0.250000*%
%ADD12RoundRect,0.050000X-0.450000X-0.625000X0.450000X-0.625000X0.450000X0.625000X-0.450000X0.625000X0*%
%ADD13RoundRect,0.050000X-0.450000X-0.450000X0.450000X-0.450000X0.450000X0.450000X-0.450000X0.450000X0*%
%ADD14C,1.100000*%
%ADD15C,1.852600*%
%ADD16C,2.005000*%
%ADD17RoundRect,0.050000X-1.029867X-0.721121X0.721121X-1.029867X1.029867X0.721121X-0.721121X1.029867X0*%
%ADD18RoundRect,0.050000X-1.275000X-1.250000X1.275000X-1.250000X1.275000X1.250000X-1.275000X1.250000X0*%
%ADD19C,1.801800*%
%ADD20C,3.100000*%
%ADD21C,4.087800*%
%ADD22RoundRect,0.050000X-0.889000X-0.889000X0.889000X-0.889000X0.889000X0.889000X-0.889000X0.889000X0*%
%ADD23RoundRect,0.050000X-0.808136X-0.963099X0.963099X-0.808136X0.808136X0.963099X-0.963099X0.808136X0*%
%ADD24RoundRect,0.050000X-1.472690X-1.009608X1.038570X-1.452411X1.472690X1.009608X-1.038570X1.452411X0*%
%ADD25RoundRect,0.050000X-1.161204X-1.356367X1.379093X-1.134120X1.161204X1.356367X-1.379093X1.134120X0*%
%ADD26RoundRect,0.050000X-1.729182X-0.445032X0.479182X-1.720032X1.729182X0.445032X-0.479182X1.720032X0*%
%ADD27RoundRect,0.425000X-0.375000X-0.750000X0.375000X-0.750000X0.375000X0.750000X-0.375000X0.750000X0*%
%ADD28C,2.100000*%
%ADD29RoundRect,0.050000X-1.000000X-1.000000X1.000000X-1.000000X1.000000X1.000000X-1.000000X1.000000X0*%
%ADD30C,1.600000*%
%ADD31RoundRect,0.050000X-1.600000X-1.000000X1.600000X-1.000000X1.600000X1.000000X-1.600000X1.000000X0*%
%ADD32RoundRect,0.050000X-1.139443X-0.531331X0.531331X-1.139443X1.139443X0.531331X-0.531331X1.139443X0*%
%ADD33RoundRect,0.050000X0.889000X-0.889000X0.889000X0.889000X-0.889000X0.889000X-0.889000X-0.889000X0*%
%ADD34O,1.700000X2.300000*%
%ADD35FreePoly0,180.000000*%
%ADD36FreePoly1,180.000000*%
%ADD37RoundRect,0.050000X-1.625633X-0.738540X0.770583X-1.610691X1.625633X0.738540X-0.770583X1.610691X0*%
%ADD38RoundRect,0.050000X-1.214397X-0.325397X0.325397X-1.214397X1.214397X0.325397X-0.325397X1.214397X0*%
%ADD39FreePoly0,270.000000*%
%ADD40FreePoly0,90.000000*%
%ADD41C,1.700000*%
%ADD42FreePoly1,90.000000*%
%ADD43FreePoly1,270.000000*%
%ADD44RoundRect,0.050000X-0.800000X0.800000X-0.800000X-0.800000X0.800000X-0.800000X0.800000X0.800000X0*%
G04 APERTURE END LIST*
%TO.C,L9*%
D10*
X162583318Y-199429614D02*
X162453082Y-200168220D01*
X160975871Y-199907748D01*
X161062695Y-199415344D01*
X161352309Y-199212554D01*
X162583318Y-199429614D01*
G36*
X162583318Y-199429614D02*
G01*
X162453082Y-200168220D01*
X160975871Y-199907748D01*
X161062695Y-199415344D01*
X161352309Y-199212554D01*
X162583318Y-199429614D01*
G37*
X162279434Y-201153028D02*
X162149198Y-201891634D01*
X160671986Y-201631161D01*
X160802223Y-200892556D01*
X162279434Y-201153028D01*
G36*
X162279434Y-201153028D02*
G01*
X162149198Y-201891634D01*
X160671986Y-201631161D01*
X160802223Y-200892556D01*
X162279434Y-201153028D01*
G37*
X167507357Y-200297855D02*
X167377121Y-201036461D01*
X165899909Y-200775989D01*
X166030146Y-200037383D01*
X167507357Y-200297855D01*
G36*
X167507357Y-200297855D02*
G01*
X167377121Y-201036461D01*
X165899909Y-200775989D01*
X166030146Y-200037383D01*
X167507357Y-200297855D01*
G37*
X167203473Y-202021269D02*
X167073237Y-202759874D01*
X165596025Y-202499402D01*
X165726261Y-201760796D01*
X167203473Y-202021269D01*
G36*
X167203473Y-202021269D02*
G01*
X167073237Y-202759874D01*
X165596025Y-202499402D01*
X165726261Y-201760796D01*
X167203473Y-202021269D01*
G37*
X94809093Y-172492828D02*
X93314801Y-172623561D01*
X93271223Y-172125464D01*
X93498483Y-171854626D01*
X94743726Y-171745682D01*
X94809093Y-172492828D01*
G36*
X94809093Y-172492828D02*
G01*
X93314801Y-172623561D01*
X93271223Y-172125464D01*
X93498483Y-171854626D01*
X94743726Y-171745682D01*
X94809093Y-172492828D01*
G37*
X94961615Y-174236168D02*
X93467323Y-174366902D01*
X93401957Y-173619756D01*
X94896249Y-173489022D01*
X94961615Y-174236168D01*
G36*
X94961615Y-174236168D02*
G01*
X93467323Y-174366902D01*
X93401957Y-173619756D01*
X94896249Y-173489022D01*
X94961615Y-174236168D01*
G37*
X99790066Y-172057049D02*
X98295774Y-172187783D01*
X98230407Y-171440637D01*
X99724700Y-171309903D01*
X99790066Y-172057049D01*
G36*
X99790066Y-172057049D02*
G01*
X98295774Y-172187783D01*
X98230407Y-171440637D01*
X99724700Y-171309903D01*
X99790066Y-172057049D01*
G37*
X99942589Y-173800390D02*
X98448297Y-173931123D01*
X98382930Y-173183977D01*
X99877222Y-173053244D01*
X99942589Y-173800390D01*
G36*
X99942589Y-173800390D02*
G01*
X98448297Y-173931123D01*
X98382930Y-173183977D01*
X99877222Y-173053244D01*
X99942589Y-173800390D01*
G37*
X96465048Y-191420520D02*
X94970756Y-191551253D01*
X94927178Y-191053156D01*
X95154438Y-190782318D01*
X96399681Y-190673374D01*
X96465048Y-191420520D01*
G36*
X96465048Y-191420520D02*
G01*
X94970756Y-191551253D01*
X94927178Y-191053156D01*
X95154438Y-190782318D01*
X96399681Y-190673374D01*
X96465048Y-191420520D01*
G37*
X96617570Y-193163860D02*
X95123278Y-193294594D01*
X95057912Y-192547448D01*
X96552204Y-192416714D01*
X96617570Y-193163860D01*
G36*
X96617570Y-193163860D02*
G01*
X95123278Y-193294594D01*
X95057912Y-192547448D01*
X96552204Y-192416714D01*
X96617570Y-193163860D01*
G37*
X101446021Y-190984741D02*
X99951729Y-191115475D01*
X99886362Y-190368329D01*
X101380655Y-190237595D01*
X101446021Y-190984741D01*
G36*
X101446021Y-190984741D02*
G01*
X99951729Y-191115475D01*
X99886362Y-190368329D01*
X101380655Y-190237595D01*
X101446021Y-190984741D01*
G37*
X101598544Y-192728082D02*
X100104252Y-192858815D01*
X100038885Y-192111669D01*
X101533177Y-191980936D01*
X101598544Y-192728082D01*
G36*
X101598544Y-192728082D02*
G01*
X100104252Y-192858815D01*
X100038885Y-192111669D01*
X101533177Y-191980936D01*
X101598544Y-192728082D01*
G37*
X153647134Y-160535151D02*
X152147134Y-160535151D01*
X152147134Y-160035151D01*
X152397134Y-159785151D01*
X153647134Y-159785151D01*
X153647134Y-160535151D01*
G36*
X153647134Y-160535151D02*
G01*
X152147134Y-160535151D01*
X152147134Y-160035151D01*
X152397134Y-159785151D01*
X153647134Y-159785151D01*
X153647134Y-160535151D01*
G37*
X153647134Y-162285151D02*
X152147134Y-162285151D01*
X152147134Y-161535151D01*
X153647134Y-161535151D01*
X153647134Y-162285151D01*
G36*
X153647134Y-162285151D02*
G01*
X152147134Y-162285151D01*
X152147134Y-161535151D01*
X153647134Y-161535151D01*
X153647134Y-162285151D01*
G37*
X158647134Y-160535151D02*
X157147134Y-160535151D01*
X157147134Y-159785151D01*
X158647134Y-159785151D01*
X158647134Y-160535151D01*
G36*
X158647134Y-160535151D02*
G01*
X157147134Y-160535151D01*
X157147134Y-159785151D01*
X158647134Y-159785151D01*
X158647134Y-160535151D01*
G37*
X158647134Y-162285151D02*
X157147134Y-162285151D01*
X157147134Y-161535151D01*
X158647134Y-161535151D01*
X158647134Y-162285151D01*
G36*
X158647134Y-162285151D02*
G01*
X157147134Y-162285151D01*
X157147134Y-161535151D01*
X158647134Y-161535151D01*
X158647134Y-162285151D01*
G37*
X134647127Y-169535153D02*
X133147127Y-169535153D01*
X133147127Y-169035153D01*
X133397127Y-168785153D01*
X134647127Y-168785153D01*
X134647127Y-169535153D01*
G36*
X134647127Y-169535153D02*
G01*
X133147127Y-169535153D01*
X133147127Y-169035153D01*
X133397127Y-168785153D01*
X134647127Y-168785153D01*
X134647127Y-169535153D01*
G37*
X134647127Y-171285153D02*
X133147127Y-171285153D01*
X133147127Y-170535153D01*
X134647127Y-170535153D01*
X134647127Y-171285153D01*
G36*
X134647127Y-171285153D02*
G01*
X133147127Y-171285153D01*
X133147127Y-170535153D01*
X134647127Y-170535153D01*
X134647127Y-171285153D01*
G37*
X139647127Y-169535153D02*
X138147127Y-169535153D01*
X138147127Y-168785153D01*
X139647127Y-168785153D01*
X139647127Y-169535153D01*
G36*
X139647127Y-169535153D02*
G01*
X138147127Y-169535153D01*
X138147127Y-168785153D01*
X139647127Y-168785153D01*
X139647127Y-169535153D01*
G37*
X139647127Y-171285153D02*
X138147127Y-171285153D01*
X138147127Y-170535153D01*
X139647127Y-170535153D01*
X139647127Y-171285153D01*
G36*
X139647127Y-171285153D02*
G01*
X138147127Y-171285153D01*
X138147127Y-170535153D01*
X139647127Y-170535153D01*
X139647127Y-171285153D01*
G37*
X202126261Y-214533425D02*
X201751261Y-215182944D01*
X200452222Y-214432944D01*
X200702222Y-213999931D01*
X201043729Y-213908425D01*
X202126261Y-214533425D01*
G36*
X202126261Y-214533425D02*
G01*
X201751261Y-215182944D01*
X200452222Y-214432944D01*
X200702222Y-213999931D01*
X201043729Y-213908425D01*
X202126261Y-214533425D01*
G37*
X201251261Y-216048969D02*
X200876261Y-216698488D01*
X199577222Y-215948488D01*
X199952222Y-215298969D01*
X201251261Y-216048969D01*
G36*
X201251261Y-216048969D02*
G01*
X200876261Y-216698488D01*
X199577222Y-215948488D01*
X199952222Y-215298969D01*
X201251261Y-216048969D01*
G37*
X206456388Y-217033425D02*
X206081388Y-217682944D01*
X204782349Y-216932944D01*
X205157349Y-216283425D01*
X206456388Y-217033425D01*
G36*
X206456388Y-217033425D02*
G01*
X206081388Y-217682944D01*
X204782349Y-216932944D01*
X205157349Y-216283425D01*
X206456388Y-217033425D01*
G37*
X205581388Y-218548969D02*
X205206388Y-219198488D01*
X203907349Y-218448488D01*
X204282349Y-217798969D01*
X205581388Y-218548969D01*
G36*
X205581388Y-218548969D02*
G01*
X205206388Y-219198488D01*
X203907349Y-218448488D01*
X204282349Y-217798969D01*
X205581388Y-218548969D01*
G37*
X172647130Y-143535152D02*
X171147130Y-143535152D01*
X171147130Y-143035152D01*
X171397130Y-142785152D01*
X172647130Y-142785152D01*
X172647130Y-143535152D01*
G36*
X172647130Y-143535152D02*
G01*
X171147130Y-143535152D01*
X171147130Y-143035152D01*
X171397130Y-142785152D01*
X172647130Y-142785152D01*
X172647130Y-143535152D01*
G37*
X172647130Y-145285152D02*
X171147130Y-145285152D01*
X171147130Y-144535152D01*
X172647130Y-144535152D01*
X172647130Y-145285152D01*
G36*
X172647130Y-145285152D02*
G01*
X171147130Y-145285152D01*
X171147130Y-144535152D01*
X172647130Y-144535152D01*
X172647130Y-145285152D01*
G37*
X177647130Y-143535152D02*
X176147130Y-143535152D01*
X176147130Y-142785152D01*
X177647130Y-142785152D01*
X177647130Y-143535152D01*
G36*
X177647130Y-143535152D02*
G01*
X176147130Y-143535152D01*
X176147130Y-142785152D01*
X177647130Y-142785152D01*
X177647130Y-143535152D01*
G37*
X177647130Y-145285152D02*
X176147130Y-145285152D01*
X176147130Y-144535152D01*
X177647130Y-144535152D01*
X177647130Y-145285152D01*
G36*
X177647130Y-145285152D02*
G01*
X176147130Y-145285152D01*
X176147130Y-144535152D01*
X177647130Y-144535152D01*
X177647130Y-145285152D01*
G37*
X134647128Y-131535158D02*
X133147128Y-131535158D01*
X133147128Y-131035158D01*
X133397128Y-130785158D01*
X134647128Y-130785158D01*
X134647128Y-131535158D01*
G36*
X134647128Y-131535158D02*
G01*
X133147128Y-131535158D01*
X133147128Y-131035158D01*
X133397128Y-130785158D01*
X134647128Y-130785158D01*
X134647128Y-131535158D01*
G37*
X134647128Y-133285158D02*
X133147128Y-133285158D01*
X133147128Y-132535158D01*
X134647128Y-132535158D01*
X134647128Y-133285158D01*
G36*
X134647128Y-133285158D02*
G01*
X133147128Y-133285158D01*
X133147128Y-132535158D01*
X134647128Y-132535158D01*
X134647128Y-133285158D01*
G37*
X139647128Y-131535158D02*
X138147128Y-131535158D01*
X138147128Y-130785158D01*
X139647128Y-130785158D01*
X139647128Y-131535158D01*
G36*
X139647128Y-131535158D02*
G01*
X138147128Y-131535158D01*
X138147128Y-130785158D01*
X139647128Y-130785158D01*
X139647128Y-131535158D01*
G37*
X139647128Y-133285158D02*
X138147128Y-133285158D01*
X138147128Y-132535158D01*
X139647128Y-132535158D01*
X139647128Y-133285158D01*
G36*
X139647128Y-133285158D02*
G01*
X138147128Y-133285158D01*
X138147128Y-132535158D01*
X139647128Y-132535158D01*
X139647128Y-133285158D01*
G37*
X172647129Y-181535150D02*
X171147129Y-181535150D01*
X171147129Y-181035150D01*
X171397129Y-180785150D01*
X172647129Y-180785150D01*
X172647129Y-181535150D01*
G36*
X172647129Y-181535150D02*
G01*
X171147129Y-181535150D01*
X171147129Y-181035150D01*
X171397129Y-180785150D01*
X172647129Y-180785150D01*
X172647129Y-181535150D01*
G37*
X172647129Y-183285150D02*
X171147129Y-183285150D01*
X171147129Y-182535150D01*
X172647129Y-182535150D01*
X172647129Y-183285150D01*
G36*
X172647129Y-183285150D02*
G01*
X171147129Y-183285150D01*
X171147129Y-182535150D01*
X172647129Y-182535150D01*
X172647129Y-183285150D01*
G37*
X177647129Y-181535150D02*
X176147129Y-181535150D01*
X176147129Y-180785150D01*
X177647129Y-180785150D01*
X177647129Y-181535150D01*
G36*
X177647129Y-181535150D02*
G01*
X176147129Y-181535150D01*
X176147129Y-180785150D01*
X177647129Y-180785150D01*
X177647129Y-181535150D01*
G37*
X177647129Y-183285150D02*
X176147129Y-183285150D01*
X176147129Y-182535150D01*
X177647129Y-182535150D01*
X177647129Y-183285150D01*
G36*
X177647129Y-183285150D02*
G01*
X176147129Y-183285150D01*
X176147129Y-182535150D01*
X177647129Y-182535150D01*
X177647129Y-183285150D01*
G37*
X75384615Y-168470473D02*
X73890323Y-168601206D01*
X73846745Y-168103109D01*
X74074005Y-167832271D01*
X75319248Y-167723327D01*
X75384615Y-168470473D01*
G36*
X75384615Y-168470473D02*
G01*
X73890323Y-168601206D01*
X73846745Y-168103109D01*
X74074005Y-167832271D01*
X75319248Y-167723327D01*
X75384615Y-168470473D01*
G37*
X75537137Y-170213813D02*
X74042845Y-170344547D01*
X73977479Y-169597401D01*
X75471771Y-169466667D01*
X75537137Y-170213813D01*
G36*
X75537137Y-170213813D02*
G01*
X74042845Y-170344547D01*
X73977479Y-169597401D01*
X75471771Y-169466667D01*
X75537137Y-170213813D01*
G37*
X80365588Y-168034694D02*
X78871296Y-168165428D01*
X78805929Y-167418282D01*
X80300222Y-167287548D01*
X80365588Y-168034694D01*
G36*
X80365588Y-168034694D02*
G01*
X78871296Y-168165428D01*
X78805929Y-167418282D01*
X80300222Y-167287548D01*
X80365588Y-168034694D01*
G37*
X80518111Y-169778035D02*
X79023819Y-169908768D01*
X78958452Y-169161622D01*
X80452744Y-169030889D01*
X80518111Y-169778035D01*
G36*
X80518111Y-169778035D02*
G01*
X79023819Y-169908768D01*
X78958452Y-169161622D01*
X80452744Y-169030889D01*
X80518111Y-169778035D01*
G37*
X172647137Y-162535155D02*
X171147137Y-162535155D01*
X171147137Y-162035155D01*
X171397137Y-161785155D01*
X172647137Y-161785155D01*
X172647137Y-162535155D01*
G36*
X172647137Y-162535155D02*
G01*
X171147137Y-162535155D01*
X171147137Y-162035155D01*
X171397137Y-161785155D01*
X172647137Y-161785155D01*
X172647137Y-162535155D01*
G37*
X172647137Y-164285155D02*
X171147137Y-164285155D01*
X171147137Y-163535155D01*
X172647137Y-163535155D01*
X172647137Y-164285155D01*
G36*
X172647137Y-164285155D02*
G01*
X171147137Y-164285155D01*
X171147137Y-163535155D01*
X172647137Y-163535155D01*
X172647137Y-164285155D01*
G37*
X177647137Y-162535155D02*
X176147137Y-162535155D01*
X176147137Y-161785155D01*
X177647137Y-161785155D01*
X177647137Y-162535155D01*
G36*
X177647137Y-162535155D02*
G01*
X176147137Y-162535155D01*
X176147137Y-161785155D01*
X177647137Y-161785155D01*
X177647137Y-162535155D01*
G37*
X177647137Y-164285155D02*
X176147137Y-164285155D01*
X176147137Y-163535155D01*
X177647137Y-163535155D01*
X177647137Y-164285155D01*
G36*
X177647137Y-164285155D02*
G01*
X176147137Y-164285155D01*
X176147137Y-163535155D01*
X177647137Y-163535155D01*
X177647137Y-164285155D01*
G37*
X153647133Y-179535154D02*
X152147133Y-179535154D01*
X152147133Y-179035154D01*
X152397133Y-178785154D01*
X153647133Y-178785154D01*
X153647133Y-179535154D01*
G36*
X153647133Y-179535154D02*
G01*
X152147133Y-179535154D01*
X152147133Y-179035154D01*
X152397133Y-178785154D01*
X153647133Y-178785154D01*
X153647133Y-179535154D01*
G37*
X153647133Y-181285154D02*
X152147133Y-181285154D01*
X152147133Y-180535154D01*
X153647133Y-180535154D01*
X153647133Y-181285154D01*
G36*
X153647133Y-181285154D02*
G01*
X152147133Y-181285154D01*
X152147133Y-180535154D01*
X153647133Y-180535154D01*
X153647133Y-181285154D01*
G37*
X158647133Y-179535154D02*
X157147133Y-179535154D01*
X157147133Y-178785154D01*
X158647133Y-178785154D01*
X158647133Y-179535154D01*
G36*
X158647133Y-179535154D02*
G01*
X157147133Y-179535154D01*
X157147133Y-178785154D01*
X158647133Y-178785154D01*
X158647133Y-179535154D01*
G37*
X158647133Y-181285154D02*
X157147133Y-181285154D01*
X157147133Y-180535154D01*
X158647133Y-180535154D01*
X158647133Y-181285154D01*
G36*
X158647133Y-181285154D02*
G01*
X157147133Y-181285154D01*
X157147133Y-180535154D01*
X158647133Y-180535154D01*
X158647133Y-181285154D01*
G37*
X115647125Y-141535154D02*
X114147125Y-141535154D01*
X114147125Y-141035154D01*
X114397125Y-140785154D01*
X115647125Y-140785154D01*
X115647125Y-141535154D01*
G36*
X115647125Y-141535154D02*
G01*
X114147125Y-141535154D01*
X114147125Y-141035154D01*
X114397125Y-140785154D01*
X115647125Y-140785154D01*
X115647125Y-141535154D01*
G37*
X115647125Y-143285154D02*
X114147125Y-143285154D01*
X114147125Y-142535154D01*
X115647125Y-142535154D01*
X115647125Y-143285154D01*
G36*
X115647125Y-143285154D02*
G01*
X114147125Y-143285154D01*
X114147125Y-142535154D01*
X115647125Y-142535154D01*
X115647125Y-143285154D01*
G37*
X120647125Y-141535154D02*
X119147125Y-141535154D01*
X119147125Y-140785154D01*
X120647125Y-140785154D01*
X120647125Y-141535154D01*
G36*
X120647125Y-141535154D02*
G01*
X119147125Y-141535154D01*
X119147125Y-140785154D01*
X120647125Y-140785154D01*
X120647125Y-141535154D01*
G37*
X120647125Y-143285154D02*
X119147125Y-143285154D01*
X119147125Y-142535154D01*
X120647125Y-142535154D01*
X120647125Y-143285154D01*
G36*
X120647125Y-143285154D02*
G01*
X119147125Y-143285154D01*
X119147125Y-142535154D01*
X120647125Y-142535154D01*
X120647125Y-143285154D01*
G37*
X153647134Y-141535157D02*
X152147134Y-141535157D01*
X152147134Y-141035157D01*
X152397134Y-140785157D01*
X153647134Y-140785157D01*
X153647134Y-141535157D01*
G36*
X153647134Y-141535157D02*
G01*
X152147134Y-141535157D01*
X152147134Y-141035157D01*
X152397134Y-140785157D01*
X153647134Y-140785157D01*
X153647134Y-141535157D01*
G37*
X153647134Y-143285157D02*
X152147134Y-143285157D01*
X152147134Y-142535157D01*
X153647134Y-142535157D01*
X153647134Y-143285157D01*
G36*
X153647134Y-143285157D02*
G01*
X152147134Y-143285157D01*
X152147134Y-142535157D01*
X153647134Y-142535157D01*
X153647134Y-143285157D01*
G37*
X158647134Y-141535157D02*
X157147134Y-141535157D01*
X157147134Y-140785157D01*
X158647134Y-140785157D01*
X158647134Y-141535157D01*
G36*
X158647134Y-141535157D02*
G01*
X157147134Y-141535157D01*
X157147134Y-140785157D01*
X158647134Y-140785157D01*
X158647134Y-141535157D01*
G37*
X158647134Y-143285157D02*
X157147134Y-143285157D01*
X157147134Y-142535157D01*
X158647134Y-142535157D01*
X158647134Y-143285157D01*
G36*
X158647134Y-143285157D02*
G01*
X157147134Y-143285157D01*
X157147134Y-142535157D01*
X158647134Y-142535157D01*
X158647134Y-143285157D01*
G37*
X134647136Y-150535148D02*
X133147136Y-150535148D01*
X133147136Y-150035148D01*
X133397136Y-149785148D01*
X134647136Y-149785148D01*
X134647136Y-150535148D01*
G36*
X134647136Y-150535148D02*
G01*
X133147136Y-150535148D01*
X133147136Y-150035148D01*
X133397136Y-149785148D01*
X134647136Y-149785148D01*
X134647136Y-150535148D01*
G37*
X134647136Y-152285148D02*
X133147136Y-152285148D01*
X133147136Y-151535148D01*
X134647136Y-151535148D01*
X134647136Y-152285148D01*
G36*
X134647136Y-152285148D02*
G01*
X133147136Y-152285148D01*
X133147136Y-151535148D01*
X134647136Y-151535148D01*
X134647136Y-152285148D01*
G37*
X139647136Y-150535148D02*
X138147136Y-150535148D01*
X138147136Y-149785148D01*
X139647136Y-149785148D01*
X139647136Y-150535148D01*
G36*
X139647136Y-150535148D02*
G01*
X138147136Y-150535148D01*
X138147136Y-149785148D01*
X139647136Y-149785148D01*
X139647136Y-150535148D01*
G37*
X139647136Y-152285148D02*
X138147136Y-152285148D01*
X138147136Y-151535148D01*
X139647136Y-151535148D01*
X139647136Y-152285148D01*
G36*
X139647136Y-152285148D02*
G01*
X138147136Y-152285148D01*
X138147136Y-151535148D01*
X139647136Y-151535148D01*
X139647136Y-152285148D01*
G37*
X115647140Y-179535150D02*
X114147140Y-179535150D01*
X114147140Y-179035150D01*
X114397140Y-178785150D01*
X115647140Y-178785150D01*
X115647140Y-179535150D01*
G36*
X115647140Y-179535150D02*
G01*
X114147140Y-179535150D01*
X114147140Y-179035150D01*
X114397140Y-178785150D01*
X115647140Y-178785150D01*
X115647140Y-179535150D01*
G37*
X115647140Y-181285150D02*
X114147140Y-181285150D01*
X114147140Y-180535150D01*
X115647140Y-180535150D01*
X115647140Y-181285150D01*
G36*
X115647140Y-181285150D02*
G01*
X114147140Y-181285150D01*
X114147140Y-180535150D01*
X115647140Y-180535150D01*
X115647140Y-181285150D01*
G37*
X120647140Y-179535150D02*
X119147140Y-179535150D01*
X119147140Y-178785150D01*
X120647140Y-178785150D01*
X120647140Y-179535150D01*
G36*
X120647140Y-179535150D02*
G01*
X119147140Y-179535150D01*
X119147140Y-178785150D01*
X120647140Y-178785150D01*
X120647140Y-179535150D01*
G37*
X120647140Y-181285150D02*
X119147140Y-181285150D01*
X119147140Y-180535150D01*
X120647140Y-180535150D01*
X120647140Y-181285150D01*
G36*
X120647140Y-181285150D02*
G01*
X119147140Y-181285150D01*
X119147140Y-180535150D01*
X120647140Y-180535150D01*
X120647140Y-181285150D01*
G37*
X182936187Y-205186334D02*
X182679672Y-205891103D01*
X181270133Y-205378073D01*
X181441143Y-204908227D01*
X181761571Y-204758809D01*
X182936187Y-205186334D01*
G36*
X182936187Y-205186334D02*
G01*
X182679672Y-205891103D01*
X181270133Y-205378073D01*
X181441143Y-204908227D01*
X181761571Y-204758809D01*
X182936187Y-205186334D01*
G37*
X182337652Y-206830796D02*
X182081137Y-207535565D01*
X180671598Y-207022535D01*
X180928113Y-206317766D01*
X182337652Y-206830796D01*
G36*
X182337652Y-206830796D02*
G01*
X182081137Y-207535565D01*
X180671598Y-207022535D01*
X180928113Y-206317766D01*
X182337652Y-206830796D01*
G37*
X187634650Y-206896434D02*
X187378135Y-207601204D01*
X185968596Y-207088174D01*
X186225111Y-206383404D01*
X187634650Y-206896434D01*
G36*
X187634650Y-206896434D02*
G01*
X187378135Y-207601204D01*
X185968596Y-207088174D01*
X186225111Y-206383404D01*
X187634650Y-206896434D01*
G37*
X187036115Y-208540897D02*
X186779600Y-209245666D01*
X185370061Y-208732636D01*
X185626576Y-208027866D01*
X187036115Y-208540897D01*
G36*
X187036115Y-208540897D02*
G01*
X186779600Y-209245666D01*
X185370061Y-208732636D01*
X185626576Y-208027866D01*
X187036115Y-208540897D01*
G37*
%TO.C,_1*%
X203493138Y-153863152D02*
X202477138Y-153863152D01*
X202477138Y-152847152D01*
X203493138Y-152847152D01*
X203493138Y-153863152D01*
G36*
X203493138Y-153863152D02*
G01*
X202477138Y-153863152D01*
X202477138Y-152847152D01*
X203493138Y-152847152D01*
X203493138Y-153863152D01*
G37*
X192317138Y-153863152D02*
X191301138Y-153863152D01*
X191301138Y-152847152D01*
X192317138Y-152847152D01*
X192317138Y-153863152D01*
G36*
X192317138Y-153863152D02*
G01*
X191301138Y-153863152D01*
X191301138Y-152847152D01*
X192317138Y-152847152D01*
X192317138Y-153863152D01*
G37*
X203493138Y-151323152D02*
X202477138Y-151323152D01*
X202477138Y-150307152D01*
X203493138Y-150307152D01*
X203493138Y-151323152D01*
G36*
X203493138Y-151323152D02*
G01*
X202477138Y-151323152D01*
X202477138Y-150307152D01*
X203493138Y-150307152D01*
X203493138Y-151323152D01*
G37*
X192317138Y-151323152D02*
X191301138Y-151323152D01*
X191301138Y-150307152D01*
X192317138Y-150307152D01*
X192317138Y-151323152D01*
G36*
X192317138Y-151323152D02*
G01*
X191301138Y-151323152D01*
X191301138Y-150307152D01*
X192317138Y-150307152D01*
X192317138Y-151323152D01*
G37*
X203493138Y-148783152D02*
X202477138Y-148783152D01*
X202477138Y-147767152D01*
X203493138Y-147767152D01*
X203493138Y-148783152D01*
G36*
X203493138Y-148783152D02*
G01*
X202477138Y-148783152D01*
X202477138Y-147767152D01*
X203493138Y-147767152D01*
X203493138Y-148783152D01*
G37*
X192317138Y-148783152D02*
X191301138Y-148783152D01*
X191301138Y-147767152D01*
X192317138Y-147767152D01*
X192317138Y-148783152D01*
G36*
X192317138Y-148783152D02*
G01*
X191301138Y-148783152D01*
X191301138Y-147767152D01*
X192317138Y-147767152D01*
X192317138Y-148783152D01*
G37*
X203493138Y-146243152D02*
X202477138Y-146243152D01*
X202477138Y-145227152D01*
X203493138Y-145227152D01*
X203493138Y-146243152D01*
G36*
X203493138Y-146243152D02*
G01*
X202477138Y-146243152D01*
X202477138Y-145227152D01*
X203493138Y-145227152D01*
X203493138Y-146243152D01*
G37*
X192317138Y-146243152D02*
X191301138Y-146243152D01*
X191301138Y-145227152D01*
X192317138Y-145227152D01*
X192317138Y-146243152D01*
G36*
X192317138Y-146243152D02*
G01*
X191301138Y-146243152D01*
X191301138Y-145227152D01*
X192317138Y-145227152D01*
X192317138Y-146243152D01*
G37*
X203493138Y-143703152D02*
X202477138Y-143703152D01*
X202477138Y-142687152D01*
X203493138Y-142687152D01*
X203493138Y-143703152D01*
G36*
X203493138Y-143703152D02*
G01*
X202477138Y-143703152D01*
X202477138Y-142687152D01*
X203493138Y-142687152D01*
X203493138Y-143703152D01*
G37*
X192317138Y-143703152D02*
X191301138Y-143703152D01*
X191301138Y-142687152D01*
X192317138Y-142687152D01*
X192317138Y-143703152D01*
G36*
X192317138Y-143703152D02*
G01*
X191301138Y-143703152D01*
X191301138Y-142687152D01*
X192317138Y-142687152D01*
X192317138Y-143703152D01*
G37*
X203493138Y-141163152D02*
X202477138Y-141163152D01*
X202477138Y-140147152D01*
X203493138Y-140147152D01*
X203493138Y-141163152D01*
G36*
X203493138Y-141163152D02*
G01*
X202477138Y-141163152D01*
X202477138Y-140147152D01*
X203493138Y-140147152D01*
X203493138Y-141163152D01*
G37*
X192317138Y-141163152D02*
X191301138Y-141163152D01*
X191301138Y-140147152D01*
X192317138Y-140147152D01*
X192317138Y-141163152D01*
G36*
X192317138Y-141163152D02*
G01*
X191301138Y-141163152D01*
X191301138Y-140147152D01*
X192317138Y-140147152D01*
X192317138Y-141163152D01*
G37*
X203493138Y-138623152D02*
X202477138Y-138623152D01*
X202477138Y-137607152D01*
X203493138Y-137607152D01*
X203493138Y-138623152D01*
G36*
X203493138Y-138623152D02*
G01*
X202477138Y-138623152D01*
X202477138Y-137607152D01*
X203493138Y-137607152D01*
X203493138Y-138623152D01*
G37*
X192317138Y-138623152D02*
X191301138Y-138623152D01*
X191301138Y-137607152D01*
X192317138Y-137607152D01*
X192317138Y-138623152D01*
G36*
X192317138Y-138623152D02*
G01*
X191301138Y-138623152D01*
X191301138Y-137607152D01*
X192317138Y-137607152D01*
X192317138Y-138623152D01*
G37*
X203493138Y-136083152D02*
X202477138Y-136083152D01*
X202477138Y-135067152D01*
X203493138Y-135067152D01*
X203493138Y-136083152D01*
G36*
X203493138Y-136083152D02*
G01*
X202477138Y-136083152D01*
X202477138Y-135067152D01*
X203493138Y-135067152D01*
X203493138Y-136083152D01*
G37*
X192317138Y-136083152D02*
X191301138Y-136083152D01*
X191301138Y-135067152D01*
X192317138Y-135067152D01*
X192317138Y-136083152D01*
G36*
X192317138Y-136083152D02*
G01*
X191301138Y-136083152D01*
X191301138Y-135067152D01*
X192317138Y-135067152D01*
X192317138Y-136083152D01*
G37*
X203493138Y-133543152D02*
X202477138Y-133543152D01*
X202477138Y-132527152D01*
X203493138Y-132527152D01*
X203493138Y-133543152D01*
G36*
X203493138Y-133543152D02*
G01*
X202477138Y-133543152D01*
X202477138Y-132527152D01*
X203493138Y-132527152D01*
X203493138Y-133543152D01*
G37*
X192317138Y-133543152D02*
X191301138Y-133543152D01*
X191301138Y-132527152D01*
X192317138Y-132527152D01*
X192317138Y-133543152D01*
G36*
X192317138Y-133543152D02*
G01*
X191301138Y-133543152D01*
X191301138Y-132527152D01*
X192317138Y-132527152D01*
X192317138Y-133543152D01*
G37*
X203493138Y-131003152D02*
X202477138Y-131003152D01*
X202477138Y-129987152D01*
X203493138Y-129987152D01*
X203493138Y-131003152D01*
G36*
X203493138Y-131003152D02*
G01*
X202477138Y-131003152D01*
X202477138Y-129987152D01*
X203493138Y-129987152D01*
X203493138Y-131003152D01*
G37*
X192317138Y-131003152D02*
X191301138Y-131003152D01*
X191301138Y-129987152D01*
X192317138Y-129987152D01*
X192317138Y-131003152D01*
G36*
X192317138Y-131003152D02*
G01*
X191301138Y-131003152D01*
X191301138Y-129987152D01*
X192317138Y-129987152D01*
X192317138Y-131003152D01*
G37*
X203493138Y-128463152D02*
X202477138Y-128463152D01*
X202477138Y-127447152D01*
X203493138Y-127447152D01*
X203493138Y-128463152D01*
G36*
X203493138Y-128463152D02*
G01*
X202477138Y-128463152D01*
X202477138Y-127447152D01*
X203493138Y-127447152D01*
X203493138Y-128463152D01*
G37*
X192317138Y-128463152D02*
X191301138Y-128463152D01*
X191301138Y-127447152D01*
X192317138Y-127447152D01*
X192317138Y-128463152D01*
G36*
X192317138Y-128463152D02*
G01*
X191301138Y-128463152D01*
X191301138Y-127447152D01*
X192317138Y-127447152D01*
X192317138Y-128463152D01*
G37*
X203493138Y-125923152D02*
X202477138Y-125923152D01*
X202477138Y-124907152D01*
X203493138Y-124907152D01*
X203493138Y-125923152D01*
G36*
X203493138Y-125923152D02*
G01*
X202477138Y-125923152D01*
X202477138Y-124907152D01*
X203493138Y-124907152D01*
X203493138Y-125923152D01*
G37*
X192317138Y-125923152D02*
X191301138Y-125923152D01*
X191301138Y-124907152D01*
X192317138Y-124907152D01*
X192317138Y-125923152D01*
G36*
X192317138Y-125923152D02*
G01*
X191301138Y-125923152D01*
X191301138Y-124907152D01*
X192317138Y-124907152D01*
X192317138Y-125923152D01*
G37*
D11*
X196760138Y-153355152D02*
G75*
G03*
X196760138Y-153355152I-125000J0D01*
G01*
X198284138Y-153355152D02*
G75*
G03*
X198284138Y-153355152I-125000J0D01*
G01*
X196760138Y-150815152D02*
G75*
G03*
X196760138Y-150815152I-125000J0D01*
G01*
X198284138Y-150815152D02*
G75*
G03*
X198284138Y-150815152I-125000J0D01*
G01*
X196760138Y-148275152D02*
G75*
G03*
X196760138Y-148275152I-125000J0D01*
G01*
X198284138Y-148275152D02*
G75*
G03*
X198284138Y-148275152I-125000J0D01*
G01*
X196760138Y-145735152D02*
G75*
G03*
X196760138Y-145735152I-125000J0D01*
G01*
X198284138Y-145735152D02*
G75*
G03*
X198284138Y-145735152I-125000J0D01*
G01*
X196760138Y-143195152D02*
G75*
G03*
X196760138Y-143195152I-125000J0D01*
G01*
X198284138Y-143195152D02*
G75*
G03*
X198284138Y-143195152I-125000J0D01*
G01*
X196760138Y-140655152D02*
G75*
G03*
X196760138Y-140655152I-125000J0D01*
G01*
X198284138Y-140655152D02*
G75*
G03*
X198284138Y-140655152I-125000J0D01*
G01*
X196760138Y-138115152D02*
G75*
G03*
X196760138Y-138115152I-125000J0D01*
G01*
X198284138Y-138115152D02*
G75*
G03*
X198284138Y-138115152I-125000J0D01*
G01*
X196760138Y-135575152D02*
G75*
G03*
X196760138Y-135575152I-125000J0D01*
G01*
X198284138Y-135575152D02*
G75*
G03*
X198284138Y-135575152I-125000J0D01*
G01*
X196760138Y-133035152D02*
G75*
G03*
X196760138Y-133035152I-125000J0D01*
G01*
X198284138Y-133035152D02*
G75*
G03*
X198284138Y-133035152I-125000J0D01*
G01*
X196760138Y-130495152D02*
G75*
G03*
X196760138Y-130495152I-125000J0D01*
G01*
X198284138Y-130495152D02*
G75*
G03*
X198284138Y-130495152I-125000J0D01*
G01*
X196760138Y-127955152D02*
G75*
G03*
X196760138Y-127955152I-125000J0D01*
G01*
X198284138Y-127955152D02*
G75*
G03*
X198284138Y-127955152I-125000J0D01*
G01*
X196760138Y-125415152D02*
G75*
G03*
X196760138Y-125415152I-125000J0D01*
G01*
X198284138Y-125415152D02*
G75*
G03*
X198284138Y-125415152I-125000J0D01*
G01*
%TO.C,L9*%
D10*
X115647138Y-160535149D02*
X114147138Y-160535149D01*
X114147138Y-160035149D01*
X114397138Y-159785149D01*
X115647138Y-159785149D01*
X115647138Y-160535149D01*
G36*
X115647138Y-160535149D02*
G01*
X114147138Y-160535149D01*
X114147138Y-160035149D01*
X114397138Y-159785149D01*
X115647138Y-159785149D01*
X115647138Y-160535149D01*
G37*
X115647138Y-162285149D02*
X114147138Y-162285149D01*
X114147138Y-161535149D01*
X115647138Y-161535149D01*
X115647138Y-162285149D01*
G36*
X115647138Y-162285149D02*
G01*
X114147138Y-162285149D01*
X114147138Y-161535149D01*
X115647138Y-161535149D01*
X115647138Y-162285149D01*
G37*
X120647138Y-160535149D02*
X119147138Y-160535149D01*
X119147138Y-159785149D01*
X120647138Y-159785149D01*
X120647138Y-160535149D01*
G36*
X120647138Y-160535149D02*
G01*
X119147138Y-160535149D01*
X119147138Y-159785149D01*
X120647138Y-159785149D01*
X120647138Y-160535149D01*
G37*
X120647138Y-162285149D02*
X119147138Y-162285149D01*
X119147138Y-161535149D01*
X120647138Y-161535149D01*
X120647138Y-162285149D01*
G36*
X120647138Y-162285149D02*
G01*
X119147138Y-162285149D01*
X119147138Y-161535149D01*
X120647138Y-161535149D01*
X120647138Y-162285149D01*
G37*
%TO.C,D20*%
G36*
X133032143Y-175540994D02*
G01*
X133215568Y-175543322D01*
X133387552Y-175547573D01*
X133540528Y-175553746D01*
X133666927Y-175561840D01*
X133759184Y-175571854D01*
X133810115Y-175579737D01*
X134246141Y-175661705D01*
X134695391Y-175770294D01*
X135146490Y-175901934D01*
X135588062Y-176053057D01*
X136008735Y-176220096D01*
X136397133Y-176399480D01*
X136674995Y-176544916D01*
X136979048Y-176716784D01*
X137286457Y-176902390D01*
X137588185Y-177095933D01*
X137875200Y-177291607D01*
X138138466Y-177483609D01*
X138368948Y-177666136D01*
X138386732Y-177680813D01*
X138454734Y-177735613D01*
X138523977Y-177789976D01*
X138555038Y-177814234D01*
X138700243Y-177933342D01*
X138868005Y-178078531D01*
X139052430Y-178244221D01*
X139247624Y-178424832D01*
X139447692Y-178614784D01*
X139646740Y-178808499D01*
X139838872Y-179000396D01*
X140018196Y-179184896D01*
X140178815Y-179356419D01*
X140353808Y-179554388D01*
X140607662Y-179864017D01*
X140871607Y-180211433D01*
X141146178Y-180597420D01*
X141431913Y-181022761D01*
X141729347Y-181488238D01*
X142039018Y-181994636D01*
X142361461Y-182542737D01*
X142362033Y-182543726D01*
X142449673Y-182700854D01*
X142549703Y-182889288D01*
X142657360Y-183099334D01*
X142767881Y-183321297D01*
X142876503Y-183545481D01*
X142978465Y-183762192D01*
X143069003Y-183961733D01*
X143143355Y-184134411D01*
X143149450Y-184149082D01*
X143197402Y-184263082D01*
X143258953Y-184407598D01*
X143330310Y-184573817D01*
X143407678Y-184752925D01*
X143487265Y-184936111D01*
X143565277Y-185114561D01*
X143567040Y-185118581D01*
X143661921Y-185335875D01*
X143740427Y-185518726D01*
X143804595Y-185673106D01*
X143856463Y-185804993D01*
X143898067Y-185920362D01*
X143931444Y-186025187D01*
X143958632Y-186125445D01*
X143981666Y-186227110D01*
X144002584Y-186336159D01*
X144023423Y-186458566D01*
X144033159Y-186516838D01*
X144055697Y-186644412D01*
X144077787Y-186760643D01*
X144097315Y-186854646D01*
X144112168Y-186915533D01*
X144123090Y-186954963D01*
X144138124Y-187017378D01*
X144144022Y-187054665D01*
X144142270Y-187066283D01*
X144122703Y-187084017D01*
X144110434Y-187072997D01*
X144089577Y-187028220D01*
X144061820Y-186947269D01*
X144026586Y-186828296D01*
X143983303Y-186669454D01*
X143931396Y-186468898D01*
X143915917Y-186407800D01*
X143895776Y-186329436D01*
X143877289Y-186262519D01*
X143858005Y-186201378D01*
X143835474Y-186140345D01*
X143807247Y-186073752D01*
X143770873Y-185995928D01*
X143723902Y-185901205D01*
X143663884Y-185783913D01*
X143588369Y-185638385D01*
X143494907Y-185458951D01*
X143445177Y-185362701D01*
X143352628Y-185180299D01*
X143257963Y-184990130D01*
X143166960Y-184803951D01*
X143085396Y-184633518D01*
X143019049Y-184490590D01*
X142900265Y-184230510D01*
X142785234Y-183982495D01*
X142680449Y-183760671D01*
X142587340Y-183567996D01*
X142507338Y-183407429D01*
X142441874Y-183281927D01*
X142392376Y-183194450D01*
X142350407Y-183125437D01*
X142348496Y-183396181D01*
X142348044Y-183430644D01*
X142341443Y-183581473D01*
X142328373Y-183719998D01*
X142310248Y-183830184D01*
X142291773Y-183900932D01*
X142252108Y-184024440D01*
X142200966Y-184164473D01*
X142143141Y-184309179D01*
X142083427Y-184446706D01*
X142026619Y-184565203D01*
X141977508Y-184652818D01*
X141971907Y-184661526D01*
X141788624Y-184909042D01*
X141571819Y-185139734D01*
X141331806Y-185342586D01*
X141257151Y-185400279D01*
X141176584Y-185470128D01*
X141102291Y-185546119D01*
X141024208Y-185638723D01*
X140932275Y-185758412D01*
X140924424Y-185768951D01*
X140838676Y-185888078D01*
X140750703Y-186016497D01*
X140670411Y-186139440D01*
X140607711Y-186242138D01*
X140565613Y-186312019D01*
X140508861Y-186394965D01*
X140464523Y-186446125D01*
X140434983Y-186464398D01*
X140422622Y-186448685D01*
X140429821Y-186397883D01*
X140458964Y-186310891D01*
X140477608Y-186256171D01*
X140508514Y-186146544D01*
X140544421Y-186001619D01*
X140584108Y-185826405D01*
X140626348Y-185625910D01*
X140633592Y-185591745D01*
X140665644Y-185457718D01*
X140703748Y-185316772D01*
X140741147Y-185194312D01*
X140758449Y-185144707D01*
X140801254Y-185042846D01*
X140854182Y-184947588D01*
X140923199Y-184850093D01*
X141014270Y-184741520D01*
X141133362Y-184613026D01*
X141167245Y-184576360D01*
X141231240Y-184496566D01*
X141281873Y-184412957D01*
X141321167Y-184318750D01*
X141351143Y-184207165D01*
X141373820Y-184071418D01*
X141391222Y-183904730D01*
X141405367Y-183700318D01*
X141421397Y-183468850D01*
X141443624Y-183249918D01*
X141472002Y-183067587D01*
X141508101Y-182917744D01*
X141553493Y-182796277D01*
X141609748Y-182699075D01*
X141678437Y-182622025D01*
X141761133Y-182561015D01*
X141859405Y-182511933D01*
X141918429Y-182488657D01*
X141961217Y-182478591D01*
X141980314Y-182489314D01*
X141984688Y-182521511D01*
X141967705Y-182562816D01*
X141914227Y-182604991D01*
X141868508Y-182632243D01*
X141766872Y-182711189D01*
X141681186Y-182802043D01*
X141624589Y-182891795D01*
X141615001Y-182915820D01*
X141586318Y-183018278D01*
X141560341Y-183157304D01*
X141537909Y-183326890D01*
X141519862Y-183521028D01*
X141507036Y-183733710D01*
X141504856Y-183780333D01*
X141493149Y-183974046D01*
X141476890Y-184132789D01*
X141453234Y-184264422D01*
X141419336Y-184376806D01*
X141372353Y-184477801D01*
X141309439Y-184575269D01*
X141227751Y-184677070D01*
X141124445Y-184791065D01*
X141067017Y-184853725D01*
X140965380Y-184975866D01*
X140884287Y-185094527D01*
X140819110Y-185219295D01*
X140765218Y-185359754D01*
X140717981Y-185525489D01*
X140672768Y-185726085D01*
X140663941Y-185767803D01*
X140639395Y-185876367D01*
X140614936Y-185975824D01*
X140594747Y-186048872D01*
X140585113Y-186080536D01*
X140567486Y-186144757D01*
X140565149Y-186172389D01*
X140579941Y-186162997D01*
X140613699Y-186116143D01*
X140668260Y-186031391D01*
X140778294Y-185863318D01*
X140908586Y-185683815D01*
X141037222Y-185530986D01*
X141171496Y-185396309D01*
X141318702Y-185271258D01*
X141331435Y-185261171D01*
X141425673Y-185183639D01*
X141511327Y-185108551D01*
X141579407Y-185044028D01*
X141620926Y-184998191D01*
X141634531Y-184980295D01*
X141692072Y-184908824D01*
X141746116Y-184846769D01*
X141767421Y-184823061D01*
X141844294Y-184723489D01*
X141919500Y-184601708D01*
X141997071Y-184450693D01*
X142081041Y-184263420D01*
X142121503Y-184164539D01*
X142215657Y-183885293D01*
X142272566Y-183621150D01*
X142293166Y-183366680D01*
X142278390Y-183116454D01*
X142278254Y-183115397D01*
X142265665Y-183035556D01*
X142247757Y-182965306D01*
X142219999Y-182892785D01*
X142177859Y-182806133D01*
X142116808Y-182693491D01*
X141970168Y-182434749D01*
X141781950Y-182114641D01*
X141582336Y-181786462D01*
X141376452Y-181458240D01*
X141169421Y-181138003D01*
X140966366Y-180833780D01*
X140772413Y-180553600D01*
X140592684Y-180305489D01*
X140562795Y-180265528D01*
X140389535Y-180040577D01*
X140214716Y-179826025D01*
X140030080Y-179612265D01*
X139827369Y-179389691D01*
X139598324Y-179148695D01*
X139276297Y-178815564D01*
X139144559Y-178928953D01*
X139113443Y-178954999D01*
X138960556Y-179068322D01*
X138777774Y-179184548D01*
X138575690Y-179296824D01*
X138524859Y-179324666D01*
X138388910Y-179417077D01*
X138285680Y-179516950D01*
X138221014Y-179618974D01*
X138196410Y-179683463D01*
X138154661Y-179824178D01*
X138115505Y-179993516D01*
X138080924Y-180181412D01*
X138052897Y-180377803D01*
X138033404Y-180572623D01*
X138010610Y-180788193D01*
X137943880Y-181146804D01*
X137843686Y-181488908D01*
X137711969Y-181808375D01*
X137550666Y-182099074D01*
X137538386Y-182118610D01*
X137491294Y-182198262D01*
X137438603Y-182293234D01*
X137382689Y-182398541D01*
X137325927Y-182509201D01*
X137270693Y-182620229D01*
X137219364Y-182726641D01*
X137174314Y-182823452D01*
X137137920Y-182905680D01*
X137112558Y-182968340D01*
X137100603Y-183006448D01*
X137104431Y-183015020D01*
X137126418Y-182989071D01*
X137166836Y-182933909D01*
X137244387Y-182834069D01*
X137331459Y-182727365D01*
X137420786Y-182622277D01*
X137505103Y-182527289D01*
X137577145Y-182450884D01*
X137629646Y-182401544D01*
X137637593Y-182394914D01*
X137706042Y-182331230D01*
X137784007Y-182250240D01*
X137856123Y-182167802D01*
X137856871Y-182166892D01*
X137935233Y-182072553D01*
X138023417Y-181967713D01*
X138102477Y-181874902D01*
X138120503Y-181853898D01*
X138181053Y-181782791D01*
X138231289Y-181722993D01*
X138261800Y-181685682D01*
X138264489Y-181682304D01*
X138299515Y-181641093D01*
X138353035Y-181580654D01*
X138414606Y-181512802D01*
X138485002Y-181425353D01*
X138585886Y-181259318D01*
X138678579Y-181056533D01*
X138761361Y-180821485D01*
X138832511Y-180558657D01*
X138890309Y-180272537D01*
X138892140Y-180261833D01*
X138910466Y-180157360D01*
X138926521Y-180070383D01*
X138938632Y-180009711D01*
X138945124Y-179984152D01*
X138949716Y-179961931D01*
X138957682Y-179903647D01*
X138967599Y-179818931D01*
X138978306Y-179717127D01*
X138990029Y-179614998D01*
X139009491Y-179485196D01*
X139031542Y-179372283D01*
X139054591Y-179283127D01*
X139077046Y-179224597D01*
X139097316Y-179203561D01*
X139101801Y-179205401D01*
X139108890Y-179236252D01*
X139103128Y-179298171D01*
X139098761Y-179324352D01*
X139083580Y-179414686D01*
X139068430Y-179504087D01*
X139060430Y-179563524D01*
X139051830Y-179664228D01*
X139047838Y-179763235D01*
X139047259Y-179790560D01*
X139037853Y-179936956D01*
X139018764Y-180110818D01*
X138991930Y-180299531D01*
X138959286Y-180490480D01*
X138922769Y-180671051D01*
X138884315Y-180828627D01*
X138854348Y-180932634D01*
X138784823Y-181132538D01*
X138706361Y-181301036D01*
X138614428Y-181447095D01*
X138504489Y-181579682D01*
X138485944Y-181599652D01*
X138408141Y-181685749D01*
X138333270Y-181771688D01*
X138275302Y-181841510D01*
X138217133Y-181912780D01*
X138084638Y-182064465D01*
X137924079Y-182236042D01*
X137731968Y-182431298D01*
X137634870Y-182529621D01*
X137455661Y-182721265D01*
X137309193Y-182893258D01*
X137197641Y-183043111D01*
X137163810Y-183092077D01*
X137119453Y-183153440D01*
X137088242Y-183193257D01*
X137083750Y-183198770D01*
X137053179Y-183243533D01*
X137010952Y-183312218D01*
X136964793Y-183392367D01*
X136951905Y-183415081D01*
X136908057Y-183486586D01*
X136871097Y-183538653D01*
X136847933Y-183561293D01*
X136820860Y-183560421D01*
X136808957Y-183528298D01*
X136820094Y-183466121D01*
X136854127Y-183378219D01*
X136855949Y-183374202D01*
X136886690Y-183300683D01*
X136926130Y-183198785D01*
X136969382Y-183081435D01*
X137011562Y-182961564D01*
X137084376Y-182763142D01*
X137230173Y-182434537D01*
X137405996Y-182116445D01*
X137559518Y-181839453D01*
X137701171Y-181517620D01*
X137809331Y-181182486D01*
X137886376Y-180826524D01*
X137934681Y-180442209D01*
X137939414Y-180392340D01*
X137967659Y-180180358D01*
X138007762Y-179967410D01*
X138056559Y-179768638D01*
X138110885Y-179599183D01*
X138136402Y-179542584D01*
X138226706Y-179417343D01*
X138359948Y-179301237D01*
X138535581Y-179194789D01*
X138549645Y-179187473D01*
X138696815Y-179104672D01*
X138845043Y-179011328D01*
X138980291Y-178916700D01*
X139088525Y-178830047D01*
X139186489Y-178743469D01*
X139010610Y-178576312D01*
X138954159Y-178523087D01*
X138656262Y-178254022D01*
X138332169Y-177978674D01*
X137993940Y-177706789D01*
X137653631Y-177448115D01*
X137323302Y-177212399D01*
X137283412Y-177185566D01*
X137226934Y-177152196D01*
X137194899Y-177142922D01*
X137180619Y-177155054D01*
X137180105Y-177156501D01*
X137140461Y-177221558D01*
X137068726Y-177297441D01*
X136973302Y-177377119D01*
X136862589Y-177453558D01*
X136744989Y-177519726D01*
X136679856Y-177551753D01*
X136603157Y-177588566D01*
X136548457Y-177613710D01*
X136524643Y-177623017D01*
X136499855Y-177630990D01*
X136444337Y-177654865D01*
X136369218Y-177689693D01*
X136284877Y-177730449D01*
X136201697Y-177772109D01*
X136130060Y-177809649D01*
X136080345Y-177838045D01*
X136046563Y-177857014D01*
X135970013Y-177894485D01*
X135873762Y-177937608D01*
X135770940Y-177980344D01*
X135646666Y-178030532D01*
X135548558Y-178072570D01*
X135473909Y-178108783D01*
X135413380Y-178144134D01*
X135357630Y-178183589D01*
X135297319Y-178232112D01*
X135199874Y-178327889D01*
X135083405Y-178494418D01*
X134990149Y-178698773D01*
X134920160Y-178940825D01*
X134873496Y-179220444D01*
X134860414Y-179317664D01*
X134829215Y-179494916D01*
X134789861Y-179671757D01*
X134745169Y-179837187D01*
X134697953Y-179980206D01*
X134651028Y-180089811D01*
X134648528Y-180094530D01*
X134610286Y-180154673D01*
X134548693Y-180239774D01*
X134469597Y-180342531D01*
X134378844Y-180455644D01*
X134282279Y-180571811D01*
X134185749Y-180683732D01*
X134095099Y-180784104D01*
X134041845Y-180845501D01*
X133971946Y-180934023D01*
X133909355Y-181020727D01*
X133854362Y-181093155D01*
X133776287Y-181179969D01*
X133701617Y-181248904D01*
X133665655Y-181278905D01*
X133624856Y-181319397D01*
X133614373Y-181340408D01*
X133635021Y-181338385D01*
X133687618Y-181309773D01*
X133730603Y-181286700D01*
X133800888Y-181253349D01*
X133881620Y-181217881D01*
X133959363Y-181185071D01*
X134037857Y-181151909D01*
X134093101Y-181128530D01*
X134112456Y-181120385D01*
X134177396Y-181093348D01*
X134263918Y-181057551D01*
X134358700Y-181018511D01*
X134388685Y-181006189D01*
X134475495Y-180969794D01*
X134540029Y-180939448D01*
X134593372Y-180907995D01*
X134646604Y-180868278D01*
X134710808Y-180813140D01*
X134797068Y-180735424D01*
X134833848Y-180702508D01*
X134917420Y-180629999D01*
X134994293Y-180566043D01*
X135051518Y-180521527D01*
X135096509Y-180487072D01*
X135221108Y-180368127D01*
X135334248Y-180221056D01*
X135438417Y-180041768D01*
X135536102Y-179826169D01*
X135629791Y-179570166D01*
X135641788Y-179534531D01*
X135763951Y-179207862D01*
X135896338Y-178915340D01*
X136037567Y-178659496D01*
X136186254Y-178442862D01*
X136341016Y-178267971D01*
X136378237Y-178230549D01*
X136469412Y-178131125D01*
X136556738Y-178026749D01*
X136625491Y-177934674D01*
X136667819Y-177874562D01*
X136746025Y-177772632D01*
X136824618Y-177680059D01*
X136899073Y-177601212D01*
X136964862Y-177540461D01*
X137017459Y-177502175D01*
X137052336Y-177490724D01*
X137064968Y-177510477D01*
X137050433Y-177533253D01*
X137010107Y-177575521D01*
X136953037Y-177627348D01*
X136933127Y-177645402D01*
X136863521Y-177718544D01*
X136788290Y-177808996D01*
X136720565Y-177901282D01*
X136704756Y-177924119D01*
X136627447Y-178026521D01*
X136541566Y-178129180D01*
X136462950Y-178212939D01*
X136454534Y-178221195D01*
X136375985Y-178302547D01*
X136299253Y-178388362D01*
X136239845Y-178461374D01*
X136209517Y-178504375D01*
X136143264Y-178609648D01*
X136070654Y-178736213D01*
X135998705Y-178871156D01*
X135934438Y-179001562D01*
X135884871Y-179114516D01*
X135863408Y-179167964D01*
X135835459Y-179236602D01*
X135816708Y-179281475D01*
X135813019Y-179290718D01*
X135794976Y-179340834D01*
X135767353Y-179421059D01*
X135733188Y-179522503D01*
X135695515Y-179636280D01*
X135652000Y-179765763D01*
X135595179Y-179920661D01*
X135538132Y-180052963D01*
X135475922Y-180169869D01*
X135403615Y-180278580D01*
X135316276Y-180386294D01*
X135208970Y-180500214D01*
X135076762Y-180627538D01*
X134914716Y-180775468D01*
X134886561Y-180800682D01*
X134778495Y-180894264D01*
X134688605Y-180964641D01*
X134606393Y-181018899D01*
X134521364Y-181064124D01*
X134423018Y-181107403D01*
X134251891Y-181178168D01*
X134107588Y-181238819D01*
X133982497Y-181292905D01*
X133865446Y-181345445D01*
X133745262Y-181401455D01*
X133610773Y-181465950D01*
X133450808Y-181543948D01*
X133421116Y-181558278D01*
X133341004Y-181592844D01*
X133291113Y-181604729D01*
X133265522Y-181594511D01*
X133258307Y-181562771D01*
X133258896Y-181558496D01*
X133281120Y-181519254D01*
X133333353Y-181454701D01*
X133412674Y-181368234D01*
X133516159Y-181263249D01*
X133555928Y-181223538D01*
X133655624Y-181120462D01*
X133750476Y-181017920D01*
X133831331Y-180925947D01*
X133889033Y-180854576D01*
X133936861Y-180793065D01*
X134016247Y-180696502D01*
X134105350Y-180592541D01*
X134192414Y-180495111D01*
X134197743Y-180489299D01*
X134319481Y-180354307D01*
X134414601Y-180242469D01*
X134488073Y-180146057D01*
X134544862Y-180057343D01*
X134589937Y-179968596D01*
X134628265Y-179872088D01*
X134664814Y-179760090D01*
X134680529Y-179708257D01*
X134710866Y-179603918D01*
X134733115Y-179516591D01*
X134750563Y-179430964D01*
X134766492Y-179331724D01*
X134784188Y-179203561D01*
X134793517Y-179134818D01*
X134810841Y-179020138D01*
X134828853Y-178927698D01*
X134851175Y-178842706D01*
X134881430Y-178750370D01*
X134923241Y-178635901D01*
X134990858Y-178480165D01*
X135099834Y-178304393D01*
X135235018Y-178160239D01*
X135401505Y-178042546D01*
X135604391Y-177946154D01*
X135610784Y-177943627D01*
X135707296Y-177902780D01*
X135827271Y-177848389D01*
X135956050Y-177787245D01*
X136078978Y-177726146D01*
X136205695Y-177662297D01*
X136349836Y-177591184D01*
X136490068Y-177523310D01*
X136608614Y-177467362D01*
X136728355Y-177409140D01*
X136826590Y-177353063D01*
X136906794Y-177295256D01*
X136981489Y-177227669D01*
X136999112Y-177210103D01*
X137055347Y-177151553D01*
X137094683Y-177106668D01*
X137109490Y-177084012D01*
X137097462Y-177067522D01*
X137051371Y-177030452D01*
X136975849Y-176978189D01*
X136876332Y-176914016D01*
X136758260Y-176841213D01*
X136627068Y-176763064D01*
X136488195Y-176682848D01*
X136347078Y-176603848D01*
X136209154Y-176529345D01*
X136079861Y-176462621D01*
X135819191Y-176339887D01*
X135515754Y-176211869D01*
X135192356Y-176088299D01*
X134861423Y-175973691D01*
X134535385Y-175872560D01*
X134226668Y-175789420D01*
X134093432Y-175757314D01*
X133938579Y-175722608D01*
X133801149Y-175696065D01*
X133666537Y-175675217D01*
X133520139Y-175657593D01*
X133347352Y-175640724D01*
X133281032Y-175635849D01*
X133169294Y-175630547D01*
X133038595Y-175626701D01*
X132895987Y-175624285D01*
X132748522Y-175623271D01*
X132603252Y-175623635D01*
X132467228Y-175625349D01*
X132347503Y-175628387D01*
X132251127Y-175632723D01*
X132185154Y-175638330D01*
X132156634Y-175645182D01*
X132153895Y-175650066D01*
X132139919Y-175689630D01*
X132118276Y-175761222D01*
X132091360Y-175856713D01*
X132061567Y-175967969D01*
X131980993Y-176276216D01*
X131979642Y-176821615D01*
X131979898Y-176969154D01*
X131984302Y-177229120D01*
X131994655Y-177472274D01*
X132011921Y-177713674D01*
X132037062Y-177968383D01*
X132071041Y-178251461D01*
X132088035Y-178427709D01*
X132095061Y-178673571D01*
X132083685Y-178910759D01*
X132054218Y-179123202D01*
X132034921Y-179203373D01*
X132006908Y-179287908D01*
X131975927Y-179359208D01*
X131945269Y-179412607D01*
X131918223Y-179443436D01*
X131898080Y-179447027D01*
X131888130Y-179418712D01*
X131891664Y-179353824D01*
X131892642Y-179300596D01*
X131884814Y-179208502D01*
X131869292Y-179093242D01*
X131848006Y-178965429D01*
X131822886Y-178835673D01*
X131795861Y-178714587D01*
X131768863Y-178612783D01*
X131743819Y-178540873D01*
X131742898Y-178538733D01*
X131724967Y-178478591D01*
X131712368Y-178402685D01*
X131705666Y-178322921D01*
X131705430Y-178251206D01*
X131712226Y-178199446D01*
X131726620Y-178179547D01*
X131741813Y-178191433D01*
X131756714Y-178233583D01*
X131763195Y-178290370D01*
X131758056Y-178344957D01*
X131755786Y-178363716D01*
X131766393Y-178434539D01*
X131799345Y-178528611D01*
X131808802Y-178552956D01*
X131837307Y-178644209D01*
X131867478Y-178761126D01*
X131896408Y-178890170D01*
X131921189Y-179017804D01*
X131938916Y-179130490D01*
X131946679Y-179214691D01*
X131948530Y-179281475D01*
X131977154Y-179214691D01*
X131979172Y-179209797D01*
X132000914Y-179133736D01*
X132020404Y-179026772D01*
X132036308Y-178901398D01*
X132047294Y-178770103D01*
X132052029Y-178645379D01*
X132049180Y-178539717D01*
X132042124Y-178457083D01*
X132030935Y-178339214D01*
X132017636Y-178207951D01*
X132003810Y-178079372D01*
X132002881Y-178071017D01*
X131978105Y-177842956D01*
X131958674Y-177649949D01*
X131944078Y-177483208D01*
X131933805Y-177333948D01*
X131927346Y-177193384D01*
X131924189Y-177052729D01*
X131923824Y-176903197D01*
X131925741Y-176736003D01*
X131933767Y-176238559D01*
X131822462Y-176359797D01*
X131786791Y-176400867D01*
X131727835Y-176483344D01*
X131673860Y-176582857D01*
X131617221Y-176712543D01*
X131565371Y-176851636D01*
X131524324Y-177003446D01*
X131506175Y-177149874D01*
X131509228Y-177306316D01*
X131531787Y-177488167D01*
X131533227Y-177497202D01*
X131554448Y-177622770D01*
X131572370Y-177709386D01*
X131587799Y-177756262D01*
X131601541Y-177762613D01*
X131614399Y-177727650D01*
X131627180Y-177650587D01*
X131640688Y-177530638D01*
X131655729Y-177367014D01*
X131668415Y-177237720D01*
X131688087Y-177084123D01*
X131709990Y-176956676D01*
X131733160Y-176859965D01*
X131756637Y-176798575D01*
X131779458Y-176777093D01*
X131779502Y-176777093D01*
X131801382Y-176778283D01*
X131808711Y-176789082D01*
X131801533Y-176820328D01*
X131779894Y-176882859D01*
X131771460Y-176908697D01*
X131761442Y-176946949D01*
X131751558Y-176996148D01*
X131741004Y-177061848D01*
X131728977Y-177149605D01*
X131714672Y-177264971D01*
X131697287Y-177413504D01*
X131676017Y-177600756D01*
X131671439Y-177641340D01*
X131659197Y-177749391D01*
X131647998Y-177847638D01*
X131639802Y-177918861D01*
X131635846Y-177946716D01*
X131619602Y-178002047D01*
X131599806Y-178014208D01*
X131580160Y-177983602D01*
X131564365Y-177910633D01*
X131561248Y-177889845D01*
X131545512Y-177813859D01*
X131527358Y-177754700D01*
X131518149Y-177725082D01*
X131501890Y-177654982D01*
X131483655Y-177561634D01*
X131465926Y-177457067D01*
X131445929Y-177301199D01*
X131440252Y-177147632D01*
X131454505Y-177004810D01*
X131490415Y-176856894D01*
X131549706Y-176688048D01*
X131594791Y-176573601D01*
X131634032Y-176481573D01*
X131669485Y-176411618D01*
X131707043Y-176353487D01*
X131752598Y-176296929D01*
X131812041Y-176231694D01*
X131818856Y-176224343D01*
X131904717Y-176112972D01*
X131966256Y-175987930D01*
X132010943Y-175834291D01*
X132016189Y-175811572D01*
X132033032Y-175745646D01*
X132046701Y-175701212D01*
X132049843Y-175681161D01*
X132032925Y-175666877D01*
X131987748Y-175666756D01*
X131909714Y-175680949D01*
X131794226Y-175709611D01*
X131514783Y-175789366D01*
X131252568Y-175878447D01*
X131011200Y-175977712D01*
X130778539Y-176092178D01*
X130542444Y-176226861D01*
X130488008Y-176260117D01*
X130388932Y-176323518D01*
X130321332Y-176372950D01*
X130279774Y-176413281D01*
X130258824Y-176449379D01*
X130253049Y-176486112D01*
X130236419Y-176581256D01*
X130187186Y-176689921D01*
X130111541Y-176794285D01*
X130052916Y-176867817D01*
X129982572Y-176967488D01*
X129910635Y-177078023D01*
X129846526Y-177184939D01*
X129799664Y-177273754D01*
X129780134Y-177325201D01*
X129755657Y-177412897D01*
X129737168Y-177504808D01*
X129724550Y-177573422D01*
X129699322Y-177681403D01*
X129672069Y-177774077D01*
X129651805Y-177842224D01*
X129633206Y-177964744D01*
X129637404Y-178098634D01*
X129664176Y-178257461D01*
X129678156Y-178343417D01*
X129688571Y-178461497D01*
X129693120Y-178590006D01*
X129691936Y-178718012D01*
X129685151Y-178834589D01*
X129672899Y-178928806D01*
X129655310Y-178989734D01*
X129655273Y-178989808D01*
X129646404Y-179008954D01*
X129639583Y-179029846D01*
X129634870Y-179057228D01*
X129632324Y-179095845D01*
X129632005Y-179150442D01*
X129633975Y-179225763D01*
X129638292Y-179326553D01*
X129645016Y-179457557D01*
X129654209Y-179623518D01*
X129665929Y-179829182D01*
X129668184Y-179871687D01*
X129672125Y-180018682D01*
X129667516Y-180122826D01*
X129654296Y-180184806D01*
X129632404Y-180205314D01*
X129623023Y-180192500D01*
X129610921Y-180146039D01*
X129601374Y-180077312D01*
X129590575Y-180011977D01*
X129560422Y-179903117D01*
X129519205Y-179796971D01*
X129513555Y-179784543D01*
X129482073Y-179710428D01*
X129461499Y-179653478D01*
X129456049Y-179625160D01*
X129467490Y-179612488D01*
X129492653Y-179630672D01*
X129527394Y-179687999D01*
X129570176Y-179782351D01*
X129629895Y-179927049D01*
X129613120Y-179693307D01*
X129611482Y-179668973D01*
X129605823Y-179551679D01*
X129602281Y-179418788D01*
X129600748Y-179277812D01*
X129601117Y-179136264D01*
X129603278Y-179001658D01*
X129607124Y-178881505D01*
X129612545Y-178783318D01*
X129619435Y-178714611D01*
X129627684Y-178682896D01*
X129633291Y-178672540D01*
X129642342Y-178618471D01*
X129642718Y-178534466D01*
X129635034Y-178430449D01*
X129619903Y-178316343D01*
X129597939Y-178202071D01*
X129592948Y-178178526D01*
X129574426Y-178032698D01*
X129572887Y-177880881D01*
X129587766Y-177739009D01*
X129618497Y-177623017D01*
X129624521Y-177606492D01*
X129646812Y-177526621D01*
X129662467Y-177443410D01*
X129673548Y-177387894D01*
X129715061Y-177266241D01*
X129778697Y-177129952D01*
X129858460Y-176990070D01*
X129948354Y-176857639D01*
X130042382Y-176743701D01*
X130058184Y-176725617D01*
X130102539Y-176665471D01*
X130145221Y-176596875D01*
X130180134Y-176530964D01*
X130201178Y-176478875D01*
X130202255Y-176451745D01*
X130200188Y-176451069D01*
X130173067Y-176462297D01*
X130126501Y-176490853D01*
X130073089Y-176528060D01*
X130025428Y-176565241D01*
X129996118Y-176593719D01*
X129972086Y-176630940D01*
X129928739Y-176709290D01*
X129875347Y-176813710D01*
X129815885Y-176935699D01*
X129754330Y-177066759D01*
X129694657Y-177198390D01*
X129640841Y-177322091D01*
X129596860Y-177429365D01*
X129566690Y-177511712D01*
X129558224Y-177538374D01*
X129543460Y-177592986D01*
X129533206Y-177649796D01*
X129526821Y-177717266D01*
X129523661Y-177803856D01*
X129523085Y-177918027D01*
X129524451Y-178068241D01*
X129529561Y-178480073D01*
X129438107Y-178713815D01*
X129411484Y-178780300D01*
X129361061Y-178900238D01*
X129310711Y-179013831D01*
X129268154Y-179103386D01*
X129253295Y-179133211D01*
X129187341Y-179278505D01*
X129140235Y-179412862D01*
X129108655Y-179550060D01*
X129089273Y-179703878D01*
X129078764Y-179888092D01*
X129076372Y-179948532D01*
X129068604Y-180074851D01*
X129058101Y-180158278D01*
X129044274Y-180199961D01*
X129026533Y-180201046D01*
X129004288Y-180162682D01*
X128976948Y-180086014D01*
X128976551Y-180084753D01*
X128960982Y-180030597D01*
X128946850Y-179969521D01*
X128932901Y-179894058D01*
X128917879Y-179796739D01*
X128900529Y-179670097D01*
X128879598Y-179506665D01*
X128874232Y-179471416D01*
X128855645Y-179412111D01*
X128827259Y-179387819D01*
X128812066Y-179378599D01*
X128779792Y-179328773D01*
X128747234Y-179240544D01*
X128734234Y-179192198D01*
X128723850Y-179137768D01*
X128716292Y-179072571D01*
X128711147Y-178989858D01*
X128708000Y-178882877D01*
X128706436Y-178744880D01*
X128706043Y-178569117D01*
X128706974Y-178366359D01*
X128709903Y-178199993D01*
X128715111Y-178071441D01*
X128722876Y-177977327D01*
X128733481Y-177914280D01*
X128747204Y-177878926D01*
X128764328Y-177867890D01*
X128777008Y-177883803D01*
X128774687Y-177929109D01*
X128774521Y-177929926D01*
X128767807Y-177984023D01*
X128762037Y-178069509D01*
X128757317Y-178177954D01*
X128753755Y-178300928D01*
X128751458Y-178430000D01*
X128750534Y-178556741D01*
X128751089Y-178672721D01*
X128753230Y-178769510D01*
X128757065Y-178838677D01*
X128762701Y-178871793D01*
X128764561Y-178875790D01*
X128776843Y-178922500D01*
X128788919Y-178997160D01*
X128798418Y-179085582D01*
X128800371Y-179108431D01*
X128811290Y-179208074D01*
X128822553Y-179274180D01*
X128832856Y-179304640D01*
X128840896Y-179297340D01*
X128845370Y-179250171D01*
X128844976Y-179161020D01*
X128844862Y-179157063D01*
X128844739Y-179052577D01*
X128851636Y-178989388D01*
X128865831Y-178964866D01*
X128875578Y-178968869D01*
X128886557Y-179002964D01*
X128894563Y-179073898D01*
X128900192Y-179185496D01*
X128902267Y-179230119D01*
X128909775Y-179335221D01*
X128920894Y-179454977D01*
X128934563Y-179580959D01*
X128949718Y-179704735D01*
X128965298Y-179817875D01*
X128980240Y-179911948D01*
X128993484Y-179978524D01*
X129003965Y-180009173D01*
X129007851Y-180004776D01*
X129013246Y-179966793D01*
X129017291Y-179898580D01*
X129019321Y-179808823D01*
X129031816Y-179609446D01*
X129079938Y-179372744D01*
X129167238Y-179137658D01*
X129192898Y-179080061D01*
X129237726Y-178977652D01*
X129287941Y-178861470D01*
X129336730Y-178747207D01*
X129440516Y-178502334D01*
X129435008Y-178059427D01*
X129434738Y-178037428D01*
X129433327Y-177888659D01*
X129433616Y-177775109D01*
X129436254Y-177688537D01*
X129441892Y-177620704D01*
X129451178Y-177563371D01*
X129464765Y-177508297D01*
X129483300Y-177447245D01*
X129523487Y-177330357D01*
X129618752Y-177096061D01*
X129740670Y-176838311D01*
X129769879Y-176775070D01*
X129786391Y-176728213D01*
X129785458Y-176710309D01*
X129779526Y-176711179D01*
X129752172Y-176732570D01*
X129747628Y-176738551D01*
X129715404Y-176754832D01*
X129714118Y-176754579D01*
X129719791Y-176736280D01*
X129749700Y-176694728D01*
X129798156Y-176637960D01*
X129853590Y-176573733D01*
X129909349Y-176503221D01*
X129947115Y-176448741D01*
X129948858Y-176445887D01*
X129986165Y-176403255D01*
X130027556Y-176378565D01*
X130061124Y-176376277D01*
X130074959Y-176400852D01*
X130078753Y-176405867D01*
X130108606Y-176400393D01*
X130158439Y-176375565D01*
X130285876Y-176301207D01*
X130430493Y-176219623D01*
X130580040Y-176137580D01*
X130725862Y-176059698D01*
X130859306Y-175990595D01*
X130971721Y-175934893D01*
X131054451Y-175897209D01*
X131069954Y-175890773D01*
X131273379Y-175811713D01*
X131490369Y-175736078D01*
X131707610Y-175668057D01*
X131911790Y-175611835D01*
X132089596Y-175571603D01*
X132115088Y-175567478D01*
X132208249Y-175558243D01*
X132335373Y-175550938D01*
X132488891Y-175545561D01*
X132661237Y-175542113D01*
X132844843Y-175540591D01*
X133032143Y-175540994D01*
G37*
G36*
X134847442Y-176099537D02*
G01*
X134848816Y-176103596D01*
X134847764Y-176144203D01*
X134822742Y-176197889D01*
X134771757Y-176266857D01*
X134692817Y-176353310D01*
X134583928Y-176459451D01*
X134443098Y-176587482D01*
X134268333Y-176739605D01*
X134165146Y-176830107D01*
X134049132Y-176940189D01*
X133955834Y-177041804D01*
X133876888Y-177144266D01*
X133803933Y-177256890D01*
X133792224Y-177276399D01*
X133772266Y-177311451D01*
X133755845Y-177346111D01*
X133741847Y-177385955D01*
X133729160Y-177436555D01*
X133716673Y-177503486D01*
X133703272Y-177592319D01*
X133687846Y-177708631D01*
X133669283Y-177857993D01*
X133646469Y-178045980D01*
X133628713Y-178171325D01*
X133563910Y-178470899D01*
X133471401Y-178747735D01*
X133353194Y-178996449D01*
X133211301Y-179211657D01*
X133161684Y-179275407D01*
X133233586Y-179238225D01*
X133286527Y-179205946D01*
X133396455Y-179111912D01*
X133511433Y-178981148D01*
X133628397Y-178818114D01*
X133744281Y-178627273D01*
X133856021Y-178413087D01*
X133960551Y-178180015D01*
X133976728Y-178142623D01*
X134032168Y-178029164D01*
X134093886Y-177918848D01*
X134151280Y-177831076D01*
X134183668Y-177784388D01*
X134245673Y-177685104D01*
X134310403Y-177571826D01*
X134368182Y-177461058D01*
X134408028Y-177379498D01*
X134482328Y-177225012D01*
X134548354Y-177084580D01*
X134603770Y-176963354D01*
X134646243Y-176866482D01*
X134673439Y-176799114D01*
X134683022Y-176766402D01*
X134684468Y-176755403D01*
X134699059Y-176711995D01*
X134722800Y-176660340D01*
X134747519Y-176617117D01*
X134765044Y-176599003D01*
X134769601Y-176601020D01*
X134771885Y-176631577D01*
X134757546Y-176694068D01*
X134728558Y-176782262D01*
X134686897Y-176889928D01*
X134634536Y-177010835D01*
X134558537Y-177177144D01*
X134483070Y-177339750D01*
X134419559Y-177472910D01*
X134364925Y-177582794D01*
X134316089Y-177675574D01*
X134269970Y-177757418D01*
X134223491Y-177834499D01*
X134206156Y-177862860D01*
X134149126Y-177961758D01*
X134097797Y-178058283D01*
X134061552Y-178135024D01*
X134021988Y-178224873D01*
X133940177Y-178393971D01*
X133846456Y-178572291D01*
X133749764Y-178743081D01*
X133659037Y-178889590D01*
X133592466Y-178985640D01*
X133480754Y-179121154D01*
X133369629Y-179221202D01*
X133253855Y-179290970D01*
X133193620Y-179322276D01*
X133108416Y-179371608D01*
X133024565Y-179424400D01*
X132959973Y-179466562D01*
X132904875Y-179499244D01*
X132874031Y-179510191D01*
X132860567Y-179501498D01*
X132857606Y-179475259D01*
X132865394Y-179455663D01*
X132899686Y-179407970D01*
X132955038Y-179344396D01*
X133024565Y-179273269D01*
X133076034Y-179222222D01*
X133135685Y-179159707D01*
X133176437Y-179112749D01*
X133191524Y-179088822D01*
X133199918Y-179065898D01*
X133227448Y-179015388D01*
X133267503Y-178951330D01*
X133303130Y-178893121D01*
X133358492Y-178781830D01*
X133408892Y-178650433D01*
X133455362Y-178494861D01*
X133498930Y-178311050D01*
X133540627Y-178094932D01*
X133581482Y-177842441D01*
X133622526Y-177549512D01*
X133636311Y-177451950D01*
X133652325Y-177366889D01*
X133671923Y-177302225D01*
X133699189Y-177244986D01*
X133738208Y-177182202D01*
X133776364Y-177125909D01*
X133863703Y-177008692D01*
X133958524Y-176899662D01*
X134070724Y-176787922D01*
X134210201Y-176662576D01*
X134343570Y-176545943D01*
X134469641Y-176433129D01*
X134568350Y-176341155D01*
X134643635Y-176266224D01*
X134699438Y-176204539D01*
X134739699Y-176152303D01*
X134769292Y-176111487D01*
X134805174Y-176073511D01*
X134829334Y-176070453D01*
X134847442Y-176099537D01*
G37*
G36*
X140814617Y-180957048D02*
G01*
X140824422Y-181001698D01*
X140827416Y-181069294D01*
X140823686Y-181148950D01*
X140813322Y-181229780D01*
X140796411Y-181300899D01*
X140790371Y-181319831D01*
X140766384Y-181396435D01*
X140736410Y-181493518D01*
X140705527Y-181594667D01*
X140700094Y-181612144D01*
X140661737Y-181718266D01*
X140620013Y-181810051D01*
X140581416Y-181872932D01*
X140580128Y-181874570D01*
X140549157Y-181921476D01*
X140503125Y-182000168D01*
X140446310Y-182102918D01*
X140382990Y-182221999D01*
X140317444Y-182349683D01*
X140290354Y-182403277D01*
X140212728Y-182554218D01*
X140149115Y-182672054D01*
X140095827Y-182762331D01*
X140049172Y-182830591D01*
X140005461Y-182882381D01*
X139961004Y-182923244D01*
X139912111Y-182958725D01*
X139894819Y-182970899D01*
X139823118Y-183032781D01*
X139763649Y-183099223D01*
X139747249Y-183120039D01*
X139696934Y-183178826D01*
X139626392Y-183257655D01*
X139542585Y-183348798D01*
X139452479Y-183444528D01*
X139394797Y-183505577D01*
X139318198Y-183588411D01*
X139257102Y-183656643D01*
X139216665Y-183704476D01*
X139202041Y-183726116D01*
X139201615Y-183729857D01*
X139180945Y-183744840D01*
X139177607Y-183743725D01*
X139174212Y-183717434D01*
X139187413Y-183665223D01*
X139207522Y-183626803D01*
X139258505Y-183556499D01*
X139332972Y-183468331D01*
X139425556Y-183368977D01*
X139428834Y-183365604D01*
X139517889Y-183273515D01*
X139605655Y-183181994D01*
X139682183Y-183101459D01*
X139737523Y-183042328D01*
X139786588Y-182991487D01*
X139869947Y-182911625D01*
X139947061Y-182844124D01*
X139955850Y-182836862D01*
X140023102Y-182771193D01*
X140077398Y-182693528D01*
X140129989Y-182588121D01*
X140134100Y-182578920D01*
X140177896Y-182483237D01*
X140221833Y-182390687D01*
X140256976Y-182320125D01*
X140304699Y-182228923D01*
X140380096Y-182087098D01*
X140439829Y-181978511D01*
X140486420Y-181898757D01*
X140522395Y-181843428D01*
X140550277Y-181808118D01*
X140555748Y-181802042D01*
X140579161Y-181771309D01*
X140601154Y-181731478D01*
X140624310Y-181675765D01*
X140651216Y-181597390D01*
X140684457Y-181489569D01*
X140726618Y-181345520D01*
X140730736Y-181331038D01*
X140758731Y-181216908D01*
X140775550Y-181117804D01*
X140778867Y-181047019D01*
X140778441Y-181041343D01*
X140780886Y-180974739D01*
X140799280Y-180945668D01*
X140814617Y-180957048D01*
G37*
G36*
X140196364Y-181092065D02*
G01*
X140171416Y-181110885D01*
X140112172Y-181129718D01*
X140085638Y-181136433D01*
X140007041Y-181162795D01*
X139899783Y-181206033D01*
X139758570Y-181268221D01*
X139747029Y-181274112D01*
X139688935Y-181313591D01*
X139617096Y-181372703D01*
X139544412Y-181441042D01*
X139497421Y-181490466D01*
X139441631Y-181558799D01*
X139396817Y-181631022D01*
X139359606Y-181715183D01*
X139326622Y-181819330D01*
X139294491Y-181951511D01*
X139259840Y-182119775D01*
X139256399Y-182137318D01*
X139232715Y-182257344D01*
X139210445Y-182369082D01*
X139191951Y-182460728D01*
X139179598Y-182520476D01*
X139165878Y-182595801D01*
X139148266Y-182718072D01*
X139130894Y-182863110D01*
X139115166Y-183019027D01*
X139102484Y-183173938D01*
X139090083Y-183293182D01*
X139056315Y-183494544D01*
X139007952Y-183707060D01*
X138948982Y-183913913D01*
X138883390Y-184098283D01*
X138872156Y-184125868D01*
X138830847Y-184221411D01*
X138802812Y-184276347D01*
X138788275Y-184292282D01*
X138787457Y-184270823D01*
X138800581Y-184213579D01*
X138827869Y-184122156D01*
X138869544Y-183998163D01*
X138886302Y-183949672D01*
X138924547Y-183829509D01*
X138949269Y-183730040D01*
X138963743Y-183636309D01*
X138971238Y-183533359D01*
X138976123Y-183427321D01*
X138983700Y-183275164D01*
X138990757Y-183157002D01*
X138997977Y-183066179D01*
X139006043Y-182996040D01*
X139015641Y-182939932D01*
X139027453Y-182891201D01*
X139042163Y-182843191D01*
X139049179Y-182819768D01*
X139070545Y-182724334D01*
X139088511Y-182610525D01*
X139099770Y-182498143D01*
X139101009Y-182479844D01*
X139113557Y-182337942D01*
X139131517Y-182183087D01*
X139153383Y-182024835D01*
X139177643Y-181872739D01*
X139202790Y-181736355D01*
X139227314Y-181625235D01*
X139249706Y-181548934D01*
X139292740Y-181462306D01*
X139384085Y-181348441D01*
X139499579Y-181256859D01*
X139627296Y-181198623D01*
X139704797Y-181177203D01*
X139846587Y-181141767D01*
X139993953Y-181108470D01*
X140123532Y-181082765D01*
X140137045Y-181080602D01*
X140185433Y-181079793D01*
X140196364Y-181092065D01*
G37*
G36*
X137864579Y-179802681D02*
G01*
X137843628Y-179833071D01*
X137788381Y-179886325D01*
X137760031Y-179911314D01*
X137690778Y-179972873D01*
X137632628Y-180025177D01*
X137602732Y-180059819D01*
X137554946Y-180129377D01*
X137500734Y-180219119D01*
X137447020Y-180318119D01*
X137436791Y-180337835D01*
X137296374Y-180563063D01*
X137131186Y-180752712D01*
X136942532Y-180905265D01*
X136894510Y-180939042D01*
X136830100Y-180989539D01*
X136786703Y-181029937D01*
X136742181Y-181080297D01*
X136818882Y-181065454D01*
X136889538Y-181050652D01*
X136997788Y-181019988D01*
X137094031Y-180978235D01*
X137199384Y-180917163D01*
X137281669Y-180868096D01*
X137390282Y-180808340D01*
X137487930Y-180759299D01*
X137564997Y-180718094D01*
X137641215Y-180667221D01*
X137693247Y-180621087D01*
X137705647Y-180606728D01*
X137737493Y-180573524D01*
X137751237Y-180571563D01*
X137754466Y-180597983D01*
X137745666Y-180639679D01*
X137716107Y-180692555D01*
X137690034Y-180715127D01*
X137625943Y-180756990D01*
X137535595Y-180808926D01*
X137427331Y-180866749D01*
X137309489Y-180926273D01*
X137190410Y-180983311D01*
X137078432Y-181033676D01*
X136981895Y-181073182D01*
X136909140Y-181097644D01*
X136847569Y-181113358D01*
X136745774Y-181133871D01*
X136684654Y-181136557D01*
X136664267Y-181121410D01*
X136673515Y-181105207D01*
X136708306Y-181065216D01*
X136760087Y-181012197D01*
X136819379Y-180955202D01*
X136876704Y-180903284D01*
X136922583Y-180865496D01*
X136947536Y-180850888D01*
X136960413Y-180846328D01*
X137002271Y-180815124D01*
X137060482Y-180761100D01*
X137127669Y-180692236D01*
X137196455Y-180616508D01*
X137259463Y-180541895D01*
X137309316Y-180476375D01*
X137338636Y-180427925D01*
X137422085Y-180254861D01*
X137511729Y-180103521D01*
X137604851Y-179983623D01*
X137705976Y-179888522D01*
X137760136Y-179847665D01*
X137818986Y-179810081D01*
X137855083Y-179795052D01*
X137864579Y-179802681D01*
G37*
G36*
X129318079Y-176899529D02*
G01*
X129315721Y-176914871D01*
X129297119Y-176932921D01*
X129294790Y-176933474D01*
X129268262Y-176955380D01*
X129224943Y-177002827D01*
X129172964Y-177067031D01*
X129114239Y-177153862D01*
X129037395Y-177296466D01*
X128967502Y-177456615D01*
X128911043Y-177619071D01*
X128874501Y-177768593D01*
X128874169Y-177770466D01*
X128859210Y-177851768D01*
X128846178Y-177917211D01*
X128837861Y-177952781D01*
X128831910Y-177964382D01*
X128809690Y-177970302D01*
X128803066Y-177954330D01*
X128802594Y-177902738D01*
X128810972Y-177827156D01*
X128826482Y-177738673D01*
X128847408Y-177648379D01*
X128872036Y-177567365D01*
X128919284Y-177439263D01*
X128975271Y-177303463D01*
X129029529Y-177193795D01*
X129086977Y-177100557D01*
X129152533Y-177014048D01*
X129180514Y-176980583D01*
X129244389Y-176909831D01*
X129286968Y-176873872D01*
X129310712Y-176871006D01*
X129318079Y-176899529D01*
G37*
G36*
X140770127Y-180747676D02*
G01*
X140777590Y-180801829D01*
X140763127Y-180873539D01*
X140727562Y-180951996D01*
X140704914Y-180988623D01*
X140672489Y-181033654D01*
X140652749Y-181051238D01*
X140648319Y-181047519D01*
X140641033Y-181013354D01*
X140639922Y-180955052D01*
X140643278Y-180918441D01*
X140660165Y-180843756D01*
X140686205Y-180778660D01*
X140716195Y-180734639D01*
X140744933Y-180723183D01*
X140770127Y-180747676D01*
G37*
%TD*%
D12*
%TO.C,T1*%
X184247132Y-124960148D03*
X182747132Y-124960148D03*
X179747132Y-124960148D03*
D13*
X185697132Y-123985148D03*
X185697132Y-121785148D03*
D14*
X183497132Y-122885148D03*
X180497132Y-122885148D03*
D13*
X178297132Y-123985148D03*
X178297132Y-121785148D03*
%TD*%
D15*
%TO.C,B1*%
X200647130Y-166635152D03*
X194147130Y-166635152D03*
X200647130Y-162135152D03*
X194147130Y-162135152D03*
%TD*%
D16*
%TO.C,D16*%
X170212083Y-188183486D03*
D17*
X162707847Y-186860286D03*
%TD*%
D18*
%TO.C,S5*%
X123239138Y-151305149D03*
X110312138Y-153845149D03*
D19*
X122477138Y-156385149D03*
D20*
X121207138Y-153845149D03*
X119937138Y-151305149D03*
D21*
X117397138Y-156385149D03*
D20*
X114857138Y-151305149D03*
X113587138Y-153845149D03*
D19*
X112317138Y-156385149D03*
%TD*%
D18*
%TO.C,S4*%
X123239138Y-170305156D03*
X110312138Y-172845156D03*
D19*
X122477138Y-175385156D03*
D20*
X121207138Y-172845156D03*
X119937138Y-170305156D03*
D21*
X117397138Y-175385156D03*
D20*
X114857138Y-170305156D03*
X113587138Y-172845156D03*
D19*
X112317138Y-175385156D03*
%TD*%
D16*
%TO.C,D5*%
X121207137Y-147385148D03*
D22*
X113587137Y-147385148D03*
%TD*%
D18*
%TO.C,S12*%
X161239134Y-132305153D03*
X148312134Y-134845153D03*
D19*
X160477134Y-137385153D03*
D20*
X159207134Y-134845153D03*
X157937134Y-132305153D03*
D21*
X155397134Y-137385153D03*
D20*
X152857134Y-132305153D03*
X151587134Y-134845153D03*
D19*
X150317134Y-137385153D03*
%TD*%
D16*
%TO.C,D14*%
X178207136Y-149385156D03*
D22*
X170587136Y-149385156D03*
%TD*%
D16*
%TO.C,D4*%
X121207134Y-166385156D03*
D22*
X113587134Y-166385156D03*
%TD*%
D16*
%TO.C,D8*%
X140207136Y-137385154D03*
D22*
X132587136Y-137385154D03*
%TD*%
D18*
%TO.C,S15*%
X180239139Y-134305155D03*
X167312139Y-136845155D03*
D19*
X179477139Y-139385155D03*
D20*
X178207139Y-136845155D03*
X176937139Y-134305155D03*
D21*
X174397139Y-139385155D03*
D20*
X171857139Y-134305155D03*
X170587139Y-136845155D03*
D19*
X169317139Y-139385155D03*
%TD*%
D16*
%TO.C,D2*%
X99201841Y-158908279D03*
D23*
X91610837Y-159572405D03*
%TD*%
D24*
%TO.C,S16*%
X171532511Y-192396780D03*
X158360834Y-192653442D03*
D19*
X169899954Y-197267284D03*
D20*
X169090315Y-194545339D03*
X168280675Y-191823394D03*
D21*
X164897131Y-196385151D03*
D20*
X163277852Y-190941261D03*
X161586080Y-193222140D03*
D19*
X159894308Y-195503018D03*
%TD*%
D18*
%TO.C,S7*%
X142239142Y-160305159D03*
X129312142Y-162845159D03*
D19*
X141477142Y-165385159D03*
D20*
X140207142Y-162845159D03*
X138937142Y-160305159D03*
D21*
X136397142Y-165385159D03*
D20*
X133857142Y-160305159D03*
X132587142Y-162845159D03*
D19*
X131317142Y-165385159D03*
%TD*%
D25*
%TO.C,S1*%
X103223714Y-181563959D03*
X90567281Y-185220956D03*
D19*
X102907365Y-186691041D03*
D20*
X101420822Y-184271394D03*
X99934279Y-181851747D03*
D21*
X97846696Y-187133792D03*
D20*
X94873610Y-182294499D03*
X93829819Y-184935521D03*
D19*
X92786027Y-187576543D03*
%TD*%
D26*
%TO.C,S18*%
X212941127Y-210985534D03*
X200476017Y-206721738D03*
D19*
X209741216Y-215003943D03*
D20*
X209911364Y-212169238D03*
X210081512Y-209334534D03*
D21*
X205341807Y-212463943D03*
D20*
X205682102Y-206794534D03*
X203312250Y-208359238D03*
D19*
X200942398Y-209923943D03*
%TD*%
D27*
%TO.C,JST1*%
X197397132Y-122785149D03*
X199397132Y-122785149D03*
X195397132Y-122785149D03*
%TD*%
D16*
%TO.C,D7*%
X140207137Y-156385151D03*
D22*
X132587137Y-156385151D03*
%TD*%
D19*
%TO.C,S9*%
X131317126Y-127385152D03*
D20*
X132587126Y-124845152D03*
X133857126Y-122305152D03*
D21*
X136397126Y-127385152D03*
D20*
X138937126Y-122305152D03*
X140207126Y-124845152D03*
D19*
X141477126Y-127385152D03*
D18*
X129312126Y-124845152D03*
X142239126Y-122305152D03*
%TD*%
%TO.C,S11*%
X161239131Y-151305154D03*
X148312131Y-153845154D03*
D19*
X160477131Y-156385154D03*
D20*
X159207131Y-153845154D03*
X157937131Y-151305154D03*
D21*
X155397131Y-156385154D03*
D20*
X152857131Y-151305154D03*
X151587131Y-153845154D03*
D19*
X150317131Y-156385154D03*
%TD*%
D16*
%TO.C,D3*%
X79777350Y-154885925D03*
D23*
X72186346Y-155550051D03*
%TD*%
D18*
%TO.C,S13*%
X180239131Y-172305148D03*
X167312131Y-174845148D03*
D19*
X179477131Y-177385148D03*
D20*
X178207131Y-174845148D03*
X176937131Y-172305148D03*
D21*
X174397131Y-177385148D03*
D20*
X171857131Y-172305148D03*
X170587131Y-174845148D03*
D19*
X169317131Y-177385148D03*
%TD*%
%TO.C,S8*%
X131317129Y-146385153D03*
D20*
X132587129Y-143845153D03*
X133857129Y-141305153D03*
D21*
X136397129Y-146385153D03*
D20*
X138937129Y-141305153D03*
X140207129Y-143845153D03*
D19*
X141477129Y-146385153D03*
D18*
X129312129Y-143845153D03*
X142239129Y-141305153D03*
%TD*%
%TO.C,S10*%
X161239130Y-170305152D03*
X148312130Y-172845152D03*
D19*
X160477130Y-175385152D03*
D20*
X159207130Y-172845152D03*
X157937130Y-170305152D03*
D21*
X155397130Y-175385152D03*
D20*
X152857130Y-170305152D03*
X151587130Y-172845152D03*
D19*
X150317130Y-175385152D03*
%TD*%
D28*
%TO.C,ROT1*%
X189777133Y-181145147D03*
X189777133Y-183645147D03*
D29*
X189777133Y-178645147D03*
D30*
X204277133Y-183645147D03*
X204277133Y-178645147D03*
D31*
X197277133Y-186745147D03*
X197277133Y-175545147D03*
%TD*%
D25*
%TO.C,S3*%
X82143272Y-158613904D03*
X69486839Y-162270901D03*
D19*
X81826923Y-163740986D03*
D20*
X80340380Y-161321339D03*
X78853837Y-158901692D03*
D21*
X76766254Y-164183737D03*
D20*
X73793168Y-159344444D03*
X72749377Y-161985466D03*
D19*
X71705585Y-164626488D03*
%TD*%
D16*
%TO.C,D17*%
X192401927Y-195435770D03*
D32*
X185241469Y-192829576D03*
%TD*%
D16*
%TO.C,D13*%
X178207137Y-168385155D03*
D22*
X170587137Y-168385155D03*
%TD*%
D14*
%TO.C,T2*%
X183497132Y-122885148D03*
X180497132Y-122885148D03*
%TD*%
D16*
%TO.C,D19*%
X201397131Y-177375149D03*
D33*
X201397131Y-184995149D03*
%TD*%
D34*
%TO.C,TRRS1*%
X213497129Y-125585154D03*
X208897129Y-125585154D03*
X213497129Y-128585154D03*
X208897129Y-128585154D03*
X213497129Y-132585154D03*
X208897129Y-132585154D03*
X213497129Y-133685154D03*
X208897129Y-133685154D03*
D30*
X211197129Y-130985154D03*
X211197129Y-123985154D03*
%TD*%
D35*
%TO.C,SCREEN1*%
X202477129Y-156621153D03*
X192317129Y-156621153D03*
X194857129Y-156621153D03*
X197397129Y-156621153D03*
X199937129Y-156621153D03*
D15*
X202477129Y-159385153D03*
D36*
X202477129Y-157637153D03*
D15*
X199937129Y-159385153D03*
D36*
X199937129Y-157637153D03*
D15*
X197397129Y-159385153D03*
D36*
X197397129Y-157637153D03*
D15*
X194857129Y-159385153D03*
D36*
X194857129Y-157637153D03*
D15*
X192317129Y-159385153D03*
D36*
X192317129Y-157637153D03*
%TD*%
D16*
%TO.C,D1*%
X100857796Y-177835977D03*
D23*
X93266792Y-178500103D03*
%TD*%
D25*
%TO.C,S2*%
X101567761Y-162636256D03*
X88911328Y-166293253D03*
D19*
X101251412Y-167763338D03*
D20*
X99764869Y-165343691D03*
X98278326Y-162924044D03*
D21*
X96190743Y-168206089D03*
D20*
X93217657Y-163366796D03*
X92173866Y-166007818D03*
D19*
X91130074Y-168648840D03*
%TD*%
D16*
%TO.C,D10*%
X159207135Y-166385146D03*
D22*
X151587135Y-166385146D03*
%TD*%
D15*
%TO.C,B2*%
X200647130Y-166635152D03*
X194147130Y-166635152D03*
X200647130Y-162135152D03*
X194147130Y-162135152D03*
%TD*%
D16*
%TO.C,D6*%
X121207136Y-128385148D03*
D22*
X113587136Y-128385148D03*
%TD*%
D16*
%TO.C,D9*%
X140207131Y-118385147D03*
D22*
X132587131Y-118385147D03*
%TD*%
D16*
%TO.C,D11*%
X159207130Y-147385153D03*
D22*
X151587130Y-147385153D03*
%TD*%
D16*
%TO.C,D12*%
X159207132Y-128385150D03*
D22*
X151587132Y-128385150D03*
%TD*%
D18*
%TO.C,S6*%
X123239132Y-132305152D03*
X110312132Y-134845152D03*
D19*
X122477132Y-137385152D03*
D20*
X121207132Y-134845152D03*
X119937132Y-132305152D03*
D21*
X117397132Y-137385152D03*
D20*
X114857132Y-132305152D03*
X113587132Y-134845152D03*
D19*
X112317132Y-137385152D03*
%TD*%
D37*
%TO.C,S17*%
X192970667Y-199814356D03*
X179954529Y-197779881D03*
D19*
X190517159Y-204327375D03*
D20*
X190192480Y-201506190D03*
X189867802Y-198685006D03*
D21*
X185743520Y-202589913D03*
D20*
X185094163Y-196947543D03*
X183032022Y-198899997D03*
D19*
X180969881Y-200852451D03*
%TD*%
D16*
%TO.C,D15*%
X178207137Y-130385153D03*
D22*
X170587137Y-130385153D03*
%TD*%
D16*
%TO.C,D18*%
X213141362Y-206574710D03*
D38*
X206542248Y-202764710D03*
%TD*%
D39*
%TO.C,_1*%
X202223138Y-125415152D03*
X202223138Y-127955152D03*
X202223138Y-130495152D03*
X202223138Y-133035152D03*
X202223138Y-135575152D03*
X202223138Y-138115152D03*
X202223138Y-140655152D03*
X202223138Y-143195152D03*
X202223138Y-145735152D03*
X202223138Y-148275152D03*
X202223138Y-150815152D03*
X202223138Y-153355152D03*
D40*
X192571138Y-153355152D03*
X192571138Y-150815152D03*
X192571138Y-148275152D03*
X192571138Y-145735152D03*
X192571138Y-143195152D03*
X192571138Y-140655152D03*
X192571138Y-138115152D03*
X192571138Y-135575152D03*
X192571138Y-133035152D03*
X192571138Y-130495152D03*
X192571138Y-127955152D03*
X192571138Y-125415152D03*
D41*
X189777138Y-153355152D03*
D42*
X191555138Y-153355152D03*
D43*
X203239138Y-153355152D03*
D41*
X205017138Y-153355152D03*
X189777138Y-150815152D03*
D42*
X191555138Y-150815152D03*
D43*
X203239138Y-150815152D03*
D41*
X205017138Y-150815152D03*
X189777138Y-148275152D03*
D42*
X191555138Y-148275152D03*
D43*
X203239138Y-148275152D03*
D41*
X205017138Y-148275152D03*
X189777138Y-145735152D03*
D42*
X191555138Y-145735152D03*
D43*
X203239138Y-145735152D03*
D41*
X205017138Y-145735152D03*
X189777138Y-143195152D03*
D42*
X191555138Y-143195152D03*
D43*
X203239138Y-143195152D03*
D41*
X205017138Y-143195152D03*
X189777138Y-140655152D03*
D42*
X191555138Y-140655152D03*
D43*
X203239138Y-140655152D03*
D41*
X205017138Y-140655152D03*
X189777138Y-138115152D03*
D42*
X191555138Y-138115152D03*
D43*
X203239138Y-138115152D03*
D41*
X205017138Y-138115152D03*
X189777138Y-135575152D03*
D42*
X191555138Y-135575152D03*
D43*
X203239138Y-135575152D03*
D41*
X205017138Y-135575152D03*
X189777138Y-133035152D03*
D42*
X191555138Y-133035152D03*
D43*
X203239138Y-133035152D03*
D41*
X205017138Y-133035152D03*
X189777138Y-130495152D03*
D42*
X191555138Y-130495152D03*
D43*
X203239138Y-130495152D03*
D41*
X205017138Y-130495152D03*
X189777138Y-127955152D03*
D42*
X191555138Y-127955152D03*
D43*
X203239138Y-127955152D03*
D41*
X205017138Y-127955152D03*
X189777138Y-125415152D03*
D42*
X191555138Y-125415152D03*
D43*
X203239138Y-125415152D03*
D44*
X205017138Y-125415152D03*
D41*
X205017138Y-125415152D03*
%TD*%
D18*
%TO.C,S14*%
X180239134Y-153305150D03*
X167312134Y-155845150D03*
D19*
X179477134Y-158385150D03*
D20*
X178207134Y-155845150D03*
X176937134Y-153305150D03*
D21*
X174397134Y-158385150D03*
D20*
X171857134Y-153305150D03*
X170587134Y-155845150D03*
D19*
X169317134Y-158385150D03*
%TD*%
M02*
