M48
; DRILL file {KiCad 7.0.6-0} date 2023 August 12, Saturday 20:04:16
; FORMAT={-:-/ absolute / inch / decimal}
; #@! TF.CreationDate,2023-08-12T20:04:16+02:00
; #@! TF.GenerationSoftware,Kicad,Pcbnew,7.0.6-0
; #@! TF.FileFunction,NonPlated,1,2,NPTH
FMAT,2
INCH
; #@! TA.AperFunction,NonPlated,NPTH,ComponentDrill
T1C0.0354
; #@! TA.AperFunction,NonPlated,NPTH,ComponentDrill
T2C0.0591
; #@! TA.AperFunction,NonPlated,NPTH,ComponentDrill
T3C0.0670
; #@! TA.AperFunction,NonPlated,NPTH,ComponentDrill
T4C0.1181
; #@! TA.AperFunction,NonPlated,NPTH,ComponentDrill
T5C0.1570
%
G90
G05
T1
X7.1062Y-4.838
X7.1062Y-4.838
X7.2243Y-4.838
X7.2243Y-4.838
T2
X8.3148Y-4.8813
X8.3148Y-5.1569
T3
X2.8231Y-6.4814
X3.2215Y-6.4465
X3.5878Y-6.6397
X3.653Y-7.3849
X3.9863Y-6.6049
X4.0515Y-7.35
X4.4219Y-5.4089
X4.4219Y-6.1569
X4.4219Y-6.9049
X4.8219Y-5.4089
X4.8219Y-6.1569
X4.8219Y-6.9049
X5.17Y-5.0152
X5.17Y-5.7632
X5.17Y-6.5112
X5.57Y-5.0152
X5.57Y-5.7632
X5.57Y-6.5112
X5.918Y-6.9049
X5.918Y-6.1569
X5.918Y-5.4089
X6.2951Y-7.697
X6.318Y-6.9049
X6.318Y-6.1569
X6.318Y-5.4089
X6.666Y-6.9837
X6.666Y-6.2356
X6.666Y-5.4876
X6.689Y-7.7664
X7.066Y-6.9837
X7.066Y-6.2356
X7.066Y-5.4876
X7.1248Y-7.9076
X7.5007Y-8.0444
X7.9111Y-8.2647
X8.2575Y-8.4647
T4
X2.8641Y-6.3774
X2.9052Y-6.2734
X3.1045Y-6.256
X3.163Y-6.3512
X3.6289Y-6.5357
X3.67Y-6.4318
X3.6941Y-7.2809
X3.7352Y-7.1769
X3.8692Y-6.4143
X3.9278Y-6.5096
X3.9344Y-7.1595
X3.9929Y-7.2548
X4.4719Y-5.3089
X4.4719Y-6.0569
X4.4719Y-6.8049
X4.5219Y-5.2089
X4.5219Y-5.9569
X4.5219Y-6.7049
X4.7219Y-5.2089
X4.7219Y-5.9569
X4.7219Y-6.7049
X4.7719Y-5.3089
X4.7719Y-6.0569
X4.7719Y-6.8049
X5.22Y-4.9152
X5.22Y-5.6632
X5.22Y-6.4112
X5.27Y-4.8152
X5.27Y-5.5632
X5.27Y-6.3112
X5.47Y-4.8152
X5.47Y-5.5632
X5.47Y-6.3112
X5.52Y-4.9152
X5.52Y-5.6632
X5.52Y-6.4112
X5.968Y-6.8049
X5.968Y-6.0569
X5.968Y-5.3089
X6.018Y-6.7049
X6.018Y-5.9569
X6.018Y-5.2089
X6.218Y-6.7049
X6.218Y-5.9569
X6.218Y-5.2089
X6.268Y-6.8049
X6.268Y-6.0569
X6.268Y-5.3089
X6.3617Y-7.6072
X6.4283Y-7.5174
X6.6252Y-7.5521
X6.6571Y-7.6593
X6.716Y-6.8837
X6.716Y-6.1356
X6.716Y-5.3876
X6.766Y-6.7837
X6.766Y-6.0356
X6.766Y-5.2876
X6.966Y-6.7837
X6.966Y-6.0356
X6.966Y-5.2876
X7.016Y-6.8837
X7.016Y-6.1356
X7.016Y-5.3876
X7.206Y-7.8307
X7.2872Y-7.7538
X7.4751Y-7.8222
X7.4879Y-7.9333
X8.0044Y-8.2031
X8.0977Y-8.1415
X8.2642Y-8.3531
X8.2709Y-8.2415
T5
X3.0223Y-6.4639
X3.787Y-6.6223
X3.8522Y-7.3675
X4.6219Y-5.4089
X4.6219Y-6.1569
X4.6219Y-6.9049
X5.37Y-5.0152
X5.37Y-5.7632
X5.37Y-6.5112
X6.118Y-6.9049
X6.118Y-6.1569
X6.118Y-5.4089
X6.492Y-7.7317
X6.866Y-6.9837
X6.866Y-6.2356
X6.866Y-5.4876
X7.3127Y-7.976
X8.0843Y-8.3647
T0
M30
