M48
; DRILL file {KiCad 7.0.6-0} date 2023 August 12, Saturday 20:04:16
; FORMAT={-:-/ absolute / inch / decimal}
; #@! TF.CreationDate,2023-08-12T20:04:16+02:00
; #@! TF.GenerationSoftware,Kicad,Pcbnew,7.0.6-0
; #@! TF.FileFunction,Plated,1,2,PTH
FMAT,2
INCH
; #@! TA.AperFunction,Plated,PTH,ComponentDrill
T1C0.0118
; #@! TA.AperFunction,Plated,PTH,ComponentDrill
T2C0.0120
; #@! TA.AperFunction,Plated,PTH,ViaDrill
T3C0.0157
; #@! TA.AperFunction,Plated,PTH,ComponentDrill
T4C0.0157
; #@! TA.AperFunction,Plated,PTH,ComponentDrill
T5C0.0354
; #@! TA.AperFunction,Plated,PTH,ComponentDrill
T6C0.0390
; #@! TA.AperFunction,Plated,PTH,ComponentDrill
T7C0.0394
; #@! TA.AperFunction,Plated,PTH,ComponentDrill
T8C0.0430
; #@! TA.AperFunction,Plated,PTH,ComponentDrill
T9C0.0433
; #@! TA.AperFunction,Plated,PTH,ComponentDrill
T10C0.0591
%
G90
G05
T1
X2.6649Y-6.2186
X3.4296Y-6.3769
X3.4948Y-7.1221
X4.2873Y-5.8813
X4.2873Y-5.1333
X4.2873Y-6.6293
X5.0353Y-6.2356
X5.0353Y-5.4876
X5.0353Y-4.7396
X5.7834Y-5.8813
X5.7834Y-5.1333
X5.7834Y-6.6293
X6.2103Y-7.4022
X6.5314Y-5.96
X6.5314Y-5.212
X6.5314Y-6.7081
X7.0925Y-7.6026
X7.9323Y-7.9587
T2
X2.9245Y-6.6563
X2.9539Y-6.6537
X3.1226Y-6.6389
X3.1539Y-6.6362
X3.6893Y-6.8146
X3.7187Y-6.812
X3.7544Y-7.5598
X3.7839Y-7.5572
X3.8873Y-6.7973
X3.9187Y-6.7945
X3.9525Y-7.5425
X3.9839Y-7.5397
X4.5078Y-5.5919
X4.5078Y-6.34
X4.5078Y-7.088
X4.5373Y-5.5919
X4.5373Y-6.34
X4.5373Y-7.088
X4.7066Y-5.5919
X4.7066Y-6.34
X4.7066Y-7.088
X4.7381Y-5.5919
X4.7381Y-6.34
X4.7381Y-7.088
X5.2558Y-6.6943
X5.2558Y-5.1982
X5.2558Y-5.9463
X5.2853Y-6.6943
X5.2853Y-5.1982
X5.2853Y-5.9463
X5.4546Y-6.6943
X5.4546Y-5.1982
X5.4546Y-5.9463
X5.4861Y-6.6943
X5.4861Y-5.1982
X5.4861Y-5.9463
X6.0038Y-7.088
X6.0038Y-5.5919
X6.0038Y-6.34
X6.0334Y-7.088
X6.0334Y-5.5919
X6.0334Y-6.34
X6.2026Y-7.088
X6.2026Y-5.5919
X6.2026Y-6.34
X6.2341Y-7.088
X6.2341Y-5.5919
X6.2341Y-6.34
X6.3478Y-7.8922
X6.3769Y-7.8973
X6.5436Y-7.9267
X6.5746Y-7.9322
X6.7519Y-7.1667
X6.7519Y-5.6707
X6.7519Y-6.4187
X6.7814Y-7.1667
X6.7814Y-5.6707
X6.7814Y-6.4187
X6.9507Y-7.1667
X6.9507Y-5.6707
X6.9507Y-6.4187
X6.9822Y-7.1667
X6.9822Y-5.6707
X6.9822Y-6.4187
X7.1428Y-8.109
X7.1706Y-8.1191
X7.3297Y-8.177
X7.3593Y-8.1877
X7.8939Y-8.4662
X7.9195Y-8.4809
X8.0661Y-8.5656
X8.0934Y-8.5813
T3
X4.2341Y-7.1655
X6.2629Y-5.6916
X6.5719Y-5.6094
X7.3307Y-5.2421
X7.4055Y-5.2421
X7.883Y-6.1089
T4
X7.7415Y-4.9376
X7.7415Y-5.0376
X7.7415Y-5.1376
X7.7415Y-5.2376
X7.7415Y-5.3376
X7.7415Y-5.4376
X7.7415Y-5.5376
X7.7415Y-5.6376
X7.7415Y-5.7376
X7.7415Y-5.8376
X7.7415Y-5.9376
X7.7415Y-6.0376
X7.8015Y-4.9376
X7.8015Y-5.0376
X7.8015Y-5.1376
X7.8015Y-5.2376
X7.8015Y-5.3376
X7.8015Y-5.4376
X7.8015Y-5.5376
X7.8015Y-5.6376
X7.8015Y-5.7376
X7.8015Y-5.8376
X7.8015Y-5.9376
X7.8015Y-6.0376
T6
X2.842Y-6.124
X3.1408Y-6.0979
X3.6067Y-6.2824
X3.6719Y-7.0276
X3.9056Y-6.2562
X3.9708Y-7.0014
X4.4719Y-6.5506
X4.4719Y-5.0545
X4.4719Y-5.8026
X4.7719Y-6.5506
X4.7719Y-5.0545
X4.7719Y-5.8026
X5.22Y-4.6608
X5.22Y-5.4089
X5.22Y-6.1569
X5.52Y-4.6608
X5.52Y-5.4089
X5.52Y-6.1569
X5.968Y-5.8026
X5.968Y-5.0545
X5.968Y-6.5506
X6.268Y-5.8026
X6.268Y-5.0545
X6.268Y-6.5506
X6.4058Y-7.3567
X6.7013Y-7.4088
X6.716Y-5.8813
X6.716Y-5.1333
X6.716Y-6.6293
X7.016Y-5.8813
X7.016Y-5.1333
X7.016Y-6.6293
X7.293Y-7.5917
X7.5749Y-7.6943
X7.929Y-6.9833
X7.929Y-7.2833
X8.1316Y-7.9829
X8.3914Y-8.1329
T7
X7.4715Y-7.0333
X7.4715Y-7.1317
X7.4715Y-7.2301
X8.0424Y-7.0333
X8.0424Y-7.2301
T8
X7.5715Y-6.275
X7.6436Y-6.3833
X7.6436Y-6.3833
X7.6436Y-6.5604
X7.6436Y-6.5604
X7.6715Y-6.275
X7.6928Y-4.8341
X7.7715Y-6.275
X7.7715Y-4.8341
X7.8503Y-4.8341
X7.8715Y-6.275
X7.8995Y-6.3833
X7.8995Y-6.3833
X7.8995Y-6.5604
X7.8995Y-6.5604
X7.9715Y-6.275
T9
X7.4715Y-4.9376
X7.4715Y-4.9376
X7.4715Y-5.0376
X7.4715Y-5.1376
X7.4715Y-5.2376
X7.4715Y-5.3376
X7.4715Y-5.4376
X7.4715Y-5.5376
X7.4715Y-5.6376
X7.4715Y-5.7376
X7.4715Y-5.8376
X7.4715Y-5.9376
X7.4715Y-6.0376
X8.0715Y-4.9376
X8.0715Y-4.9376
X8.0715Y-5.0376
X8.0715Y-5.1376
X8.0715Y-5.2376
X8.0715Y-5.3376
X8.0715Y-5.4376
X8.0715Y-5.5376
X8.0715Y-5.6376
X8.0715Y-5.7376
X8.0715Y-5.8376
X8.0715Y-5.9376
X8.0715Y-6.0376
T5
G00X8.2243Y-4.9325
M15
G01X8.2243Y-4.9561
M16
G05
G00X8.2243Y-5.0506
M15
G01X8.2243Y-5.0742
M16
G05
G00X8.2243Y-5.2081
M15
G01X8.2243Y-5.2317
M16
G05
G00X8.2243Y-5.2514
M15
G01X8.2243Y-5.275
M16
G05
G00X8.4054Y-4.9325
M15
G01X8.4054Y-4.9561
M16
G05
G00X8.4054Y-5.0506
M15
G01X8.4054Y-5.0742
M16
G05
G00X8.4054Y-5.2081
M15
G01X8.4054Y-5.2317
M16
G05
G00X8.4054Y-5.2514
M15
G01X8.4054Y-5.275
M16
G05
T10
G00X7.7412Y-6.9112
M15
G01X7.7924Y-6.9112
M16
G05
G00X7.7412Y-7.3522
M15
G01X7.7924Y-7.3522
M16
G05
T0
M30
