%TF.GenerationSoftware,KiCad,Pcbnew,7.0.6-0*%
%TF.CreationDate,2023-08-12T20:04:25+02:00*%
%TF.ProjectId,jwe,6a77652e-6b69-4636-9164-5f7063625858,v1.0.0*%
%TF.SameCoordinates,Original*%
%TF.FileFunction,Copper,L2,Bot*%
%TF.FilePolarity,Positive*%
%FSLAX46Y46*%
G04 Gerber Fmt 4.6, Leading zero omitted, Abs format (unit mm)*
G04 Created by KiCad (PCBNEW 7.0.6-0) date 2023-08-12 20:04:25*
%MOMM*%
%LPD*%
G01*
G04 APERTURE LIST*
G04 Aperture macros list*
%AMRoundRect*
0 Rectangle with rounded corners*
0 $1 Rounding radius*
0 $2 $3 $4 $5 $6 $7 $8 $9 X,Y pos of 4 corners*
0 Add a 4 corners polygon primitive as box body*
4,1,4,$2,$3,$4,$5,$6,$7,$8,$9,$2,$3,0*
0 Add four circle primitives for the rounded corners*
1,1,$1+$1,$2,$3*
1,1,$1+$1,$4,$5*
1,1,$1+$1,$6,$7*
1,1,$1+$1,$8,$9*
0 Add four rect primitives between the rounded corners*
20,1,$1+$1,$2,$3,$4,$5,0*
20,1,$1+$1,$4,$5,$6,$7,0*
20,1,$1+$1,$6,$7,$8,$9,0*
20,1,$1+$1,$8,$9,$2,$3,0*%
%AMRotRect*
0 Rectangle, with rotation*
0 The origin of the aperture is its center*
0 $1 length*
0 $2 width*
0 $3 Rotation angle, in degrees counterclockwise*
0 Add horizontal line*
21,1,$1,$2,0,0,$3*%
%AMFreePoly0*
4,1,13,0.800000,-0.425000,-0.125000,-0.425000,-0.125000,-0.886200,-0.139645,-0.921555,-0.175000,-0.936200,-0.530600,-0.936200,-0.565955,-0.921555,-0.580600,-0.886199,-0.580600,-0.425000,-0.800000,-0.425000,-0.800000,0.425000,0.800000,0.425000,0.800000,-0.425000,0.800000,-0.425000,$1*%
%AMFreePoly1*
4,1,25,0.800000,-0.425000,-0.175324,-0.425000,-0.172201,-0.888063,-0.172269,-0.888231,-0.172200,-0.888400,-0.179445,-0.905890,-0.186607,-0.923516,-0.186775,-0.923587,-0.186845,-0.923755,-0.204349,-0.931006,-0.221863,-0.938400,-0.222031,-0.938330,-0.222200,-0.938400,-0.577800,-0.938400,-0.595290,-0.931154,-0.612916,-0.923993,-0.612987,-0.923824,-0.613155,-0.923755,-0.620406,-0.906250,-0.627799,-0.888737,
-0.630927,-0.425000,-0.800000,-0.425000,-0.800000,0.425000,0.800000,0.425000,0.800000,-0.425000,0.800000,-0.425000,$1*%
%AMFreePoly2*
4,1,13,0.800000,-0.425000,0.682400,-0.425000,0.682400,-0.888400,0.667755,-0.923755,0.632400,-0.938400,0.276800,-0.938400,0.241446,-0.923755,0.226800,-0.888400,0.226800,-0.425000,-0.800000,-0.425000,-0.800000,0.425000,0.800000,0.425000,0.800000,-0.425000,0.800000,-0.425000,$1*%
%AMFreePoly3*
4,1,13,0.800000,-0.425000,0.575000,-0.425000,0.575000,-0.895800,0.560355,-0.931155,0.525000,-0.945799,0.169400,-0.945800,0.134045,-0.931155,0.119400,-0.895800,0.119400,-0.425000,-0.800000,-0.425000,-0.800000,0.425000,0.800000,0.425000,0.800000,-0.425000,0.800000,-0.425000,$1*%
%AMFreePoly4*
4,1,6,0.600000,-0.250000,-0.600000,-0.250000,-0.600000,1.000000,0.000000,0.400000,0.600000,1.000000,0.600000,-0.250000,0.600000,-0.250000,$1*%
%AMFreePoly5*
4,1,6,0.600000,0.200000,0.000000,-0.400000,-0.600000,0.200000,-0.600000,0.400000,0.600000,0.400000,0.600000,0.200000,0.600000,0.200000,$1*%
%AMFreePoly6*
4,1,49,0.004652,0.123753,0.008918,0.124682,0.028635,0.117327,0.062500,0.108253,0.068172,0.102580,0.074910,0.100068,0.087486,0.083266,0.108253,0.062500,0.111163,0.051639,0.117119,0.043683,0.118510,0.024217,0.125000,0.000000,0.121245,-0.014013,0.122144,-0.026571,0.113772,-0.041901,0.108253,-0.062500,0.095633,-0.075119,0.088389,-0.088388,-0.641000,-0.817776,-0.641000,-4.770223,
0.088389,-5.499612,0.109711,-5.528094,0.124682,-5.596918,0.100068,-5.662910,0.043683,-5.705119,-0.026571,-5.710144,-0.088388,-5.676389,-0.854388,-4.910388,-0.867764,-4.892519,-0.871157,-4.889580,-0.871926,-4.886960,-0.875710,-4.881906,-0.882285,-4.851677,-0.891000,-4.822000,-0.891000,-0.766000,-0.887823,-0.743906,-0.888144,-0.739429,-0.886835,-0.737032,-0.885937,-0.730783,-0.869209,-0.704755,
-0.854388,-0.677612,-0.088388,0.088389,-0.064427,0.106325,-0.062500,0.108253,-0.061491,0.108523,-0.059906,0.109711,-0.044779,0.113001,0.000000,0.125000,0.004652,0.123753,0.004652,0.123753,$1*%
%AMFreePoly7*
4,1,5,0.125000,-0.500000,-0.125000,-0.500000,-0.125000,0.500000,0.125000,0.500000,0.125000,-0.500000,0.125000,-0.500000,$1*%
G04 Aperture macros list end*
%TA.AperFunction,EtchedComponent*%
%ADD10C,0.200000*%
%TD*%
%TA.AperFunction,SMDPad,CuDef*%
%ADD11R,0.900000X1.250000*%
%TD*%
%TA.AperFunction,SMDPad,CuDef*%
%ADD12R,0.900000X0.900000*%
%TD*%
%TA.AperFunction,WasherPad*%
%ADD13C,1.000000*%
%TD*%
%TA.AperFunction,ComponentPad*%
%ADD14C,1.752600*%
%TD*%
%TA.AperFunction,SMDPad,CuDef*%
%ADD15FreePoly0,170.000000*%
%TD*%
%TA.AperFunction,ComponentPad*%
%ADD16C,0.457200*%
%TD*%
%TA.AperFunction,SMDPad,CuDef*%
%ADD17FreePoly1,350.000000*%
%TD*%
%TA.AperFunction,SMDPad,CuDef*%
%ADD18FreePoly2,350.000000*%
%TD*%
%TA.AperFunction,SMDPad,CuDef*%
%ADD19FreePoly3,170.000000*%
%TD*%
%TA.AperFunction,ComponentPad*%
%ADD20C,1.905000*%
%TD*%
%TA.AperFunction,ComponentPad*%
%ADD21RotRect,1.778000X1.778000X350.000000*%
%TD*%
%TA.AperFunction,SMDPad,CuDef*%
%ADD22R,2.550000X2.500000*%
%TD*%
%TA.AperFunction,ComponentPad*%
%ADD23R,1.778000X1.778000*%
%TD*%
%TA.AperFunction,ComponentPad*%
%ADD24C,0.600000*%
%TD*%
%TA.AperFunction,SMDPad,CuDef*%
%ADD25FreePoly0,185.000000*%
%TD*%
%TA.AperFunction,SMDPad,CuDef*%
%ADD26FreePoly1,5.000000*%
%TD*%
%TA.AperFunction,SMDPad,CuDef*%
%ADD27FreePoly2,5.000000*%
%TD*%
%TA.AperFunction,SMDPad,CuDef*%
%ADD28FreePoly3,185.000000*%
%TD*%
%TA.AperFunction,SMDPad,CuDef*%
%ADD29FreePoly0,180.000000*%
%TD*%
%TA.AperFunction,SMDPad,CuDef*%
%ADD30FreePoly1,0.000000*%
%TD*%
%TA.AperFunction,SMDPad,CuDef*%
%ADD31FreePoly2,0.000000*%
%TD*%
%TA.AperFunction,SMDPad,CuDef*%
%ADD32FreePoly3,180.000000*%
%TD*%
%TA.AperFunction,ComponentPad*%
%ADD33RotRect,1.778000X1.778000X5.000000*%
%TD*%
%TA.AperFunction,SMDPad,CuDef*%
%ADD34RotRect,2.550000X2.500000X350.000000*%
%TD*%
%TA.AperFunction,SMDPad,CuDef*%
%ADD35RotRect,2.550000X2.500000X5.000000*%
%TD*%
%TA.AperFunction,SMDPad,CuDef*%
%ADD36RotRect,2.550000X2.500000X330.000000*%
%TD*%
%TA.AperFunction,ComponentPad*%
%ADD37RoundRect,0.375000X-0.375000X-0.750000X0.375000X-0.750000X0.375000X0.750000X-0.375000X0.750000X0*%
%TD*%
%TA.AperFunction,SMDPad,CuDef*%
%ADD38FreePoly0,150.000000*%
%TD*%
%TA.AperFunction,SMDPad,CuDef*%
%ADD39FreePoly1,330.000000*%
%TD*%
%TA.AperFunction,SMDPad,CuDef*%
%ADD40FreePoly2,330.000000*%
%TD*%
%TA.AperFunction,SMDPad,CuDef*%
%ADD41FreePoly3,150.000000*%
%TD*%
%TA.AperFunction,ComponentPad*%
%ADD42C,2.000000*%
%TD*%
%TA.AperFunction,ComponentPad*%
%ADD43R,2.000000X2.000000*%
%TD*%
%TA.AperFunction,ComponentPad*%
%ADD44C,1.500000*%
%TD*%
%TA.AperFunction,ComponentPad*%
%ADD45R,3.200000X2.000000*%
%TD*%
%TA.AperFunction,ComponentPad*%
%ADD46RotRect,1.778000X1.778000X340.000000*%
%TD*%
%TA.AperFunction,ComponentPad*%
%ADD47O,1.600000X2.200000*%
%TD*%
%TA.AperFunction,SMDPad,CuDef*%
%ADD48FreePoly4,180.000000*%
%TD*%
%TA.AperFunction,SMDPad,CuDef*%
%ADD49FreePoly5,180.000000*%
%TD*%
%TA.AperFunction,SMDPad,CuDef*%
%ADD50RotRect,2.550000X2.500000X340.000000*%
%TD*%
%TA.AperFunction,ComponentPad*%
%ADD51RotRect,1.778000X1.778000X330.000000*%
%TD*%
%TA.AperFunction,SMDPad,CuDef*%
%ADD52FreePoly0,160.000000*%
%TD*%
%TA.AperFunction,SMDPad,CuDef*%
%ADD53FreePoly1,340.000000*%
%TD*%
%TA.AperFunction,SMDPad,CuDef*%
%ADD54FreePoly2,340.000000*%
%TD*%
%TA.AperFunction,SMDPad,CuDef*%
%ADD55FreePoly3,160.000000*%
%TD*%
%TA.AperFunction,ComponentPad*%
%ADD56C,0.800000*%
%TD*%
%TA.AperFunction,SMDPad,CuDef*%
%ADD57FreePoly6,90.000000*%
%TD*%
%TA.AperFunction,SMDPad,CuDef*%
%ADD58FreePoly4,270.000000*%
%TD*%
%TA.AperFunction,SMDPad,CuDef*%
%ADD59FreePoly4,90.000000*%
%TD*%
%TA.AperFunction,SMDPad,CuDef*%
%ADD60FreePoly6,270.000000*%
%TD*%
%TA.AperFunction,ComponentPad*%
%ADD61C,1.600000*%
%TD*%
%TA.AperFunction,SMDPad,CuDef*%
%ADD62FreePoly7,90.000000*%
%TD*%
%TA.AperFunction,SMDPad,CuDef*%
%ADD63FreePoly5,90.000000*%
%TD*%
%TA.AperFunction,SMDPad,CuDef*%
%ADD64FreePoly5,270.000000*%
%TD*%
%TA.AperFunction,SMDPad,CuDef*%
%ADD65FreePoly7,270.000000*%
%TD*%
%TA.AperFunction,ComponentPad*%
%ADD66R,1.600000X1.600000*%
%TD*%
%TA.AperFunction,ViaPad*%
%ADD67C,0.800000*%
%TD*%
%TA.AperFunction,Conductor*%
%ADD68C,0.250000*%
%TD*%
G04 APERTURE END LIST*
D10*
%TO.C,SCREEN1*%
X202477129Y-157637153D02*
X202477129Y-158508853D01*
X199937129Y-157637153D02*
X199937129Y-158508853D01*
X197397129Y-157637153D02*
X197397129Y-158508853D01*
X194857129Y-157637153D02*
X194857129Y-158508853D01*
X192317129Y-157637153D02*
X192317129Y-158508853D01*
%TA.AperFunction,EtchedComponent*%
%TO.C,D20*%
G36*
X133032143Y-175540994D02*
G01*
X133215568Y-175543322D01*
X133387552Y-175547573D01*
X133540528Y-175553746D01*
X133666927Y-175561840D01*
X133759184Y-175571854D01*
X133810115Y-175579737D01*
X134246141Y-175661705D01*
X134695391Y-175770294D01*
X135146490Y-175901934D01*
X135588062Y-176053057D01*
X136008735Y-176220096D01*
X136397133Y-176399480D01*
X136674995Y-176544916D01*
X136979048Y-176716784D01*
X137286457Y-176902390D01*
X137588185Y-177095933D01*
X137875200Y-177291607D01*
X138138466Y-177483609D01*
X138368948Y-177666136D01*
X138386732Y-177680813D01*
X138454734Y-177735613D01*
X138523977Y-177789976D01*
X138555038Y-177814234D01*
X138700243Y-177933342D01*
X138868005Y-178078531D01*
X139052430Y-178244221D01*
X139247624Y-178424832D01*
X139447692Y-178614784D01*
X139646740Y-178808499D01*
X139838872Y-179000396D01*
X140018196Y-179184896D01*
X140178815Y-179356419D01*
X140353808Y-179554388D01*
X140607662Y-179864017D01*
X140871607Y-180211433D01*
X141146178Y-180597420D01*
X141431913Y-181022761D01*
X141729347Y-181488238D01*
X142039018Y-181994636D01*
X142361461Y-182542737D01*
X142362033Y-182543726D01*
X142449673Y-182700854D01*
X142549703Y-182889288D01*
X142657360Y-183099334D01*
X142767881Y-183321297D01*
X142876503Y-183545481D01*
X142978465Y-183762192D01*
X143069003Y-183961733D01*
X143143355Y-184134411D01*
X143149450Y-184149082D01*
X143197402Y-184263082D01*
X143258953Y-184407598D01*
X143330310Y-184573817D01*
X143407678Y-184752925D01*
X143487265Y-184936111D01*
X143565277Y-185114561D01*
X143567040Y-185118581D01*
X143661921Y-185335875D01*
X143740427Y-185518726D01*
X143804595Y-185673106D01*
X143856463Y-185804993D01*
X143898067Y-185920362D01*
X143931444Y-186025187D01*
X143958632Y-186125445D01*
X143981666Y-186227110D01*
X144002584Y-186336159D01*
X144023423Y-186458566D01*
X144033159Y-186516838D01*
X144055697Y-186644412D01*
X144077787Y-186760643D01*
X144097315Y-186854646D01*
X144112168Y-186915533D01*
X144123090Y-186954963D01*
X144138124Y-187017378D01*
X144144022Y-187054665D01*
X144142270Y-187066283D01*
X144122703Y-187084017D01*
X144110434Y-187072997D01*
X144089577Y-187028220D01*
X144061820Y-186947269D01*
X144026586Y-186828296D01*
X143983303Y-186669454D01*
X143931396Y-186468898D01*
X143915917Y-186407800D01*
X143895776Y-186329436D01*
X143877289Y-186262519D01*
X143858005Y-186201378D01*
X143835474Y-186140345D01*
X143807247Y-186073752D01*
X143770873Y-185995928D01*
X143723902Y-185901205D01*
X143663884Y-185783913D01*
X143588369Y-185638385D01*
X143494907Y-185458951D01*
X143445177Y-185362701D01*
X143352628Y-185180299D01*
X143257963Y-184990130D01*
X143166960Y-184803951D01*
X143085396Y-184633518D01*
X143019049Y-184490590D01*
X142900265Y-184230510D01*
X142785234Y-183982495D01*
X142680449Y-183760671D01*
X142587340Y-183567996D01*
X142507338Y-183407429D01*
X142441874Y-183281927D01*
X142392376Y-183194450D01*
X142350407Y-183125437D01*
X142348496Y-183396181D01*
X142348044Y-183430644D01*
X142341443Y-183581473D01*
X142328373Y-183719998D01*
X142310248Y-183830184D01*
X142291773Y-183900932D01*
X142252108Y-184024440D01*
X142200966Y-184164473D01*
X142143141Y-184309179D01*
X142083427Y-184446706D01*
X142026619Y-184565203D01*
X141977508Y-184652818D01*
X141971907Y-184661526D01*
X141788624Y-184909042D01*
X141571819Y-185139734D01*
X141331806Y-185342586D01*
X141257151Y-185400279D01*
X141176584Y-185470128D01*
X141102291Y-185546119D01*
X141024208Y-185638723D01*
X140932275Y-185758412D01*
X140924424Y-185768951D01*
X140838676Y-185888078D01*
X140750703Y-186016497D01*
X140670411Y-186139440D01*
X140607711Y-186242138D01*
X140565613Y-186312019D01*
X140508861Y-186394965D01*
X140464523Y-186446125D01*
X140434983Y-186464398D01*
X140422622Y-186448685D01*
X140429821Y-186397883D01*
X140458964Y-186310891D01*
X140477608Y-186256171D01*
X140508514Y-186146544D01*
X140544421Y-186001619D01*
X140584108Y-185826405D01*
X140626348Y-185625910D01*
X140633592Y-185591745D01*
X140665644Y-185457718D01*
X140703748Y-185316772D01*
X140741147Y-185194312D01*
X140758449Y-185144707D01*
X140801254Y-185042846D01*
X140854182Y-184947588D01*
X140923199Y-184850093D01*
X141014270Y-184741520D01*
X141133362Y-184613026D01*
X141167245Y-184576360D01*
X141231240Y-184496566D01*
X141281873Y-184412957D01*
X141321167Y-184318750D01*
X141351143Y-184207165D01*
X141373820Y-184071418D01*
X141391222Y-183904730D01*
X141405367Y-183700318D01*
X141421397Y-183468850D01*
X141443624Y-183249918D01*
X141472002Y-183067587D01*
X141508101Y-182917744D01*
X141553493Y-182796277D01*
X141609748Y-182699075D01*
X141678437Y-182622025D01*
X141761133Y-182561015D01*
X141859405Y-182511933D01*
X141918429Y-182488657D01*
X141961217Y-182478591D01*
X141980314Y-182489314D01*
X141984688Y-182521511D01*
X141967705Y-182562816D01*
X141914227Y-182604991D01*
X141868508Y-182632243D01*
X141766872Y-182711189D01*
X141681186Y-182802043D01*
X141624589Y-182891795D01*
X141615001Y-182915820D01*
X141586318Y-183018278D01*
X141560341Y-183157304D01*
X141537909Y-183326890D01*
X141519862Y-183521028D01*
X141507036Y-183733710D01*
X141504856Y-183780333D01*
X141493149Y-183974046D01*
X141476890Y-184132789D01*
X141453234Y-184264422D01*
X141419336Y-184376806D01*
X141372353Y-184477801D01*
X141309439Y-184575269D01*
X141227751Y-184677070D01*
X141124445Y-184791065D01*
X141067017Y-184853725D01*
X140965380Y-184975866D01*
X140884287Y-185094527D01*
X140819110Y-185219295D01*
X140765218Y-185359754D01*
X140717981Y-185525489D01*
X140672768Y-185726085D01*
X140663941Y-185767803D01*
X140639395Y-185876367D01*
X140614936Y-185975824D01*
X140594747Y-186048872D01*
X140585113Y-186080536D01*
X140567486Y-186144757D01*
X140565149Y-186172389D01*
X140579941Y-186162997D01*
X140613699Y-186116143D01*
X140668260Y-186031391D01*
X140778294Y-185863318D01*
X140908586Y-185683815D01*
X141037222Y-185530986D01*
X141171496Y-185396309D01*
X141318702Y-185271258D01*
X141331435Y-185261171D01*
X141425673Y-185183639D01*
X141511327Y-185108551D01*
X141579407Y-185044028D01*
X141620926Y-184998191D01*
X141634531Y-184980295D01*
X141692072Y-184908824D01*
X141746116Y-184846769D01*
X141767421Y-184823061D01*
X141844294Y-184723489D01*
X141919500Y-184601708D01*
X141997071Y-184450693D01*
X142081041Y-184263420D01*
X142121503Y-184164539D01*
X142215657Y-183885293D01*
X142272566Y-183621150D01*
X142293166Y-183366680D01*
X142278390Y-183116454D01*
X142278254Y-183115397D01*
X142265665Y-183035556D01*
X142247757Y-182965306D01*
X142219999Y-182892785D01*
X142177859Y-182806133D01*
X142116808Y-182693491D01*
X141970168Y-182434749D01*
X141781950Y-182114641D01*
X141582336Y-181786462D01*
X141376452Y-181458240D01*
X141169421Y-181138003D01*
X140966366Y-180833780D01*
X140772413Y-180553600D01*
X140592684Y-180305489D01*
X140562795Y-180265528D01*
X140389535Y-180040577D01*
X140214716Y-179826025D01*
X140030080Y-179612265D01*
X139827369Y-179389691D01*
X139598324Y-179148695D01*
X139276297Y-178815564D01*
X139144559Y-178928953D01*
X139113443Y-178954999D01*
X138960556Y-179068322D01*
X138777774Y-179184548D01*
X138575690Y-179296824D01*
X138524859Y-179324666D01*
X138388910Y-179417077D01*
X138285680Y-179516950D01*
X138221014Y-179618974D01*
X138196410Y-179683463D01*
X138154661Y-179824178D01*
X138115505Y-179993516D01*
X138080924Y-180181412D01*
X138052897Y-180377803D01*
X138033404Y-180572623D01*
X138010610Y-180788193D01*
X137943880Y-181146804D01*
X137843686Y-181488908D01*
X137711969Y-181808375D01*
X137550666Y-182099074D01*
X137538386Y-182118610D01*
X137491294Y-182198262D01*
X137438603Y-182293234D01*
X137382689Y-182398541D01*
X137325927Y-182509201D01*
X137270693Y-182620229D01*
X137219364Y-182726641D01*
X137174314Y-182823452D01*
X137137920Y-182905680D01*
X137112558Y-182968340D01*
X137100603Y-183006448D01*
X137104431Y-183015020D01*
X137126418Y-182989071D01*
X137166836Y-182933909D01*
X137244387Y-182834069D01*
X137331459Y-182727365D01*
X137420786Y-182622277D01*
X137505103Y-182527289D01*
X137577145Y-182450884D01*
X137629646Y-182401544D01*
X137637593Y-182394914D01*
X137706042Y-182331230D01*
X137784007Y-182250240D01*
X137856123Y-182167802D01*
X137856871Y-182166892D01*
X137935233Y-182072553D01*
X138023417Y-181967713D01*
X138102477Y-181874902D01*
X138120503Y-181853898D01*
X138181053Y-181782791D01*
X138231289Y-181722993D01*
X138261800Y-181685682D01*
X138264489Y-181682304D01*
X138299515Y-181641093D01*
X138353035Y-181580654D01*
X138414606Y-181512802D01*
X138485002Y-181425353D01*
X138585886Y-181259318D01*
X138678579Y-181056533D01*
X138761361Y-180821485D01*
X138832511Y-180558657D01*
X138890309Y-180272537D01*
X138892140Y-180261833D01*
X138910466Y-180157360D01*
X138926521Y-180070383D01*
X138938632Y-180009711D01*
X138945124Y-179984152D01*
X138949716Y-179961931D01*
X138957682Y-179903647D01*
X138967599Y-179818931D01*
X138978306Y-179717127D01*
X138990029Y-179614998D01*
X139009491Y-179485196D01*
X139031542Y-179372283D01*
X139054591Y-179283127D01*
X139077046Y-179224597D01*
X139097316Y-179203561D01*
X139101801Y-179205401D01*
X139108890Y-179236252D01*
X139103128Y-179298171D01*
X139098761Y-179324352D01*
X139083580Y-179414686D01*
X139068430Y-179504087D01*
X139060430Y-179563524D01*
X139051830Y-179664228D01*
X139047838Y-179763235D01*
X139047259Y-179790560D01*
X139037853Y-179936956D01*
X139018764Y-180110818D01*
X138991930Y-180299531D01*
X138959286Y-180490480D01*
X138922769Y-180671051D01*
X138884315Y-180828627D01*
X138854348Y-180932634D01*
X138784823Y-181132538D01*
X138706361Y-181301036D01*
X138614428Y-181447095D01*
X138504489Y-181579682D01*
X138485944Y-181599652D01*
X138408141Y-181685749D01*
X138333270Y-181771688D01*
X138275302Y-181841510D01*
X138217133Y-181912780D01*
X138084638Y-182064465D01*
X137924079Y-182236042D01*
X137731968Y-182431298D01*
X137634870Y-182529621D01*
X137455661Y-182721265D01*
X137309193Y-182893258D01*
X137197641Y-183043111D01*
X137163810Y-183092077D01*
X137119453Y-183153440D01*
X137088242Y-183193257D01*
X137083750Y-183198770D01*
X137053179Y-183243533D01*
X137010952Y-183312218D01*
X136964793Y-183392367D01*
X136951905Y-183415081D01*
X136908057Y-183486586D01*
X136871097Y-183538653D01*
X136847933Y-183561293D01*
X136820860Y-183560421D01*
X136808957Y-183528298D01*
X136820094Y-183466121D01*
X136854127Y-183378219D01*
X136855949Y-183374202D01*
X136886690Y-183300683D01*
X136926130Y-183198785D01*
X136969382Y-183081435D01*
X137011562Y-182961564D01*
X137084376Y-182763142D01*
X137230173Y-182434537D01*
X137405996Y-182116445D01*
X137559518Y-181839453D01*
X137701171Y-181517620D01*
X137809331Y-181182486D01*
X137886376Y-180826524D01*
X137934681Y-180442209D01*
X137939414Y-180392340D01*
X137967659Y-180180358D01*
X138007762Y-179967410D01*
X138056559Y-179768638D01*
X138110885Y-179599183D01*
X138136402Y-179542584D01*
X138226706Y-179417343D01*
X138359948Y-179301237D01*
X138535581Y-179194789D01*
X138549645Y-179187473D01*
X138696815Y-179104672D01*
X138845043Y-179011328D01*
X138980291Y-178916700D01*
X139088525Y-178830047D01*
X139186489Y-178743469D01*
X139010610Y-178576312D01*
X138954159Y-178523087D01*
X138656262Y-178254022D01*
X138332169Y-177978674D01*
X137993940Y-177706789D01*
X137653631Y-177448115D01*
X137323302Y-177212399D01*
X137283412Y-177185566D01*
X137226934Y-177152196D01*
X137194899Y-177142922D01*
X137180619Y-177155054D01*
X137180105Y-177156501D01*
X137140461Y-177221558D01*
X137068726Y-177297441D01*
X136973302Y-177377119D01*
X136862589Y-177453558D01*
X136744989Y-177519726D01*
X136679856Y-177551753D01*
X136603157Y-177588566D01*
X136548457Y-177613710D01*
X136524643Y-177623017D01*
X136499855Y-177630990D01*
X136444337Y-177654865D01*
X136369218Y-177689693D01*
X136284877Y-177730449D01*
X136201697Y-177772109D01*
X136130060Y-177809649D01*
X136080345Y-177838045D01*
X136046563Y-177857014D01*
X135970013Y-177894485D01*
X135873762Y-177937608D01*
X135770940Y-177980344D01*
X135646666Y-178030532D01*
X135548558Y-178072570D01*
X135473909Y-178108783D01*
X135413380Y-178144134D01*
X135357630Y-178183589D01*
X135297319Y-178232112D01*
X135199874Y-178327889D01*
X135083405Y-178494418D01*
X134990149Y-178698773D01*
X134920160Y-178940825D01*
X134873496Y-179220444D01*
X134860414Y-179317664D01*
X134829215Y-179494916D01*
X134789861Y-179671757D01*
X134745169Y-179837187D01*
X134697953Y-179980206D01*
X134651028Y-180089811D01*
X134648528Y-180094530D01*
X134610286Y-180154673D01*
X134548693Y-180239774D01*
X134469597Y-180342531D01*
X134378844Y-180455644D01*
X134282279Y-180571811D01*
X134185749Y-180683732D01*
X134095099Y-180784104D01*
X134041845Y-180845501D01*
X133971946Y-180934023D01*
X133909355Y-181020727D01*
X133854362Y-181093155D01*
X133776287Y-181179969D01*
X133701617Y-181248904D01*
X133665655Y-181278905D01*
X133624856Y-181319397D01*
X133614373Y-181340408D01*
X133635021Y-181338385D01*
X133687618Y-181309773D01*
X133730603Y-181286700D01*
X133800888Y-181253349D01*
X133881620Y-181217881D01*
X133959363Y-181185071D01*
X134037857Y-181151909D01*
X134093101Y-181128530D01*
X134112456Y-181120385D01*
X134177396Y-181093348D01*
X134263918Y-181057551D01*
X134358700Y-181018511D01*
X134388685Y-181006189D01*
X134475495Y-180969794D01*
X134540029Y-180939448D01*
X134593372Y-180907995D01*
X134646604Y-180868278D01*
X134710808Y-180813140D01*
X134797068Y-180735424D01*
X134833848Y-180702508D01*
X134917420Y-180629999D01*
X134994293Y-180566043D01*
X135051518Y-180521527D01*
X135096509Y-180487072D01*
X135221108Y-180368127D01*
X135334248Y-180221056D01*
X135438417Y-180041768D01*
X135536102Y-179826169D01*
X135629791Y-179570166D01*
X135641788Y-179534531D01*
X135763951Y-179207862D01*
X135896338Y-178915340D01*
X136037567Y-178659496D01*
X136186254Y-178442862D01*
X136341016Y-178267971D01*
X136378237Y-178230549D01*
X136469412Y-178131125D01*
X136556738Y-178026749D01*
X136625491Y-177934674D01*
X136667819Y-177874562D01*
X136746025Y-177772632D01*
X136824618Y-177680059D01*
X136899073Y-177601212D01*
X136964862Y-177540461D01*
X137017459Y-177502175D01*
X137052336Y-177490724D01*
X137064968Y-177510477D01*
X137050433Y-177533253D01*
X137010107Y-177575521D01*
X136953037Y-177627348D01*
X136933127Y-177645402D01*
X136863521Y-177718544D01*
X136788290Y-177808996D01*
X136720565Y-177901282D01*
X136704756Y-177924119D01*
X136627447Y-178026521D01*
X136541566Y-178129180D01*
X136462950Y-178212939D01*
X136454534Y-178221195D01*
X136375985Y-178302547D01*
X136299253Y-178388362D01*
X136239845Y-178461374D01*
X136209517Y-178504375D01*
X136143264Y-178609648D01*
X136070654Y-178736213D01*
X135998705Y-178871156D01*
X135934438Y-179001562D01*
X135884871Y-179114516D01*
X135863408Y-179167964D01*
X135835459Y-179236602D01*
X135816708Y-179281475D01*
X135813019Y-179290718D01*
X135794976Y-179340834D01*
X135767353Y-179421059D01*
X135733188Y-179522503D01*
X135695515Y-179636280D01*
X135652000Y-179765763D01*
X135595179Y-179920661D01*
X135538132Y-180052963D01*
X135475922Y-180169869D01*
X135403615Y-180278580D01*
X135316276Y-180386294D01*
X135208970Y-180500214D01*
X135076762Y-180627538D01*
X134914716Y-180775468D01*
X134886561Y-180800682D01*
X134778495Y-180894264D01*
X134688605Y-180964641D01*
X134606393Y-181018899D01*
X134521364Y-181064124D01*
X134423018Y-181107403D01*
X134251891Y-181178168D01*
X134107588Y-181238819D01*
X133982497Y-181292905D01*
X133865446Y-181345445D01*
X133745262Y-181401455D01*
X133610773Y-181465950D01*
X133450808Y-181543948D01*
X133421116Y-181558278D01*
X133341004Y-181592844D01*
X133291113Y-181604729D01*
X133265522Y-181594511D01*
X133258307Y-181562771D01*
X133258896Y-181558496D01*
X133281120Y-181519254D01*
X133333353Y-181454701D01*
X133412674Y-181368234D01*
X133516159Y-181263249D01*
X133555928Y-181223538D01*
X133655624Y-181120462D01*
X133750476Y-181017920D01*
X133831331Y-180925947D01*
X133889033Y-180854576D01*
X133936861Y-180793065D01*
X134016247Y-180696502D01*
X134105350Y-180592541D01*
X134192414Y-180495111D01*
X134197743Y-180489299D01*
X134319481Y-180354307D01*
X134414601Y-180242469D01*
X134488073Y-180146057D01*
X134544862Y-180057343D01*
X134589937Y-179968596D01*
X134628265Y-179872088D01*
X134664814Y-179760090D01*
X134680529Y-179708257D01*
X134710866Y-179603918D01*
X134733115Y-179516591D01*
X134750563Y-179430964D01*
X134766492Y-179331724D01*
X134784188Y-179203561D01*
X134793517Y-179134818D01*
X134810841Y-179020138D01*
X134828853Y-178927698D01*
X134851175Y-178842706D01*
X134881430Y-178750370D01*
X134923241Y-178635901D01*
X134990858Y-178480165D01*
X135099834Y-178304393D01*
X135235018Y-178160239D01*
X135401505Y-178042546D01*
X135604391Y-177946154D01*
X135610784Y-177943627D01*
X135707296Y-177902780D01*
X135827271Y-177848389D01*
X135956050Y-177787245D01*
X136078978Y-177726146D01*
X136205695Y-177662297D01*
X136349836Y-177591184D01*
X136490068Y-177523310D01*
X136608614Y-177467362D01*
X136728355Y-177409140D01*
X136826590Y-177353063D01*
X136906794Y-177295256D01*
X136981489Y-177227669D01*
X136999112Y-177210103D01*
X137055347Y-177151553D01*
X137094683Y-177106668D01*
X137109490Y-177084012D01*
X137097462Y-177067522D01*
X137051371Y-177030452D01*
X136975849Y-176978189D01*
X136876332Y-176914016D01*
X136758260Y-176841213D01*
X136627068Y-176763064D01*
X136488195Y-176682848D01*
X136347078Y-176603848D01*
X136209154Y-176529345D01*
X136079861Y-176462621D01*
X135819191Y-176339887D01*
X135515754Y-176211869D01*
X135192356Y-176088299D01*
X134861423Y-175973691D01*
X134535385Y-175872560D01*
X134226668Y-175789420D01*
X134093432Y-175757314D01*
X133938579Y-175722608D01*
X133801149Y-175696065D01*
X133666537Y-175675217D01*
X133520139Y-175657593D01*
X133347352Y-175640724D01*
X133281032Y-175635849D01*
X133169294Y-175630547D01*
X133038595Y-175626701D01*
X132895987Y-175624285D01*
X132748522Y-175623271D01*
X132603252Y-175623635D01*
X132467228Y-175625349D01*
X132347503Y-175628387D01*
X132251127Y-175632723D01*
X132185154Y-175638330D01*
X132156634Y-175645182D01*
X132153895Y-175650066D01*
X132139919Y-175689630D01*
X132118276Y-175761222D01*
X132091360Y-175856713D01*
X132061567Y-175967969D01*
X131980993Y-176276216D01*
X131979642Y-176821615D01*
X131979898Y-176969154D01*
X131984302Y-177229120D01*
X131994655Y-177472274D01*
X132011921Y-177713674D01*
X132037062Y-177968383D01*
X132071041Y-178251461D01*
X132088035Y-178427709D01*
X132095061Y-178673571D01*
X132083685Y-178910759D01*
X132054218Y-179123202D01*
X132034921Y-179203373D01*
X132006908Y-179287908D01*
X131975927Y-179359208D01*
X131945269Y-179412607D01*
X131918223Y-179443436D01*
X131898080Y-179447027D01*
X131888130Y-179418712D01*
X131891664Y-179353824D01*
X131892642Y-179300596D01*
X131884814Y-179208502D01*
X131869292Y-179093242D01*
X131848006Y-178965429D01*
X131822886Y-178835673D01*
X131795861Y-178714587D01*
X131768863Y-178612783D01*
X131743819Y-178540873D01*
X131742898Y-178538733D01*
X131724967Y-178478591D01*
X131712368Y-178402685D01*
X131705666Y-178322921D01*
X131705430Y-178251206D01*
X131712226Y-178199446D01*
X131726620Y-178179547D01*
X131741813Y-178191433D01*
X131756714Y-178233583D01*
X131763195Y-178290370D01*
X131758056Y-178344957D01*
X131755786Y-178363716D01*
X131766393Y-178434539D01*
X131799345Y-178528611D01*
X131808802Y-178552956D01*
X131837307Y-178644209D01*
X131867478Y-178761126D01*
X131896408Y-178890170D01*
X131921189Y-179017804D01*
X131938916Y-179130490D01*
X131946679Y-179214691D01*
X131948530Y-179281475D01*
X131977154Y-179214691D01*
X131979172Y-179209797D01*
X132000914Y-179133736D01*
X132020404Y-179026772D01*
X132036308Y-178901398D01*
X132047294Y-178770103D01*
X132052029Y-178645379D01*
X132049180Y-178539717D01*
X132042124Y-178457083D01*
X132030935Y-178339214D01*
X132017636Y-178207951D01*
X132003810Y-178079372D01*
X132002881Y-178071017D01*
X131978105Y-177842956D01*
X131958674Y-177649949D01*
X131944078Y-177483208D01*
X131933805Y-177333948D01*
X131927346Y-177193384D01*
X131924189Y-177052729D01*
X131923824Y-176903197D01*
X131925741Y-176736003D01*
X131933767Y-176238559D01*
X131822462Y-176359797D01*
X131786791Y-176400867D01*
X131727835Y-176483344D01*
X131673860Y-176582857D01*
X131617221Y-176712543D01*
X131565371Y-176851636D01*
X131524324Y-177003446D01*
X131506175Y-177149874D01*
X131509228Y-177306316D01*
X131531787Y-177488167D01*
X131533227Y-177497202D01*
X131554448Y-177622770D01*
X131572370Y-177709386D01*
X131587799Y-177756262D01*
X131601541Y-177762613D01*
X131614399Y-177727650D01*
X131627180Y-177650587D01*
X131640688Y-177530638D01*
X131655729Y-177367014D01*
X131668415Y-177237720D01*
X131688087Y-177084123D01*
X131709990Y-176956676D01*
X131733160Y-176859965D01*
X131756637Y-176798575D01*
X131779458Y-176777093D01*
X131779502Y-176777093D01*
X131801382Y-176778283D01*
X131808711Y-176789082D01*
X131801533Y-176820328D01*
X131779894Y-176882859D01*
X131771460Y-176908697D01*
X131761442Y-176946949D01*
X131751558Y-176996148D01*
X131741004Y-177061848D01*
X131728977Y-177149605D01*
X131714672Y-177264971D01*
X131697287Y-177413504D01*
X131676017Y-177600756D01*
X131671439Y-177641340D01*
X131659197Y-177749391D01*
X131647998Y-177847638D01*
X131639802Y-177918861D01*
X131635846Y-177946716D01*
X131619602Y-178002047D01*
X131599806Y-178014208D01*
X131580160Y-177983602D01*
X131564365Y-177910633D01*
X131561248Y-177889845D01*
X131545512Y-177813859D01*
X131527358Y-177754700D01*
X131518149Y-177725082D01*
X131501890Y-177654982D01*
X131483655Y-177561634D01*
X131465926Y-177457067D01*
X131445929Y-177301199D01*
X131440252Y-177147632D01*
X131454505Y-177004810D01*
X131490415Y-176856894D01*
X131549706Y-176688048D01*
X131594791Y-176573601D01*
X131634032Y-176481573D01*
X131669485Y-176411618D01*
X131707043Y-176353487D01*
X131752598Y-176296929D01*
X131812041Y-176231694D01*
X131818856Y-176224343D01*
X131904717Y-176112972D01*
X131966256Y-175987930D01*
X132010943Y-175834291D01*
X132016189Y-175811572D01*
X132033032Y-175745646D01*
X132046701Y-175701212D01*
X132049843Y-175681161D01*
X132032925Y-175666877D01*
X131987748Y-175666756D01*
X131909714Y-175680949D01*
X131794226Y-175709611D01*
X131514783Y-175789366D01*
X131252568Y-175878447D01*
X131011200Y-175977712D01*
X130778539Y-176092178D01*
X130542444Y-176226861D01*
X130488008Y-176260117D01*
X130388932Y-176323518D01*
X130321332Y-176372950D01*
X130279774Y-176413281D01*
X130258824Y-176449379D01*
X130253049Y-176486112D01*
X130236419Y-176581256D01*
X130187186Y-176689921D01*
X130111541Y-176794285D01*
X130052916Y-176867817D01*
X129982572Y-176967488D01*
X129910635Y-177078023D01*
X129846526Y-177184939D01*
X129799664Y-177273754D01*
X129780134Y-177325201D01*
X129755657Y-177412897D01*
X129737168Y-177504808D01*
X129724550Y-177573422D01*
X129699322Y-177681403D01*
X129672069Y-177774077D01*
X129651805Y-177842224D01*
X129633206Y-177964744D01*
X129637404Y-178098634D01*
X129664176Y-178257461D01*
X129678156Y-178343417D01*
X129688571Y-178461497D01*
X129693120Y-178590006D01*
X129691936Y-178718012D01*
X129685151Y-178834589D01*
X129672899Y-178928806D01*
X129655310Y-178989734D01*
X129655273Y-178989808D01*
X129646404Y-179008954D01*
X129639583Y-179029846D01*
X129634870Y-179057228D01*
X129632324Y-179095845D01*
X129632005Y-179150442D01*
X129633975Y-179225763D01*
X129638292Y-179326553D01*
X129645016Y-179457557D01*
X129654209Y-179623518D01*
X129665929Y-179829182D01*
X129668184Y-179871687D01*
X129672125Y-180018682D01*
X129667516Y-180122826D01*
X129654296Y-180184806D01*
X129632404Y-180205314D01*
X129623023Y-180192500D01*
X129610921Y-180146039D01*
X129601374Y-180077312D01*
X129590575Y-180011977D01*
X129560422Y-179903117D01*
X129519205Y-179796971D01*
X129513555Y-179784543D01*
X129482073Y-179710428D01*
X129461499Y-179653478D01*
X129456049Y-179625160D01*
X129467490Y-179612488D01*
X129492653Y-179630672D01*
X129527394Y-179687999D01*
X129570176Y-179782351D01*
X129629895Y-179927049D01*
X129613120Y-179693307D01*
X129611482Y-179668973D01*
X129605823Y-179551679D01*
X129602281Y-179418788D01*
X129600748Y-179277812D01*
X129601117Y-179136264D01*
X129603278Y-179001658D01*
X129607124Y-178881505D01*
X129612545Y-178783318D01*
X129619435Y-178714611D01*
X129627684Y-178682896D01*
X129633291Y-178672540D01*
X129642342Y-178618471D01*
X129642718Y-178534466D01*
X129635034Y-178430449D01*
X129619903Y-178316343D01*
X129597939Y-178202071D01*
X129592948Y-178178526D01*
X129574426Y-178032698D01*
X129572887Y-177880881D01*
X129587766Y-177739009D01*
X129618497Y-177623017D01*
X129624521Y-177606492D01*
X129646812Y-177526621D01*
X129662467Y-177443410D01*
X129673548Y-177387894D01*
X129715061Y-177266241D01*
X129778697Y-177129952D01*
X129858460Y-176990070D01*
X129948354Y-176857639D01*
X130042382Y-176743701D01*
X130058184Y-176725617D01*
X130102539Y-176665471D01*
X130145221Y-176596875D01*
X130180134Y-176530964D01*
X130201178Y-176478875D01*
X130202255Y-176451745D01*
X130200188Y-176451069D01*
X130173067Y-176462297D01*
X130126501Y-176490853D01*
X130073089Y-176528060D01*
X130025428Y-176565241D01*
X129996118Y-176593719D01*
X129972086Y-176630940D01*
X129928739Y-176709290D01*
X129875347Y-176813710D01*
X129815885Y-176935699D01*
X129754330Y-177066759D01*
X129694657Y-177198390D01*
X129640841Y-177322091D01*
X129596860Y-177429365D01*
X129566690Y-177511712D01*
X129558224Y-177538374D01*
X129543460Y-177592986D01*
X129533206Y-177649796D01*
X129526821Y-177717266D01*
X129523661Y-177803856D01*
X129523085Y-177918027D01*
X129524451Y-178068241D01*
X129529561Y-178480073D01*
X129438107Y-178713815D01*
X129411484Y-178780300D01*
X129361061Y-178900238D01*
X129310711Y-179013831D01*
X129268154Y-179103386D01*
X129253295Y-179133211D01*
X129187341Y-179278505D01*
X129140235Y-179412862D01*
X129108655Y-179550060D01*
X129089273Y-179703878D01*
X129078764Y-179888092D01*
X129076372Y-179948532D01*
X129068604Y-180074851D01*
X129058101Y-180158278D01*
X129044274Y-180199961D01*
X129026533Y-180201046D01*
X129004288Y-180162682D01*
X128976948Y-180086014D01*
X128976551Y-180084753D01*
X128960982Y-180030597D01*
X128946850Y-179969521D01*
X128932901Y-179894058D01*
X128917879Y-179796739D01*
X128900529Y-179670097D01*
X128879598Y-179506665D01*
X128874232Y-179471416D01*
X128855645Y-179412111D01*
X128827259Y-179387819D01*
X128812066Y-179378599D01*
X128779792Y-179328773D01*
X128747234Y-179240544D01*
X128734234Y-179192198D01*
X128723850Y-179137768D01*
X128716292Y-179072571D01*
X128711147Y-178989858D01*
X128708000Y-178882877D01*
X128706436Y-178744880D01*
X128706043Y-178569117D01*
X128706974Y-178366359D01*
X128709903Y-178199993D01*
X128715111Y-178071441D01*
X128722876Y-177977327D01*
X128733481Y-177914280D01*
X128747204Y-177878926D01*
X128764328Y-177867890D01*
X128777008Y-177883803D01*
X128774687Y-177929109D01*
X128774521Y-177929926D01*
X128767807Y-177984023D01*
X128762037Y-178069509D01*
X128757317Y-178177954D01*
X128753755Y-178300928D01*
X128751458Y-178430000D01*
X128750534Y-178556741D01*
X128751089Y-178672721D01*
X128753230Y-178769510D01*
X128757065Y-178838677D01*
X128762701Y-178871793D01*
X128764561Y-178875790D01*
X128776843Y-178922500D01*
X128788919Y-178997160D01*
X128798418Y-179085582D01*
X128800371Y-179108431D01*
X128811290Y-179208074D01*
X128822553Y-179274180D01*
X128832856Y-179304640D01*
X128840896Y-179297340D01*
X128845370Y-179250171D01*
X128844976Y-179161020D01*
X128844862Y-179157063D01*
X128844739Y-179052577D01*
X128851636Y-178989388D01*
X128865831Y-178964866D01*
X128875578Y-178968869D01*
X128886557Y-179002964D01*
X128894563Y-179073898D01*
X128900192Y-179185496D01*
X128902267Y-179230119D01*
X128909775Y-179335221D01*
X128920894Y-179454977D01*
X128934563Y-179580959D01*
X128949718Y-179704735D01*
X128965298Y-179817875D01*
X128980240Y-179911948D01*
X128993484Y-179978524D01*
X129003965Y-180009173D01*
X129007851Y-180004776D01*
X129013246Y-179966793D01*
X129017291Y-179898580D01*
X129019321Y-179808823D01*
X129031816Y-179609446D01*
X129079938Y-179372744D01*
X129167238Y-179137658D01*
X129192898Y-179080061D01*
X129237726Y-178977652D01*
X129287941Y-178861470D01*
X129336730Y-178747207D01*
X129440516Y-178502334D01*
X129435008Y-178059427D01*
X129434738Y-178037428D01*
X129433327Y-177888659D01*
X129433616Y-177775109D01*
X129436254Y-177688537D01*
X129441892Y-177620704D01*
X129451178Y-177563371D01*
X129464765Y-177508297D01*
X129483300Y-177447245D01*
X129523487Y-177330357D01*
X129618752Y-177096061D01*
X129740670Y-176838311D01*
X129769879Y-176775070D01*
X129786391Y-176728213D01*
X129785458Y-176710309D01*
X129779526Y-176711179D01*
X129752172Y-176732570D01*
X129747628Y-176738551D01*
X129715404Y-176754832D01*
X129714118Y-176754579D01*
X129719791Y-176736280D01*
X129749700Y-176694728D01*
X129798156Y-176637960D01*
X129853590Y-176573733D01*
X129909349Y-176503221D01*
X129947115Y-176448741D01*
X129948858Y-176445887D01*
X129986165Y-176403255D01*
X130027556Y-176378565D01*
X130061124Y-176376277D01*
X130074959Y-176400852D01*
X130078753Y-176405867D01*
X130108606Y-176400393D01*
X130158439Y-176375565D01*
X130285876Y-176301207D01*
X130430493Y-176219623D01*
X130580040Y-176137580D01*
X130725862Y-176059698D01*
X130859306Y-175990595D01*
X130971721Y-175934893D01*
X131054451Y-175897209D01*
X131069954Y-175890773D01*
X131273379Y-175811713D01*
X131490369Y-175736078D01*
X131707610Y-175668057D01*
X131911790Y-175611835D01*
X132089596Y-175571603D01*
X132115088Y-175567478D01*
X132208249Y-175558243D01*
X132335373Y-175550938D01*
X132488891Y-175545561D01*
X132661237Y-175542113D01*
X132844843Y-175540591D01*
X133032143Y-175540994D01*
G37*
%TD.AperFunction*%
%TA.AperFunction,EtchedComponent*%
G36*
X134847442Y-176099537D02*
G01*
X134848816Y-176103596D01*
X134847764Y-176144203D01*
X134822742Y-176197889D01*
X134771757Y-176266857D01*
X134692817Y-176353310D01*
X134583928Y-176459451D01*
X134443098Y-176587482D01*
X134268333Y-176739605D01*
X134165146Y-176830107D01*
X134049132Y-176940189D01*
X133955834Y-177041804D01*
X133876888Y-177144266D01*
X133803933Y-177256890D01*
X133792224Y-177276399D01*
X133772266Y-177311451D01*
X133755845Y-177346111D01*
X133741847Y-177385955D01*
X133729160Y-177436555D01*
X133716673Y-177503486D01*
X133703272Y-177592319D01*
X133687846Y-177708631D01*
X133669283Y-177857993D01*
X133646469Y-178045980D01*
X133628713Y-178171325D01*
X133563910Y-178470899D01*
X133471401Y-178747735D01*
X133353194Y-178996449D01*
X133211301Y-179211657D01*
X133161684Y-179275407D01*
X133233586Y-179238225D01*
X133286527Y-179205946D01*
X133396455Y-179111912D01*
X133511433Y-178981148D01*
X133628397Y-178818114D01*
X133744281Y-178627273D01*
X133856021Y-178413087D01*
X133960551Y-178180015D01*
X133976728Y-178142623D01*
X134032168Y-178029164D01*
X134093886Y-177918848D01*
X134151280Y-177831076D01*
X134183668Y-177784388D01*
X134245673Y-177685104D01*
X134310403Y-177571826D01*
X134368182Y-177461058D01*
X134408028Y-177379498D01*
X134482328Y-177225012D01*
X134548354Y-177084580D01*
X134603770Y-176963354D01*
X134646243Y-176866482D01*
X134673439Y-176799114D01*
X134683022Y-176766402D01*
X134684468Y-176755403D01*
X134699059Y-176711995D01*
X134722800Y-176660340D01*
X134747519Y-176617117D01*
X134765044Y-176599003D01*
X134769601Y-176601020D01*
X134771885Y-176631577D01*
X134757546Y-176694068D01*
X134728558Y-176782262D01*
X134686897Y-176889928D01*
X134634536Y-177010835D01*
X134558537Y-177177144D01*
X134483070Y-177339750D01*
X134419559Y-177472910D01*
X134364925Y-177582794D01*
X134316089Y-177675574D01*
X134269970Y-177757418D01*
X134223491Y-177834499D01*
X134206156Y-177862860D01*
X134149126Y-177961758D01*
X134097797Y-178058283D01*
X134061552Y-178135024D01*
X134021988Y-178224873D01*
X133940177Y-178393971D01*
X133846456Y-178572291D01*
X133749764Y-178743081D01*
X133659037Y-178889590D01*
X133592466Y-178985640D01*
X133480754Y-179121154D01*
X133369629Y-179221202D01*
X133253855Y-179290970D01*
X133193620Y-179322276D01*
X133108416Y-179371608D01*
X133024565Y-179424400D01*
X132959973Y-179466562D01*
X132904875Y-179499244D01*
X132874031Y-179510191D01*
X132860567Y-179501498D01*
X132857606Y-179475259D01*
X132865394Y-179455663D01*
X132899686Y-179407970D01*
X132955038Y-179344396D01*
X133024565Y-179273269D01*
X133076034Y-179222222D01*
X133135685Y-179159707D01*
X133176437Y-179112749D01*
X133191524Y-179088822D01*
X133199918Y-179065898D01*
X133227448Y-179015388D01*
X133267503Y-178951330D01*
X133303130Y-178893121D01*
X133358492Y-178781830D01*
X133408892Y-178650433D01*
X133455362Y-178494861D01*
X133498930Y-178311050D01*
X133540627Y-178094932D01*
X133581482Y-177842441D01*
X133622526Y-177549512D01*
X133636311Y-177451950D01*
X133652325Y-177366889D01*
X133671923Y-177302225D01*
X133699189Y-177244986D01*
X133738208Y-177182202D01*
X133776364Y-177125909D01*
X133863703Y-177008692D01*
X133958524Y-176899662D01*
X134070724Y-176787922D01*
X134210201Y-176662576D01*
X134343570Y-176545943D01*
X134469641Y-176433129D01*
X134568350Y-176341155D01*
X134643635Y-176266224D01*
X134699438Y-176204539D01*
X134739699Y-176152303D01*
X134769292Y-176111487D01*
X134805174Y-176073511D01*
X134829334Y-176070453D01*
X134847442Y-176099537D01*
G37*
%TD.AperFunction*%
%TA.AperFunction,EtchedComponent*%
G36*
X140814617Y-180957048D02*
G01*
X140824422Y-181001698D01*
X140827416Y-181069294D01*
X140823686Y-181148950D01*
X140813322Y-181229780D01*
X140796411Y-181300899D01*
X140790371Y-181319831D01*
X140766384Y-181396435D01*
X140736410Y-181493518D01*
X140705527Y-181594667D01*
X140700094Y-181612144D01*
X140661737Y-181718266D01*
X140620013Y-181810051D01*
X140581416Y-181872932D01*
X140580128Y-181874570D01*
X140549157Y-181921476D01*
X140503125Y-182000168D01*
X140446310Y-182102918D01*
X140382990Y-182221999D01*
X140317444Y-182349683D01*
X140290354Y-182403277D01*
X140212728Y-182554218D01*
X140149115Y-182672054D01*
X140095827Y-182762331D01*
X140049172Y-182830591D01*
X140005461Y-182882381D01*
X139961004Y-182923244D01*
X139912111Y-182958725D01*
X139894819Y-182970899D01*
X139823118Y-183032781D01*
X139763649Y-183099223D01*
X139747249Y-183120039D01*
X139696934Y-183178826D01*
X139626392Y-183257655D01*
X139542585Y-183348798D01*
X139452479Y-183444528D01*
X139394797Y-183505577D01*
X139318198Y-183588411D01*
X139257102Y-183656643D01*
X139216665Y-183704476D01*
X139202041Y-183726116D01*
X139201615Y-183729857D01*
X139180945Y-183744840D01*
X139177607Y-183743725D01*
X139174212Y-183717434D01*
X139187413Y-183665223D01*
X139207522Y-183626803D01*
X139258505Y-183556499D01*
X139332972Y-183468331D01*
X139425556Y-183368977D01*
X139428834Y-183365604D01*
X139517889Y-183273515D01*
X139605655Y-183181994D01*
X139682183Y-183101459D01*
X139737523Y-183042328D01*
X139786588Y-182991487D01*
X139869947Y-182911625D01*
X139947061Y-182844124D01*
X139955850Y-182836862D01*
X140023102Y-182771193D01*
X140077398Y-182693528D01*
X140129989Y-182588121D01*
X140134100Y-182578920D01*
X140177896Y-182483237D01*
X140221833Y-182390687D01*
X140256976Y-182320125D01*
X140304699Y-182228923D01*
X140380096Y-182087098D01*
X140439829Y-181978511D01*
X140486420Y-181898757D01*
X140522395Y-181843428D01*
X140550277Y-181808118D01*
X140555748Y-181802042D01*
X140579161Y-181771309D01*
X140601154Y-181731478D01*
X140624310Y-181675765D01*
X140651216Y-181597390D01*
X140684457Y-181489569D01*
X140726618Y-181345520D01*
X140730736Y-181331038D01*
X140758731Y-181216908D01*
X140775550Y-181117804D01*
X140778867Y-181047019D01*
X140778441Y-181041343D01*
X140780886Y-180974739D01*
X140799280Y-180945668D01*
X140814617Y-180957048D01*
G37*
%TD.AperFunction*%
%TA.AperFunction,EtchedComponent*%
G36*
X140196364Y-181092065D02*
G01*
X140171416Y-181110885D01*
X140112172Y-181129718D01*
X140085638Y-181136433D01*
X140007041Y-181162795D01*
X139899783Y-181206033D01*
X139758570Y-181268221D01*
X139747029Y-181274112D01*
X139688935Y-181313591D01*
X139617096Y-181372703D01*
X139544412Y-181441042D01*
X139497421Y-181490466D01*
X139441631Y-181558799D01*
X139396817Y-181631022D01*
X139359606Y-181715183D01*
X139326622Y-181819330D01*
X139294491Y-181951511D01*
X139259840Y-182119775D01*
X139256399Y-182137318D01*
X139232715Y-182257344D01*
X139210445Y-182369082D01*
X139191951Y-182460728D01*
X139179598Y-182520476D01*
X139165878Y-182595801D01*
X139148266Y-182718072D01*
X139130894Y-182863110D01*
X139115166Y-183019027D01*
X139102484Y-183173938D01*
X139090083Y-183293182D01*
X139056315Y-183494544D01*
X139007952Y-183707060D01*
X138948982Y-183913913D01*
X138883390Y-184098283D01*
X138872156Y-184125868D01*
X138830847Y-184221411D01*
X138802812Y-184276347D01*
X138788275Y-184292282D01*
X138787457Y-184270823D01*
X138800581Y-184213579D01*
X138827869Y-184122156D01*
X138869544Y-183998163D01*
X138886302Y-183949672D01*
X138924547Y-183829509D01*
X138949269Y-183730040D01*
X138963743Y-183636309D01*
X138971238Y-183533359D01*
X138976123Y-183427321D01*
X138983700Y-183275164D01*
X138990757Y-183157002D01*
X138997977Y-183066179D01*
X139006043Y-182996040D01*
X139015641Y-182939932D01*
X139027453Y-182891201D01*
X139042163Y-182843191D01*
X139049179Y-182819768D01*
X139070545Y-182724334D01*
X139088511Y-182610525D01*
X139099770Y-182498143D01*
X139101009Y-182479844D01*
X139113557Y-182337942D01*
X139131517Y-182183087D01*
X139153383Y-182024835D01*
X139177643Y-181872739D01*
X139202790Y-181736355D01*
X139227314Y-181625235D01*
X139249706Y-181548934D01*
X139292740Y-181462306D01*
X139384085Y-181348441D01*
X139499579Y-181256859D01*
X139627296Y-181198623D01*
X139704797Y-181177203D01*
X139846587Y-181141767D01*
X139993953Y-181108470D01*
X140123532Y-181082765D01*
X140137045Y-181080602D01*
X140185433Y-181079793D01*
X140196364Y-181092065D01*
G37*
%TD.AperFunction*%
%TA.AperFunction,EtchedComponent*%
G36*
X137864579Y-179802681D02*
G01*
X137843628Y-179833071D01*
X137788381Y-179886325D01*
X137760031Y-179911314D01*
X137690778Y-179972873D01*
X137632628Y-180025177D01*
X137602732Y-180059819D01*
X137554946Y-180129377D01*
X137500734Y-180219119D01*
X137447020Y-180318119D01*
X137436791Y-180337835D01*
X137296374Y-180563063D01*
X137131186Y-180752712D01*
X136942532Y-180905265D01*
X136894510Y-180939042D01*
X136830100Y-180989539D01*
X136786703Y-181029937D01*
X136742181Y-181080297D01*
X136818882Y-181065454D01*
X136889538Y-181050652D01*
X136997788Y-181019988D01*
X137094031Y-180978235D01*
X137199384Y-180917163D01*
X137281669Y-180868096D01*
X137390282Y-180808340D01*
X137487930Y-180759299D01*
X137564997Y-180718094D01*
X137641215Y-180667221D01*
X137693247Y-180621087D01*
X137705647Y-180606728D01*
X137737493Y-180573524D01*
X137751237Y-180571563D01*
X137754466Y-180597983D01*
X137745666Y-180639679D01*
X137716107Y-180692555D01*
X137690034Y-180715127D01*
X137625943Y-180756990D01*
X137535595Y-180808926D01*
X137427331Y-180866749D01*
X137309489Y-180926273D01*
X137190410Y-180983311D01*
X137078432Y-181033676D01*
X136981895Y-181073182D01*
X136909140Y-181097644D01*
X136847569Y-181113358D01*
X136745774Y-181133871D01*
X136684654Y-181136557D01*
X136664267Y-181121410D01*
X136673515Y-181105207D01*
X136708306Y-181065216D01*
X136760087Y-181012197D01*
X136819379Y-180955202D01*
X136876704Y-180903284D01*
X136922583Y-180865496D01*
X136947536Y-180850888D01*
X136960413Y-180846328D01*
X137002271Y-180815124D01*
X137060482Y-180761100D01*
X137127669Y-180692236D01*
X137196455Y-180616508D01*
X137259463Y-180541895D01*
X137309316Y-180476375D01*
X137338636Y-180427925D01*
X137422085Y-180254861D01*
X137511729Y-180103521D01*
X137604851Y-179983623D01*
X137705976Y-179888522D01*
X137760136Y-179847665D01*
X137818986Y-179810081D01*
X137855083Y-179795052D01*
X137864579Y-179802681D01*
G37*
%TD.AperFunction*%
%TA.AperFunction,EtchedComponent*%
G36*
X129318079Y-176899529D02*
G01*
X129315721Y-176914871D01*
X129297119Y-176932921D01*
X129294790Y-176933474D01*
X129268262Y-176955380D01*
X129224943Y-177002827D01*
X129172964Y-177067031D01*
X129114239Y-177153862D01*
X129037395Y-177296466D01*
X128967502Y-177456615D01*
X128911043Y-177619071D01*
X128874501Y-177768593D01*
X128874169Y-177770466D01*
X128859210Y-177851768D01*
X128846178Y-177917211D01*
X128837861Y-177952781D01*
X128831910Y-177964382D01*
X128809690Y-177970302D01*
X128803066Y-177954330D01*
X128802594Y-177902738D01*
X128810972Y-177827156D01*
X128826482Y-177738673D01*
X128847408Y-177648379D01*
X128872036Y-177567365D01*
X128919284Y-177439263D01*
X128975271Y-177303463D01*
X129029529Y-177193795D01*
X129086977Y-177100557D01*
X129152533Y-177014048D01*
X129180514Y-176980583D01*
X129244389Y-176909831D01*
X129286968Y-176873872D01*
X129310712Y-176871006D01*
X129318079Y-176899529D01*
G37*
%TD.AperFunction*%
%TA.AperFunction,EtchedComponent*%
G36*
X140770127Y-180747676D02*
G01*
X140777590Y-180801829D01*
X140763127Y-180873539D01*
X140727562Y-180951996D01*
X140704914Y-180988623D01*
X140672489Y-181033654D01*
X140652749Y-181051238D01*
X140648319Y-181047519D01*
X140641033Y-181013354D01*
X140639922Y-180955052D01*
X140643278Y-180918441D01*
X140660165Y-180843756D01*
X140686205Y-180778660D01*
X140716195Y-180734639D01*
X140744933Y-180723183D01*
X140770127Y-180747676D01*
G37*
%TD.AperFunction*%
%TD*%
D11*
%TO.P,T1,3*%
%TO.N,N/C*%
X184247132Y-124960148D03*
%TO.P,T1,2*%
%TO.N,RAW*%
X182747132Y-124960148D03*
%TO.P,T1,1*%
%TO.N,bat*%
X179747132Y-124960148D03*
D12*
%TO.P,T1,*%
%TO.N,*%
X185697132Y-123985148D03*
X185697132Y-121785148D03*
D13*
X183497132Y-122885148D03*
X180497132Y-122885148D03*
D12*
X178297132Y-123985148D03*
X178297132Y-121785148D03*
%TD*%
D14*
%TO.P,B1,2*%
%TO.N,GND*%
X200647130Y-166635152D03*
X194147130Y-166635152D03*
%TO.P,B1,1*%
%TO.N,RST*%
X200647130Y-162135152D03*
X194147130Y-162135152D03*
%TD*%
D15*
%TO.P,L9,4*%
%TO.N,LED_2*%
X161475710Y-201392095D03*
D16*
X161972335Y-200591165D03*
%TO.P,L9,3*%
%TO.N,GND*%
X161233729Y-200460929D03*
D17*
X161779595Y-199668681D03*
D18*
%TO.P,L9,2*%
%TO.N,LED_3*%
X166703633Y-200536922D03*
D16*
X166994855Y-201476770D03*
%TO.P,L9,1*%
%TO.N,VCC*%
X166207008Y-201337852D03*
D19*
X166399749Y-202260335D03*
%TD*%
D20*
%TO.P,D16,2*%
%TO.N,tuckie_home*%
X170212083Y-188183486D03*
D21*
%TO.P,D16,1*%
%TO.N,r_thumb*%
X162707847Y-186860286D03*
%TD*%
D22*
%TO.P,S5,2*%
%TO.N,c_ring*%
X123239138Y-151305149D03*
%TO.P,S5,1*%
%TO.N,ring_home*%
X110312138Y-153845149D03*
%TD*%
%TO.P,S4,2*%
%TO.N,c_ring*%
X123239138Y-170305156D03*
%TO.P,S4,1*%
%TO.N,ring_bottom*%
X110312138Y-172845156D03*
%TD*%
D20*
%TO.P,D5,2*%
%TO.N,ring_home*%
X121207137Y-147385148D03*
D23*
%TO.P,D5,1*%
%TO.N,r_home*%
X113587137Y-147385148D03*
%TD*%
D22*
%TO.P,S12,2*%
%TO.N,c_index*%
X161239134Y-132305153D03*
%TO.P,S12,1*%
%TO.N,index_top*%
X148312134Y-134845153D03*
%TD*%
D24*
%TO.P,REF\u002A\u002A,1*%
%TO.N,c_inner*%
X165897135Y-132385151D03*
%TD*%
D25*
%TO.P,L9,4*%
%TO.N,LED_16*%
X94181786Y-173927962D03*
D16*
X94454193Y-173025787D03*
%TO.P,L9,3*%
%TO.N,GND*%
X93707047Y-173091154D03*
D26*
X94029263Y-172184622D03*
D27*
%TO.P,L9,2*%
%TO.N,LED_17*%
X99010237Y-171748843D03*
D16*
X99534786Y-172581293D03*
%TO.P,L9,1*%
%TO.N,VCC*%
X98737830Y-172651018D03*
D28*
X99162759Y-173492184D03*
%TD*%
D25*
%TO.P,L9,4*%
%TO.N,LED_15*%
X95837741Y-192855654D03*
D16*
X96110148Y-191953479D03*
%TO.P,L9,3*%
%TO.N,GND*%
X95363002Y-192018846D03*
D26*
X95685218Y-191112314D03*
D27*
%TO.P,L9,2*%
%TO.N,LED_16*%
X100666192Y-190676535D03*
D16*
X101190741Y-191508985D03*
%TO.P,L9,1*%
%TO.N,VCC*%
X100393785Y-191578710D03*
D28*
X100818714Y-192419876D03*
%TD*%
D24*
%TO.P,REF\u002A\u002A,1*%
%TO.N,c_thumb*%
X157741806Y-188015487D03*
%TD*%
%TO.P,REF\u002A\u002A,1*%
%TO.N,c_inner*%
X165897135Y-170385145D03*
%TD*%
D20*
%TO.P,D14,2*%
%TO.N,inner_home*%
X178207136Y-149385156D03*
D23*
%TO.P,D14,1*%
%TO.N,r_home*%
X170587136Y-149385156D03*
%TD*%
D24*
%TO.P,REF\u002A\u002A,1*%
%TO.N,c_middle*%
X127897128Y-158385149D03*
%TD*%
D20*
%TO.P,D4,2*%
%TO.N,ring_bottom*%
X121207134Y-166385156D03*
D23*
%TO.P,D4,1*%
%TO.N,r_bottom*%
X113587134Y-166385156D03*
%TD*%
D20*
%TO.P,D8,2*%
%TO.N,middle_home*%
X140207136Y-137385154D03*
D23*
%TO.P,D8,1*%
%TO.N,r_home*%
X132587136Y-137385154D03*
%TD*%
D24*
%TO.P,REF\u002A\u002A,1*%
%TO.N,c_ring*%
X108897133Y-149385148D03*
%TD*%
D22*
%TO.P,S15,2*%
%TO.N,c_inner*%
X180239139Y-134305155D03*
%TO.P,S15,1*%
%TO.N,inner_top*%
X167312139Y-136845155D03*
%TD*%
D29*
%TO.P,L9,4*%
%TO.N,LED_7*%
X152897134Y-161910151D03*
D16*
X153247134Y-161035151D03*
%TO.P,L9,3*%
%TO.N,GND*%
X152497134Y-161035151D03*
D30*
X152897134Y-160160151D03*
D31*
%TO.P,L9,2*%
%TO.N,LED_8*%
X157897134Y-160160151D03*
D16*
X158347134Y-161035151D03*
%TO.P,L9,1*%
%TO.N,VCC*%
X157547134Y-161035151D03*
D32*
X157897134Y-161910151D03*
%TD*%
D24*
%TO.P,REF\u002A\u002A,1*%
%TO.N,c_index*%
X146897136Y-149385156D03*
%TD*%
%TO.P,REF\u002A\u002A,1*%
%TO.N,c_pinkie*%
X88768954Y-180901250D03*
%TD*%
D20*
%TO.P,D2,2*%
%TO.N,pinkie_home*%
X99201841Y-158908279D03*
D33*
%TO.P,D2,1*%
%TO.N,r_home*%
X91610837Y-159572405D03*
%TD*%
D34*
%TO.P,S16,2*%
%TO.N,c_thumb*%
X171532511Y-192396780D03*
%TO.P,S16,1*%
%TO.N,tuckie_home*%
X158360834Y-192653442D03*
%TD*%
D22*
%TO.P,S7,2*%
%TO.N,c_middle*%
X142239142Y-160305159D03*
%TO.P,S7,1*%
%TO.N,middle_bottom*%
X129312142Y-162845159D03*
%TD*%
D35*
%TO.P,S1,2*%
%TO.N,c_pinkie*%
X103223714Y-181563959D03*
%TO.P,S1,1*%
%TO.N,pinkie_bottom*%
X90567281Y-185220956D03*
%TD*%
D36*
%TO.P,S18,2*%
%TO.N,c_thumb*%
X212941127Y-210985534D03*
%TO.P,S18,1*%
%TO.N,stretchie_home*%
X200476017Y-206721738D03*
%TD*%
D37*
%TO.P,JST1,2*%
%TO.N,GND*%
X197397132Y-122785149D03*
%TO.P,JST1,1*%
%TO.N,bat*%
X199397132Y-122785149D03*
X195397132Y-122785149D03*
%TD*%
D24*
%TO.P,REF\u002A\u002A,1*%
%TO.N,c_inner*%
X165897132Y-151385150D03*
%TD*%
D20*
%TO.P,D7,2*%
%TO.N,middle_bottom*%
X140207137Y-156385151D03*
D23*
%TO.P,D7,1*%
%TO.N,r_bottom*%
X132587137Y-156385151D03*
%TD*%
D22*
%TO.P,S9,1*%
%TO.N,middle_top*%
X129312126Y-124845152D03*
%TO.P,S9,2*%
%TO.N,c_middle*%
X142239126Y-122305152D03*
%TD*%
%TO.P,S11,2*%
%TO.N,c_index*%
X161239131Y-151305154D03*
%TO.P,S11,1*%
%TO.N,index_home*%
X148312131Y-153845154D03*
%TD*%
D24*
%TO.P,REF\u002A\u002A,1*%
%TO.N,c_middle*%
X127897133Y-139385150D03*
%TD*%
D20*
%TO.P,D3,2*%
%TO.N,pinkie_top*%
X79777350Y-154885925D03*
D33*
%TO.P,D3,1*%
%TO.N,r_top*%
X72186346Y-155550051D03*
%TD*%
D22*
%TO.P,S13,2*%
%TO.N,c_inner*%
X180239131Y-172305148D03*
%TO.P,S13,1*%
%TO.N,inner_bottom*%
X167312131Y-174845148D03*
%TD*%
D29*
%TO.P,L9,4*%
%TO.N,LED_9*%
X133897127Y-170910153D03*
D16*
X134247127Y-170035153D03*
%TO.P,L9,3*%
%TO.N,GND*%
X133497127Y-170035153D03*
D30*
X133897127Y-169160153D03*
D31*
%TO.P,L9,2*%
%TO.N,LED_10*%
X138897127Y-169160153D03*
D16*
X139347127Y-170035153D03*
%TO.P,L9,1*%
%TO.N,VCC*%
X138547127Y-170035153D03*
D32*
X138897127Y-170910153D03*
%TD*%
D22*
%TO.P,S8,1*%
%TO.N,middle_home*%
X129312129Y-143845153D03*
%TO.P,S8,2*%
%TO.N,c_middle*%
X142239129Y-141305153D03*
%TD*%
%TO.P,S10,2*%
%TO.N,c_index*%
X161239130Y-170305152D03*
%TO.P,S10,1*%
%TO.N,index_bottom*%
X148312130Y-172845152D03*
%TD*%
D38*
%TO.P,L9,4*%
%TO.N,led*%
X200414241Y-215998730D03*
D16*
X201154850Y-215415956D03*
%TO.P,L9,3*%
%TO.N,GND*%
X200505331Y-215040956D03*
D39*
X201289241Y-214483184D03*
D40*
%TO.P,L9,2*%
%TO.N,LED_1*%
X205619369Y-216983184D03*
D16*
X205571580Y-217965956D03*
%TO.P,L9,1*%
%TO.N,VCC*%
X204878760Y-217565956D03*
D41*
X204744369Y-218498729D03*
%TD*%
D42*
%TO.P,ROT1,C*%
%TO.N,GND*%
X189777133Y-181145147D03*
%TO.P,ROT1,B*%
%TO.N,rot_anticlock*%
X189777133Y-183645147D03*
D43*
%TO.P,ROT1,A*%
%TO.N,rot_clock*%
X189777133Y-178645147D03*
D44*
%TO.P,ROT1,2*%
%TO.N,c_thumb*%
X204277133Y-183645147D03*
%TO.P,ROT1,1*%
%TO.N,rotary_key*%
X204277133Y-178645147D03*
D45*
%TO.P,ROT1,*%
%TO.N,*%
X197277133Y-186745147D03*
X197277133Y-175545147D03*
%TD*%
D35*
%TO.P,S3,2*%
%TO.N,c_pinkie*%
X82143272Y-158613904D03*
%TO.P,S3,1*%
%TO.N,pinkie_top*%
X69486839Y-162270901D03*
%TD*%
D24*
%TO.P,REF\u002A\u002A,1*%
%TO.N,c_thumb*%
X180150279Y-193104890D03*
%TD*%
D29*
%TO.P,L9,4*%
%TO.N,LED_5*%
X171897130Y-144910152D03*
D16*
X172247130Y-144035152D03*
%TO.P,L9,3*%
%TO.N,GND*%
X171497130Y-144035152D03*
D30*
X171897130Y-143160152D03*
D31*
%TO.P,L9,2*%
%TO.N,LED_6*%
X176897130Y-143160152D03*
D16*
X177347130Y-144035152D03*
%TO.P,L9,1*%
%TO.N,VCC*%
X176547130Y-144035152D03*
D32*
X176897130Y-144910152D03*
%TD*%
D20*
%TO.P,D17,2*%
%TO.N,central_home*%
X192401927Y-195435770D03*
D46*
%TO.P,D17,1*%
%TO.N,r_thumb*%
X185241469Y-192829576D03*
%TD*%
D29*
%TO.P,L9,4*%
%TO.N,LED_11*%
X133897128Y-132910158D03*
D16*
X134247128Y-132035158D03*
%TO.P,L9,3*%
%TO.N,GND*%
X133497128Y-132035158D03*
D30*
X133897128Y-131160158D03*
D31*
%TO.P,L9,2*%
%TO.N,LED_12*%
X138897128Y-131160158D03*
D16*
X139347128Y-132035158D03*
%TO.P,L9,1*%
%TO.N,VCC*%
X138547128Y-132035158D03*
D32*
X138897128Y-132910158D03*
%TD*%
D29*
%TO.P,L9,4*%
%TO.N,LED_3*%
X171897129Y-182910150D03*
D16*
X172247129Y-182035150D03*
%TO.P,L9,3*%
%TO.N,GND*%
X171497129Y-182035150D03*
D30*
X171897129Y-181160150D03*
D31*
%TO.P,L9,2*%
%TO.N,LED_4*%
X176897129Y-181160150D03*
D16*
X177347129Y-182035150D03*
%TO.P,L9,1*%
%TO.N,VCC*%
X176547129Y-182035150D03*
D32*
X176897129Y-182910150D03*
%TD*%
D25*
%TO.P,L9,4*%
%TO.N,LED_17*%
X74757308Y-169905607D03*
D16*
X75029715Y-169003432D03*
%TO.P,L9,3*%
%TO.N,GND*%
X74282569Y-169068799D03*
D26*
X74604785Y-168162267D03*
D27*
%TO.P,L9,2*%
%TO.N,LED_18*%
X79585759Y-167726488D03*
D16*
X80110308Y-168558938D03*
%TO.P,L9,1*%
%TO.N,VCC*%
X79313352Y-168628663D03*
D28*
X79738281Y-169469829D03*
%TD*%
D20*
%TO.P,D13,2*%
%TO.N,inner_bottom*%
X178207137Y-168385155D03*
D23*
%TO.P,D13,1*%
%TO.N,r_bottom*%
X170587137Y-168385155D03*
%TD*%
D13*
%TO.P,T2,*%
%TO.N,*%
X183497132Y-122885148D03*
X180497132Y-122885148D03*
%TD*%
D20*
%TO.P,D19,2*%
%TO.N,rotary_key*%
X201397131Y-177375149D03*
D23*
%TO.P,D19,1*%
%TO.N,r_thumb*%
X201397131Y-184995149D03*
%TD*%
D29*
%TO.P,L9,4*%
%TO.N,LED_4*%
X171897137Y-163910155D03*
D16*
X172247137Y-163035155D03*
%TO.P,L9,3*%
%TO.N,GND*%
X171497137Y-163035155D03*
D30*
X171897137Y-162160155D03*
D31*
%TO.P,L9,2*%
%TO.N,LED_5*%
X176897137Y-162160155D03*
D16*
X177347137Y-163035155D03*
%TO.P,L9,1*%
%TO.N,VCC*%
X176547137Y-163035155D03*
D32*
X176897137Y-163910155D03*
%TD*%
D47*
%TO.P,TRRS1,4*%
%TO.N,data*%
X213497129Y-125585154D03*
X208897129Y-125585154D03*
%TO.P,TRRS1,3*%
%TO.N,GND*%
X213497129Y-128585154D03*
X208897129Y-128585154D03*
%TO.P,TRRS1,2*%
%TO.N,VCC*%
X213497129Y-132585154D03*
X208897129Y-132585154D03*
%TO.P,TRRS1,1*%
X213497129Y-133685154D03*
X208897129Y-133685154D03*
%TD*%
D29*
%TO.P,L9,4*%
%TO.N,LED_8*%
X152897133Y-180910154D03*
D16*
X153247133Y-180035154D03*
%TO.P,L9,3*%
%TO.N,GND*%
X152497133Y-180035154D03*
D30*
X152897133Y-179160154D03*
D31*
%TO.P,L9,2*%
%TO.N,LED_9*%
X157897133Y-179160154D03*
D16*
X158347133Y-180035154D03*
%TO.P,L9,1*%
%TO.N,VCC*%
X157547133Y-180035154D03*
D32*
X157897133Y-180910154D03*
%TD*%
D48*
%TO.P,SCREEN1,5*%
%TO.N,data*%
X202477129Y-156621153D03*
%TO.N,mosi*%
X192317129Y-156621153D03*
%TO.P,SCREEN1,3*%
%TO.N,sck*%
X194857129Y-156621153D03*
%TO.P,SCREEN1,2*%
%TO.N,VCC*%
X197397129Y-156621153D03*
%TO.P,SCREEN1,1*%
%TO.N,GND*%
X199937129Y-156621153D03*
D14*
%TO.P,SCREEN1,*%
%TO.N,*%
X202477129Y-159385153D03*
D49*
X202477129Y-157637153D03*
D14*
X199937129Y-159385153D03*
D49*
X199937129Y-157637153D03*
D14*
%TO.N,VCC*%
X197397129Y-159385153D03*
D49*
%TO.N,*%
X197397129Y-157637153D03*
D14*
X194857129Y-159385153D03*
D49*
X194857129Y-157637153D03*
D14*
X192317129Y-159385153D03*
D49*
X192317129Y-157637153D03*
%TD*%
D24*
%TO.P,REF\u002A\u002A,1*%
%TO.N,c_pinkie*%
X67688512Y-157951203D03*
%TD*%
D20*
%TO.P,D1,2*%
%TO.N,pinkie_bottom*%
X100857796Y-177835977D03*
D33*
%TO.P,D1,1*%
%TO.N,r_bottom*%
X93266792Y-178500103D03*
%TD*%
D24*
%TO.P,REF\u002A\u002A,1*%
%TO.N,c_index*%
X146897138Y-130385151D03*
%TD*%
D35*
%TO.P,S2,2*%
%TO.N,c_pinkie*%
X101567761Y-162636256D03*
%TO.P,S2,1*%
%TO.N,pinkie_home*%
X88911328Y-166293253D03*
%TD*%
D24*
%TO.P,REF\u002A\u002A,1*%
%TO.N,c_pinkie*%
X87113006Y-161973553D03*
%TD*%
D20*
%TO.P,D10,2*%
%TO.N,index_bottom*%
X159207135Y-166385146D03*
D23*
%TO.P,D10,1*%
%TO.N,r_bottom*%
X151587135Y-166385146D03*
%TD*%
D24*
%TO.P,REF\u002A\u002A,1*%
%TO.N,c_middle*%
X127897139Y-120385153D03*
%TD*%
%TO.P,REF\u002A\u002A,1*%
%TO.N,c_thumb*%
X201480586Y-202151761D03*
%TD*%
D14*
%TO.P,B2,2*%
%TO.N,GND*%
X200647130Y-166635152D03*
X194147130Y-166635152D03*
%TO.P,B2,1*%
%TO.N,RST*%
X200647130Y-162135152D03*
X194147130Y-162135152D03*
%TD*%
D29*
%TO.P,L9,4*%
%TO.N,LED_12*%
X114897125Y-142910154D03*
D16*
X115247125Y-142035154D03*
%TO.P,L9,3*%
%TO.N,GND*%
X114497125Y-142035154D03*
D30*
X114897125Y-141160154D03*
D31*
%TO.P,L9,2*%
%TO.N,LED_13*%
X119897125Y-141160154D03*
D16*
X120347125Y-142035154D03*
%TO.P,L9,1*%
%TO.N,VCC*%
X119547125Y-142035154D03*
D32*
X119897125Y-142910154D03*
%TD*%
D20*
%TO.P,D6,2*%
%TO.N,ring_top*%
X121207136Y-128385148D03*
D23*
%TO.P,D6,1*%
%TO.N,r_top*%
X113587136Y-128385148D03*
%TD*%
D24*
%TO.P,REF\u002A\u002A,1*%
%TO.N,c_ring*%
X108897137Y-168385157D03*
%TD*%
D29*
%TO.P,L9,4*%
%TO.N,LED_6*%
X152897134Y-142910157D03*
D16*
X153247134Y-142035157D03*
%TO.P,L9,3*%
%TO.N,GND*%
X152497134Y-142035157D03*
D30*
X152897134Y-141160157D03*
D31*
%TO.P,L9,2*%
%TO.N,LED_7*%
X157897134Y-141160157D03*
D16*
X158347134Y-142035157D03*
%TO.P,L9,1*%
%TO.N,VCC*%
X157547134Y-142035157D03*
D32*
X157897134Y-142910157D03*
%TD*%
D29*
%TO.P,L9,4*%
%TO.N,LED_10*%
X133897136Y-151910148D03*
D16*
X134247136Y-151035148D03*
%TO.P,L9,3*%
%TO.N,GND*%
X133497136Y-151035148D03*
D30*
X133897136Y-150160148D03*
D31*
%TO.P,L9,2*%
%TO.N,LED_11*%
X138897136Y-150160148D03*
D16*
X139347136Y-151035148D03*
%TO.P,L9,1*%
%TO.N,VCC*%
X138547136Y-151035148D03*
D32*
X138897136Y-151910148D03*
%TD*%
D20*
%TO.P,D9,2*%
%TO.N,middle_top*%
X140207131Y-118385147D03*
D23*
%TO.P,D9,1*%
%TO.N,r_top*%
X132587131Y-118385147D03*
%TD*%
D20*
%TO.P,D11,2*%
%TO.N,index_home*%
X159207130Y-147385153D03*
D23*
%TO.P,D11,1*%
%TO.N,r_home*%
X151587130Y-147385153D03*
%TD*%
D24*
%TO.P,REF\u002A\u002A,1*%
%TO.N,c_index*%
X146897140Y-168385148D03*
%TD*%
D20*
%TO.P,D12,2*%
%TO.N,index_top*%
X159207132Y-128385150D03*
D23*
%TO.P,D12,1*%
%TO.N,r_top*%
X151587132Y-128385150D03*
%TD*%
D22*
%TO.P,S6,2*%
%TO.N,c_ring*%
X123239132Y-132305152D03*
%TO.P,S6,1*%
%TO.N,ring_top*%
X110312132Y-134845152D03*
%TD*%
D50*
%TO.P,S17,2*%
%TO.N,c_thumb*%
X192970667Y-199814356D03*
%TO.P,S17,1*%
%TO.N,central_home*%
X179954529Y-197779881D03*
%TD*%
D20*
%TO.P,D15,2*%
%TO.N,inner_top*%
X178207137Y-130385153D03*
D23*
%TO.P,D15,1*%
%TO.N,r_top*%
X170587137Y-130385153D03*
%TD*%
D29*
%TO.P,L9,4*%
%TO.N,LED_14*%
X114897140Y-180910150D03*
D16*
X115247140Y-180035150D03*
%TO.P,L9,3*%
%TO.N,GND*%
X114497140Y-180035150D03*
D30*
X114897140Y-179160150D03*
D31*
%TO.P,L9,2*%
%TO.N,LED_15*%
X119897140Y-179160150D03*
D16*
X120347140Y-180035150D03*
%TO.P,L9,1*%
%TO.N,VCC*%
X119547140Y-180035150D03*
D32*
X119897140Y-180910150D03*
%TD*%
D24*
%TO.P,REF\u002A\u002A,1*%
%TO.N,c_ring*%
X108897137Y-130385144D03*
%TD*%
D20*
%TO.P,D18,2*%
%TO.N,stretchie_home*%
X213141362Y-206574710D03*
D51*
%TO.P,D18,1*%
%TO.N,r_thumb*%
X206542248Y-202764710D03*
%TD*%
D52*
%TO.P,L9,4*%
%TO.N,LED_1*%
X181504625Y-206926665D03*
D16*
X182132785Y-206224141D03*
%TO.P,L9,3*%
%TO.N,GND*%
X181428015Y-205967626D03*
D53*
X182103160Y-205282203D03*
D54*
%TO.P,L9,2*%
%TO.N,LED_2*%
X186801623Y-206992304D03*
D16*
X186925217Y-207968444D03*
%TO.P,L9,1*%
%TO.N,VCC*%
X186173463Y-207694828D03*
D55*
X186203088Y-208636766D03*
%TD*%
D56*
%TO.P,_1,24*%
%TO.N,led*%
X196635138Y-125415152D03*
D57*
X196635138Y-125415152D03*
D58*
X202223138Y-125415152D03*
D56*
%TO.P,_1,23*%
%TO.N,data*%
X196635138Y-127955152D03*
D57*
X196635138Y-127955152D03*
D58*
X202223138Y-127955152D03*
D56*
%TO.P,_1,22*%
%TO.N,GND*%
X196635138Y-130495152D03*
D57*
X196635138Y-130495152D03*
D58*
X202223138Y-130495152D03*
D56*
%TO.P,_1,21*%
X196635138Y-133035152D03*
D57*
X196635138Y-133035152D03*
D58*
X202223138Y-133035152D03*
D56*
%TO.P,_1,20*%
%TO.N,mosi*%
X196635138Y-135575152D03*
D57*
X196635138Y-135575152D03*
D58*
X202223138Y-135575152D03*
D56*
%TO.P,_1,19*%
%TO.N,sck*%
X196635138Y-138115152D03*
D57*
X196635138Y-138115152D03*
D58*
X202223138Y-138115152D03*
D56*
%TO.P,_1,18*%
%TO.N,r_top*%
X196635138Y-140655152D03*
D57*
X196635138Y-140655152D03*
D58*
X202223138Y-140655152D03*
D56*
%TO.P,_1,17*%
%TO.N,r_home*%
X196635138Y-143195152D03*
D57*
X196635138Y-143195152D03*
D58*
X202223138Y-143195152D03*
D56*
%TO.P,_1,16*%
%TO.N,r_bottom*%
X196635138Y-145735152D03*
D57*
X196635138Y-145735152D03*
D58*
X202223138Y-145735152D03*
D56*
%TO.P,_1,15*%
%TO.N,r_thumb*%
X196635138Y-148275152D03*
D57*
X196635138Y-148275152D03*
D58*
X202223138Y-148275152D03*
D56*
%TO.P,_1,14*%
%TO.N,rot_clock*%
X196635138Y-150815152D03*
D57*
X196635138Y-150815152D03*
D58*
X202223138Y-150815152D03*
D56*
%TO.P,_1,13*%
%TO.N,rot_anticlock*%
X196635138Y-153355152D03*
D57*
X196635138Y-153355152D03*
D58*
X202223138Y-153355152D03*
D59*
%TO.P,_1,12*%
%TO.N,P10*%
X192571138Y-153355152D03*
D56*
X198159138Y-153355152D03*
D60*
X198159138Y-153355152D03*
D59*
%TO.P,_1,11*%
%TO.N,P16*%
X192571138Y-150815152D03*
D56*
X198159138Y-150815152D03*
D60*
X198159138Y-150815152D03*
D59*
%TO.P,_1,10*%
%TO.N,c_inner*%
X192571138Y-148275152D03*
D56*
X198159138Y-148275152D03*
D60*
X198159138Y-148275152D03*
D59*
%TO.P,_1,9*%
%TO.N,c_index*%
X192571138Y-145735152D03*
D56*
X198159138Y-145735152D03*
D60*
X198159138Y-145735152D03*
D59*
%TO.P,_1,8*%
%TO.N,c_middle*%
X192571138Y-143195152D03*
D56*
X198159138Y-143195152D03*
D60*
X198159138Y-143195152D03*
D59*
%TO.P,_1,7*%
%TO.N,c_ring*%
X192571138Y-140655152D03*
D56*
X198159138Y-140655152D03*
D60*
X198159138Y-140655152D03*
D59*
%TO.P,_1,6*%
%TO.N,c_pinkie*%
X192571138Y-138115152D03*
D56*
X198159138Y-138115152D03*
D60*
X198159138Y-138115152D03*
D59*
%TO.P,_1,5*%
%TO.N,c_thumb*%
X192571138Y-135575152D03*
D56*
X198159138Y-135575152D03*
D60*
X198159138Y-135575152D03*
D59*
%TO.P,_1,4*%
%TO.N,VCC*%
X192571138Y-133035152D03*
D56*
X198159138Y-133035152D03*
D60*
X198159138Y-133035152D03*
D59*
%TO.P,_1,3*%
%TO.N,RST*%
X192571138Y-130495152D03*
D56*
X198159138Y-130495152D03*
D60*
X198159138Y-130495152D03*
D59*
%TO.P,_1,2*%
%TO.N,N/C*%
X192571138Y-127955152D03*
D56*
%TO.N,GND*%
X198159138Y-127955152D03*
D60*
X198159138Y-127955152D03*
D59*
%TO.P,_1,1*%
%TO.N,RAW*%
X192571138Y-125415152D03*
D56*
X198159138Y-125415152D03*
D60*
X198159138Y-125415152D03*
D61*
%TO.P,_1,*%
%TO.N,*%
X189777138Y-153355152D03*
D62*
X191047138Y-153355152D03*
D63*
X191555138Y-153355152D03*
D64*
X203239138Y-153355152D03*
D65*
X203747138Y-153355152D03*
D61*
X205017138Y-153355152D03*
X189777138Y-150815152D03*
D62*
X191047138Y-150815152D03*
D63*
X191555138Y-150815152D03*
D64*
X203239138Y-150815152D03*
D65*
X203747138Y-150815152D03*
D61*
X205017138Y-150815152D03*
X189777138Y-148275152D03*
D62*
X191047138Y-148275152D03*
D63*
X191555138Y-148275152D03*
D64*
X203239138Y-148275152D03*
D65*
X203747138Y-148275152D03*
D61*
X205017138Y-148275152D03*
X189777138Y-145735152D03*
D62*
X191047138Y-145735152D03*
D63*
X191555138Y-145735152D03*
D64*
X203239138Y-145735152D03*
D65*
X203747138Y-145735152D03*
D61*
X205017138Y-145735152D03*
X189777138Y-143195152D03*
D62*
X191047138Y-143195152D03*
D63*
X191555138Y-143195152D03*
D64*
X203239138Y-143195152D03*
D65*
X203747138Y-143195152D03*
D61*
X205017138Y-143195152D03*
X189777138Y-140655152D03*
D62*
X191047138Y-140655152D03*
D63*
X191555138Y-140655152D03*
D64*
X203239138Y-140655152D03*
D65*
X203747138Y-140655152D03*
D61*
X205017138Y-140655152D03*
X189777138Y-138115152D03*
D62*
X191047138Y-138115152D03*
D63*
X191555138Y-138115152D03*
D64*
X203239138Y-138115152D03*
D65*
X203747138Y-138115152D03*
D61*
X205017138Y-138115152D03*
X189777138Y-135575152D03*
D62*
X191047138Y-135575152D03*
D63*
X191555138Y-135575152D03*
D64*
X203239138Y-135575152D03*
D65*
X203747138Y-135575152D03*
D61*
X205017138Y-135575152D03*
X189777138Y-133035152D03*
D62*
X191047138Y-133035152D03*
D63*
X191555138Y-133035152D03*
D64*
X203239138Y-133035152D03*
D65*
X203747138Y-133035152D03*
D61*
X205017138Y-133035152D03*
X189777138Y-130495152D03*
D62*
X191047138Y-130495152D03*
D63*
X191555138Y-130495152D03*
D64*
X203239138Y-130495152D03*
D65*
X203747138Y-130495152D03*
D61*
X205017138Y-130495152D03*
X189777138Y-127955152D03*
D62*
X191047138Y-127955152D03*
D63*
X191555138Y-127955152D03*
D64*
X203239138Y-127955152D03*
D65*
X203747138Y-127955152D03*
D61*
X205017138Y-127955152D03*
X189777138Y-125415152D03*
D62*
X191047138Y-125415152D03*
D63*
X191555138Y-125415152D03*
D64*
X203239138Y-125415152D03*
D65*
X203747138Y-125415152D03*
D66*
X205017138Y-125415152D03*
D61*
X205017138Y-125415152D03*
%TD*%
D29*
%TO.P,L9,4*%
%TO.N,LED_13*%
X114897138Y-161910149D03*
D16*
X115247138Y-161035149D03*
%TO.P,L9,3*%
%TO.N,GND*%
X114497138Y-161035149D03*
D30*
X114897138Y-160160149D03*
D31*
%TO.P,L9,2*%
%TO.N,LED_14*%
X119897138Y-160160149D03*
D16*
X120347138Y-161035149D03*
%TO.P,L9,1*%
%TO.N,VCC*%
X119547138Y-161035149D03*
D32*
X119897138Y-161910149D03*
%TD*%
D22*
%TO.P,S14,2*%
%TO.N,c_inner*%
X180239134Y-153305150D03*
%TO.P,S14,1*%
%TO.N,inner_home*%
X167312134Y-155845150D03*
%TD*%
D67*
%TO.N,VCC*%
X186200000Y-133150000D03*
X188098912Y-133150000D03*
%TO.N,GND*%
X107546348Y-182003087D03*
%TO.N,LED_6*%
X159077492Y-144567275D03*
X166927495Y-142478550D03*
%TO.N,data*%
X200227491Y-155167271D03*
%TD*%
D68*
%TO.N,LED_9*%
X134789565Y-172060425D02*
X134114570Y-171385430D01*
X133897127Y-170910153D02*
X133897127Y-171167987D01*
X134114570Y-171385430D02*
X133897132Y-171167993D01*
X133897127Y-171167987D02*
X134114570Y-171385430D01*
%TO.N,VCC*%
X186200000Y-133150000D02*
X188098912Y-133150000D01*
X138897129Y-132995697D02*
X145189136Y-139287705D01*
X145189136Y-139287705D02*
X145189136Y-146376557D01*
X145189136Y-146376557D02*
X139655547Y-151910147D01*
X138897128Y-132910157D02*
X138897129Y-132995697D01*
X144739140Y-165426050D02*
X144739139Y-157752151D01*
X144739139Y-157752151D02*
X138897136Y-151910147D01*
X139655547Y-151910147D02*
X138897136Y-151910147D01*
X139255037Y-170910153D02*
X144739140Y-165426050D01*
X138897127Y-170910153D02*
X139255037Y-170910153D01*
%TO.N,LED_9*%
X151146083Y-178700035D02*
X144506471Y-172060424D01*
X144506471Y-172060424D02*
X134789565Y-172060425D01*
X151146083Y-181034098D02*
X151146083Y-178700035D01*
X151997134Y-181885149D02*
X151146083Y-181034098D01*
X133897132Y-171167993D02*
X133897133Y-170910154D01*
X158797137Y-181885149D02*
X151997134Y-181885149D01*
X159022138Y-180285152D02*
X159022133Y-181660154D01*
X159022133Y-181660154D02*
X158797137Y-181885149D01*
X157897133Y-179160154D02*
X159022138Y-180285152D01*
%TO.N,pinkie_bottom*%
X102006874Y-177735444D02*
X100857800Y-177835980D01*
X105205628Y-185859253D02*
X104692002Y-179988539D01*
X104692002Y-179988539D02*
X102006874Y-177735444D01*
X93625291Y-189881067D02*
X102481029Y-189106284D01*
X90567288Y-185220951D02*
X90765011Y-187481008D01*
X90765011Y-187481008D02*
X93625291Y-189881067D01*
X102481029Y-189106284D02*
X105205628Y-185859253D01*
%TO.N,c_pinkie*%
X88613597Y-174481645D02*
X88068169Y-175131649D01*
X86840280Y-162298555D02*
X87715039Y-172296912D01*
X88068169Y-175131649D02*
X88557423Y-180723747D01*
X196744138Y-136700152D02*
X198159139Y-138115152D01*
X185146077Y-133518884D02*
X188327348Y-136700156D01*
X185146081Y-132814839D02*
X185146077Y-133518884D01*
X90469900Y-157972966D02*
X105986354Y-156615451D01*
X67688512Y-157951203D02*
X70667888Y-154400519D01*
X101567760Y-162636256D02*
X99487721Y-160890906D01*
X80309453Y-153556992D02*
X86857343Y-159051326D01*
X111740746Y-126657653D02*
X125962459Y-126657651D01*
X179638892Y-127307650D02*
X185146081Y-132814839D01*
X141318868Y-116207653D02*
X150868872Y-125757649D01*
X108130547Y-154471256D02*
X108130550Y-130267850D01*
X105986354Y-156615451D02*
X108130547Y-154471256D01*
X99487721Y-160890906D02*
X87113006Y-161973553D01*
X126540892Y-126079221D02*
X126540891Y-120221116D01*
X188327348Y-136700156D02*
X196744138Y-136700152D01*
X88478502Y-172937539D02*
X88613597Y-174481645D01*
X103223715Y-181563956D02*
X101143681Y-179818597D01*
X101143681Y-179818597D02*
X88768954Y-180901250D01*
X87715039Y-172296912D02*
X88478502Y-172937539D01*
X168541874Y-127307651D02*
X179638892Y-127307650D01*
X166991876Y-125757649D02*
X168541874Y-127307651D01*
X126540891Y-120221116D02*
X130554355Y-116207652D01*
X87113006Y-161973553D02*
X90469900Y-157972966D01*
X108130550Y-130267850D02*
X111740746Y-126657653D01*
X150868872Y-125757649D02*
X166991876Y-125757649D01*
X86857343Y-159051326D02*
X87113006Y-161973553D01*
X82143280Y-158613908D02*
X80063239Y-156868552D01*
X87113006Y-161973553D02*
X86840280Y-162298555D01*
X80063239Y-156868552D02*
X67688512Y-157951203D01*
X70667888Y-154400519D02*
X80309453Y-153556992D01*
X125962459Y-126657651D02*
X126540892Y-126079221D01*
X130554355Y-116207652D02*
X141318868Y-116207653D01*
X88557423Y-180723747D02*
X88768954Y-180901250D01*
%TO.N,pinkie_home*%
X89109048Y-168553299D02*
X91969335Y-170953360D01*
X88911321Y-166293253D02*
X89109048Y-168553299D01*
X91969335Y-170953360D02*
X100857283Y-170175775D01*
X100301105Y-158812105D02*
X99201845Y-158908273D01*
X103552479Y-166963764D02*
X103040398Y-161110645D01*
X100857283Y-170175775D02*
X103552479Y-166963764D01*
X103040398Y-161110645D02*
X100301105Y-158812105D01*
%TO.N,pinkie_top*%
X84125177Y-162909198D02*
X83599912Y-156905451D01*
X69684563Y-164530951D02*
X72544847Y-166931013D01*
X81059460Y-154773759D02*
X79777350Y-154885924D01*
X81400595Y-166156243D02*
X84125177Y-162909198D01*
X72544847Y-166931013D02*
X81400595Y-166156243D01*
X83599912Y-156905451D02*
X81059460Y-154773759D01*
X69486842Y-162270909D02*
X69684563Y-164530951D01*
%TO.N,ring_bottom*%
X110312136Y-175113840D02*
X112952355Y-177754055D01*
X124839129Y-168903478D02*
X122320810Y-166385151D01*
X121841919Y-177754052D02*
X124839134Y-174756835D01*
X110312136Y-172845151D02*
X110312136Y-175113840D01*
X122320810Y-166385151D02*
X121207141Y-166385155D01*
X124839134Y-174756835D02*
X124839129Y-168903478D01*
X112952355Y-177754055D02*
X121841919Y-177754052D01*
%TO.N,c_ring*%
X108597137Y-130685152D02*
X108897137Y-130385144D01*
X184696081Y-133001235D02*
X184696076Y-135160432D01*
X121319132Y-149385151D02*
X108897133Y-149385148D01*
X168355474Y-127757649D02*
X179452499Y-127757650D01*
X196835131Y-139331145D02*
X198159129Y-140655158D01*
X166805481Y-126207649D02*
X168355474Y-127757649D01*
X112174632Y-127107655D02*
X126148855Y-127107650D01*
X179452499Y-127757650D02*
X184696081Y-133001235D01*
X126148855Y-127107650D02*
X127147137Y-126109370D01*
X127147137Y-126109370D02*
X127147130Y-120251269D01*
X108897133Y-149385148D02*
X108597135Y-149085148D01*
X108897137Y-168385157D02*
X108597123Y-168085151D01*
X108597123Y-168085151D02*
X108597129Y-149685150D01*
X150682479Y-126207649D02*
X166805481Y-126207649D01*
X108597135Y-149085148D02*
X108597137Y-130685152D01*
X130740752Y-116657652D02*
X141132470Y-116657653D01*
X108597129Y-149685150D02*
X108897133Y-149385148D01*
X123239138Y-132305154D02*
X121319131Y-130385148D01*
X141132470Y-116657653D02*
X150682479Y-126207649D01*
X184696076Y-135160432D02*
X188866815Y-139331153D01*
X188866815Y-139331153D02*
X196835131Y-139331145D01*
X123239139Y-170305156D02*
X121319138Y-168385150D01*
X108897137Y-130385144D02*
X112174632Y-127107655D01*
X123239135Y-151305153D02*
X121319132Y-149385151D01*
X127147130Y-120251269D02*
X130740752Y-116657652D01*
X121319131Y-130385148D02*
X108897137Y-130385144D01*
X121319138Y-168385150D02*
X108897137Y-168385157D01*
%TO.N,ring_home*%
X124839137Y-149730157D02*
X122494132Y-147385150D01*
X124839134Y-155756834D02*
X124839137Y-149730157D01*
X111091236Y-154624256D02*
X111091240Y-156892943D01*
X110312129Y-153845151D02*
X111091236Y-154624256D01*
X111091240Y-156892943D02*
X112952361Y-158754058D01*
X121841916Y-158754053D02*
X124839134Y-155756834D01*
X112952361Y-158754058D02*
X121841916Y-158754053D01*
X122494132Y-147385150D02*
X121207133Y-147385152D01*
%TO.N,ring_top*%
X121841928Y-139754055D02*
X124839139Y-136756836D01*
X110312135Y-134845149D02*
X110312133Y-137113837D01*
X124839139Y-136756836D02*
X124839137Y-130903477D01*
X112952349Y-139754051D02*
X121841928Y-139754055D01*
X110312133Y-137113837D02*
X112952349Y-139754051D01*
X124839137Y-130903477D02*
X122320805Y-128385154D01*
X122320805Y-128385154D02*
X121207130Y-128385150D01*
%TO.N,middle_bottom*%
X141320816Y-156385154D02*
X140207137Y-156385158D01*
X143839129Y-164867376D02*
X143839126Y-158903477D01*
X140952449Y-167754053D02*
X143839129Y-164867376D01*
X129312133Y-162845148D02*
X129312127Y-165113835D01*
X129312127Y-165113835D02*
X131952349Y-167754052D01*
X143839126Y-158903477D02*
X141320816Y-156385154D01*
X131952349Y-167754052D02*
X140952449Y-167754053D01*
%TO.N,c_middle*%
X168169079Y-128207649D02*
X179266096Y-128207653D01*
X127597137Y-130561483D02*
X128199181Y-131163527D01*
X127597130Y-139685154D02*
X127597137Y-158085152D01*
X166619091Y-126657651D02*
X168169079Y-128207649D01*
X179266096Y-128207653D02*
X184246077Y-133187637D01*
X142239139Y-160305153D02*
X140319138Y-158385153D01*
X128199181Y-131163527D02*
X128199174Y-132907330D01*
X140319130Y-120385152D02*
X127897139Y-120385153D01*
X128199174Y-132907330D02*
X127596081Y-133510424D01*
X127596080Y-139084098D02*
X127897133Y-139385150D01*
X127897139Y-120385153D02*
X131174638Y-117107655D01*
X142239126Y-141305150D02*
X140319141Y-139385147D01*
X140319138Y-158385153D02*
X127897128Y-158385149D01*
X127897139Y-120385153D02*
X127597132Y-120685153D01*
X189591422Y-142060425D02*
X197024399Y-142060422D01*
X127597137Y-158085152D02*
X127897128Y-158385149D01*
X140319141Y-139385147D02*
X127897133Y-139385150D01*
X127897133Y-139385150D02*
X127597130Y-139685154D01*
X127597132Y-120685153D02*
X127597137Y-130561483D01*
X184246077Y-133187637D02*
X184246080Y-136715087D01*
X131174638Y-117107655D02*
X140946077Y-117107653D01*
X184246080Y-136715087D02*
X189591422Y-142060425D01*
X197024399Y-142060422D02*
X198159132Y-143195151D01*
X142239131Y-122305149D02*
X140319130Y-120385152D01*
X140946077Y-117107653D02*
X150496079Y-126657647D01*
X127596081Y-133510424D02*
X127596080Y-139084098D01*
X150496079Y-126657647D02*
X166619091Y-126657651D01*
%TO.N,middle_home*%
X140902457Y-148754048D02*
X143839129Y-145817372D01*
X129312128Y-143845150D02*
X129312136Y-146113833D01*
X141320807Y-137385152D02*
X140207136Y-137385150D01*
X131952350Y-148754051D02*
X140902457Y-148754048D01*
X143839129Y-145817372D02*
X143839137Y-139903477D01*
X143839137Y-139903477D02*
X141320807Y-137385152D01*
X129312136Y-146113833D02*
X131952350Y-148754051D01*
%TO.N,middle_top*%
X143846081Y-120677061D02*
X141554171Y-118385149D01*
X129312135Y-124845152D02*
X129312140Y-127113838D01*
X141554171Y-118385149D02*
X140207129Y-118385151D01*
X131952349Y-129754054D02*
X140841916Y-129754049D01*
X140841916Y-129754049D02*
X143846079Y-126749887D01*
X143846079Y-126749887D02*
X143846081Y-120677061D01*
X129312140Y-127113838D02*
X131952349Y-129754054D01*
%TO.N,index_bottom*%
X150952346Y-177754053D02*
X159902453Y-177754046D01*
X162846084Y-174810426D02*
X162846082Y-168737098D01*
X162846082Y-168737098D02*
X160494138Y-166385143D01*
X148312132Y-172845149D02*
X148312135Y-175113838D01*
X148312135Y-175113838D02*
X150952346Y-177754053D01*
X160494138Y-166385143D02*
X159207132Y-166385147D01*
X159902453Y-177754046D02*
X162846084Y-174810426D01*
%TO.N,c_index*%
X161239130Y-151305152D02*
X159319139Y-149385159D01*
X189551413Y-144560422D02*
X196984408Y-144560427D01*
X161239133Y-132305153D02*
X159319132Y-130385156D01*
X146597131Y-130685159D02*
X146897138Y-130385151D01*
X183796087Y-133374035D02*
X183796082Y-138805089D01*
X159319139Y-149385159D02*
X146897136Y-149385156D01*
X167982691Y-128657647D02*
X179079704Y-128657650D01*
X196984408Y-144560427D02*
X198159135Y-145735150D01*
X146597142Y-149085154D02*
X146597131Y-130685159D01*
X179079704Y-128657650D02*
X183796087Y-133374035D01*
X146597135Y-149685150D02*
X146897136Y-149385156D01*
X146897138Y-130385151D02*
X150174640Y-127107653D01*
X150174640Y-127107653D02*
X166432692Y-127107650D01*
X146897140Y-168385148D02*
X146597129Y-168085161D01*
X146597129Y-168085161D02*
X146597135Y-149685150D01*
X159319137Y-168385158D02*
X146897140Y-168385148D01*
X159319132Y-130385156D02*
X146897138Y-130385151D01*
X166432692Y-127107650D02*
X167982691Y-128657647D01*
X146897136Y-149385156D02*
X146597142Y-149085154D01*
X183796082Y-138805089D02*
X189551413Y-144560422D01*
X161239133Y-170305150D02*
X159319137Y-168385158D01*
%TO.N,index_home*%
X148312131Y-156113836D02*
X150952347Y-158754052D01*
X148312138Y-153845158D02*
X148312131Y-156113836D01*
X159841923Y-158754058D02*
X162839132Y-155756837D01*
X162839135Y-149903477D02*
X160320809Y-147385155D01*
X150952347Y-158754052D02*
X159841923Y-158754058D01*
X162839132Y-155756837D02*
X162839135Y-149903477D01*
X160320809Y-147385155D02*
X159207140Y-147385153D01*
%TO.N,index_top*%
X162839134Y-130853475D02*
X160370802Y-128385145D01*
X160370802Y-128385145D02*
X159207138Y-128385151D01*
X162839137Y-136817378D02*
X162839134Y-130853475D01*
X148312140Y-137113838D02*
X150958723Y-139760426D01*
X159896087Y-139760430D02*
X162839137Y-136817378D01*
X148312136Y-134845154D02*
X148312140Y-137113838D01*
X150958723Y-139760426D02*
X159896087Y-139760430D01*
%TO.N,inner_bottom*%
X169952352Y-179754045D02*
X178841922Y-179754060D01*
X181839129Y-176756837D02*
X181839130Y-170903477D01*
X178841922Y-179754060D02*
X181839129Y-176756837D01*
X181839130Y-170903477D02*
X179320809Y-168385147D01*
X167312144Y-177113840D02*
X169952352Y-179754045D01*
X167312137Y-174845149D02*
X167312144Y-177113840D01*
X179320809Y-168385147D02*
X178207138Y-168385149D01*
%TO.N,c_inner*%
X169174635Y-129107655D02*
X178893306Y-129107649D01*
X180239139Y-134305154D02*
X178319138Y-132385152D01*
X197034127Y-147150154D02*
X198159129Y-148275150D01*
X165897135Y-132385151D02*
X169174635Y-129107655D01*
X178319138Y-132385152D02*
X165897135Y-132385151D01*
X166199180Y-143263519D02*
X166199176Y-145057332D01*
X178893306Y-129107649D02*
X183346086Y-133560430D01*
X165596084Y-145660426D02*
X165596081Y-151084101D01*
X165897132Y-151385150D02*
X165597136Y-151685152D01*
X165597130Y-132685153D02*
X165597140Y-142661477D01*
X165596081Y-151084101D02*
X165897132Y-151385150D01*
X180239135Y-153305151D02*
X178319137Y-151385154D01*
X189146082Y-147160439D02*
X189156358Y-147150156D01*
X165597136Y-151685152D02*
X165597139Y-170085159D01*
X180239132Y-172305148D02*
X178319136Y-170385149D01*
X178319137Y-151385154D02*
X165897132Y-151385150D01*
X166199176Y-145057332D02*
X165596084Y-145660426D01*
X183346086Y-133560430D02*
X183346089Y-141360431D01*
X178319136Y-170385149D02*
X165897135Y-170385145D01*
X183346089Y-141360431D02*
X189146082Y-147160439D01*
X189156358Y-147150156D02*
X197034127Y-147150154D01*
X165597140Y-142661477D02*
X166199180Y-143263519D01*
X165897135Y-132385151D02*
X165597130Y-132685153D01*
X165597139Y-170085159D02*
X165897135Y-170385145D01*
%TO.N,inner_home*%
X181839130Y-151730155D02*
X179494138Y-149385153D01*
X169952348Y-160754050D02*
X178841919Y-160754056D01*
X178841919Y-160754056D02*
X181839138Y-157756829D01*
X179494138Y-149385153D02*
X178207136Y-149385153D01*
X167312137Y-155845152D02*
X167312134Y-158113838D01*
X167312134Y-158113838D02*
X169952348Y-160754050D01*
X181839138Y-157756829D02*
X181839130Y-151730155D01*
%TO.N,inner_top*%
X167312137Y-139113842D02*
X169952347Y-141754050D01*
X178841918Y-141754055D02*
X181839138Y-138756834D01*
X179494134Y-130385143D02*
X178207137Y-130385156D01*
X181839138Y-138756834D02*
X181839133Y-132730154D01*
X169952347Y-141754050D02*
X178841918Y-141754055D01*
X167312135Y-136845154D02*
X167312137Y-139113842D01*
X181839133Y-132730154D02*
X179494134Y-130385143D01*
%TO.N,tuckie_home*%
X172335178Y-197058667D02*
X173381701Y-191123541D01*
X171479531Y-188406966D02*
X170212079Y-188183479D01*
X160108523Y-197946229D02*
X168863042Y-199489894D01*
X157966887Y-194887656D02*
X160108523Y-197946229D01*
X158360842Y-192653445D02*
X157966887Y-194887656D01*
X173381701Y-191123541D02*
X171479531Y-188406966D01*
X168863042Y-199489894D02*
X172335178Y-197058667D01*
%TO.N,c_thumb*%
X204777492Y-165067272D02*
X207077495Y-162767269D01*
X200327491Y-168317272D02*
X199277493Y-167267274D01*
X206060378Y-134450153D02*
X199284136Y-134450153D01*
X191823135Y-197353461D02*
X180150279Y-193104890D01*
X171532515Y-192396778D02*
X169975092Y-190172543D01*
X199277493Y-167267274D02*
X199277493Y-166117273D01*
X212238355Y-208362760D02*
X201480586Y-202151761D01*
X201480586Y-202151761D02*
X204277130Y-199355216D01*
X204277138Y-183645147D02*
X207077492Y-180844789D01*
X207077492Y-180844789D02*
X207077493Y-171117271D01*
X199277493Y-166117273D02*
X200327495Y-165067272D01*
X204277130Y-199355216D02*
X204277138Y-183645147D01*
X192970665Y-199814354D02*
X191823135Y-197353461D01*
X199284136Y-134450153D02*
X198159140Y-135575153D01*
X207077494Y-135467269D02*
X206060378Y-134450153D01*
X204277494Y-168317274D02*
X200327491Y-168317272D01*
X207077493Y-171117271D02*
X204277494Y-168317274D01*
X207077495Y-162767269D02*
X207077494Y-135467269D01*
X200327495Y-165067272D02*
X204777492Y-165067272D01*
X169975092Y-190172543D02*
X157741806Y-188015487D01*
X212941131Y-210985529D02*
X212238355Y-208362760D01*
%TO.N,central_home*%
X179178590Y-199911749D02*
X180756577Y-203295741D01*
X192951612Y-204544803D02*
X194948184Y-199059252D01*
X193433633Y-195811285D02*
X192401928Y-195435773D01*
X194948184Y-199059252D02*
X193433633Y-195811285D01*
X179954533Y-197779882D02*
X179178590Y-199911749D01*
X180756577Y-203295741D02*
X189110034Y-206336156D01*
X189110034Y-206336156D02*
X192951612Y-204544803D01*
%TO.N,stretchie_home*%
X212147391Y-215652838D02*
X215131203Y-210484737D01*
X200476009Y-206721735D02*
X199341676Y-208686473D01*
X200308064Y-212293080D02*
X208035618Y-216754582D01*
X208035618Y-216754582D02*
X212147391Y-215652838D01*
X199341676Y-208686473D02*
X200308064Y-212293080D01*
X214255941Y-207218210D02*
X213141365Y-206574713D01*
X215131203Y-210484737D02*
X214255941Y-207218210D01*
%TO.N,VCC*%
X107468863Y-184893495D02*
X107919150Y-184356866D01*
X176897133Y-182910149D02*
X177742627Y-182910148D01*
X119897138Y-182031559D02*
X119897131Y-180910148D01*
X117578836Y-184349861D02*
X119897138Y-182031559D01*
X190427492Y-157325283D02*
X190427493Y-162917841D01*
X196874412Y-169378365D02*
X193924412Y-172328364D01*
X99217253Y-174114948D02*
X99162766Y-173492182D01*
X100818712Y-192419875D02*
X101175265Y-192388683D01*
X173156778Y-197582076D02*
X175068164Y-186742061D01*
X107464127Y-184893911D02*
X107468863Y-184893495D01*
X176916973Y-182929990D02*
X176916973Y-184893255D01*
X196922129Y-156146152D02*
X191606623Y-156146152D01*
X101175265Y-192388683D02*
X106160521Y-186447490D01*
X196874412Y-166128364D02*
X196874412Y-169378365D01*
X196520830Y-157497452D02*
X197397130Y-156621152D01*
X191438016Y-163928364D02*
X194674412Y-163928364D01*
X197397129Y-159385153D02*
X196520829Y-158508853D01*
X193924412Y-172328364D02*
X193924411Y-182008099D01*
X107999272Y-184349857D02*
X117578836Y-184349861D01*
X196520829Y-158508853D02*
X196520830Y-157497452D01*
X193924411Y-182008099D02*
X190512363Y-185420148D01*
X191606623Y-156146152D02*
X190427492Y-157325283D01*
X208897123Y-132585151D02*
X213497127Y-132585152D01*
X197397130Y-156621152D02*
X196922129Y-156146152D01*
X101175265Y-192388683D02*
X107464127Y-184893911D01*
X166752221Y-202322487D02*
X167914803Y-201508432D01*
X176928323Y-144910150D02*
X176897132Y-144910150D01*
X167966275Y-201216503D02*
X173156778Y-197582076D01*
X190512363Y-185420148D02*
X179407126Y-185420148D01*
X176802104Y-163900670D02*
X177604495Y-163900670D01*
X106160521Y-186447490D02*
X105546182Y-179425550D01*
X190427493Y-162917841D02*
X191438016Y-163928364D01*
X177604495Y-163900670D02*
X183189137Y-158316016D01*
X183189135Y-151170962D02*
X176928323Y-144910150D01*
X107919150Y-184356866D02*
X107999272Y-184349857D01*
X105546182Y-179425550D02*
X99217253Y-174114948D01*
X179407126Y-185420148D02*
X176897129Y-182910150D01*
X176916973Y-184893255D02*
X175068164Y-186742061D01*
X166399751Y-202260331D02*
X166752221Y-202322487D01*
X167914803Y-201508432D02*
X167966275Y-201216503D01*
X183189137Y-158316016D02*
X183189135Y-151170962D01*
X176897138Y-182910150D02*
X176916973Y-182929990D01*
X194674412Y-163928364D02*
X196874412Y-166128364D01*
X183324411Y-177328364D02*
X183324411Y-170422978D01*
X100818727Y-192419880D02*
X101175265Y-192388683D01*
X183324411Y-170422978D02*
X176802104Y-163900670D01*
X177742627Y-182910148D02*
X183324411Y-177328364D01*
%TO.N,LED_15*%
X105247706Y-188240642D02*
X105242978Y-188241059D01*
X108153380Y-184799854D02*
X108116393Y-184836849D01*
X121022129Y-181542956D02*
X117765235Y-184799859D01*
X108102838Y-184838030D02*
X105247706Y-188240642D01*
X105242978Y-188241059D02*
X102311325Y-191734866D01*
X95860220Y-193112520D02*
X95837748Y-192855661D01*
X102311325Y-191734866D02*
X102388077Y-192612210D01*
X108116393Y-184836849D02*
X108102838Y-184838030D01*
X121022131Y-180285149D02*
X121022129Y-181542956D01*
X117765235Y-184799859D02*
X108153380Y-184799854D01*
X101800267Y-193312729D02*
X96637152Y-193764448D01*
X102388077Y-192612210D02*
X101800267Y-193312729D01*
X96637152Y-193764448D02*
X95860220Y-193112520D01*
X119897137Y-179160148D02*
X121022131Y-180285149D01*
%TO.N,LED_16*%
X94204266Y-174184824D02*
X97388943Y-176857079D01*
X105674155Y-186051488D02*
X101882571Y-190570118D01*
X97388943Y-176857079D02*
X101370037Y-176508783D01*
X101370037Y-176508783D02*
X105114137Y-179650457D01*
X101882571Y-190570118D02*
X100666203Y-190676537D01*
X94181785Y-173927963D02*
X94204266Y-174184824D01*
X105114137Y-179650457D02*
X105674155Y-186051488D01*
%TO.N,GND*%
X106123625Y-180862589D02*
X107488816Y-182008119D01*
X142524412Y-137928364D02*
X142524411Y-137895773D01*
X171897136Y-162102312D02*
X172795392Y-161204057D01*
X188452135Y-182470147D02*
X188452134Y-184193980D01*
X179028320Y-180204059D02*
X182189214Y-177043166D01*
X133897135Y-150160147D02*
X133897135Y-150102305D01*
X188452134Y-184193980D02*
X189228299Y-184970145D01*
X189777129Y-181145146D02*
X188452135Y-182470147D01*
X170724412Y-164612430D02*
X170724412Y-163332880D01*
X189875654Y-154930153D02*
X189552137Y-155253671D01*
X144289137Y-139693089D02*
X142524412Y-137928364D01*
X189552136Y-166917269D02*
X189834259Y-166635149D01*
X207527495Y-135280873D02*
X207024412Y-134777790D01*
X190325968Y-184970148D02*
X191552133Y-183743982D01*
X171897137Y-162160155D02*
X171897136Y-162102312D01*
X161779597Y-199668686D02*
X160476326Y-200581231D01*
X177095914Y-165467272D02*
X171579253Y-165467272D01*
X170724412Y-163332880D02*
X171897137Y-162160155D01*
X171622402Y-146510424D02*
X170772131Y-145660152D01*
X172795392Y-161204057D02*
X179028315Y-161204057D01*
X100765164Y-174826364D02*
X105978225Y-179200643D01*
X134795389Y-149204051D02*
X141088854Y-149204048D01*
X182289137Y-157943224D02*
X182289135Y-151543754D01*
X172795377Y-180204059D02*
X179028320Y-180204059D01*
X94024221Y-172126997D02*
X94699745Y-171321941D01*
X189552138Y-162717269D02*
X189552140Y-167267271D01*
X182189214Y-177043166D02*
X182289130Y-176943250D01*
X197807257Y-131667275D02*
X196635140Y-130495154D01*
X171897129Y-181160150D02*
X171897130Y-181102307D01*
X160237569Y-201935348D02*
X160785094Y-202717305D01*
X205240248Y-131667272D02*
X197807257Y-131667275D01*
X189552137Y-167867272D02*
X189552136Y-166917269D01*
X182189214Y-177043166D02*
X182324412Y-176907967D01*
X105978225Y-179200643D02*
X106123625Y-180862589D01*
X207527494Y-162953670D02*
X207527495Y-135280873D01*
X133897135Y-150102305D02*
X134795389Y-149204051D01*
X134740336Y-135628364D02*
X132772129Y-133660157D01*
X132772128Y-132285157D02*
X133897128Y-131160158D01*
X171579253Y-165467272D02*
X170724412Y-164612430D01*
X160476326Y-200581231D02*
X160237569Y-201935348D01*
X94699745Y-171321941D02*
X100010378Y-170857319D01*
X191552138Y-176917268D02*
X189552139Y-174917275D01*
X142524411Y-137895773D02*
X140257003Y-135628364D01*
X189552141Y-155567272D02*
X189552138Y-162717269D01*
X170200971Y-204377576D02*
X173423249Y-202121319D01*
X182103163Y-205282210D02*
X173424182Y-202123310D01*
X107488816Y-182008119D02*
X107546348Y-182003087D01*
X189552139Y-174917275D02*
X189552137Y-167867272D01*
X100450205Y-171226376D02*
X100765164Y-174826364D01*
X100010378Y-170857319D02*
X100450205Y-171226376D01*
X182289135Y-151543754D02*
X177255805Y-146510424D01*
X140257003Y-135628364D02*
X134740336Y-135628364D01*
X94029262Y-172184619D02*
X94024221Y-172126997D01*
X144289129Y-146003769D02*
X144289137Y-139693089D01*
X198233249Y-154917269D02*
X194727494Y-154917274D01*
X177255805Y-146510424D02*
X171622402Y-146510424D01*
X189834259Y-166635149D02*
X194147130Y-166635150D01*
X170772131Y-145660152D02*
X170772130Y-144285152D01*
X132772129Y-133660157D02*
X132772128Y-132285157D01*
X199937132Y-156621153D02*
X198233249Y-154917269D01*
X207024412Y-133451435D02*
X205240248Y-131667272D01*
X182289130Y-170660489D02*
X177095914Y-165467272D01*
X141088854Y-149204048D02*
X144289129Y-146003769D01*
X200647126Y-166635152D02*
X203846011Y-166635154D01*
X194714613Y-154930155D02*
X189875654Y-154930153D01*
X189228299Y-184970145D02*
X190325968Y-184970148D01*
X189552137Y-155253671D02*
X189552141Y-155567272D01*
X179028315Y-161204057D02*
X182289137Y-157943224D01*
X173424182Y-202123310D02*
X173423249Y-202121319D01*
X182289130Y-176943250D02*
X182289130Y-170660489D01*
X160785094Y-202717305D02*
X170200971Y-204377576D01*
X207024412Y-134777790D02*
X207024412Y-133451435D01*
X203846011Y-166635154D02*
X207527494Y-162953670D01*
X171897130Y-181102307D02*
X172795377Y-180204059D01*
X194727494Y-154917274D02*
X194714613Y-154930155D01*
X191552133Y-183743982D02*
X191552138Y-176917268D01*
X170772130Y-144285152D02*
X171897130Y-143160152D01*
%TO.N,LED_14*%
X119897134Y-160160149D02*
X125289135Y-165552150D01*
X125289136Y-174943235D02*
X122028317Y-178204056D01*
X113596078Y-179917008D02*
X114589222Y-180910147D01*
X125289135Y-165552150D02*
X125289136Y-174943235D01*
X122028317Y-178204056D02*
X113852457Y-178204057D01*
X114589222Y-180910147D02*
X114897137Y-180910149D01*
X113852457Y-178204057D02*
X113596083Y-178460425D01*
X113596083Y-178460425D02*
X113596078Y-179917008D01*
%TO.N,LED_13*%
X125289134Y-146552148D02*
X119897125Y-141160156D01*
X113772136Y-161093061D02*
X113772139Y-159410154D01*
X122028321Y-159204056D02*
X125289131Y-155943233D01*
X113978238Y-159204055D02*
X122028321Y-159204056D01*
X113772139Y-159410154D02*
X113978238Y-159204055D01*
X114589225Y-161910151D02*
X113772136Y-161093061D01*
X125289131Y-155943233D02*
X125289134Y-146552148D01*
X114897131Y-161910146D02*
X114589225Y-161910151D01*
%TO.N,LED_10*%
X133897135Y-152167996D02*
X136836783Y-155107650D01*
X136836783Y-155107650D02*
X140743320Y-155107654D01*
X140196353Y-169160157D02*
X138897134Y-169160153D01*
X140743320Y-155107654D02*
X144289144Y-158653476D01*
X144289140Y-165067378D02*
X140196353Y-169160157D01*
X144289144Y-158653476D02*
X144289140Y-165067378D01*
X133897133Y-151910154D02*
X133897135Y-152167996D01*
%TO.N,LED_11*%
X133897136Y-132910149D02*
X133897136Y-133167993D01*
X135907506Y-135178364D02*
X140443400Y-135178364D01*
X133897136Y-133167993D02*
X135907506Y-135178364D01*
X140769143Y-150160154D02*
X138897140Y-150160154D01*
X144739137Y-146190156D02*
X140769143Y-150160154D01*
X144739136Y-139474102D02*
X144739137Y-146190156D01*
X140443400Y-135178364D02*
X144739136Y-139474102D01*
%TO.N,LED_8*%
X163296083Y-165559103D02*
X163296083Y-174996818D01*
X160088853Y-178204054D02*
X151978229Y-178204053D01*
X151596081Y-178586203D02*
X151596081Y-179917008D01*
X157897135Y-160160155D02*
X163296083Y-165559103D01*
X163296083Y-174996818D02*
X160088853Y-178204054D01*
X151596081Y-179917008D02*
X152589225Y-180910149D01*
X151978229Y-178204053D02*
X151596081Y-178586203D01*
X152589225Y-180910149D02*
X152897135Y-180910149D01*
%TO.N,LED_7*%
X157897134Y-141160151D02*
X163289129Y-146552158D01*
X151596086Y-160917012D02*
X152589221Y-161910153D01*
X152589221Y-161910153D02*
X152897141Y-161910153D01*
X163289136Y-155943234D02*
X160028312Y-159204058D01*
X163289129Y-146552158D02*
X163289136Y-155943234D01*
X151978237Y-159204052D02*
X151596086Y-159586200D01*
X160028312Y-159204058D02*
X151978237Y-159204052D01*
X151596086Y-159586200D02*
X151596086Y-160917012D01*
%TO.N,LED_6*%
X176897134Y-143160153D02*
X176897133Y-143102314D01*
X176897133Y-143102314D02*
X176179977Y-142385154D01*
X152897132Y-143167999D02*
X152897133Y-142910155D01*
X154296408Y-144567270D02*
X152897132Y-143167999D01*
X159077492Y-144567275D02*
X154296408Y-144567270D01*
X176179977Y-142385154D02*
X167020895Y-142385152D01*
X167020895Y-142385152D02*
X166927495Y-142478550D01*
%TO.N,LED_3*%
X173857245Y-191018123D02*
X172745979Y-197320371D01*
X171897133Y-182910153D02*
X171897136Y-188218815D01*
X167860858Y-200740972D02*
X166703635Y-200536923D01*
X172745979Y-197320371D02*
X167860858Y-200740972D01*
X171897136Y-188218815D02*
X173857245Y-191018123D01*
%TO.N,LED_4*%
X177282310Y-165017273D02*
X182874411Y-170609374D01*
X171897138Y-164167996D02*
X172746415Y-165017272D01*
X171897134Y-163910147D02*
X171897138Y-164167996D01*
X172746415Y-165017272D02*
X177282310Y-165017273D01*
X178856231Y-181160149D02*
X176897133Y-181160149D01*
X182874411Y-177141968D02*
X178856231Y-181160149D01*
X182874411Y-170609374D02*
X182874411Y-177141968D01*
%TO.N,LED_5*%
X182739135Y-151357358D02*
X177442200Y-146060425D01*
X177442200Y-146060425D02*
X172546089Y-146060424D01*
X171897139Y-145411476D02*
X171897134Y-144910149D01*
X176897131Y-162160153D02*
X178708615Y-162160154D01*
X178708615Y-162160154D02*
X182739137Y-158129620D01*
X172546089Y-146060424D02*
X171897139Y-145411476D01*
X182739137Y-158129620D02*
X182739135Y-151357358D01*
%TO.N,LED_2*%
X170095546Y-203902045D02*
X173680471Y-201391853D01*
X161475708Y-201392093D02*
X161430934Y-201646020D01*
X162012667Y-202476816D02*
X170095546Y-203902045D01*
X186392784Y-206018760D02*
X173680471Y-201391853D01*
X186801625Y-206992305D02*
X186821414Y-206937954D01*
X186821414Y-206937954D02*
X186392784Y-206018760D01*
X161430934Y-201646020D02*
X162012667Y-202476816D01*
%TO.N,LED_1*%
X195011037Y-209968360D02*
X195182755Y-210030860D01*
X181899638Y-208205181D02*
X181416440Y-207168959D01*
X195011037Y-209968360D02*
X191386978Y-211658291D01*
X195182755Y-210030860D02*
X195203073Y-210074447D01*
X181416440Y-207168959D02*
X181504627Y-206926661D01*
X205843926Y-216217941D02*
X195203073Y-210074447D01*
X205619371Y-216983188D02*
X205912788Y-216474962D01*
X191386978Y-211658291D02*
X181899638Y-208205181D01*
X205912788Y-216474962D02*
X205843926Y-216217941D01*
%TO.N,rot_clock*%
X195510139Y-151940157D02*
X196635138Y-150815154D01*
X188652141Y-152599166D02*
X189311148Y-151940153D01*
X189777135Y-178645148D02*
X188652137Y-177520154D01*
X188652137Y-177520154D02*
X188652141Y-152599166D01*
X189311148Y-151940153D02*
X195510139Y-151940157D01*
%TO.N,rot_anticlock*%
X190256011Y-154467275D02*
X190243129Y-154480152D01*
X189102137Y-155067270D02*
X189102138Y-175320154D01*
X189102138Y-175320154D02*
X191102134Y-177320146D01*
X190243129Y-154480152D02*
X189689255Y-154480154D01*
X195523022Y-154467273D02*
X190256011Y-154467275D01*
X191102134Y-177320146D02*
X191102132Y-182320149D01*
X189689255Y-154480154D02*
X189102137Y-155067270D01*
X196635139Y-153355154D02*
X195523022Y-154467273D01*
X191102132Y-182320149D02*
X189777138Y-183645148D01*
%TO.N,RAW*%
X188096079Y-123810429D02*
X185846084Y-126060425D01*
X183622403Y-126060427D02*
X182747133Y-125185160D01*
X185846084Y-126060425D02*
X183622403Y-126060427D01*
X198159143Y-125415161D02*
X197254408Y-124510423D01*
X197254408Y-124510423D02*
X194096085Y-124510432D01*
X193396077Y-123810426D02*
X188096079Y-123810429D01*
X182747133Y-125185160D02*
X182747135Y-124960150D01*
X194096085Y-124510432D02*
X193396077Y-123810426D01*
%TO.N,RST*%
X200647129Y-162135152D02*
X194147129Y-162135147D01*
%TO.N,led*%
X206527493Y-126717271D02*
X207474411Y-127664190D01*
X207772129Y-163345431D02*
X207772130Y-199209673D01*
X197887255Y-126667271D02*
X206527495Y-126667273D01*
X207474411Y-127664190D02*
X207474412Y-134591394D01*
X214334245Y-205771788D02*
X215614117Y-210548316D01*
X200285319Y-216222028D02*
X200414246Y-215998725D01*
X204877132Y-219701215D02*
X200547818Y-217201686D01*
X215614117Y-210548316D02*
X214462435Y-212543067D01*
X206527495Y-126667273D02*
X206527493Y-126717271D01*
X200547818Y-217201686D02*
X200285319Y-216222028D01*
X207977495Y-135094478D02*
X207977495Y-163140067D01*
X211327574Y-217972822D02*
X204877132Y-219701215D01*
X207977495Y-163140067D02*
X207772129Y-163345431D01*
X207474412Y-134591394D02*
X207977495Y-135094478D01*
X214462435Y-212543067D02*
X211327574Y-217972822D01*
X207772130Y-199209673D02*
X214334245Y-205771788D01*
X196635137Y-125415154D02*
X197887255Y-126667271D01*
%TO.N,data*%
X201681373Y-156621150D02*
X200227491Y-155167271D01*
X202477134Y-156621150D02*
X201681373Y-156621150D01*
%TO.N,mosi*%
X206627495Y-162580873D02*
X206627495Y-138117274D01*
X205210374Y-136700157D02*
X197760139Y-136700155D01*
X206627495Y-138117274D02*
X205210374Y-136700157D01*
X192317135Y-156621152D02*
X190877493Y-158060790D01*
X190877493Y-162731445D02*
X191624411Y-163478364D01*
X190877493Y-158060790D02*
X190877493Y-162731445D01*
X205730003Y-163478365D02*
X206627495Y-162580873D01*
X197760139Y-136700155D02*
X196635141Y-135575153D01*
X191624411Y-163478364D02*
X205730003Y-163478365D01*
%TO.N,sck*%
X206177496Y-140224518D02*
X205193130Y-139240153D01*
X206177495Y-159625281D02*
X206177496Y-140224518D01*
X193655829Y-157822452D02*
X193655830Y-159882747D01*
X194359534Y-160586452D02*
X205216324Y-160586452D01*
X205193130Y-139240153D02*
X197760138Y-139240152D01*
X205216324Y-160586452D02*
X206177495Y-159625281D01*
X194857129Y-156621152D02*
X193655829Y-157822452D01*
X193655830Y-159882747D02*
X194359534Y-160586452D01*
X197760138Y-139240152D02*
X196635139Y-138115153D01*
%TO.N,bat*%
X185347131Y-122785149D02*
X195397131Y-122785149D01*
X180997132Y-123710148D02*
X184422132Y-123710148D01*
X179747132Y-124960148D02*
X180997132Y-123710148D01*
X184422132Y-123710148D02*
X185347131Y-122785149D01*
%TD*%
%TA.AperFunction,Conductor*%
%TO.N,VCC*%
G36*
X186380696Y-132790890D02*
G01*
X186992437Y-133022141D01*
X186998964Y-133028272D01*
X187000000Y-133033085D01*
X187000000Y-133266914D01*
X186996573Y-133275187D01*
X186992437Y-133277858D01*
X186363655Y-133515551D01*
X186354705Y-133515271D01*
X186348719Y-133509109D01*
X186252306Y-133277858D01*
X186200875Y-133154499D01*
X186200855Y-133145550D01*
X186348719Y-132790889D01*
X186355066Y-132784572D01*
X186363654Y-132784448D01*
X186380696Y-132790890D01*
G37*
%TD.AperFunction*%
%TD*%
%TA.AperFunction,Conductor*%
%TO.N,VCC*%
G36*
X187944206Y-132784728D02*
G01*
X187950192Y-132790890D01*
X188098035Y-133145497D01*
X188098056Y-133154451D01*
X188098035Y-133154501D01*
X187950192Y-133509109D01*
X187943845Y-133515427D01*
X187935256Y-133515551D01*
X187306475Y-133277858D01*
X187299948Y-133271727D01*
X187298912Y-133266914D01*
X187298912Y-133033085D01*
X187302339Y-133024812D01*
X187306475Y-133022141D01*
X187935257Y-132784448D01*
X187944206Y-132784728D01*
G37*
%TD.AperFunction*%
%TD*%
%TA.AperFunction,Conductor*%
%TO.N,pinkie_bottom*%
G36*
X101539526Y-177169427D02*
G01*
X102644316Y-178107061D01*
X102648406Y-178115027D01*
X102645708Y-178123502D01*
X102494654Y-178303521D01*
X102489284Y-178307135D01*
X101232568Y-178712659D01*
X101223642Y-178711938D01*
X101218169Y-178706008D01*
X100860029Y-177842567D01*
X100860025Y-177833613D01*
X100862568Y-177829807D01*
X101523693Y-177170063D01*
X101531967Y-177166647D01*
X101539526Y-177169427D01*
G37*
%TD.AperFunction*%
%TD*%
%TA.AperFunction,Conductor*%
%TO.N,pinkie_bottom*%
G36*
X90575308Y-185228886D02*
G01*
X90577295Y-185230553D01*
X91665667Y-186371960D01*
X91668896Y-186380312D01*
X91666642Y-186386942D01*
X90891039Y-187447214D01*
X90883389Y-187451868D01*
X90882616Y-187451961D01*
X90644148Y-187472825D01*
X90635607Y-187470133D01*
X90635037Y-187469621D01*
X90133228Y-186988168D01*
X89687093Y-186560130D01*
X89683496Y-186551929D01*
X89685451Y-186545208D01*
X90559086Y-185232145D01*
X90566522Y-185227156D01*
X90575308Y-185228886D01*
G37*
%TD.AperFunction*%
%TD*%
%TA.AperFunction,Conductor*%
%TO.N,c_pinkie*%
G36*
X88656395Y-180385725D02*
G01*
X88656856Y-180386134D01*
X88675287Y-180403358D01*
X88972265Y-180680875D01*
X88975970Y-180689027D01*
X88972825Y-180697411D01*
X88972571Y-180697675D01*
X88772487Y-180898781D01*
X88764223Y-180902229D01*
X88764154Y-180902229D01*
X88479189Y-180901283D01*
X88470927Y-180897829D01*
X88467627Y-180891100D01*
X88442343Y-180697675D01*
X88405585Y-180416474D01*
X88407910Y-180407828D01*
X88415669Y-180403358D01*
X88416127Y-180403308D01*
X88647855Y-180383033D01*
X88656395Y-180385725D01*
G37*
%TD.AperFunction*%
%TD*%
%TA.AperFunction,Conductor*%
%TO.N,c_pinkie*%
G36*
X197689209Y-137464404D02*
G01*
X198301898Y-137740945D01*
X198308029Y-137747472D01*
X198307905Y-137756061D01*
X198161701Y-138111347D01*
X198155383Y-138117694D01*
X198155333Y-138117715D01*
X197800047Y-138263919D01*
X197791093Y-138263898D01*
X197784931Y-138257912D01*
X197720814Y-138115859D01*
X197558417Y-137756061D01*
X197508390Y-137645223D01*
X197508110Y-137636273D01*
X197510779Y-137632139D01*
X197676124Y-137466794D01*
X197684396Y-137463368D01*
X197689209Y-137464404D01*
G37*
%TD.AperFunction*%
%TD*%
%TA.AperFunction,Conductor*%
%TO.N,c_pinkie*%
G36*
X67982468Y-157419847D02*
G01*
X68160813Y-157569496D01*
X68164947Y-157577439D01*
X68164115Y-157582904D01*
X67970120Y-158055186D01*
X67963806Y-158061537D01*
X67954854Y-158061565D01*
X67692392Y-157953825D01*
X67686040Y-157947513D01*
X67686012Y-157947446D01*
X67577402Y-157683034D01*
X67577429Y-157674080D01*
X67581875Y-157668763D01*
X67968600Y-157418981D01*
X67977408Y-157417372D01*
X67982468Y-157419847D01*
G37*
%TD.AperFunction*%
%TD*%
%TA.AperFunction,Conductor*%
%TO.N,c_pinkie*%
G36*
X99440801Y-160775473D02*
G01*
X101599617Y-161375459D01*
X101606670Y-161380976D01*
X101608178Y-161387101D01*
X101569047Y-162626979D01*
X101565361Y-162635140D01*
X101559760Y-162638060D01*
X100320149Y-162898638D01*
X100311348Y-162896986D01*
X100307113Y-162892077D01*
X99447180Y-161021843D01*
X99446158Y-161017985D01*
X99426016Y-160787765D01*
X99428708Y-160779226D01*
X99436651Y-160775092D01*
X99440801Y-160775473D01*
G37*
%TD.AperFunction*%
%TD*%
%TA.AperFunction,Conductor*%
%TO.N,c_pinkie*%
G36*
X87687397Y-161795268D02*
G01*
X87694763Y-161800357D01*
X87696590Y-161805685D01*
X87716881Y-162037612D01*
X87714189Y-162046153D01*
X87709735Y-162049428D01*
X87238604Y-162246208D01*
X87229650Y-162246235D01*
X87223300Y-162239924D01*
X87113895Y-161978150D01*
X87113866Y-161969196D01*
X87224063Y-161705361D01*
X87230413Y-161699049D01*
X87237316Y-161698434D01*
X87687397Y-161795268D01*
G37*
%TD.AperFunction*%
%TD*%
%TA.AperFunction,Conductor*%
%TO.N,c_pinkie*%
G36*
X101096773Y-179703163D02*
G01*
X103255579Y-180303161D01*
X103262632Y-180308678D01*
X103264140Y-180314803D01*
X103225000Y-181554682D01*
X103221314Y-181562843D01*
X103215713Y-181565763D01*
X101976102Y-181826332D01*
X101967301Y-181824680D01*
X101963066Y-181819771D01*
X101103153Y-179949533D01*
X101102131Y-179945675D01*
X101081989Y-179715455D01*
X101084681Y-179706916D01*
X101092624Y-179702782D01*
X101096773Y-179703163D01*
G37*
%TD.AperFunction*%
%TD*%
%TA.AperFunction,Conductor*%
%TO.N,c_pinkie*%
G36*
X89343345Y-180722965D02*
G01*
X89350711Y-180728054D01*
X89352538Y-180733382D01*
X89372829Y-180965309D01*
X89370137Y-180973850D01*
X89365683Y-180977125D01*
X88894552Y-181173905D01*
X88885598Y-181173932D01*
X88879248Y-181167621D01*
X88769843Y-180905847D01*
X88769814Y-180896893D01*
X88880011Y-180633058D01*
X88886361Y-180626746D01*
X88893264Y-180626131D01*
X89343345Y-180722965D01*
G37*
%TD.AperFunction*%
%TD*%
%TA.AperFunction,Conductor*%
%TO.N,c_pinkie*%
G36*
X87406962Y-161442197D02*
G01*
X87585307Y-161591846D01*
X87589441Y-161599789D01*
X87588609Y-161605254D01*
X87394614Y-162077536D01*
X87388300Y-162083887D01*
X87379348Y-162083915D01*
X87116886Y-161976175D01*
X87110534Y-161969863D01*
X87110506Y-161969796D01*
X87001896Y-161705384D01*
X87001923Y-161696430D01*
X87006369Y-161691113D01*
X87393094Y-161441331D01*
X87401902Y-161439722D01*
X87406962Y-161442197D01*
G37*
%TD.AperFunction*%
%TD*%
%TA.AperFunction,Conductor*%
%TO.N,c_pinkie*%
G36*
X87185606Y-161372369D02*
G01*
X87188881Y-161376823D01*
X87385661Y-161847954D01*
X87385688Y-161856908D01*
X87379377Y-161863258D01*
X87117603Y-161972663D01*
X87108648Y-161972692D01*
X87108582Y-161972664D01*
X86844816Y-161862496D01*
X86838502Y-161856145D01*
X86837887Y-161849241D01*
X86934721Y-161399160D01*
X86939810Y-161391795D01*
X86945136Y-161389968D01*
X87177066Y-161369677D01*
X87185606Y-161372369D01*
G37*
%TD.AperFunction*%
%TD*%
%TA.AperFunction,Conductor*%
%TO.N,c_pinkie*%
G36*
X80016320Y-156753119D02*
G01*
X82175130Y-157353107D01*
X82182183Y-157358624D01*
X82183691Y-157364749D01*
X82144558Y-158604627D01*
X82140872Y-158612788D01*
X82135271Y-158615708D01*
X80895660Y-158876283D01*
X80886859Y-158874631D01*
X80882624Y-158869722D01*
X80022699Y-156999489D01*
X80021677Y-156995631D01*
X80001535Y-156765411D01*
X80004227Y-156756872D01*
X80012170Y-156752738D01*
X80016320Y-156753119D01*
G37*
%TD.AperFunction*%
%TD*%
%TA.AperFunction,Conductor*%
%TO.N,c_pinkie*%
G36*
X87116319Y-161975971D02*
G01*
X87116351Y-161976004D01*
X87116365Y-161976018D01*
X87315881Y-162176388D01*
X87319290Y-162184668D01*
X87315845Y-162192934D01*
X87314846Y-162193821D01*
X86982517Y-162456559D01*
X86976281Y-162459036D01*
X86745700Y-162479210D01*
X86737159Y-162476518D01*
X86733025Y-162468575D01*
X86733130Y-162465685D01*
X86811416Y-161983344D01*
X86816124Y-161975728D01*
X86822925Y-161973520D01*
X87108035Y-161972573D01*
X87116319Y-161975971D01*
G37*
%TD.AperFunction*%
%TD*%
%TA.AperFunction,Conductor*%
%TO.N,c_pinkie*%
G36*
X68262903Y-157772918D02*
G01*
X68270269Y-157778007D01*
X68272096Y-157783335D01*
X68292387Y-158015262D01*
X68289695Y-158023803D01*
X68285241Y-158027078D01*
X67814110Y-158223858D01*
X67805156Y-158223885D01*
X67798806Y-158217574D01*
X67689401Y-157955800D01*
X67689372Y-157946846D01*
X67799569Y-157683011D01*
X67805919Y-157676699D01*
X67812822Y-157676084D01*
X68262903Y-157772918D01*
G37*
%TD.AperFunction*%
%TD*%
%TA.AperFunction,Conductor*%
%TO.N,pinkie_home*%
G36*
X88919354Y-166301183D02*
G01*
X88921341Y-166302850D01*
X90009708Y-167444258D01*
X90012937Y-167452610D01*
X90010683Y-167459240D01*
X89235078Y-168519512D01*
X89227428Y-168524166D01*
X89226655Y-168524259D01*
X88988185Y-168545123D01*
X88979644Y-168542431D01*
X88979075Y-168541920D01*
X88486591Y-168069410D01*
X88031135Y-167632427D01*
X88027538Y-167624226D01*
X88029493Y-167617505D01*
X88903133Y-166304441D01*
X88910568Y-166299453D01*
X88919354Y-166301183D01*
G37*
%TD.AperFunction*%
%TD*%
%TA.AperFunction,Conductor*%
%TO.N,pinkie_home*%
G36*
X99883597Y-158242094D02*
G01*
X100631089Y-158907637D01*
X100977239Y-159215837D01*
X100981139Y-159223898D01*
X100978422Y-159232096D01*
X100827289Y-159412209D01*
X100821653Y-159415905D01*
X99576445Y-159785278D01*
X99567539Y-159784345D01*
X99562311Y-159778544D01*
X99335654Y-159232096D01*
X99204074Y-158914869D01*
X99204070Y-158905915D01*
X99206616Y-158902106D01*
X99867554Y-158242549D01*
X99875829Y-158239132D01*
X99883597Y-158242094D01*
G37*
%TD.AperFunction*%
%TD*%
%TA.AperFunction,Conductor*%
%TO.N,pinkie_top*%
G36*
X80458966Y-154218410D02*
G01*
X81355998Y-154883561D01*
X81593495Y-155059665D01*
X81598099Y-155067345D01*
X81595924Y-155076032D01*
X81595489Y-155076584D01*
X81444702Y-155256287D01*
X81439990Y-155259666D01*
X80152526Y-155761758D01*
X80143573Y-155761572D01*
X80137468Y-155755341D01*
X79779584Y-154892516D01*
X79779579Y-154883561D01*
X79782122Y-154879755D01*
X80443735Y-154219524D01*
X80452009Y-154216108D01*
X80458966Y-154218410D01*
G37*
%TD.AperFunction*%
%TD*%
%TA.AperFunction,Conductor*%
%TO.N,pinkie_top*%
G36*
X69494865Y-162278831D02*
G01*
X69496852Y-162280498D01*
X70585222Y-163421906D01*
X70588451Y-163430258D01*
X70586197Y-163436888D01*
X69810593Y-164497160D01*
X69802943Y-164501814D01*
X69802170Y-164501907D01*
X69563700Y-164522771D01*
X69555159Y-164520079D01*
X69554589Y-164519567D01*
X69059135Y-164044209D01*
X68606648Y-163610075D01*
X68603051Y-163601874D01*
X68605006Y-163595153D01*
X69478645Y-162282089D01*
X69486079Y-162277101D01*
X69494865Y-162278831D01*
G37*
%TD.AperFunction*%
%TD*%
%TA.AperFunction,Conductor*%
%TO.N,ring_bottom*%
G36*
X110319442Y-172853754D02*
G01*
X110321276Y-172855588D01*
X111306026Y-174087511D01*
X111308515Y-174096113D01*
X111305692Y-174102521D01*
X110440632Y-175091161D01*
X110432605Y-175095130D01*
X110431827Y-175095156D01*
X110192445Y-175095156D01*
X110184172Y-175091729D01*
X110183640Y-175091160D01*
X109318581Y-174102520D01*
X109315712Y-174094038D01*
X109318245Y-174087513D01*
X110303001Y-172855586D01*
X110310840Y-172851265D01*
X110319442Y-172853754D01*
G37*
%TD.AperFunction*%
%TD*%
%TA.AperFunction,Conductor*%
%TO.N,ring_bottom*%
G36*
X121888713Y-165720122D02*
G01*
X121888911Y-165720325D01*
X122960887Y-166848045D01*
X122964103Y-166856402D01*
X122960680Y-166864379D01*
X122794509Y-167030549D01*
X122788444Y-167033766D01*
X121221031Y-167334985D01*
X121212260Y-167333181D01*
X121207333Y-167325703D01*
X121207123Y-167323509D01*
X121206430Y-166389305D01*
X121209850Y-166381033D01*
X121872169Y-165720103D01*
X121880443Y-165716686D01*
X121888713Y-165720122D01*
G37*
%TD.AperFunction*%
%TD*%
%TA.AperFunction,Conductor*%
%TO.N,c_ring*%
G36*
X108632478Y-130275473D02*
G01*
X108894952Y-130383248D01*
X108898800Y-130385816D01*
X109099324Y-130587285D01*
X109102731Y-130595567D01*
X109099285Y-130603832D01*
X109097616Y-130605210D01*
X108725115Y-130858852D01*
X108718530Y-130860881D01*
X108487127Y-130860881D01*
X108478854Y-130857454D01*
X108475427Y-130849181D01*
X108475777Y-130846340D01*
X108616689Y-130283454D01*
X108622022Y-130276263D01*
X108630879Y-130274948D01*
X108632478Y-130275473D01*
G37*
%TD.AperFunction*%
%TD*%
%TA.AperFunction,Conductor*%
%TO.N,c_ring*%
G36*
X109488933Y-149257577D02*
G01*
X109495802Y-149263323D01*
X109497132Y-149268741D01*
X109497132Y-149501555D01*
X109493705Y-149509828D01*
X109488933Y-149512719D01*
X109022120Y-149659118D01*
X109013201Y-149658324D01*
X109007824Y-149652466D01*
X108898017Y-149389657D01*
X108897991Y-149380704D01*
X108897996Y-149380689D01*
X109007824Y-149117828D01*
X109014175Y-149111518D01*
X109022119Y-149111177D01*
X109488933Y-149257577D01*
G37*
%TD.AperFunction*%
%TD*%
%TA.AperFunction,Conductor*%
%TO.N,c_ring*%
G36*
X197689202Y-140004408D02*
G01*
X198301898Y-140280945D01*
X198308029Y-140287472D01*
X198307905Y-140296061D01*
X198161701Y-140651347D01*
X198155383Y-140657694D01*
X198155333Y-140657715D01*
X197800047Y-140803919D01*
X197791093Y-140803898D01*
X197784931Y-140797912D01*
X197508387Y-140185228D01*
X197508107Y-140176278D01*
X197510776Y-140172144D01*
X197676122Y-140006799D01*
X197684394Y-140003373D01*
X197689202Y-140004408D01*
G37*
%TD.AperFunction*%
%TD*%
%TA.AperFunction,Conductor*%
%TO.N,c_ring*%
G36*
X108725112Y-148911438D02*
G01*
X109097612Y-149165081D01*
X109102522Y-149172570D01*
X109100698Y-149181337D01*
X109099320Y-149183006D01*
X108898796Y-149384475D01*
X108894947Y-149387044D01*
X108632478Y-149494816D01*
X108623523Y-149494789D01*
X108617211Y-149488437D01*
X108616687Y-149486845D01*
X108475776Y-148923950D01*
X108477091Y-148915094D01*
X108484285Y-148909760D01*
X108487125Y-148909410D01*
X108718532Y-148909410D01*
X108725112Y-148911438D01*
G37*
%TD.AperFunction*%
%TD*%
%TA.AperFunction,Conductor*%
%TO.N,c_ring*%
G36*
X108725100Y-167911457D02*
G01*
X109049754Y-168132503D01*
X109097616Y-168165091D01*
X109102526Y-168172580D01*
X109100702Y-168181347D01*
X109099324Y-168183016D01*
X108898800Y-168384484D01*
X108894951Y-168387053D01*
X108632482Y-168494825D01*
X108623527Y-168494798D01*
X108617215Y-168488446D01*
X108616690Y-168486852D01*
X108475764Y-167923968D01*
X108477079Y-167915113D01*
X108484272Y-167909779D01*
X108487113Y-167909429D01*
X108718521Y-167909429D01*
X108725100Y-167911457D01*
G37*
%TD.AperFunction*%
%TD*%
%TA.AperFunction,Conductor*%
%TO.N,c_ring*%
G36*
X108632474Y-149275477D02*
G01*
X108894948Y-149383252D01*
X108898796Y-149385820D01*
X109099320Y-149587288D01*
X109102727Y-149595569D01*
X109099281Y-149603835D01*
X109097612Y-149605213D01*
X108725107Y-149858852D01*
X108718522Y-149860881D01*
X108487119Y-149860881D01*
X108478846Y-149857454D01*
X108475419Y-149849181D01*
X108475769Y-149846340D01*
X108616685Y-149283459D01*
X108622018Y-149276267D01*
X108630875Y-149274952D01*
X108632474Y-149275477D01*
G37*
%TD.AperFunction*%
%TD*%
%TA.AperFunction,Conductor*%
%TO.N,c_ring*%
G36*
X121282459Y-130266065D02*
G01*
X123380759Y-131051929D01*
X123387303Y-131058040D01*
X123388272Y-131064273D01*
X123241220Y-132296022D01*
X123236836Y-132303831D01*
X123231002Y-132306251D01*
X121973401Y-132457793D01*
X121964777Y-132455380D01*
X121960986Y-132450121D01*
X121267343Y-130512058D01*
X121266659Y-130508115D01*
X121266659Y-130277020D01*
X121270086Y-130268750D01*
X121278359Y-130265323D01*
X121282459Y-130266065D01*
G37*
%TD.AperFunction*%
%TD*%
%TA.AperFunction,Conductor*%
%TO.N,c_ring*%
G36*
X121282472Y-168266070D02*
G01*
X123380765Y-169051933D01*
X123387309Y-169058044D01*
X123388278Y-169064277D01*
X123241226Y-170296026D01*
X123236842Y-170303835D01*
X123231008Y-170306255D01*
X121973408Y-170457795D01*
X121964784Y-170455382D01*
X121960992Y-170450122D01*
X121782960Y-169952695D01*
X121267351Y-168512055D01*
X121266668Y-168508123D01*
X121266668Y-168277026D01*
X121270095Y-168268754D01*
X121278368Y-168265327D01*
X121282472Y-168266070D01*
G37*
%TD.AperFunction*%
%TD*%
%TA.AperFunction,Conductor*%
%TO.N,c_ring*%
G36*
X109239087Y-129878567D02*
G01*
X109403713Y-130043193D01*
X109407140Y-130051466D01*
X109405810Y-130056884D01*
X109179243Y-130490490D01*
X109172374Y-130496236D01*
X109164429Y-130495895D01*
X108900952Y-130387707D01*
X108894600Y-130381395D01*
X108894573Y-130381328D01*
X108786385Y-130117851D01*
X108786412Y-130108896D01*
X108791788Y-130103038D01*
X109225399Y-129876469D01*
X109234315Y-129875676D01*
X109239087Y-129878567D01*
G37*
%TD.AperFunction*%
%TD*%
%TA.AperFunction,Conductor*%
%TO.N,c_ring*%
G36*
X121282453Y-149266068D02*
G01*
X123380759Y-150051927D01*
X123387304Y-150058038D01*
X123388273Y-150064271D01*
X123241226Y-151296019D01*
X123236842Y-151303828D01*
X123231008Y-151306248D01*
X121973406Y-151457795D01*
X121964782Y-151455383D01*
X121960991Y-151450123D01*
X121267336Y-149512061D01*
X121266652Y-149508118D01*
X121266652Y-149277023D01*
X121270079Y-149268753D01*
X121278352Y-149265326D01*
X121282453Y-149266068D01*
G37*
%TD.AperFunction*%
%TD*%
%TA.AperFunction,Conductor*%
%TO.N,c_ring*%
G36*
X109488937Y-130257573D02*
G01*
X109495806Y-130263319D01*
X109497136Y-130268737D01*
X109497136Y-130501551D01*
X109493709Y-130509824D01*
X109488937Y-130512715D01*
X109022124Y-130659114D01*
X109013205Y-130658320D01*
X109007828Y-130652462D01*
X108898021Y-130389653D01*
X108897995Y-130380700D01*
X108898000Y-130380685D01*
X109007828Y-130117824D01*
X109014179Y-130111514D01*
X109022123Y-130111173D01*
X109488937Y-130257573D01*
G37*
%TD.AperFunction*%
%TD*%
%TA.AperFunction,Conductor*%
%TO.N,c_ring*%
G36*
X109488938Y-168257586D02*
G01*
X109495806Y-168263331D01*
X109497136Y-168268749D01*
X109497136Y-168501563D01*
X109493709Y-168509836D01*
X109488937Y-168512727D01*
X109022124Y-168659127D01*
X109013205Y-168658333D01*
X109007828Y-168652475D01*
X108898021Y-168389666D01*
X108897995Y-168380713D01*
X108898000Y-168380698D01*
X109007828Y-168117837D01*
X109014179Y-168111527D01*
X109022123Y-168111186D01*
X109488938Y-168257586D01*
G37*
%TD.AperFunction*%
%TD*%
%TA.AperFunction,Conductor*%
%TO.N,ring_home*%
G36*
X110320649Y-153853293D02*
G01*
X110323612Y-153855408D01*
X111581725Y-155089838D01*
X111585230Y-155098078D01*
X111584501Y-155102258D01*
X111219068Y-156087517D01*
X111212978Y-156094082D01*
X111208098Y-156095148D01*
X110970268Y-156095148D01*
X110963063Y-156092666D01*
X109694459Y-155101040D01*
X109690051Y-155093245D01*
X109691197Y-155086594D01*
X110304952Y-153858527D01*
X110311716Y-153852660D01*
X110320649Y-153853293D01*
G37*
%TD.AperFunction*%
%TD*%
%TA.AperFunction,Conductor*%
%TO.N,ring_home*%
G36*
X121888896Y-146719024D02*
G01*
X123010325Y-147725508D01*
X123014193Y-147733583D01*
X123011217Y-147742029D01*
X123010783Y-147742487D01*
X122844910Y-147908360D01*
X122839781Y-147911357D01*
X121581625Y-148262358D01*
X121572735Y-148261280D01*
X121567673Y-148255570D01*
X121424933Y-147911357D01*
X121209429Y-147391673D01*
X121209426Y-147382718D01*
X121211971Y-147378910D01*
X121872818Y-146719449D01*
X121881094Y-146716032D01*
X121888896Y-146719024D01*
G37*
%TD.AperFunction*%
%TD*%
%TA.AperFunction,Conductor*%
%TO.N,ring_top*%
G36*
X110319437Y-134853751D02*
G01*
X110321267Y-134855581D01*
X111306022Y-136087507D01*
X111308511Y-136096109D01*
X111305688Y-136102517D01*
X110440628Y-137091156D01*
X110432601Y-137095125D01*
X110431823Y-137095151D01*
X110192443Y-137095151D01*
X110184170Y-137091724D01*
X110183638Y-137091156D01*
X109318577Y-136102517D01*
X109315708Y-136094034D01*
X109318241Y-136087509D01*
X110302994Y-134855584D01*
X110310835Y-134851262D01*
X110319437Y-134853751D01*
G37*
%TD.AperFunction*%
%TD*%
%TA.AperFunction,Conductor*%
%TO.N,ring_top*%
G36*
X121888715Y-127720114D02*
G01*
X121888913Y-127720317D01*
X122960888Y-128848051D01*
X122964104Y-128856408D01*
X122960681Y-128864385D01*
X122794511Y-129030556D01*
X122788446Y-129033773D01*
X121221033Y-129334977D01*
X121212262Y-129333173D01*
X121207335Y-129325695D01*
X121207125Y-129323501D01*
X121206432Y-128389297D01*
X121209852Y-128381025D01*
X121872171Y-127720095D01*
X121880445Y-127716678D01*
X121888715Y-127720114D01*
G37*
%TD.AperFunction*%
%TD*%
%TA.AperFunction,Conductor*%
%TO.N,middle_bottom*%
G36*
X140888716Y-155720117D02*
G01*
X140888914Y-155720320D01*
X141960890Y-156848047D01*
X141964106Y-156856404D01*
X141960683Y-156864381D01*
X141794512Y-157030551D01*
X141788447Y-157033768D01*
X140221034Y-157334980D01*
X140212263Y-157333176D01*
X140207336Y-157325698D01*
X140207126Y-157323504D01*
X140206433Y-156389300D01*
X140209853Y-156381028D01*
X140872172Y-155720098D01*
X140880446Y-155716681D01*
X140888716Y-155720117D01*
G37*
%TD.AperFunction*%
%TD*%
%TA.AperFunction,Conductor*%
%TO.N,middle_bottom*%
G36*
X129319446Y-162853758D02*
G01*
X129321280Y-162855592D01*
X130306023Y-164087514D01*
X130308512Y-164096116D01*
X130305689Y-164102524D01*
X129440622Y-165091163D01*
X129432595Y-165095132D01*
X129431817Y-165095158D01*
X129192436Y-165095158D01*
X129184163Y-165091731D01*
X129183632Y-165091163D01*
X128318577Y-164102523D01*
X128315709Y-164094042D01*
X128318244Y-164087515D01*
X128318245Y-164087514D01*
X129303004Y-162855590D01*
X129310844Y-162851269D01*
X129319446Y-162853758D01*
G37*
%TD.AperFunction*%
%TD*%
%TA.AperFunction,Conductor*%
%TO.N,c_middle*%
G36*
X140282469Y-158266070D02*
G01*
X142380770Y-159051936D01*
X142387314Y-159058047D01*
X142388283Y-159064280D01*
X142241230Y-160296029D01*
X142236846Y-160303838D01*
X142231012Y-160306258D01*
X140973412Y-160457799D01*
X140964788Y-160455386D01*
X140960996Y-160450126D01*
X140267353Y-158512063D01*
X140266669Y-158508120D01*
X140266669Y-158277025D01*
X140270096Y-158268755D01*
X140278369Y-158265328D01*
X140282469Y-158266070D01*
G37*
%TD.AperFunction*%
%TD*%
%TA.AperFunction,Conductor*%
%TO.N,c_middle*%
G36*
X128488940Y-120257582D02*
G01*
X128495808Y-120263327D01*
X128497138Y-120268745D01*
X128497138Y-120501559D01*
X128493711Y-120509832D01*
X128488939Y-120512723D01*
X128022126Y-120659123D01*
X128013207Y-120658329D01*
X128007830Y-120652471D01*
X127898023Y-120389662D01*
X127897997Y-120380709D01*
X127898002Y-120380694D01*
X128007830Y-120117833D01*
X128014181Y-120111523D01*
X128022125Y-120111182D01*
X128488940Y-120257582D01*
G37*
%TD.AperFunction*%
%TD*%
%TA.AperFunction,Conductor*%
%TO.N,c_middle*%
G36*
X127724051Y-138911865D02*
G01*
X128002478Y-139100622D01*
X128097572Y-139165091D01*
X128102497Y-139172570D01*
X128100691Y-139181340D01*
X128099300Y-139183029D01*
X127898796Y-139384477D01*
X127894947Y-139387046D01*
X127632454Y-139494828D01*
X127623499Y-139494801D01*
X127617187Y-139488449D01*
X127616669Y-139486877D01*
X127474755Y-138924411D01*
X127476053Y-138915552D01*
X127483237Y-138910206D01*
X127486098Y-138909850D01*
X127717491Y-138909850D01*
X127724051Y-138911865D01*
G37*
%TD.AperFunction*%
%TD*%
%TA.AperFunction,Conductor*%
%TO.N,c_middle*%
G36*
X128239089Y-119878576D02*
G01*
X128403715Y-120043202D01*
X128407142Y-120051475D01*
X128405812Y-120056893D01*
X128179245Y-120490499D01*
X128172376Y-120496245D01*
X128164431Y-120495904D01*
X127900954Y-120387716D01*
X127894602Y-120381404D01*
X127894575Y-120381337D01*
X127786387Y-120117860D01*
X127786414Y-120108905D01*
X127791790Y-120103047D01*
X128225401Y-119876478D01*
X128234317Y-119875685D01*
X128239089Y-119878576D01*
G37*
%TD.AperFunction*%
%TD*%
%TA.AperFunction,Conductor*%
%TO.N,c_middle*%
G36*
X140282472Y-139266067D02*
G01*
X142380759Y-140051931D01*
X142387304Y-140058042D01*
X142388272Y-140064275D01*
X142241217Y-141296023D01*
X142236834Y-141303832D01*
X142231000Y-141306252D01*
X140973399Y-141457790D01*
X140964775Y-141455377D01*
X140960983Y-141450117D01*
X140797359Y-140992939D01*
X140267351Y-139512052D01*
X140266668Y-139508120D01*
X140266668Y-139277023D01*
X140270095Y-139268751D01*
X140278368Y-139265324D01*
X140282472Y-139266067D01*
G37*
%TD.AperFunction*%
%TD*%
%TA.AperFunction,Conductor*%
%TO.N,c_middle*%
G36*
X128488928Y-158257578D02*
G01*
X128495797Y-158263324D01*
X128497127Y-158268742D01*
X128497127Y-158501556D01*
X128493700Y-158509829D01*
X128488928Y-158512720D01*
X128022115Y-158659119D01*
X128013196Y-158658325D01*
X128007819Y-158652467D01*
X127898012Y-158389658D01*
X127897986Y-158380705D01*
X127897991Y-158380690D01*
X128007819Y-158117829D01*
X128014170Y-158111519D01*
X128022114Y-158111178D01*
X128488928Y-158257578D01*
G37*
%TD.AperFunction*%
%TD*%
%TA.AperFunction,Conductor*%
%TO.N,c_middle*%
G36*
X127632480Y-120275482D02*
G01*
X127894954Y-120383257D01*
X127898802Y-120385825D01*
X128099326Y-120587293D01*
X128102733Y-120595574D01*
X128099287Y-120603840D01*
X128097618Y-120605218D01*
X127725112Y-120858854D01*
X127718527Y-120860883D01*
X127487123Y-120860883D01*
X127478850Y-120857456D01*
X127475423Y-120849183D01*
X127475772Y-120846346D01*
X127616691Y-120283464D01*
X127622024Y-120276272D01*
X127630881Y-120274957D01*
X127632480Y-120275482D01*
G37*
%TD.AperFunction*%
%TD*%
%TA.AperFunction,Conductor*%
%TO.N,c_middle*%
G36*
X127725115Y-157911437D02*
G01*
X127743490Y-157923949D01*
X128097608Y-158165083D01*
X128102518Y-158172571D01*
X128100694Y-158181338D01*
X128099316Y-158183007D01*
X127898791Y-158384476D01*
X127894942Y-158387045D01*
X127632474Y-158494817D01*
X127623519Y-158494790D01*
X127617207Y-158488438D01*
X127616680Y-158486835D01*
X127591057Y-158384476D01*
X127475776Y-157923947D01*
X127477091Y-157915091D01*
X127484285Y-157909758D01*
X127487118Y-157909408D01*
X127718530Y-157909408D01*
X127725115Y-157911437D01*
G37*
%TD.AperFunction*%
%TD*%
%TA.AperFunction,Conductor*%
%TO.N,c_middle*%
G36*
X128488934Y-139257579D02*
G01*
X128495802Y-139263324D01*
X128497132Y-139268742D01*
X128497132Y-139501556D01*
X128493705Y-139509829D01*
X128488933Y-139512720D01*
X128022120Y-139659120D01*
X128013201Y-139658326D01*
X128007824Y-139652468D01*
X127898017Y-139389659D01*
X127897991Y-139380706D01*
X127897996Y-139380691D01*
X128007824Y-139117830D01*
X128014175Y-139111520D01*
X128022119Y-139111179D01*
X128488934Y-139257579D01*
G37*
%TD.AperFunction*%
%TD*%
%TA.AperFunction,Conductor*%
%TO.N,c_middle*%
G36*
X127632474Y-139275479D02*
G01*
X127894948Y-139383254D01*
X127898796Y-139385822D01*
X128099320Y-139587291D01*
X128102727Y-139595573D01*
X128099281Y-139603838D01*
X128097612Y-139605216D01*
X127725109Y-139858855D01*
X127718524Y-139860884D01*
X127487121Y-139860884D01*
X127478848Y-139857457D01*
X127475421Y-139849184D01*
X127475771Y-139846343D01*
X127616685Y-139283460D01*
X127622018Y-139276269D01*
X127630875Y-139274954D01*
X127632474Y-139275479D01*
G37*
%TD.AperFunction*%
%TD*%
%TA.AperFunction,Conductor*%
%TO.N,c_middle*%
G36*
X197689202Y-142544407D02*
G01*
X198301898Y-142820945D01*
X198308029Y-142827472D01*
X198307905Y-142836061D01*
X198161701Y-143191347D01*
X198155383Y-143197694D01*
X198155333Y-143197715D01*
X197800047Y-143343919D01*
X197791093Y-143343898D01*
X197784931Y-143337912D01*
X197508388Y-142725228D01*
X197508108Y-142716278D01*
X197510777Y-142712144D01*
X197676122Y-142546798D01*
X197684394Y-142543372D01*
X197689202Y-142544407D01*
G37*
%TD.AperFunction*%
%TD*%
%TA.AperFunction,Conductor*%
%TO.N,c_middle*%
G36*
X140282452Y-120266070D02*
G01*
X142380751Y-121051930D01*
X142387295Y-121058040D01*
X142388264Y-121064273D01*
X142241214Y-122296022D01*
X142236830Y-122303831D01*
X142230996Y-122306251D01*
X140973395Y-122457794D01*
X140964771Y-122455381D01*
X140960980Y-122450122D01*
X140267336Y-120512057D01*
X140266653Y-120508125D01*
X140266653Y-120277027D01*
X140270080Y-120268755D01*
X140278353Y-120265328D01*
X140282452Y-120266070D01*
G37*
%TD.AperFunction*%
%TD*%
%TA.AperFunction,Conductor*%
%TO.N,middle_home*%
G36*
X129319434Y-143853752D02*
G01*
X129321264Y-143855582D01*
X130306022Y-145087508D01*
X130308511Y-145096110D01*
X130305688Y-145102517D01*
X129440631Y-146091156D01*
X129432604Y-146095126D01*
X129431826Y-146095152D01*
X129192445Y-146095152D01*
X129184172Y-146091725D01*
X129183640Y-146091157D01*
X128318577Y-145102518D01*
X128315708Y-145094035D01*
X128318241Y-145087510D01*
X129302991Y-143855585D01*
X129310832Y-143851263D01*
X129319434Y-143853752D01*
G37*
%TD.AperFunction*%
%TD*%
%TA.AperFunction,Conductor*%
%TO.N,middle_home*%
G36*
X140888564Y-136720252D02*
G01*
X140894256Y-136725944D01*
X141960889Y-137848049D01*
X141964105Y-137856406D01*
X141960682Y-137864383D01*
X141794512Y-138030553D01*
X141788447Y-138033770D01*
X140221033Y-138334983D01*
X140212262Y-138333179D01*
X140207335Y-138325701D01*
X140207125Y-138323507D01*
X140206432Y-137389303D01*
X140209852Y-137381031D01*
X140872030Y-136720241D01*
X140880303Y-136716825D01*
X140888564Y-136720252D01*
G37*
%TD.AperFunction*%
%TD*%
%TA.AperFunction,Conductor*%
%TO.N,middle_top*%
G36*
X129319431Y-124853751D02*
G01*
X129321261Y-124855581D01*
X129811984Y-125469470D01*
X130306023Y-126087508D01*
X130308512Y-126096110D01*
X130305689Y-126102517D01*
X129440635Y-127091155D01*
X129432608Y-127095125D01*
X129431830Y-127095151D01*
X129192449Y-127095151D01*
X129184176Y-127091724D01*
X129183644Y-127091156D01*
X128318578Y-126102517D01*
X128315709Y-126094034D01*
X128318244Y-126087508D01*
X129302988Y-124855584D01*
X129310829Y-124851262D01*
X129319431Y-124853751D01*
G37*
%TD.AperFunction*%
%TD*%
%TA.AperFunction,Conductor*%
%TO.N,middle_top*%
G36*
X140888860Y-117718583D02*
G01*
X142027398Y-118683083D01*
X142031495Y-118691045D01*
X142028762Y-118699573D01*
X142028108Y-118700283D01*
X141862371Y-118866021D01*
X141857543Y-118868929D01*
X140581811Y-119262006D01*
X140572896Y-119261167D01*
X140567559Y-119255308D01*
X140209423Y-118391672D01*
X140209420Y-118382717D01*
X140211965Y-118378909D01*
X140873034Y-117719227D01*
X140881309Y-117715810D01*
X140888860Y-117718583D01*
G37*
%TD.AperFunction*%
%TD*%
%TA.AperFunction,Conductor*%
%TO.N,index_bottom*%
G36*
X148319435Y-172853751D02*
G01*
X148321265Y-172855581D01*
X149306022Y-174087507D01*
X149308511Y-174096109D01*
X149305688Y-174102517D01*
X148440629Y-175091156D01*
X148432602Y-175095125D01*
X148431824Y-175095151D01*
X148192444Y-175095151D01*
X148184171Y-175091724D01*
X148183639Y-175091156D01*
X147318577Y-174102517D01*
X147315708Y-174094034D01*
X147318241Y-174087509D01*
X148302992Y-172855584D01*
X148310833Y-172851262D01*
X148319435Y-172853751D01*
G37*
%TD.AperFunction*%
%TD*%
%TA.AperFunction,Conductor*%
%TO.N,index_bottom*%
G36*
X159888894Y-165719022D02*
G01*
X160126591Y-165932353D01*
X161010324Y-166725497D01*
X161014192Y-166733573D01*
X161011216Y-166742019D01*
X161010782Y-166742477D01*
X160844910Y-166908349D01*
X160839781Y-166911346D01*
X159581623Y-167262356D01*
X159572733Y-167261278D01*
X159567671Y-167255568D01*
X159209427Y-166391671D01*
X159209424Y-166382716D01*
X159211969Y-166378908D01*
X159872816Y-165719447D01*
X159881092Y-165716030D01*
X159888894Y-165719022D01*
G37*
%TD.AperFunction*%
%TD*%
%TA.AperFunction,Conductor*%
%TO.N,c_index*%
G36*
X159282455Y-149266076D02*
G01*
X161380754Y-150051932D01*
X161387299Y-150058043D01*
X161388268Y-150064276D01*
X161241219Y-151296024D01*
X161236835Y-151303833D01*
X161231001Y-151306253D01*
X159973400Y-151457798D01*
X159964776Y-151455386D01*
X159960985Y-151450126D01*
X159267338Y-149512069D01*
X159266654Y-149508126D01*
X159266654Y-149277031D01*
X159270081Y-149268761D01*
X159278354Y-149265334D01*
X159282455Y-149266076D01*
G37*
%TD.AperFunction*%
%TD*%
%TA.AperFunction,Conductor*%
%TO.N,c_index*%
G36*
X159282452Y-130266073D02*
G01*
X161380756Y-131051931D01*
X161387301Y-131058042D01*
X161388270Y-131064275D01*
X161241222Y-132296023D01*
X161236838Y-132303832D01*
X161231004Y-132306252D01*
X159973403Y-132457799D01*
X159964779Y-132455387D01*
X159960988Y-132450127D01*
X159267335Y-130512066D01*
X159266651Y-130508123D01*
X159266651Y-130277028D01*
X159270078Y-130268758D01*
X159278351Y-130265331D01*
X159282452Y-130266073D01*
G37*
%TD.AperFunction*%
%TD*%
%TA.AperFunction,Conductor*%
%TO.N,c_index*%
G36*
X146632479Y-130275480D02*
G01*
X146894953Y-130383255D01*
X146898801Y-130385823D01*
X147099325Y-130587291D01*
X147102732Y-130595572D01*
X147099286Y-130603838D01*
X147097617Y-130605216D01*
X146725110Y-130858855D01*
X146718525Y-130860884D01*
X146487122Y-130860884D01*
X146478849Y-130857457D01*
X146475422Y-130849184D01*
X146475771Y-130846347D01*
X146616690Y-130283462D01*
X146622023Y-130276270D01*
X146630880Y-130274955D01*
X146632479Y-130275480D01*
G37*
%TD.AperFunction*%
%TD*%
%TA.AperFunction,Conductor*%
%TO.N,c_index*%
G36*
X147488936Y-149257585D02*
G01*
X147495805Y-149263331D01*
X147497135Y-149268749D01*
X147497135Y-149501563D01*
X147493708Y-149509836D01*
X147488936Y-149512727D01*
X147022123Y-149659126D01*
X147013204Y-149658332D01*
X147007827Y-149652474D01*
X146898020Y-149389665D01*
X146897994Y-149380712D01*
X146897999Y-149380697D01*
X147007827Y-149117836D01*
X147014178Y-149111526D01*
X147022122Y-149111185D01*
X147488936Y-149257585D01*
G37*
%TD.AperFunction*%
%TD*%
%TA.AperFunction,Conductor*%
%TO.N,c_index*%
G36*
X197689208Y-145084406D02*
G01*
X198301898Y-145360945D01*
X198308029Y-145367472D01*
X198307905Y-145376061D01*
X198161701Y-145731347D01*
X198155383Y-145737694D01*
X198155333Y-145737715D01*
X197800047Y-145883919D01*
X197791093Y-145883898D01*
X197784931Y-145877912D01*
X197508389Y-145265225D01*
X197508109Y-145256275D01*
X197510778Y-145252141D01*
X197676123Y-145086796D01*
X197684395Y-145083370D01*
X197689208Y-145084406D01*
G37*
%TD.AperFunction*%
%TD*%
%TA.AperFunction,Conductor*%
%TO.N,c_index*%
G36*
X146632477Y-149275485D02*
G01*
X146894951Y-149383260D01*
X146898799Y-149385828D01*
X147099323Y-149587297D01*
X147102730Y-149595579D01*
X147099284Y-149603844D01*
X147097615Y-149605222D01*
X146725113Y-149858859D01*
X146718528Y-149860888D01*
X146487125Y-149860888D01*
X146478852Y-149857461D01*
X146475425Y-149849188D01*
X146475775Y-149846347D01*
X146536484Y-149603844D01*
X146616688Y-149283466D01*
X146622021Y-149276275D01*
X146630878Y-149274960D01*
X146632477Y-149275485D01*
G37*
%TD.AperFunction*%
%TD*%
%TA.AperFunction,Conductor*%
%TO.N,c_index*%
G36*
X147239088Y-129878574D02*
G01*
X147403714Y-130043200D01*
X147407141Y-130051473D01*
X147405811Y-130056891D01*
X147179244Y-130490497D01*
X147172375Y-130496243D01*
X147164430Y-130495902D01*
X146900953Y-130387714D01*
X146894601Y-130381402D01*
X146894574Y-130381335D01*
X146786386Y-130117858D01*
X146786413Y-130108903D01*
X146791789Y-130103045D01*
X147225400Y-129876476D01*
X147234316Y-129875683D01*
X147239088Y-129878574D01*
G37*
%TD.AperFunction*%
%TD*%
%TA.AperFunction,Conductor*%
%TO.N,c_index*%
G36*
X146725106Y-167911453D02*
G01*
X147077090Y-168151104D01*
X147097619Y-168165082D01*
X147102529Y-168172571D01*
X147100705Y-168181338D01*
X147099327Y-168183007D01*
X146898803Y-168384475D01*
X146894954Y-168387044D01*
X146632485Y-168494816D01*
X146623530Y-168494789D01*
X146617218Y-168488437D01*
X146616694Y-168486844D01*
X146475770Y-167923965D01*
X146477085Y-167915109D01*
X146484278Y-167909775D01*
X146487119Y-167909425D01*
X146718527Y-167909425D01*
X146725106Y-167911453D01*
G37*
%TD.AperFunction*%
%TD*%
%TA.AperFunction,Conductor*%
%TO.N,c_index*%
G36*
X147488940Y-168257577D02*
G01*
X147495809Y-168263323D01*
X147497139Y-168268741D01*
X147497139Y-168501555D01*
X147493712Y-168509828D01*
X147488940Y-168512719D01*
X147022127Y-168659118D01*
X147013208Y-168658324D01*
X147007831Y-168652466D01*
X146898024Y-168389657D01*
X146897998Y-168380704D01*
X146898003Y-168380689D01*
X147007831Y-168117828D01*
X147014182Y-168111518D01*
X147022126Y-168111177D01*
X147488940Y-168257577D01*
G37*
%TD.AperFunction*%
%TD*%
%TA.AperFunction,Conductor*%
%TO.N,c_index*%
G36*
X147488938Y-130257580D02*
G01*
X147495807Y-130263326D01*
X147497137Y-130268744D01*
X147497137Y-130501558D01*
X147493710Y-130509831D01*
X147488938Y-130512722D01*
X147022125Y-130659121D01*
X147013206Y-130658327D01*
X147007829Y-130652469D01*
X146898022Y-130389660D01*
X146897996Y-130380707D01*
X146898001Y-130380692D01*
X147007829Y-130117831D01*
X147014180Y-130111521D01*
X147022124Y-130111180D01*
X147488938Y-130257580D01*
G37*
%TD.AperFunction*%
%TD*%
%TA.AperFunction,Conductor*%
%TO.N,c_index*%
G36*
X146725120Y-148911444D02*
G01*
X146743495Y-148923956D01*
X147097616Y-149165090D01*
X147102526Y-149172578D01*
X147100702Y-149181345D01*
X147099324Y-149183014D01*
X146898799Y-149384483D01*
X146894950Y-149387052D01*
X146632482Y-149494824D01*
X146623527Y-149494797D01*
X146617215Y-149488445D01*
X146616688Y-149486842D01*
X146475782Y-148923956D01*
X146477097Y-148915098D01*
X146484291Y-148909765D01*
X146487124Y-148909415D01*
X146718535Y-148909415D01*
X146725120Y-148911444D01*
G37*
%TD.AperFunction*%
%TD*%
%TA.AperFunction,Conductor*%
%TO.N,c_index*%
G36*
X159282453Y-168266075D02*
G01*
X161380752Y-169051930D01*
X161387297Y-169058041D01*
X161388266Y-169064274D01*
X161241218Y-170296022D01*
X161236834Y-170303831D01*
X161231000Y-170306251D01*
X159973399Y-170457797D01*
X159964775Y-170455385D01*
X159960984Y-170450125D01*
X159267336Y-168512068D01*
X159266652Y-168508125D01*
X159266652Y-168277030D01*
X159270079Y-168268760D01*
X159278352Y-168265333D01*
X159282453Y-168266075D01*
G37*
%TD.AperFunction*%
%TD*%
%TA.AperFunction,Conductor*%
%TO.N,index_home*%
G36*
X148319436Y-153853753D02*
G01*
X148321266Y-153855583D01*
X149306021Y-155087509D01*
X149308510Y-155096111D01*
X149305687Y-155102519D01*
X148440626Y-156091158D01*
X148432599Y-156095127D01*
X148431821Y-156095153D01*
X148192441Y-156095153D01*
X148184168Y-156091726D01*
X148183636Y-156091158D01*
X147318576Y-155102519D01*
X147315707Y-155094036D01*
X147318240Y-155087511D01*
X148302993Y-153855586D01*
X148310834Y-153851264D01*
X148319436Y-153853753D01*
G37*
%TD.AperFunction*%
%TD*%
%TA.AperFunction,Conductor*%
%TO.N,index_home*%
G36*
X159888709Y-146720119D02*
G01*
X159888907Y-146720322D01*
X160960886Y-147848046D01*
X160964102Y-147856403D01*
X160960679Y-147864380D01*
X160794508Y-148030551D01*
X160788443Y-148033768D01*
X159221027Y-148334982D01*
X159212256Y-148333178D01*
X159207329Y-148325700D01*
X159207119Y-148323506D01*
X159206426Y-147389302D01*
X159209846Y-147381030D01*
X159872165Y-146720100D01*
X159880439Y-146716683D01*
X159888709Y-146720119D01*
G37*
%TD.AperFunction*%
%TD*%
%TA.AperFunction,Conductor*%
%TO.N,index_top*%
G36*
X159888899Y-127719928D02*
G01*
X159888915Y-127719944D01*
X160975165Y-128812682D01*
X160978567Y-128820965D01*
X160975140Y-128829203D01*
X160809045Y-128995297D01*
X160803248Y-128998459D01*
X159581181Y-129263078D01*
X159572370Y-129261480D01*
X159567898Y-129256126D01*
X159209424Y-128391675D01*
X159209421Y-128382720D01*
X159211966Y-128378912D01*
X159872355Y-127719908D01*
X159880629Y-127716492D01*
X159888899Y-127719928D01*
G37*
%TD.AperFunction*%
%TD*%
%TA.AperFunction,Conductor*%
%TO.N,index_top*%
G36*
X148319439Y-134853752D02*
G01*
X148321269Y-134855582D01*
X149306026Y-136087508D01*
X149308515Y-136096110D01*
X149305692Y-136102517D01*
X148440635Y-137091156D01*
X148432608Y-137095126D01*
X148431830Y-137095152D01*
X148192449Y-137095152D01*
X148184176Y-137091725D01*
X148183644Y-137091157D01*
X147318581Y-136102518D01*
X147315712Y-136094035D01*
X147318245Y-136087510D01*
X148302996Y-134855585D01*
X148310837Y-134851263D01*
X148319439Y-134853752D01*
G37*
%TD.AperFunction*%
%TD*%
%TA.AperFunction,Conductor*%
%TO.N,inner_bottom*%
G36*
X167319436Y-174853747D02*
G01*
X167321266Y-174855577D01*
X167813173Y-175470948D01*
X168306027Y-176087504D01*
X168308516Y-176096106D01*
X168305693Y-176102513D01*
X167440639Y-177091151D01*
X167432612Y-177095121D01*
X167431834Y-177095147D01*
X167192453Y-177095147D01*
X167184180Y-177091720D01*
X167183648Y-177091152D01*
X166318582Y-176102513D01*
X166315713Y-176094030D01*
X166318248Y-176087504D01*
X167302993Y-174855580D01*
X167310834Y-174851258D01*
X167319436Y-174853747D01*
G37*
%TD.AperFunction*%
%TD*%
%TA.AperFunction,Conductor*%
%TO.N,inner_bottom*%
G36*
X178888567Y-167720252D02*
G01*
X178894208Y-167725893D01*
X179960888Y-168848043D01*
X179964104Y-168856400D01*
X179960681Y-168864377D01*
X179794510Y-169030548D01*
X179788445Y-169033765D01*
X178221034Y-169334984D01*
X178212263Y-169333180D01*
X178207336Y-169325702D01*
X178207126Y-169323508D01*
X178206433Y-168389304D01*
X178209853Y-168381032D01*
X178872031Y-167720242D01*
X178880306Y-167716825D01*
X178888567Y-167720252D01*
G37*
%TD.AperFunction*%
%TD*%
%TA.AperFunction,Conductor*%
%TO.N,c_inner*%
G36*
X178282465Y-132266069D02*
G01*
X180380765Y-133051932D01*
X180387309Y-133058043D01*
X180388278Y-133064276D01*
X180241227Y-134296025D01*
X180236843Y-134303834D01*
X180231009Y-134306254D01*
X178973408Y-134457796D01*
X178964784Y-134455383D01*
X178960993Y-134450124D01*
X178267349Y-132512062D01*
X178266665Y-132508119D01*
X178266665Y-132277024D01*
X178270092Y-132268754D01*
X178278365Y-132265327D01*
X178282465Y-132266069D01*
G37*
%TD.AperFunction*%
%TD*%
%TA.AperFunction,Conductor*%
%TO.N,c_inner*%
G36*
X197689201Y-147624408D02*
G01*
X198301898Y-147900945D01*
X198308029Y-147907472D01*
X198307905Y-147916061D01*
X198161701Y-148271347D01*
X198155383Y-148277694D01*
X198155333Y-148277715D01*
X197800047Y-148423919D01*
X197791093Y-148423898D01*
X197784931Y-148417912D01*
X197508387Y-147805229D01*
X197508107Y-147796279D01*
X197510776Y-147792145D01*
X197676121Y-147626799D01*
X197684393Y-147623373D01*
X197689201Y-147624408D01*
G37*
%TD.AperFunction*%
%TD*%
%TA.AperFunction,Conductor*%
%TO.N,c_inner*%
G36*
X166239085Y-131878574D02*
G01*
X166403711Y-132043200D01*
X166407138Y-132051473D01*
X166405808Y-132056891D01*
X166179241Y-132490497D01*
X166172372Y-132496243D01*
X166164427Y-132495902D01*
X165900950Y-132387714D01*
X165894598Y-132381402D01*
X165894571Y-132381335D01*
X165786383Y-132117858D01*
X165786410Y-132108903D01*
X165791786Y-132103045D01*
X166225397Y-131876476D01*
X166234313Y-131875683D01*
X166239085Y-131878574D01*
G37*
%TD.AperFunction*%
%TD*%
%TA.AperFunction,Conductor*%
%TO.N,c_inner*%
G36*
X166488935Y-132257580D02*
G01*
X166495804Y-132263326D01*
X166497134Y-132268744D01*
X166497134Y-132501558D01*
X166493707Y-132509831D01*
X166488935Y-132512722D01*
X166022122Y-132659121D01*
X166013203Y-132658327D01*
X166007826Y-132652469D01*
X165898019Y-132389660D01*
X165897993Y-132380706D01*
X166007826Y-132117831D01*
X166014177Y-132111521D01*
X166022121Y-132111180D01*
X166488935Y-132257580D01*
G37*
%TD.AperFunction*%
%TD*%
%TA.AperFunction,Conductor*%
%TO.N,c_inner*%
G36*
X165632473Y-151275479D02*
G01*
X165894947Y-151383254D01*
X165898795Y-151385822D01*
X166099319Y-151587291D01*
X166102726Y-151595573D01*
X166099280Y-151603838D01*
X166097611Y-151605216D01*
X165725115Y-151858859D01*
X165718530Y-151860888D01*
X165487127Y-151860888D01*
X165478854Y-151857461D01*
X165475427Y-151849188D01*
X165475777Y-151846347D01*
X165616684Y-151283460D01*
X165622017Y-151276269D01*
X165630874Y-151274954D01*
X165632473Y-151275479D01*
G37*
%TD.AperFunction*%
%TD*%
%TA.AperFunction,Conductor*%
%TO.N,c_inner*%
G36*
X165724052Y-150911865D02*
G01*
X165988665Y-151091258D01*
X166097571Y-151165091D01*
X166102496Y-151172570D01*
X166100690Y-151181340D01*
X166099299Y-151183029D01*
X165898795Y-151384477D01*
X165894946Y-151387046D01*
X165632453Y-151494828D01*
X165623498Y-151494801D01*
X165617186Y-151488449D01*
X165616668Y-151486877D01*
X165474756Y-150924411D01*
X165476054Y-150915552D01*
X165483238Y-150910206D01*
X165486099Y-150909850D01*
X165717492Y-150909850D01*
X165724052Y-150911865D01*
G37*
%TD.AperFunction*%
%TD*%
%TA.AperFunction,Conductor*%
%TO.N,c_inner*%
G36*
X178282455Y-151266071D02*
G01*
X180380757Y-152051928D01*
X180387302Y-152058039D01*
X180388271Y-152064272D01*
X180241222Y-153296020D01*
X180236838Y-153303829D01*
X180231004Y-153306249D01*
X178973403Y-153457795D01*
X178964779Y-153455383D01*
X178960988Y-153450123D01*
X178267338Y-151512064D01*
X178266654Y-151508121D01*
X178266654Y-151277026D01*
X178270081Y-151268756D01*
X178278354Y-151265329D01*
X178282455Y-151266071D01*
G37*
%TD.AperFunction*%
%TD*%
%TA.AperFunction,Conductor*%
%TO.N,c_inner*%
G36*
X178282457Y-170266066D02*
G01*
X180380755Y-171051926D01*
X180387299Y-171058036D01*
X180388268Y-171064269D01*
X180241219Y-172296018D01*
X180236835Y-172303827D01*
X180231001Y-172306247D01*
X178973400Y-172457790D01*
X178964776Y-172455377D01*
X178960985Y-172450118D01*
X178267340Y-170512059D01*
X178266656Y-170508116D01*
X178266656Y-170277021D01*
X178270083Y-170268751D01*
X178278356Y-170265324D01*
X178282457Y-170266066D01*
G37*
%TD.AperFunction*%
%TD*%
%TA.AperFunction,Conductor*%
%TO.N,c_inner*%
G36*
X166488932Y-151257579D02*
G01*
X166495801Y-151263325D01*
X166497131Y-151268743D01*
X166497131Y-151501557D01*
X166493704Y-151509830D01*
X166488932Y-151512721D01*
X166022119Y-151659120D01*
X166013200Y-151658326D01*
X166007823Y-151652468D01*
X165898016Y-151389659D01*
X165897990Y-151380706D01*
X165897995Y-151380691D01*
X166007823Y-151117830D01*
X166014174Y-151111520D01*
X166022118Y-151111179D01*
X166488932Y-151257579D01*
G37*
%TD.AperFunction*%
%TD*%
%TA.AperFunction,Conductor*%
%TO.N,c_inner*%
G36*
X166488935Y-170257574D02*
G01*
X166495804Y-170263320D01*
X166497134Y-170268738D01*
X166497134Y-170501552D01*
X166493707Y-170509825D01*
X166488935Y-170512716D01*
X166022122Y-170659115D01*
X166013203Y-170658321D01*
X166007826Y-170652463D01*
X165898019Y-170389654D01*
X165897993Y-170380701D01*
X165897998Y-170380686D01*
X166007826Y-170117825D01*
X166014177Y-170111515D01*
X166022121Y-170111174D01*
X166488935Y-170257574D01*
G37*
%TD.AperFunction*%
%TD*%
%TA.AperFunction,Conductor*%
%TO.N,c_inner*%
G36*
X165632476Y-132275480D02*
G01*
X165894950Y-132383255D01*
X165898798Y-132385823D01*
X166099322Y-132587291D01*
X166102729Y-132595572D01*
X166099283Y-132603838D01*
X166097614Y-132605216D01*
X165725109Y-132858854D01*
X165718524Y-132860883D01*
X165487121Y-132860883D01*
X165478848Y-132857456D01*
X165475421Y-132849183D01*
X165475770Y-132846346D01*
X165616687Y-132283462D01*
X165622020Y-132276270D01*
X165630877Y-132274955D01*
X165632476Y-132275480D01*
G37*
%TD.AperFunction*%
%TD*%
%TA.AperFunction,Conductor*%
%TO.N,c_inner*%
G36*
X165725117Y-169911440D02*
G01*
X166097614Y-170165078D01*
X166102524Y-170172567D01*
X166100700Y-170181334D01*
X166099322Y-170183003D01*
X165898798Y-170384472D01*
X165894949Y-170387041D01*
X165632480Y-170494813D01*
X165623525Y-170494786D01*
X165617213Y-170488434D01*
X165616689Y-170486841D01*
X165475778Y-169923952D01*
X165477094Y-169915095D01*
X165484288Y-169909761D01*
X165487121Y-169909411D01*
X165718532Y-169909411D01*
X165725117Y-169911440D01*
G37*
%TD.AperFunction*%
%TD*%
%TA.AperFunction,Conductor*%
%TO.N,inner_home*%
G36*
X178888895Y-148719032D02*
G01*
X179624149Y-149378917D01*
X180010324Y-149725506D01*
X180014192Y-149733582D01*
X180011216Y-149742028D01*
X180010782Y-149742486D01*
X179844910Y-149908358D01*
X179839781Y-149911355D01*
X178581624Y-150262366D01*
X178572734Y-150261288D01*
X178567672Y-150255578D01*
X178209428Y-149391681D01*
X178209425Y-149382726D01*
X178211970Y-149378918D01*
X178872817Y-148719457D01*
X178881093Y-148716040D01*
X178888895Y-148719032D01*
G37*
%TD.AperFunction*%
%TD*%
%TA.AperFunction,Conductor*%
%TO.N,inner_home*%
G36*
X167319439Y-155853749D02*
G01*
X167321269Y-155855579D01*
X168306024Y-157087505D01*
X168308513Y-157096107D01*
X168305690Y-157102515D01*
X167440629Y-158091154D01*
X167432602Y-158095123D01*
X167431824Y-158095149D01*
X167192444Y-158095149D01*
X167184171Y-158091722D01*
X167183639Y-158091154D01*
X166318579Y-157102515D01*
X166315710Y-157094032D01*
X166318243Y-157087507D01*
X167302996Y-155855582D01*
X167310837Y-155851260D01*
X167319439Y-155853749D01*
G37*
%TD.AperFunction*%
%TD*%
%TA.AperFunction,Conductor*%
%TO.N,inner_top*%
G36*
X178888896Y-129719029D02*
G01*
X179125301Y-129931201D01*
X180010323Y-130725501D01*
X180014191Y-130733577D01*
X180011215Y-130742023D01*
X180010781Y-130742481D01*
X179844909Y-130908352D01*
X179839780Y-130911349D01*
X178581625Y-131262363D01*
X178572735Y-131261285D01*
X178567673Y-131255575D01*
X178424586Y-130910525D01*
X178209429Y-130391678D01*
X178209426Y-130382723D01*
X178211971Y-130378915D01*
X178872818Y-129719454D01*
X178881094Y-129716037D01*
X178888896Y-129719029D01*
G37*
%TD.AperFunction*%
%TD*%
%TA.AperFunction,Conductor*%
%TO.N,inner_top*%
G36*
X167319443Y-136853754D02*
G01*
X167321277Y-136855588D01*
X168306027Y-138087510D01*
X168308516Y-138096112D01*
X168305693Y-138102520D01*
X167440631Y-139091159D01*
X167432604Y-139095128D01*
X167431826Y-139095154D01*
X167192445Y-139095154D01*
X167184172Y-139091727D01*
X167183640Y-139091158D01*
X166318582Y-138102519D01*
X166315713Y-138094037D01*
X166318246Y-138087512D01*
X167303002Y-136855586D01*
X167310841Y-136851265D01*
X167319443Y-136853754D01*
G37*
%TD.AperFunction*%
%TD*%
%TA.AperFunction,Conductor*%
%TO.N,tuckie_home*%
G36*
X170892849Y-187519264D02*
G01*
X170893747Y-187520275D01*
X171918338Y-188816967D01*
X171920778Y-188825583D01*
X171916412Y-188833401D01*
X171915869Y-188833805D01*
X171723692Y-188968370D01*
X171718259Y-188970416D01*
X170225053Y-189134560D01*
X170216455Y-189132058D01*
X170212145Y-189124208D01*
X170212075Y-189122937D01*
X170211891Y-188816967D01*
X170211512Y-188187522D01*
X170214934Y-188179250D01*
X170214933Y-188179250D01*
X170876303Y-187519246D01*
X170884579Y-187515829D01*
X170892849Y-187519264D01*
G37*
%TD.AperFunction*%
%TD*%
%TA.AperFunction,Conductor*%
%TO.N,tuckie_home*%
G36*
X158366534Y-192663179D02*
G01*
X158368022Y-192665304D01*
X159123893Y-194049510D01*
X159124850Y-194058413D01*
X159120958Y-194064233D01*
X158097369Y-194887638D01*
X158088774Y-194890154D01*
X158088003Y-194890044D01*
X157852257Y-194848475D01*
X157844705Y-194843664D01*
X157844280Y-194843011D01*
X157164035Y-193719173D01*
X157162683Y-193710323D01*
X157166311Y-193704337D01*
X158350022Y-192662129D01*
X158358495Y-192659235D01*
X158366534Y-192663179D01*
G37*
%TD.AperFunction*%
%TD*%
%TA.AperFunction,Conductor*%
%TO.N,c_thumb*%
G36*
X180370520Y-192898941D02*
G01*
X180439342Y-192951415D01*
X180747842Y-193186637D01*
X180752343Y-193194377D01*
X180751742Y-193199942D01*
X180672110Y-193418728D01*
X180666061Y-193425330D01*
X180660623Y-193426416D01*
X180161451Y-193405361D01*
X180153330Y-193401588D01*
X180150244Y-193393708D01*
X180149613Y-193191855D01*
X180149355Y-193109435D01*
X180152755Y-193101152D01*
X180355178Y-192899946D01*
X180363461Y-192896545D01*
X180370520Y-192898941D01*
G37*
%TD.AperFunction*%
%TD*%
%TA.AperFunction,Conductor*%
%TO.N,c_thumb*%
G36*
X169959657Y-190048904D02*
G01*
X171889607Y-191187191D01*
X171894992Y-191194346D01*
X171894863Y-191200652D01*
X171536153Y-192388151D01*
X171530480Y-192395080D01*
X171524314Y-192396451D01*
X170259503Y-192327308D01*
X170251430Y-192323434D01*
X170248609Y-192317595D01*
X170242970Y-192284579D01*
X169902051Y-190288527D01*
X169902061Y-190284534D01*
X169942191Y-190056948D01*
X169947002Y-190049398D01*
X169955745Y-190047460D01*
X169959657Y-190048904D01*
G37*
%TD.AperFunction*%
%TD*%
%TA.AperFunction,Conductor*%
%TO.N,c_thumb*%
G36*
X201700596Y-201948294D02*
G01*
X201700946Y-201948662D01*
X202052495Y-202334617D01*
X202055532Y-202343041D01*
X202053977Y-202348346D01*
X201937563Y-202549981D01*
X201930459Y-202555432D01*
X201924847Y-202555542D01*
X201379272Y-202431980D01*
X201371960Y-202426810D01*
X201370445Y-202417985D01*
X201371029Y-202416133D01*
X201478821Y-202153450D01*
X201481396Y-202149596D01*
X201684051Y-201948239D01*
X201692334Y-201944841D01*
X201700596Y-201948294D01*
G37*
%TD.AperFunction*%
%TD*%
%TA.AperFunction,Conductor*%
%TO.N,c_thumb*%
G36*
X201822536Y-201645184D02*
G01*
X201987162Y-201809810D01*
X201990589Y-201818083D01*
X201989259Y-201823501D01*
X201762692Y-202257107D01*
X201755823Y-202262853D01*
X201747878Y-202262512D01*
X201484401Y-202154324D01*
X201478049Y-202148012D01*
X201478022Y-202147945D01*
X201369834Y-201884468D01*
X201369861Y-201875513D01*
X201375237Y-201869655D01*
X201808848Y-201643086D01*
X201817764Y-201642293D01*
X201822536Y-201645184D01*
G37*
%TD.AperFunction*%
%TD*%
%TA.AperFunction,Conductor*%
%TO.N,c_thumb*%
G36*
X205251356Y-182499041D02*
G01*
X205254668Y-182501364D01*
X205420920Y-182667615D01*
X205424347Y-182675888D01*
X205423648Y-182679873D01*
X204974206Y-183920665D01*
X204968166Y-183927276D01*
X204959220Y-183927681D01*
X204958741Y-183927495D01*
X204958210Y-183927276D01*
X204774029Y-183851251D01*
X204280921Y-183647709D01*
X204274581Y-183641385D01*
X204274570Y-183641358D01*
X203994784Y-182963536D01*
X203994795Y-182954583D01*
X204001135Y-182948259D01*
X204001588Y-182948083D01*
X205242410Y-182498636D01*
X205251356Y-182499041D01*
G37*
%TD.AperFunction*%
%TD*%
%TA.AperFunction,Conductor*%
%TO.N,c_thumb*%
G36*
X204958753Y-183927467D02*
G01*
X204965077Y-183933807D01*
X204965066Y-183942762D01*
X204964858Y-183943232D01*
X204405292Y-185138406D01*
X204398681Y-185144446D01*
X204394696Y-185145145D01*
X204159578Y-185145145D01*
X204151305Y-185141718D01*
X204148984Y-185138409D01*
X203589407Y-183943232D01*
X203589002Y-183934286D01*
X203595042Y-183927675D01*
X203595487Y-183927477D01*
X204272643Y-183646013D01*
X204281596Y-183646003D01*
X204958753Y-183927467D01*
G37*
%TD.AperFunction*%
%TD*%
%TA.AperFunction,Conductor*%
%TO.N,c_thumb*%
G36*
X191829408Y-197229021D02*
G01*
X193532379Y-198685151D01*
X193536439Y-198693132D01*
X193535218Y-198699320D01*
X192975752Y-199806492D01*
X192968962Y-199812330D01*
X192962651Y-199812609D01*
X191729062Y-199524886D01*
X191721784Y-199519670D01*
X191720020Y-199513429D01*
X191731066Y-197455005D01*
X191731772Y-197451066D01*
X191810810Y-197233911D01*
X191816859Y-197227309D01*
X191825806Y-197226919D01*
X191829408Y-197229021D01*
G37*
%TD.AperFunction*%
%TD*%
%TA.AperFunction,Conductor*%
%TO.N,c_thumb*%
G36*
X198642152Y-134926796D02*
G01*
X198807494Y-135092137D01*
X198810921Y-135100410D01*
X198809885Y-135105223D01*
X198533344Y-135717912D01*
X198526817Y-135724043D01*
X198518228Y-135723919D01*
X198162942Y-135577715D01*
X198156595Y-135571397D01*
X198156574Y-135571347D01*
X198010370Y-135216061D01*
X198010391Y-135207107D01*
X198016375Y-135200946D01*
X198629066Y-134924404D01*
X198638016Y-134924125D01*
X198642152Y-134926796D01*
G37*
%TD.AperFunction*%
%TD*%
%TA.AperFunction,Conductor*%
%TO.N,c_thumb*%
G36*
X157867000Y-187743802D02*
G01*
X157867908Y-187744228D01*
X158341199Y-187991620D01*
X158346943Y-187998490D01*
X158347301Y-188004021D01*
X158306867Y-188233332D01*
X158302056Y-188240884D01*
X158296862Y-188242901D01*
X157754979Y-188313764D01*
X157746331Y-188311439D01*
X157741861Y-188303680D01*
X157741762Y-188302201D01*
X157741561Y-188240884D01*
X157740829Y-188017676D01*
X157741733Y-188013134D01*
X157851695Y-187750082D01*
X157858046Y-187743773D01*
X157867000Y-187743802D01*
G37*
%TD.AperFunction*%
%TD*%
%TA.AperFunction,Conductor*%
%TO.N,c_thumb*%
G36*
X212262957Y-208238602D02*
G01*
X212266136Y-208241296D01*
X213690388Y-209971023D01*
X213693002Y-209979588D01*
X213690724Y-209985470D01*
X212947501Y-210978671D01*
X212939800Y-210983242D01*
X212933537Y-210982421D01*
X211768649Y-210484861D01*
X211762387Y-210478459D01*
X211761734Y-210472010D01*
X212130049Y-208446775D01*
X212131427Y-208443020D01*
X212246975Y-208242884D01*
X212254079Y-208237434D01*
X212262957Y-208238602D01*
G37*
%TD.AperFunction*%
%TD*%
%TA.AperFunction,Conductor*%
%TO.N,central_home*%
G36*
X193280191Y-195075686D02*
G01*
X193286462Y-195081896D01*
X193880474Y-196472889D01*
X193880572Y-196481843D01*
X193874659Y-196488088D01*
X193661594Y-196587442D01*
X193654804Y-196588392D01*
X192411777Y-196389843D01*
X192404147Y-196385154D01*
X192401922Y-196378295D01*
X192401508Y-195442692D01*
X192404931Y-195434420D01*
X192408741Y-195431875D01*
X193271236Y-195075677D01*
X193280191Y-195075686D01*
G37*
%TD.AperFunction*%
%TD*%
%TA.AperFunction,Conductor*%
%TO.N,central_home*%
G36*
X179958453Y-197790461D02*
G01*
X179959548Y-197792811D01*
X180463567Y-199287242D01*
X180462964Y-199296176D01*
X180458120Y-199301232D01*
X179307094Y-199934382D01*
X179298194Y-199935367D01*
X179297459Y-199935127D01*
X179226421Y-199909271D01*
X179072508Y-199853250D01*
X179065906Y-199847201D01*
X179065601Y-199846484D01*
X178852306Y-199296176D01*
X178590846Y-198621599D01*
X178591051Y-198612649D01*
X178595664Y-198607384D01*
X179942374Y-197786558D01*
X179951221Y-197785180D01*
X179958453Y-197790461D01*
G37*
%TD.AperFunction*%
%TD*%
%TA.AperFunction,Conductor*%
%TO.N,stretchie_home*%
G36*
X200471838Y-206726381D02*
G01*
X200478043Y-206732837D01*
X200478714Y-206735342D01*
X200715571Y-208294593D01*
X200713426Y-208303287D01*
X200707777Y-208307425D01*
X199464295Y-208731081D01*
X199455359Y-208730505D01*
X199454672Y-208730139D01*
X199247361Y-208610449D01*
X199241910Y-208603344D01*
X199241733Y-208602586D01*
X198986888Y-207313869D01*
X198988645Y-207305088D01*
X198994101Y-207300705D01*
X200462886Y-206726203D01*
X200471838Y-206726381D01*
G37*
%TD.AperFunction*%
%TD*%
%TA.AperFunction,Conductor*%
%TO.N,stretchie_home*%
G36*
X214018661Y-206215024D02*
G01*
X214024986Y-206221363D01*
X214025288Y-206222180D01*
X214528554Y-207755304D01*
X214527879Y-207764233D01*
X214521087Y-207770069D01*
X214520466Y-207770254D01*
X214293851Y-207830975D01*
X214287996Y-207831027D01*
X212790026Y-207457984D01*
X212782827Y-207452661D01*
X212781501Y-207443805D01*
X212782039Y-207442167D01*
X213139248Y-206578232D01*
X213145574Y-206571898D01*
X214009707Y-206215015D01*
X214018661Y-206215024D01*
G37*
%TD.AperFunction*%
%TD*%
%TA.AperFunction,Conductor*%
%TO.N,VCC*%
G36*
X196648407Y-157996904D02*
G01*
X196688470Y-158018289D01*
X196694154Y-158025206D01*
X196694660Y-158028609D01*
X196694660Y-158037153D01*
X196702460Y-158076366D01*
X196724672Y-158109610D01*
X196757916Y-158131822D01*
X196797129Y-158139622D01*
X196912852Y-158139622D01*
X196918360Y-158140999D01*
X197090439Y-158232852D01*
X197096123Y-158239769D01*
X197096629Y-158243172D01*
X197096629Y-158536697D01*
X197112068Y-158619286D01*
X197171210Y-158714805D01*
X197260865Y-158782509D01*
X197260866Y-158782509D01*
X197260867Y-158782510D01*
X197314893Y-158797881D01*
X197368922Y-158813254D01*
X197480789Y-158802888D01*
X197581357Y-158752811D01*
X197657045Y-158669786D01*
X197695449Y-158570652D01*
X197701633Y-158564177D01*
X197710586Y-158563970D01*
X197711868Y-158564558D01*
X197723117Y-158570562D01*
X197728802Y-158577481D01*
X197728419Y-158585357D01*
X197400122Y-159378916D01*
X197393793Y-159385250D01*
X197389298Y-159386143D01*
X196531511Y-159385165D01*
X196523241Y-159381729D01*
X196519872Y-159374515D01*
X196396976Y-158008273D01*
X196399648Y-157999728D01*
X196407581Y-157995574D01*
X196408627Y-157995527D01*
X196642904Y-157995527D01*
X196648407Y-157996904D01*
G37*
%TD.AperFunction*%
%TD*%
%TA.AperFunction,Conductor*%
%TO.N,VCC*%
G36*
X212894281Y-131793967D02*
G01*
X213492710Y-132578055D01*
X213495005Y-132586710D01*
X213492710Y-132592251D01*
X212894280Y-133376338D01*
X212886536Y-133380836D01*
X212878390Y-133378908D01*
X211902240Y-132713634D01*
X211897333Y-132706143D01*
X211897129Y-132703966D01*
X211897129Y-132585154D01*
X211897129Y-132466333D01*
X211900556Y-132458063D01*
X211902230Y-132456675D01*
X212878392Y-131791396D01*
X212887157Y-131789569D01*
X212894281Y-131793967D01*
G37*
%TD.AperFunction*%
%TD*%
%TA.AperFunction,Conductor*%
%TO.N,VCC*%
G36*
X209515865Y-131791397D02*
G01*
X210492017Y-132456668D01*
X210496924Y-132464159D01*
X210497128Y-132466336D01*
X210497128Y-132703966D01*
X210493701Y-132712239D01*
X210492017Y-132713634D01*
X209515866Y-133378908D01*
X209507100Y-133380736D01*
X209499976Y-133376338D01*
X208901547Y-132592251D01*
X208899252Y-132583596D01*
X208901545Y-132578058D01*
X209499976Y-131793965D01*
X209507719Y-131789469D01*
X209515865Y-131791397D01*
G37*
%TD.AperFunction*%
%TD*%
%TA.AperFunction,Conductor*%
%TO.N,GND*%
G36*
X107002436Y-181432795D02*
G01*
X107686870Y-181629920D01*
X107693871Y-181635502D01*
X107694874Y-181644400D01*
X107694451Y-181645614D01*
X107548969Y-181999219D01*
X107542652Y-182005565D01*
X107542622Y-182005577D01*
X107542602Y-182005586D01*
X107185826Y-182152442D01*
X107176872Y-182152422D01*
X107171524Y-182147938D01*
X106839075Y-181629444D01*
X106837495Y-181620632D01*
X106839960Y-181615613D01*
X106990239Y-181436517D01*
X106998182Y-181432384D01*
X107002436Y-181432795D01*
G37*
%TD.AperFunction*%
%TD*%
%TA.AperFunction,Conductor*%
%TO.N,GND*%
G36*
X188865349Y-180767461D02*
G01*
X189495094Y-181027629D01*
X189772645Y-181142294D01*
X189778983Y-181148621D01*
X189778989Y-181148635D01*
X190155014Y-182057423D01*
X190155011Y-182066378D01*
X190148676Y-182072707D01*
X190147901Y-182072996D01*
X188578934Y-182595715D01*
X188575236Y-182596315D01*
X188342663Y-182596315D01*
X188334390Y-182592888D01*
X188330963Y-182584615D01*
X188331417Y-182581389D01*
X188742467Y-181148621D01*
X188849642Y-180775049D01*
X188855216Y-180768043D01*
X188864113Y-180767031D01*
X188865349Y-180767461D01*
G37*
%TD.AperFunction*%
%TD*%
%TA.AperFunction,Conductor*%
%TO.N,GND*%
G36*
X197003182Y-130346405D02*
G01*
X197009344Y-130352391D01*
X197285883Y-130965080D01*
X197286163Y-130974030D01*
X197283492Y-130978166D01*
X197118150Y-131143508D01*
X197109877Y-131146935D01*
X197105064Y-131145899D01*
X196492377Y-130869358D01*
X196486246Y-130862831D01*
X196486370Y-130854242D01*
X196632575Y-130498954D01*
X196638891Y-130492609D01*
X196994228Y-130346384D01*
X197003182Y-130346405D01*
G37*
%TD.AperFunction*%
%TD*%
%TA.AperFunction,Conductor*%
%TO.N,GND*%
G36*
X193816263Y-165836385D02*
G01*
X193816533Y-165836985D01*
X194146264Y-166630663D01*
X194146273Y-166639618D01*
X194146264Y-166639641D01*
X193816533Y-167433318D01*
X193810194Y-167439643D01*
X193801239Y-167439634D01*
X193800639Y-167439364D01*
X192401141Y-166763342D01*
X192395182Y-166756658D01*
X192394530Y-166752807D01*
X192394530Y-166635152D01*
X192394530Y-166517488D01*
X192397957Y-166509218D01*
X192401136Y-166506959D01*
X193800641Y-165830938D01*
X193809579Y-165830426D01*
X193816263Y-165836385D01*
G37*
%TD.AperFunction*%
%TD*%
%TA.AperFunction,Conductor*%
%TO.N,GND*%
G36*
X193816263Y-165836385D02*
G01*
X193816533Y-165836985D01*
X194146264Y-166630663D01*
X194146273Y-166639618D01*
X194146264Y-166639641D01*
X193816533Y-167433318D01*
X193810194Y-167439643D01*
X193801239Y-167439634D01*
X193800639Y-167439364D01*
X192401141Y-166763342D01*
X192395182Y-166756658D01*
X192394530Y-166752807D01*
X192394530Y-166635152D01*
X192394530Y-166517488D01*
X192397957Y-166509218D01*
X192401136Y-166506959D01*
X193800641Y-165830938D01*
X193809579Y-165830426D01*
X193816263Y-165836385D01*
G37*
%TD.AperFunction*%
%TD*%
%TA.AperFunction,Conductor*%
%TO.N,GND*%
G36*
X200993020Y-165830669D02*
G01*
X200993603Y-165830931D01*
X202393118Y-166506960D01*
X202399077Y-166513644D01*
X202399729Y-166517495D01*
X202399729Y-166752811D01*
X202396302Y-166761084D01*
X202393118Y-166763346D01*
X200993620Y-167439364D01*
X200984680Y-167439877D01*
X200977996Y-167433918D01*
X200977726Y-167433318D01*
X200647994Y-166639638D01*
X200647986Y-166630686D01*
X200977727Y-165836983D01*
X200984065Y-165830660D01*
X200993020Y-165830669D01*
G37*
%TD.AperFunction*%
%TD*%
%TA.AperFunction,Conductor*%
%TO.N,GND*%
G36*
X200993020Y-165830669D02*
G01*
X200993603Y-165830931D01*
X202393118Y-166506960D01*
X202399077Y-166513644D01*
X202399729Y-166517495D01*
X202399729Y-166752811D01*
X202396302Y-166761084D01*
X202393118Y-166763346D01*
X200993620Y-167439364D01*
X200984680Y-167439877D01*
X200977996Y-167433918D01*
X200977726Y-167433318D01*
X200647994Y-166639638D01*
X200647986Y-166630686D01*
X200977727Y-165836983D01*
X200984065Y-165830660D01*
X200993020Y-165830669D01*
G37*
%TD.AperFunction*%
%TD*%
%TA.AperFunction,Conductor*%
%TO.N,LED_6*%
G36*
X158922786Y-144202003D02*
G01*
X158928772Y-144208165D01*
X159076614Y-144562773D01*
X159076635Y-144571727D01*
X159076614Y-144571777D01*
X158928772Y-144926384D01*
X158922425Y-144932702D01*
X158913836Y-144932826D01*
X158285055Y-144695132D01*
X158278528Y-144689001D01*
X158277492Y-144684188D01*
X158277492Y-144567275D01*
X158277492Y-144450357D01*
X158280919Y-144442087D01*
X158285053Y-144439416D01*
X158913837Y-144201723D01*
X158922786Y-144202003D01*
G37*
%TD.AperFunction*%
%TD*%
%TA.AperFunction,Conductor*%
%TO.N,LED_6*%
G36*
X167699952Y-142257996D02*
G01*
X167707195Y-142263262D01*
X167708916Y-142269371D01*
X167708916Y-142503159D01*
X167705489Y-142511432D01*
X167702758Y-142513463D01*
X167091940Y-142841985D01*
X167083031Y-142842886D01*
X167076094Y-142837223D01*
X167075599Y-142836183D01*
X167048294Y-142770691D01*
X166928371Y-142483049D01*
X166928351Y-142474100D01*
X167076731Y-142118200D01*
X167083076Y-142111885D01*
X167090262Y-142111330D01*
X167699952Y-142257996D01*
G37*
%TD.AperFunction*%
%TD*%
%TA.AperFunction,Conductor*%
%TO.N,rot_clock*%
G36*
X196276047Y-150666384D02*
G01*
X196418901Y-150725170D01*
X196631333Y-150812588D01*
X196637680Y-150818906D01*
X196637701Y-150818956D01*
X196783905Y-151174242D01*
X196783884Y-151183196D01*
X196777898Y-151189358D01*
X196165212Y-151465900D01*
X196156262Y-151466180D01*
X196152126Y-151463509D01*
X195986784Y-151298167D01*
X195983357Y-151289894D01*
X195984393Y-151285081D01*
X196027598Y-151189358D01*
X196260932Y-150672389D01*
X196267458Y-150666260D01*
X196276047Y-150666384D01*
G37*
%TD.AperFunction*%
%TD*%
%TA.AperFunction,Conductor*%
%TO.N,rot_clock*%
G36*
X188779916Y-176698597D02*
G01*
X190344163Y-177639228D01*
X190349487Y-177646428D01*
X190348271Y-177655097D01*
X189779556Y-178641941D01*
X189772456Y-178647398D01*
X189772446Y-178647401D01*
X188790262Y-178910496D01*
X188781384Y-178909326D01*
X188775933Y-178902221D01*
X188775610Y-178900514D01*
X188528605Y-176709935D01*
X188531083Y-176701331D01*
X188538920Y-176696999D01*
X188540230Y-176696925D01*
X188773893Y-176696925D01*
X188779916Y-176698597D01*
G37*
%TD.AperFunction*%
%TD*%
%TA.AperFunction,Conductor*%
%TO.N,rot_anticlock*%
G36*
X196276047Y-153206384D02*
G01*
X196418901Y-153265170D01*
X196631333Y-153352588D01*
X196637680Y-153358906D01*
X196637701Y-153358956D01*
X196783905Y-153714242D01*
X196783884Y-153723196D01*
X196777898Y-153729358D01*
X196165212Y-154005900D01*
X196156262Y-154006180D01*
X196152126Y-154003509D01*
X195986784Y-153838167D01*
X195983357Y-153829894D01*
X195984393Y-153825081D01*
X196194779Y-153358956D01*
X196260932Y-153212389D01*
X196267458Y-153206260D01*
X196276047Y-153206384D01*
G37*
%TD.AperFunction*%
%TD*%
%TA.AperFunction,Conductor*%
%TO.N,rot_anticlock*%
G36*
X191219877Y-182197407D02*
G01*
X191223304Y-182205680D01*
X191222850Y-182208906D01*
X190704624Y-184015242D01*
X190699049Y-184022250D01*
X190690152Y-184023262D01*
X190688911Y-184022830D01*
X189781620Y-183647999D01*
X189775282Y-183641672D01*
X189775276Y-183641658D01*
X189399251Y-182732870D01*
X189399254Y-182723915D01*
X189405589Y-182717586D01*
X189406345Y-182717303D01*
X190975332Y-182194579D01*
X190979029Y-182193980D01*
X191211606Y-182193980D01*
X191219877Y-182197407D01*
G37*
%TD.AperFunction*%
%TD*%
%TA.AperFunction,Conductor*%
%TO.N,RAW*%
G36*
X183195162Y-124812791D02*
G01*
X183200972Y-124819356D01*
X183551242Y-125807996D01*
X183550775Y-125816938D01*
X183548487Y-125820176D01*
X183383218Y-125985446D01*
X183374945Y-125988873D01*
X183369190Y-125987359D01*
X183051739Y-125807996D01*
X182664276Y-125589076D01*
X182658758Y-125582023D01*
X182658448Y-125577245D01*
X182745406Y-124966591D01*
X182749965Y-124958885D01*
X182753271Y-124957148D01*
X183186231Y-124812168D01*
X183195162Y-124812791D01*
G37*
%TD.AperFunction*%
%TD*%
%TA.AperFunction,Conductor*%
%TO.N,RAW*%
G36*
X197689209Y-124764406D02*
G01*
X198301898Y-125040945D01*
X198308029Y-125047472D01*
X198307905Y-125056061D01*
X198161701Y-125411347D01*
X198155383Y-125417694D01*
X198155333Y-125417715D01*
X197800047Y-125563919D01*
X197791093Y-125563898D01*
X197784931Y-125557912D01*
X197508390Y-124945225D01*
X197508110Y-124936275D01*
X197510779Y-124932141D01*
X197676124Y-124766796D01*
X197684396Y-124763370D01*
X197689209Y-124764406D01*
G37*
%TD.AperFunction*%
%TD*%
%TA.AperFunction,Conductor*%
%TO.N,RST*%
G36*
X200316263Y-161336385D02*
G01*
X200316533Y-161336985D01*
X200646264Y-162130663D01*
X200646273Y-162139618D01*
X200646264Y-162139641D01*
X200316533Y-162933318D01*
X200310194Y-162939643D01*
X200301239Y-162939634D01*
X200300639Y-162939364D01*
X198901141Y-162263343D01*
X198895182Y-162256659D01*
X198894530Y-162252808D01*
X198894530Y-162135152D01*
X198894530Y-162017489D01*
X198897957Y-162009219D01*
X198901136Y-162006960D01*
X200300641Y-161330938D01*
X200309579Y-161330426D01*
X200316263Y-161336385D01*
G37*
%TD.AperFunction*%
%TD*%
%TA.AperFunction,Conductor*%
%TO.N,RST*%
G36*
X194493020Y-161330669D02*
G01*
X194493604Y-161330932D01*
X195893117Y-162006955D01*
X195899076Y-162013639D01*
X195899728Y-162017490D01*
X195899728Y-162252806D01*
X195896301Y-162261079D01*
X195893117Y-162263341D01*
X194493620Y-162939364D01*
X194484680Y-162939877D01*
X194477996Y-162933918D01*
X194477726Y-162933318D01*
X194147994Y-162139638D01*
X194147986Y-162130686D01*
X194477727Y-161336983D01*
X194484065Y-161330660D01*
X194493020Y-161330669D01*
G37*
%TD.AperFunction*%
%TD*%
%TA.AperFunction,Conductor*%
%TO.N,RST*%
G36*
X200316263Y-161336385D02*
G01*
X200316533Y-161336985D01*
X200646264Y-162130663D01*
X200646273Y-162139618D01*
X200646264Y-162139641D01*
X200316533Y-162933318D01*
X200310194Y-162939643D01*
X200301239Y-162939634D01*
X200300639Y-162939364D01*
X198901141Y-162263343D01*
X198895182Y-162256659D01*
X198894530Y-162252808D01*
X198894530Y-162135152D01*
X198894530Y-162017489D01*
X198897957Y-162009219D01*
X198901136Y-162006960D01*
X200300641Y-161330938D01*
X200309579Y-161330426D01*
X200316263Y-161336385D01*
G37*
%TD.AperFunction*%
%TD*%
%TA.AperFunction,Conductor*%
%TO.N,RST*%
G36*
X194493020Y-161330669D02*
G01*
X194493604Y-161330932D01*
X195893117Y-162006955D01*
X195899076Y-162013639D01*
X195899728Y-162017490D01*
X195899728Y-162252806D01*
X195896301Y-162261079D01*
X195893117Y-162263341D01*
X194493620Y-162939364D01*
X194484680Y-162939877D01*
X194477996Y-162933918D01*
X194477726Y-162933318D01*
X194147994Y-162139638D01*
X194147986Y-162130686D01*
X194477727Y-161336983D01*
X194484065Y-161330660D01*
X194493020Y-161330669D01*
G37*
%TD.AperFunction*%
%TD*%
%TA.AperFunction,Conductor*%
%TO.N,led*%
G36*
X197003182Y-125266405D02*
G01*
X197009344Y-125272391D01*
X197285883Y-125885080D01*
X197286163Y-125894030D01*
X197283492Y-125898166D01*
X197118150Y-126063508D01*
X197109877Y-126066935D01*
X197105064Y-126065899D01*
X196492377Y-125789358D01*
X196486246Y-125782831D01*
X196486370Y-125774242D01*
X196632575Y-125418954D01*
X196638891Y-125412609D01*
X196994228Y-125266384D01*
X197003182Y-125266405D01*
G37*
%TD.AperFunction*%
%TD*%
%TA.AperFunction,Conductor*%
%TO.N,data*%
G36*
X200595535Y-155018524D02*
G01*
X200601697Y-155024510D01*
X200878238Y-155637198D01*
X200878518Y-155646148D01*
X200875847Y-155650284D01*
X200710505Y-155815626D01*
X200702232Y-155819053D01*
X200697419Y-155818017D01*
X200084730Y-155541477D01*
X200078599Y-155534950D01*
X200078723Y-155526361D01*
X200224928Y-155171073D01*
X200231244Y-155164728D01*
X200586581Y-155018503D01*
X200595535Y-155018524D01*
G37*
%TD.AperFunction*%
%TD*%
%TA.AperFunction,Conductor*%
%TO.N,mosi*%
G36*
X197003182Y-135426405D02*
G01*
X197009344Y-135432391D01*
X197285884Y-136045080D01*
X197286164Y-136054030D01*
X197283493Y-136058166D01*
X197118151Y-136223507D01*
X197109878Y-136226934D01*
X197105065Y-136225898D01*
X196492377Y-135949358D01*
X196486246Y-135942831D01*
X196486370Y-135934242D01*
X196632575Y-135578954D01*
X196638891Y-135572609D01*
X196994228Y-135426384D01*
X197003182Y-135426405D01*
G37*
%TD.AperFunction*%
%TD*%
%TA.AperFunction,Conductor*%
%TO.N,sck*%
G36*
X197003182Y-137966405D02*
G01*
X197009344Y-137972391D01*
X197285885Y-138585080D01*
X197286165Y-138594030D01*
X197283494Y-138598166D01*
X197118152Y-138763508D01*
X197109879Y-138766935D01*
X197105066Y-138765899D01*
X196492377Y-138489358D01*
X196486246Y-138482831D01*
X196486370Y-138474242D01*
X196632575Y-138118954D01*
X196638891Y-138112609D01*
X196994228Y-137966384D01*
X197003182Y-137966405D01*
G37*
%TD.AperFunction*%
%TD*%
%TA.AperFunction,Conductor*%
%TO.N,bat*%
G36*
X194654686Y-122042693D02*
G01*
X195389841Y-122776870D01*
X195393273Y-122785141D01*
X195389852Y-122793417D01*
X195389841Y-122793428D01*
X194654686Y-123527604D01*
X194646410Y-123531025D01*
X194638929Y-123528313D01*
X193901342Y-122913657D01*
X193897180Y-122905728D01*
X193897132Y-122904669D01*
X193897132Y-122665628D01*
X193900559Y-122657355D01*
X193901333Y-122656647D01*
X194638931Y-122041983D01*
X194647477Y-122039320D01*
X194654686Y-122042693D01*
G37*
%TD.AperFunction*%
%TD*%
%TA.AperFunction,Conductor*%
%TO.N,bat*%
G36*
X180429006Y-124106484D02*
G01*
X180432063Y-124108684D01*
X180597909Y-124274530D01*
X180601336Y-124282803D01*
X180600227Y-124287774D01*
X180201869Y-125136449D01*
X180195252Y-125142482D01*
X180186821Y-125142296D01*
X179753534Y-124963784D01*
X179747190Y-124957464D01*
X179746293Y-124953169D01*
X179735882Y-124343717D01*
X179739167Y-124335387D01*
X179743859Y-124332426D01*
X180420073Y-124105863D01*
X180429006Y-124106484D01*
G37*
%TD.AperFunction*%
%TD*%
M02*
