%TF.GenerationSoftware,KiCad,Pcbnew,7.0.6-0*%
%TF.CreationDate,2023-08-12T20:04:25+02:00*%
%TF.ProjectId,jwe,6a77652e-6b69-4636-9164-5f7063625858,v1.0.0*%
%TF.SameCoordinates,Original*%
%TF.FileFunction,Profile,NP*%
%FSLAX46Y46*%
G04 Gerber Fmt 4.6, Leading zero omitted, Abs format (unit mm)*
G04 Created by KiCad (PCBNEW 7.0.6-0) date 2023-08-12 20:04:25*
%MOMM*%
%LPD*%
G01*
G04 APERTURE LIST*
%TA.AperFunction,Profile*%
%ADD10C,0.150000*%
%TD*%
%TA.AperFunction,Profile*%
%ADD11C,0.120000*%
%TD*%
G04 APERTURE END LIST*
D10*
X103071444Y-155056370D02*
G75*
G03*
X104897138Y-153063968I-174433J1992506D01*
G01*
X210233382Y-228991469D02*
X221417130Y-209620679D01*
X221417161Y-209620697D02*
G75*
G03*
X220685076Y-206888618I-1731949J1000033D01*
G01*
X110650414Y-190059461D02*
X111214269Y-196504392D01*
X88451735Y-154327779D02*
G75*
G03*
X90618420Y-156145859I1992477J174415D01*
G01*
X125897137Y-114885084D02*
G75*
G03*
X123897132Y-116885153I175J-2000180D01*
G01*
X88240885Y-173766000D02*
G75*
G03*
X88240885Y-173766000I-1100012J0D01*
G01*
X209897133Y-199505502D02*
G75*
G03*
X210897127Y-201237557I2000079J38D01*
G01*
X127997138Y-170135155D02*
G75*
G03*
X127997138Y-170135155I-1100002J0D01*
G01*
X63398687Y-154813139D02*
X65228954Y-175733229D01*
X121897134Y-124885191D02*
G75*
G03*
X123897138Y-122885155I178J1999826D01*
G01*
X104897139Y-153063973D02*
X104897126Y-126885154D01*
X106897132Y-124885153D02*
X121897134Y-124885151D01*
X88476107Y-200501361D02*
X109396190Y-198671088D01*
X215197125Y-122885149D02*
G75*
G03*
X213197145Y-120885151I-1999813J185D01*
G01*
X67395655Y-177551303D02*
X82338568Y-176243975D01*
X210897127Y-201237557D02*
X220685076Y-206888617D01*
X207367454Y-229638924D02*
G75*
G03*
X210233382Y-228991468I1133958J1647260D01*
G01*
X88303496Y-152634260D02*
G75*
G03*
X86136858Y-150816176I-1992384J-174304D01*
G01*
X125897137Y-114885153D02*
X146897125Y-114885146D01*
X106897132Y-124885079D02*
G75*
G03*
X104897126Y-126885154I79J-2000085D01*
G01*
X150897141Y-120885153D02*
X213197145Y-120885151D01*
X127997126Y-132135149D02*
G75*
G03*
X127997126Y-132135149I-1099995J0D01*
G01*
X84505276Y-178062058D02*
X86309405Y-198683281D01*
X213197137Y-135885084D02*
G75*
G03*
X215197132Y-133885148I175J1999820D01*
G01*
X211897137Y-135885157D02*
X213197137Y-135885154D01*
X112642804Y-187885151D02*
X151319576Y-187885150D01*
X150314603Y-207102162D02*
X153289192Y-190232445D01*
X207367420Y-229638973D02*
G75*
G03*
X152088814Y-209439891I-66787608J-97037191D01*
G01*
X88303559Y-152634254D02*
X88451712Y-154327781D01*
X90618412Y-156145858D02*
X103071443Y-155056357D01*
X209897138Y-199505502D02*
X209897139Y-137885154D01*
X84505230Y-178062062D02*
G75*
G03*
X82338572Y-176243974I-1992219J-174102D01*
G01*
X112642804Y-187885157D02*
G75*
G03*
X110650414Y-190059461I8J-2000007D01*
G01*
X86309432Y-198683279D02*
G75*
G03*
X88476107Y-200501362I1992479J174415D01*
G01*
X109396185Y-198671031D02*
G75*
G03*
X111214279Y-196504390I-174273J1992367D01*
G01*
X65216766Y-152646422D02*
G75*
G03*
X63398680Y-154813139I174245J-1992342D01*
G01*
X153289220Y-190232450D02*
G75*
G03*
X151319573Y-187885154I-1969509J347385D01*
G01*
X165997137Y-144135149D02*
G75*
G03*
X165997137Y-144135149I-1100003J0D01*
G01*
X65216768Y-152646443D02*
X86136852Y-150816171D01*
X215197132Y-133885148D02*
X215197132Y-122885149D01*
X148897129Y-116885153D02*
G75*
G03*
X146897125Y-114885146I-2000018J-11D01*
G01*
X148897123Y-118885151D02*
G75*
G03*
X150897141Y-120885153I1999988J-14D01*
G01*
X150314605Y-207102162D02*
G75*
G03*
X152088816Y-209439890I1969607J-347303D01*
G01*
X148897129Y-116885153D02*
X148897133Y-118885151D01*
X65228979Y-175733227D02*
G75*
G03*
X67395656Y-177551306I1992432J174363D01*
G01*
X123897138Y-122885155D02*
X123897132Y-116885153D01*
X165997130Y-182135151D02*
G75*
G03*
X165997130Y-182135151I-1100004J0D01*
G01*
X211897137Y-135885191D02*
G75*
G03*
X209897139Y-137885154I-125J-1999873D01*
G01*
X195839574Y-211827562D02*
G75*
G03*
X195839574Y-211827562I-1100017J0D01*
G01*
D11*
%TO.C,L9*%
X162667288Y-199241335D02*
X162128979Y-202294239D01*
X162128979Y-202294239D02*
X165477326Y-202884643D01*
X166015635Y-199831739D02*
X162667288Y-199241335D01*
X165477326Y-202884643D02*
X166015635Y-199831739D01*
X94776105Y-171542085D02*
X95046287Y-174630289D01*
X95046287Y-174630289D02*
X98433349Y-174333959D01*
X98163167Y-171245755D02*
X94776105Y-171542085D01*
X98433349Y-174333959D02*
X98163167Y-171245755D01*
X96432060Y-190469777D02*
X96702242Y-193557981D01*
X96702242Y-193557981D02*
X100089304Y-193261651D01*
X99819122Y-190173447D02*
X96432060Y-190469777D01*
X100089304Y-193261651D02*
X99819122Y-190173447D01*
X153697134Y-159585151D02*
X153697134Y-162685151D01*
X153697134Y-162685151D02*
X157097134Y-162685151D01*
X157097134Y-159585151D02*
X153697134Y-159585151D01*
X157097134Y-162685151D02*
X157097134Y-159585151D01*
X134697127Y-168585153D02*
X134697127Y-171685153D01*
X134697127Y-171685153D02*
X138097127Y-171685153D01*
X138097127Y-168585153D02*
X134697127Y-168585153D01*
X138097127Y-171685153D02*
X138097127Y-168585153D01*
X202269562Y-214385220D02*
X200719562Y-217069898D01*
X200719562Y-217069898D02*
X203664048Y-218769898D01*
X205214048Y-216085220D02*
X202269562Y-214385220D01*
X203664048Y-218769898D02*
X205214048Y-216085220D01*
X172697130Y-142585152D02*
X172697130Y-145685152D01*
X172697130Y-145685152D02*
X176097130Y-145685152D01*
X176097130Y-142585152D02*
X172697130Y-142585152D01*
X176097130Y-145685152D02*
X176097130Y-142585152D01*
X134697128Y-130585158D02*
X134697128Y-133685158D01*
X134697128Y-133685158D02*
X138097128Y-133685158D01*
X138097128Y-130585158D02*
X134697128Y-130585158D01*
X138097128Y-133685158D02*
X138097128Y-130585158D01*
X172697129Y-180585150D02*
X172697129Y-183685150D01*
X172697129Y-183685150D02*
X176097129Y-183685150D01*
X176097129Y-180585150D02*
X172697129Y-180585150D01*
X176097129Y-183685150D02*
X176097129Y-180585150D01*
X75351627Y-167519730D02*
X75621809Y-170607934D01*
X75621809Y-170607934D02*
X79008871Y-170311604D01*
X78738689Y-167223400D02*
X75351627Y-167519730D01*
X79008871Y-170311604D02*
X78738689Y-167223400D01*
X172697137Y-161585155D02*
X172697137Y-164685155D01*
X172697137Y-164685155D02*
X176097137Y-164685155D01*
X176097137Y-161585155D02*
X172697137Y-161585155D01*
X176097137Y-164685155D02*
X176097137Y-161585155D01*
X153697133Y-178585154D02*
X153697133Y-181685154D01*
X153697133Y-181685154D02*
X157097133Y-181685154D01*
X157097133Y-178585154D02*
X153697133Y-178585154D01*
X157097133Y-181685154D02*
X157097133Y-178585154D01*
X115697125Y-140585154D02*
X115697125Y-143685154D01*
X115697125Y-143685154D02*
X119097125Y-143685154D01*
X119097125Y-140585154D02*
X115697125Y-140585154D01*
X119097125Y-143685154D02*
X119097125Y-140585154D01*
X153697134Y-140585157D02*
X153697134Y-143685157D01*
X153697134Y-143685157D02*
X157097134Y-143685157D01*
X157097134Y-140585157D02*
X153697134Y-140585157D01*
X157097134Y-143685157D02*
X157097134Y-140585157D01*
X134697136Y-149585148D02*
X134697136Y-152685148D01*
X134697136Y-152685148D02*
X138097136Y-152685148D01*
X138097136Y-149585148D02*
X134697136Y-149585148D01*
X138097136Y-152685148D02*
X138097136Y-149585148D01*
X115697140Y-178585150D02*
X115697140Y-181685150D01*
X115697140Y-181685150D02*
X119097140Y-181685150D01*
X119097140Y-178585150D02*
X115697140Y-178585150D01*
X119097140Y-181685150D02*
X119097140Y-178585150D01*
X183051576Y-205015496D02*
X181991313Y-207928543D01*
X181991313Y-207928543D02*
X185186268Y-209091412D01*
X186246531Y-206178365D02*
X183051576Y-205015496D01*
X185186268Y-209091412D02*
X186246531Y-206178365D01*
X115697138Y-159585149D02*
X115697138Y-162685149D01*
X115697138Y-162685149D02*
X119097138Y-162685149D01*
X119097138Y-159585149D02*
X115697138Y-159585149D01*
X119097138Y-162685149D02*
X119097138Y-159585149D01*
%TD*%
M02*
