%TF.GenerationSoftware,KiCad,Pcbnew,7.0.6-0*%
%TF.CreationDate,2023-08-12T20:04:25+02:00*%
%TF.ProjectId,jwe,6a77652e-6b69-4636-9164-5f7063625858,v1.0.0*%
%TF.SameCoordinates,Original*%
%TF.FileFunction,Legend,Bot*%
%TF.FilePolarity,Positive*%
%FSLAX46Y46*%
G04 Gerber Fmt 4.6, Leading zero omitted, Abs format (unit mm)*
G04 Created by KiCad (PCBNEW 7.0.6-0) date 2023-08-12 20:04:25*
%MOMM*%
%LPD*%
G01*
G04 APERTURE LIST*
G04 Aperture macros list*
%AMRoundRect*
0 Rectangle with rounded corners*
0 $1 Rounding radius*
0 $2 $3 $4 $5 $6 $7 $8 $9 X,Y pos of 4 corners*
0 Add a 4 corners polygon primitive as box body*
4,1,4,$2,$3,$4,$5,$6,$7,$8,$9,$2,$3,0*
0 Add four circle primitives for the rounded corners*
1,1,$1+$1,$2,$3*
1,1,$1+$1,$4,$5*
1,1,$1+$1,$6,$7*
1,1,$1+$1,$8,$9*
0 Add four rect primitives between the rounded corners*
20,1,$1+$1,$2,$3,$4,$5,0*
20,1,$1+$1,$4,$5,$6,$7,0*
20,1,$1+$1,$6,$7,$8,$9,0*
20,1,$1+$1,$8,$9,$2,$3,0*%
G04 Aperture macros list end*
%ADD10C,0.150000*%
%ADD11C,0.120000*%
%ADD12C,0.100000*%
%ADD13RoundRect,0.375000X-0.375000X-0.750000X0.375000X-0.750000X0.375000X0.750000X-0.375000X0.750000X0*%
G04 APERTURE END LIST*
D10*
G36*
X174918335Y-122983577D02*
G01*
X174716468Y-122983577D01*
X174569556Y-124224819D01*
X174395533Y-123402331D01*
X174179011Y-123402331D01*
X174002790Y-124226651D01*
X173855878Y-122983577D01*
X173654011Y-122983577D01*
X173882623Y-124507653D01*
X174078628Y-124507653D01*
X174286722Y-123614823D01*
X174493718Y-124507653D01*
X174689723Y-124507653D01*
X174918335Y-122983577D01*
G37*
G36*
X173466433Y-124793417D02*
G01*
X173354692Y-124793417D01*
X173339433Y-124793004D01*
X173320130Y-124791173D01*
X173302018Y-124787875D01*
X173285097Y-124783113D01*
X173269366Y-124776884D01*
X173254826Y-124769191D01*
X173241477Y-124760032D01*
X173229318Y-124749407D01*
X173226464Y-124746522D01*
X173213579Y-124731249D01*
X173203471Y-124716819D01*
X173192983Y-124699839D01*
X173182116Y-124680309D01*
X173174660Y-124665872D01*
X173167035Y-124650301D01*
X173159241Y-124633597D01*
X173151278Y-124615760D01*
X173143147Y-124596789D01*
X173134846Y-124576685D01*
X173126377Y-124555447D01*
X173117739Y-124533076D01*
X173108932Y-124509572D01*
X173104465Y-124497394D01*
X173548498Y-123358734D01*
X173348464Y-123358734D01*
X173008111Y-124266218D01*
X172672888Y-123358734D01*
X172472853Y-123358734D01*
X172775470Y-124142387D01*
X172782118Y-124159623D01*
X172788599Y-124176433D01*
X172794912Y-124192819D01*
X172801058Y-124208779D01*
X172807037Y-124224315D01*
X172812848Y-124239425D01*
X172818491Y-124254111D01*
X172823967Y-124268371D01*
X172829276Y-124282206D01*
X172836094Y-124299992D01*
X172837752Y-124304320D01*
X172843556Y-124318694D01*
X172849363Y-124333039D01*
X172850941Y-124336927D01*
X172856232Y-124351348D01*
X172861522Y-124366174D01*
X172861932Y-124367335D01*
X172866805Y-124381195D01*
X172871785Y-124395426D01*
X172876932Y-124410170D01*
X172881929Y-124424510D01*
X172882815Y-124427052D01*
X172895271Y-124460025D01*
X172900246Y-124473977D01*
X172907643Y-124494502D01*
X172914963Y-124514545D01*
X172922206Y-124534104D01*
X172929371Y-124553180D01*
X172936460Y-124571774D01*
X172943471Y-124589884D01*
X172950405Y-124607511D01*
X172957261Y-124624656D01*
X172964040Y-124641317D01*
X172970742Y-124657495D01*
X172977246Y-124673131D01*
X172983571Y-124688025D01*
X172989714Y-124702179D01*
X172995678Y-124715593D01*
X173003348Y-124732325D01*
X173010699Y-124747741D01*
X173017728Y-124761841D01*
X173026064Y-124777613D01*
X173030826Y-124786089D01*
X173042711Y-124806320D01*
X173055378Y-124825245D01*
X173068826Y-124842864D01*
X173083056Y-124859179D01*
X173098067Y-124874189D01*
X173113859Y-124887893D01*
X173130432Y-124900292D01*
X173147788Y-124911386D01*
X173165924Y-124921175D01*
X173184842Y-124929658D01*
X173204541Y-124936837D01*
X173225022Y-124942710D01*
X173246284Y-124947278D01*
X173268327Y-124950541D01*
X173291152Y-124952499D01*
X173314758Y-124953151D01*
X173466433Y-124953151D01*
X173466433Y-124793417D01*
G37*
G36*
X171787752Y-124531100D02*
G01*
X171808493Y-124530816D01*
X171829683Y-124529966D01*
X171851323Y-124528550D01*
X171873412Y-124526566D01*
X171895951Y-124524016D01*
X171918939Y-124520899D01*
X171942376Y-124517215D01*
X171966263Y-124512965D01*
X171990599Y-124508148D01*
X172015384Y-124502764D01*
X172040619Y-124496813D01*
X172066303Y-124490296D01*
X172092437Y-124483212D01*
X172119020Y-124475561D01*
X172146052Y-124467344D01*
X172173533Y-124458560D01*
X172173533Y-124264387D01*
X172160116Y-124270968D01*
X172146790Y-124277341D01*
X172120416Y-124289460D01*
X172094412Y-124300743D01*
X172068776Y-124311190D01*
X172043510Y-124320801D01*
X172018613Y-124329577D01*
X171994085Y-124337516D01*
X171969926Y-124344620D01*
X171946137Y-124350889D01*
X171922717Y-124356321D01*
X171899666Y-124360918D01*
X171876984Y-124364679D01*
X171854672Y-124367604D01*
X171832729Y-124369693D01*
X171811155Y-124370947D01*
X171789950Y-124371365D01*
X171775162Y-124371172D01*
X171753684Y-124370157D01*
X171733049Y-124368274D01*
X171713258Y-124365521D01*
X171694310Y-124361898D01*
X171676206Y-124357406D01*
X171658946Y-124352045D01*
X171642530Y-124345814D01*
X171626957Y-124338714D01*
X171612227Y-124330745D01*
X171598341Y-124321906D01*
X171585509Y-124312271D01*
X171573938Y-124302049D01*
X171563630Y-124291242D01*
X171551849Y-124275920D01*
X171542312Y-124259557D01*
X171535019Y-124242152D01*
X171529970Y-124223705D01*
X171527656Y-124209186D01*
X171526604Y-124194081D01*
X171526534Y-124188916D01*
X171527473Y-124171313D01*
X171530289Y-124154592D01*
X171534983Y-124138752D01*
X171541555Y-124123794D01*
X171550004Y-124109718D01*
X171560331Y-124096523D01*
X171572536Y-124084210D01*
X171586618Y-124072778D01*
X171602669Y-124062045D01*
X171616180Y-124054333D01*
X171630954Y-124046911D01*
X171646989Y-124039778D01*
X171664287Y-124032936D01*
X171682847Y-124026383D01*
X171702669Y-124020120D01*
X171723754Y-124014147D01*
X171738512Y-124010326D01*
X171753830Y-124006634D01*
X171769710Y-124003071D01*
X171777860Y-124001337D01*
X171856628Y-123985217D01*
X171876532Y-123980978D01*
X171895761Y-123976413D01*
X171914313Y-123971521D01*
X171932191Y-123966303D01*
X171949393Y-123960759D01*
X171965919Y-123954889D01*
X171981770Y-123948692D01*
X171996946Y-123942169D01*
X172011446Y-123935320D01*
X172025270Y-123928144D01*
X172038419Y-123920642D01*
X172050893Y-123912814D01*
X172068337Y-123900460D01*
X172084261Y-123887372D01*
X172094032Y-123878239D01*
X172107520Y-123863752D01*
X172119681Y-123848318D01*
X172130515Y-123831938D01*
X172140023Y-123814612D01*
X172148203Y-123796338D01*
X172155058Y-123777118D01*
X172160585Y-123756951D01*
X172164786Y-123735837D01*
X172166850Y-123721236D01*
X172168324Y-123706213D01*
X172169209Y-123690770D01*
X172169503Y-123674907D01*
X172169063Y-123654777D01*
X172167740Y-123635236D01*
X172165536Y-123616285D01*
X172162451Y-123597924D01*
X172158484Y-123580153D01*
X172153635Y-123562971D01*
X172147905Y-123546378D01*
X172141293Y-123530376D01*
X172133800Y-123514963D01*
X172125425Y-123500139D01*
X172116169Y-123485905D01*
X172106031Y-123472261D01*
X172095011Y-123459207D01*
X172083110Y-123446742D01*
X172070327Y-123434866D01*
X172056663Y-123423581D01*
X172042186Y-123412889D01*
X172026965Y-123402887D01*
X172010999Y-123393575D01*
X171994290Y-123384952D01*
X171976836Y-123377019D01*
X171958638Y-123369777D01*
X171939696Y-123363224D01*
X171920009Y-123357360D01*
X171899579Y-123352187D01*
X171878404Y-123347703D01*
X171856485Y-123343909D01*
X171833822Y-123340805D01*
X171810415Y-123338391D01*
X171786263Y-123336666D01*
X171761368Y-123335632D01*
X171735728Y-123335287D01*
X171713700Y-123335559D01*
X171691764Y-123336374D01*
X171669920Y-123337734D01*
X171648167Y-123339637D01*
X171626506Y-123342085D01*
X171604936Y-123345076D01*
X171583458Y-123348610D01*
X171562071Y-123352689D01*
X171540776Y-123357312D01*
X171519573Y-123362478D01*
X171498461Y-123368188D01*
X171477441Y-123374442D01*
X171456513Y-123381240D01*
X171435676Y-123388581D01*
X171414930Y-123396467D01*
X171394277Y-123404896D01*
X171394277Y-123590276D01*
X171414438Y-123578742D01*
X171434714Y-123567951D01*
X171455104Y-123557905D01*
X171475609Y-123548602D01*
X171496229Y-123540044D01*
X171516963Y-123532231D01*
X171537811Y-123525161D01*
X171558774Y-123518835D01*
X171579852Y-123513254D01*
X171601043Y-123508417D01*
X171622350Y-123504324D01*
X171643771Y-123500975D01*
X171665306Y-123498370D01*
X171686956Y-123496510D01*
X171708720Y-123495394D01*
X171730599Y-123495022D01*
X171745859Y-123495185D01*
X171760634Y-123495676D01*
X171788731Y-123497638D01*
X171814890Y-123500908D01*
X171839111Y-123505486D01*
X171861395Y-123511372D01*
X171881741Y-123518566D01*
X171900150Y-123527069D01*
X171916620Y-123536879D01*
X171931153Y-123547997D01*
X171943749Y-123560423D01*
X171954406Y-123574158D01*
X171963126Y-123589200D01*
X171969908Y-123605551D01*
X171974752Y-123623209D01*
X171977659Y-123642176D01*
X171978628Y-123662450D01*
X171978109Y-123678954D01*
X171976552Y-123694350D01*
X171973315Y-123711360D01*
X171968584Y-123726773D01*
X171962359Y-123740589D01*
X171957378Y-123748912D01*
X171947907Y-123760517D01*
X171935706Y-123771426D01*
X171923452Y-123779986D01*
X171909302Y-123788063D01*
X171893255Y-123795657D01*
X171879053Y-123801384D01*
X171875313Y-123802768D01*
X171859216Y-123808200D01*
X171841333Y-123813690D01*
X171826748Y-123817845D01*
X171811159Y-123822032D01*
X171794565Y-123826251D01*
X171776967Y-123830503D01*
X171758364Y-123834786D01*
X171738756Y-123839102D01*
X171718144Y-123843450D01*
X171696527Y-123847830D01*
X171620690Y-123862119D01*
X171603154Y-123865790D01*
X171586174Y-123869844D01*
X171569751Y-123874280D01*
X171553885Y-123879097D01*
X171538576Y-123884297D01*
X171523824Y-123889879D01*
X171509628Y-123895843D01*
X171495988Y-123902190D01*
X171482906Y-123908918D01*
X171458411Y-123923521D01*
X171436143Y-123939653D01*
X171416102Y-123957313D01*
X171398287Y-123976501D01*
X171382700Y-123997218D01*
X171369339Y-124019463D01*
X171358205Y-124043236D01*
X171349297Y-124068538D01*
X171342617Y-124095369D01*
X171338163Y-124123728D01*
X171336772Y-124138480D01*
X171335937Y-124153615D01*
X171335658Y-124169132D01*
X171336132Y-124189874D01*
X171337553Y-124210062D01*
X171339922Y-124229694D01*
X171343237Y-124248770D01*
X171347501Y-124267292D01*
X171352711Y-124285258D01*
X171358869Y-124302669D01*
X171365975Y-124319524D01*
X171374028Y-124335825D01*
X171383028Y-124351570D01*
X171392976Y-124366760D01*
X171403871Y-124381394D01*
X171415713Y-124395473D01*
X171428503Y-124408997D01*
X171442240Y-124421966D01*
X171456925Y-124434380D01*
X171472385Y-124446092D01*
X171488541Y-124457048D01*
X171505392Y-124467249D01*
X171522939Y-124476695D01*
X171541181Y-124485384D01*
X171560119Y-124493318D01*
X171579753Y-124500497D01*
X171600082Y-124506920D01*
X171621106Y-124512587D01*
X171642826Y-124517499D01*
X171665242Y-124521654D01*
X171688353Y-124525055D01*
X171712159Y-124527699D01*
X171736661Y-124529589D01*
X171761859Y-124530722D01*
X171787752Y-124531100D01*
G37*
G36*
X170301046Y-124507653D02*
G01*
X170326987Y-124507323D01*
X170351965Y-124506336D01*
X170375977Y-124504690D01*
X170399025Y-124502386D01*
X170421109Y-124499424D01*
X170442228Y-124495803D01*
X170462382Y-124491524D01*
X170481572Y-124486587D01*
X170499797Y-124480991D01*
X170517057Y-124474737D01*
X170533353Y-124467825D01*
X170548685Y-124460254D01*
X170563052Y-124452025D01*
X170576454Y-124443138D01*
X170588892Y-124433593D01*
X170600365Y-124423389D01*
X170610968Y-124412389D01*
X170620887Y-124400457D01*
X170630122Y-124387591D01*
X170638673Y-124373792D01*
X170646540Y-124359060D01*
X170653723Y-124343395D01*
X170660221Y-124326797D01*
X170666036Y-124309266D01*
X170671167Y-124290802D01*
X170675613Y-124271405D01*
X170679375Y-124251074D01*
X170682454Y-124229811D01*
X170684848Y-124207614D01*
X170686558Y-124184485D01*
X170687584Y-124160422D01*
X170687926Y-124135426D01*
X170687926Y-123518469D01*
X170994207Y-123518469D01*
X170994207Y-123358734D01*
X170687926Y-123358734D01*
X170687926Y-123059415D01*
X170499249Y-122977349D01*
X170499249Y-123358734D01*
X170070602Y-123358734D01*
X170070602Y-123518469D01*
X170499249Y-123518469D01*
X170499249Y-124127000D01*
X170499060Y-124142011D01*
X170498068Y-124163459D01*
X170496226Y-124183626D01*
X170493534Y-124202511D01*
X170489992Y-124220115D01*
X170485600Y-124236437D01*
X170480358Y-124251478D01*
X170474266Y-124265237D01*
X170464820Y-124281589D01*
X170453864Y-124295662D01*
X170450889Y-124298825D01*
X170437682Y-124310331D01*
X170422243Y-124320303D01*
X170404572Y-124328741D01*
X170389854Y-124334062D01*
X170373879Y-124338521D01*
X170356649Y-124342117D01*
X170338163Y-124344849D01*
X170318421Y-124346719D01*
X170297423Y-124347726D01*
X170282727Y-124347918D01*
X170070602Y-124347918D01*
X170070602Y-124507653D01*
X170301046Y-124507653D01*
G37*
G36*
X169228662Y-123335603D02*
G01*
X169249803Y-123336552D01*
X169270507Y-123338133D01*
X169290773Y-123340347D01*
X169310601Y-123343194D01*
X169329991Y-123346673D01*
X169348944Y-123350784D01*
X169367458Y-123355528D01*
X169385534Y-123360905D01*
X169403173Y-123366914D01*
X169420373Y-123373556D01*
X169437136Y-123380830D01*
X169453460Y-123388737D01*
X169469347Y-123397277D01*
X169484796Y-123406449D01*
X169499807Y-123416253D01*
X169514371Y-123426550D01*
X169528481Y-123437291D01*
X169542135Y-123448475D01*
X169555334Y-123460103D01*
X169568078Y-123472174D01*
X169580367Y-123484689D01*
X169592201Y-123497648D01*
X169603580Y-123511050D01*
X169614503Y-123524896D01*
X169624972Y-123539186D01*
X169634985Y-123553919D01*
X169644544Y-123569096D01*
X169653647Y-123584717D01*
X169662295Y-123600781D01*
X169670488Y-123617289D01*
X169678226Y-123634240D01*
X169685502Y-123651539D01*
X169692308Y-123669090D01*
X169698645Y-123686893D01*
X169704513Y-123704948D01*
X169709911Y-123723255D01*
X169714840Y-123741814D01*
X169719299Y-123760624D01*
X169723289Y-123779687D01*
X169726810Y-123799001D01*
X169729861Y-123818567D01*
X169732443Y-123838385D01*
X169734555Y-123858455D01*
X169736198Y-123878777D01*
X169737371Y-123899350D01*
X169738075Y-123920176D01*
X169738310Y-123941253D01*
X169738162Y-123958245D01*
X169737719Y-123975012D01*
X169736980Y-123991553D01*
X169735946Y-124007869D01*
X169734616Y-124023959D01*
X169732991Y-124039824D01*
X169731070Y-124055463D01*
X169728853Y-124070878D01*
X169726341Y-124086066D01*
X169723534Y-124101030D01*
X169720431Y-124115768D01*
X169717032Y-124130280D01*
X169709349Y-124158629D01*
X169700483Y-124186076D01*
X169690435Y-124212622D01*
X169679205Y-124238266D01*
X169666793Y-124263008D01*
X169653199Y-124286849D01*
X169638423Y-124309789D01*
X169622465Y-124331826D01*
X169605324Y-124352962D01*
X169587002Y-124373197D01*
X169567642Y-124392318D01*
X169547388Y-124410205D01*
X169526242Y-124426859D01*
X169504203Y-124442279D01*
X169481271Y-124456466D01*
X169457446Y-124469419D01*
X169432728Y-124481138D01*
X169407117Y-124491624D01*
X169380613Y-124500876D01*
X169353215Y-124508895D01*
X169324925Y-124515680D01*
X169310445Y-124518609D01*
X169295742Y-124521231D01*
X169280816Y-124523544D01*
X169265666Y-124525549D01*
X169250293Y-124527245D01*
X169234697Y-124528633D01*
X169218877Y-124529712D01*
X169202834Y-124530483D01*
X169186568Y-124530946D01*
X169170079Y-124531100D01*
X169157045Y-124531007D01*
X169137557Y-124530518D01*
X169118147Y-124529611D01*
X169098814Y-124528286D01*
X169079558Y-124526542D01*
X169060380Y-124524379D01*
X169041279Y-124521798D01*
X169022255Y-124518798D01*
X169003309Y-124515379D01*
X168984440Y-124511542D01*
X168965648Y-124507286D01*
X168953156Y-124504202D01*
X168934455Y-124499345D01*
X168915799Y-124494212D01*
X168897189Y-124488801D01*
X168878623Y-124483113D01*
X168860103Y-124477149D01*
X168841628Y-124470907D01*
X168823198Y-124464389D01*
X168804812Y-124457594D01*
X168786472Y-124450521D01*
X168768177Y-124443172D01*
X168768177Y-124261089D01*
X168779881Y-124266761D01*
X168797533Y-124275070D01*
X168815301Y-124283140D01*
X168833185Y-124290972D01*
X168851185Y-124298566D01*
X168869300Y-124305921D01*
X168887532Y-124313039D01*
X168905880Y-124319918D01*
X168924343Y-124326558D01*
X168942923Y-124332961D01*
X168961618Y-124339125D01*
X168974146Y-124343029D01*
X168993034Y-124348413D01*
X169012039Y-124353230D01*
X169031159Y-124357480D01*
X169050395Y-124361164D01*
X169069748Y-124364281D01*
X169089216Y-124366831D01*
X169108800Y-124368815D01*
X169128500Y-124370232D01*
X169148315Y-124371082D01*
X169168247Y-124371365D01*
X169190976Y-124370964D01*
X169213001Y-124369762D01*
X169234322Y-124367759D01*
X169254938Y-124364954D01*
X169274851Y-124361347D01*
X169294059Y-124356939D01*
X169312563Y-124351730D01*
X169330363Y-124345719D01*
X169347460Y-124338907D01*
X169363851Y-124331294D01*
X169379539Y-124322879D01*
X169394523Y-124313663D01*
X169408803Y-124303645D01*
X169422378Y-124292826D01*
X169435250Y-124281205D01*
X169447417Y-124268783D01*
X169458819Y-124255685D01*
X169469485Y-124242038D01*
X169479415Y-124227842D01*
X169488610Y-124213096D01*
X169497069Y-124197800D01*
X169504793Y-124181955D01*
X169511781Y-124165560D01*
X169518034Y-124148616D01*
X169523550Y-124131122D01*
X169528332Y-124113078D01*
X169532378Y-124094485D01*
X169535688Y-124075343D01*
X169538262Y-124055651D01*
X169540101Y-124035409D01*
X169541205Y-124014618D01*
X169541572Y-123993277D01*
X169541572Y-123987415D01*
X168724214Y-123987415D01*
X168724214Y-123894359D01*
X168724338Y-123878075D01*
X168724709Y-123862014D01*
X168725328Y-123846176D01*
X168726194Y-123830560D01*
X168726403Y-123827680D01*
X168912891Y-123827680D01*
X169534245Y-123827680D01*
X169532848Y-123816206D01*
X169530324Y-123799241D01*
X169527284Y-123782572D01*
X169523729Y-123766199D01*
X169519659Y-123750123D01*
X169515074Y-123734343D01*
X169509974Y-123718859D01*
X169504358Y-123703671D01*
X169498227Y-123688780D01*
X169491581Y-123674185D01*
X169484420Y-123659886D01*
X169479355Y-123650572D01*
X169471312Y-123637052D01*
X169462735Y-123624073D01*
X169453624Y-123611636D01*
X169443978Y-123599739D01*
X169433797Y-123588383D01*
X169423082Y-123577568D01*
X169411833Y-123567294D01*
X169400049Y-123557561D01*
X169387730Y-123548369D01*
X169374877Y-123539718D01*
X169365951Y-123534306D01*
X169352063Y-123526842D01*
X169337576Y-123520163D01*
X169322491Y-123514271D01*
X169306806Y-123509164D01*
X169290522Y-123504843D01*
X169273640Y-123501307D01*
X169256159Y-123498557D01*
X169238078Y-123496593D01*
X169219399Y-123495414D01*
X169200121Y-123495022D01*
X169193681Y-123495065D01*
X169174836Y-123495714D01*
X169156706Y-123497143D01*
X169139292Y-123499351D01*
X169122592Y-123502338D01*
X169106606Y-123506104D01*
X169091336Y-123510650D01*
X169076781Y-123515975D01*
X169062940Y-123522079D01*
X169049814Y-123528962D01*
X169033425Y-123539352D01*
X169025683Y-123544970D01*
X169011005Y-123556946D01*
X168997404Y-123569906D01*
X168984879Y-123583851D01*
X168973430Y-123598780D01*
X168963058Y-123614694D01*
X168953761Y-123631593D01*
X168947495Y-123644913D01*
X168941834Y-123658786D01*
X168938329Y-123668290D01*
X168933496Y-123682809D01*
X168929172Y-123697644D01*
X168925356Y-123712794D01*
X168922049Y-123728260D01*
X168919251Y-123744041D01*
X168916961Y-123760138D01*
X168915181Y-123776550D01*
X168913909Y-123793278D01*
X168913146Y-123810321D01*
X168912891Y-123827680D01*
X168726403Y-123827680D01*
X168727309Y-123815166D01*
X168728670Y-123799996D01*
X168730280Y-123785047D01*
X168732136Y-123770322D01*
X168736593Y-123741538D01*
X168742040Y-123713644D01*
X168748477Y-123686640D01*
X168755904Y-123660527D01*
X168764322Y-123635303D01*
X168773730Y-123610970D01*
X168784129Y-123587527D01*
X168795517Y-123564974D01*
X168807897Y-123543312D01*
X168821266Y-123522539D01*
X168835626Y-123502657D01*
X168850976Y-123483664D01*
X168867179Y-123465697D01*
X168884189Y-123448888D01*
X168902006Y-123433239D01*
X168920631Y-123418749D01*
X168940062Y-123405418D01*
X168960301Y-123393247D01*
X168981347Y-123382234D01*
X169003200Y-123372381D01*
X169025860Y-123363687D01*
X169049328Y-123356152D01*
X169073602Y-123349777D01*
X169098684Y-123344560D01*
X169124573Y-123340503D01*
X169151269Y-123337605D01*
X169178772Y-123335866D01*
X169207082Y-123335287D01*
X169228662Y-123335603D01*
G37*
G36*
X168292637Y-123358734D02*
G01*
X168121178Y-123358734D01*
X168102860Y-123586246D01*
X168096626Y-123571308D01*
X168090014Y-123556811D01*
X168083025Y-123542755D01*
X168075657Y-123529139D01*
X168067912Y-123515965D01*
X168059789Y-123503231D01*
X168051288Y-123490937D01*
X168042410Y-123479085D01*
X168033153Y-123467673D01*
X168018560Y-123451382D01*
X168003117Y-123436083D01*
X167986824Y-123421775D01*
X167969681Y-123408460D01*
X167957780Y-123400133D01*
X167939241Y-123388545D01*
X167920033Y-123378096D01*
X167900155Y-123368787D01*
X167886530Y-123363214D01*
X167872609Y-123358148D01*
X167858389Y-123353588D01*
X167843872Y-123349535D01*
X167829057Y-123345989D01*
X167813945Y-123342949D01*
X167798534Y-123340416D01*
X167782826Y-123338390D01*
X167766821Y-123336870D01*
X167750518Y-123335857D01*
X167733917Y-123335350D01*
X167725505Y-123335287D01*
X167707971Y-123335543D01*
X167690723Y-123336312D01*
X167673762Y-123337592D01*
X167657086Y-123339386D01*
X167640697Y-123341691D01*
X167624594Y-123344509D01*
X167608778Y-123347839D01*
X167593247Y-123351682D01*
X167578003Y-123356037D01*
X167563045Y-123360904D01*
X167548373Y-123366283D01*
X167533988Y-123372175D01*
X167519889Y-123378579D01*
X167506075Y-123385496D01*
X167492549Y-123392925D01*
X167479308Y-123400866D01*
X167479308Y-123598703D01*
X167493343Y-123586148D01*
X167507695Y-123574402D01*
X167522366Y-123563467D01*
X167537354Y-123553342D01*
X167552660Y-123544027D01*
X167568283Y-123535522D01*
X167584224Y-123527827D01*
X167600483Y-123520942D01*
X167617060Y-123514867D01*
X167633954Y-123509602D01*
X167651166Y-123505147D01*
X167668695Y-123501502D01*
X167686543Y-123498667D01*
X167704708Y-123496642D01*
X167723191Y-123495427D01*
X167741991Y-123495022D01*
X167763474Y-123495461D01*
X167784323Y-123496779D01*
X167804541Y-123498976D01*
X167824125Y-123502051D01*
X167843078Y-123506005D01*
X167861397Y-123510838D01*
X167879084Y-123516550D01*
X167896139Y-123523140D01*
X167912561Y-123530609D01*
X167928350Y-123538957D01*
X167943507Y-123548183D01*
X167958032Y-123558288D01*
X167971923Y-123569272D01*
X167985183Y-123581134D01*
X167997809Y-123593876D01*
X168009803Y-123607495D01*
X168021072Y-123621937D01*
X168031614Y-123637142D01*
X168041428Y-123653112D01*
X168050516Y-123669846D01*
X168058876Y-123687344D01*
X168066510Y-123705607D01*
X168073416Y-123724633D01*
X168079596Y-123744424D01*
X168085048Y-123764979D01*
X168089774Y-123786298D01*
X168093772Y-123808382D01*
X168097044Y-123831230D01*
X168099588Y-123854841D01*
X168101406Y-123879218D01*
X168102496Y-123904358D01*
X168102860Y-123930262D01*
X168102860Y-124507653D01*
X168292637Y-124507653D01*
X168292637Y-123358734D01*
G37*
G36*
X166802633Y-123147708D02*
G01*
X166817510Y-123145332D01*
X166829080Y-123135973D01*
X166833288Y-123121304D01*
X166833408Y-123117666D01*
X166833408Y-122943277D01*
X166830973Y-122928755D01*
X166821386Y-122917460D01*
X166806360Y-122913353D01*
X166802633Y-122913235D01*
X166654988Y-122913235D01*
X166640112Y-122915612D01*
X166628541Y-122924970D01*
X166624334Y-122939639D01*
X166624214Y-122943277D01*
X166624214Y-123117666D01*
X166626648Y-123132189D01*
X166636235Y-123143484D01*
X166651262Y-123147591D01*
X166654988Y-123147708D01*
X166802633Y-123147708D01*
G37*
G36*
X166458251Y-124507653D02*
G01*
X166479109Y-124507235D01*
X166499369Y-124505981D01*
X166519031Y-124503892D01*
X166538095Y-124500966D01*
X166556561Y-124497205D01*
X166574428Y-124492609D01*
X166591698Y-124487176D01*
X166608369Y-124480908D01*
X166624441Y-124473804D01*
X166639916Y-124465864D01*
X166654792Y-124457089D01*
X166669070Y-124447477D01*
X166682750Y-124437030D01*
X166695832Y-124425747D01*
X166708316Y-124413629D01*
X166720201Y-124400674D01*
X166731425Y-124386961D01*
X166741925Y-124372567D01*
X166751701Y-124357492D01*
X166760753Y-124341735D01*
X166769081Y-124325298D01*
X166776684Y-124308179D01*
X166783564Y-124290378D01*
X166789719Y-124271897D01*
X166795150Y-124252735D01*
X166799857Y-124232891D01*
X166803840Y-124212366D01*
X166807098Y-124191160D01*
X166809633Y-124169272D01*
X166811443Y-124146704D01*
X166812529Y-124123454D01*
X166812891Y-124099523D01*
X166812891Y-123518469D01*
X167064217Y-123518469D01*
X167064217Y-123358734D01*
X166624214Y-123358734D01*
X166624214Y-124093661D01*
X166624031Y-124108911D01*
X166623481Y-124123703D01*
X166621970Y-124145032D01*
X166619634Y-124165331D01*
X166616474Y-124184599D01*
X166612490Y-124202837D01*
X166607682Y-124220045D01*
X166602049Y-124236222D01*
X166595592Y-124251369D01*
X166588310Y-124265486D01*
X166580204Y-124278572D01*
X166577319Y-124282705D01*
X166568078Y-124294359D01*
X166554574Y-124308115D01*
X166539719Y-124319833D01*
X166523513Y-124329513D01*
X166505956Y-124337155D01*
X166491902Y-124341549D01*
X166477088Y-124344797D01*
X166461514Y-124346899D01*
X166445180Y-124347854D01*
X166439566Y-124347918D01*
X166219381Y-124347918D01*
X166219381Y-124507653D01*
X166458251Y-124507653D01*
G37*
G36*
X165477203Y-123335376D02*
G01*
X165495942Y-123335841D01*
X165514611Y-123336706D01*
X165533209Y-123337971D01*
X165551735Y-123339635D01*
X165570191Y-123341697D01*
X165588576Y-123344160D01*
X165606891Y-123347021D01*
X165625134Y-123350282D01*
X165643307Y-123353942D01*
X165661408Y-123358001D01*
X165673446Y-123360888D01*
X165691474Y-123365395D01*
X165709471Y-123370114D01*
X165727435Y-123375046D01*
X165745367Y-123380191D01*
X165763267Y-123385548D01*
X165781135Y-123391117D01*
X165798971Y-123396899D01*
X165816774Y-123402894D01*
X165834545Y-123409101D01*
X165852284Y-123415521D01*
X165852284Y-123604565D01*
X165841333Y-123598196D01*
X165824714Y-123588976D01*
X165807863Y-123580156D01*
X165790779Y-123571734D01*
X165773464Y-123563712D01*
X165755918Y-123556089D01*
X165738139Y-123548866D01*
X165720128Y-123542042D01*
X165701886Y-123535617D01*
X165683412Y-123529591D01*
X165664706Y-123523964D01*
X165652098Y-123520460D01*
X165633132Y-123515626D01*
X165614102Y-123511302D01*
X165595007Y-123507486D01*
X165575848Y-123504179D01*
X165556625Y-123501381D01*
X165537337Y-123499092D01*
X165517985Y-123497311D01*
X165498568Y-123496039D01*
X165479087Y-123495276D01*
X165459542Y-123495022D01*
X165442969Y-123495242D01*
X165426867Y-123495903D01*
X165411233Y-123497005D01*
X165396069Y-123498548D01*
X165374203Y-123501688D01*
X165353393Y-123505821D01*
X165333640Y-123510945D01*
X165314942Y-123517061D01*
X165297301Y-123524168D01*
X165280716Y-123532268D01*
X165265187Y-123541359D01*
X165250714Y-123551442D01*
X165246139Y-123555053D01*
X165233283Y-123566909D01*
X165221735Y-123580298D01*
X165211495Y-123595219D01*
X165202561Y-123611674D01*
X165194935Y-123629661D01*
X165188616Y-123649180D01*
X165183605Y-123670233D01*
X165180990Y-123685119D01*
X165178957Y-123700687D01*
X165177504Y-123716935D01*
X165176633Y-123733865D01*
X165176342Y-123751477D01*
X165176342Y-123780786D01*
X165429866Y-123780786D01*
X165446202Y-123780917D01*
X165462421Y-123781312D01*
X165478523Y-123781971D01*
X165494507Y-123782892D01*
X165510373Y-123784077D01*
X165526123Y-123785526D01*
X165541755Y-123787237D01*
X165557269Y-123789212D01*
X165572667Y-123791450D01*
X165587947Y-123793952D01*
X165603109Y-123796717D01*
X165618155Y-123799745D01*
X165633083Y-123803037D01*
X165647893Y-123806592D01*
X165662586Y-123810410D01*
X165677162Y-123814491D01*
X165684355Y-123816646D01*
X165698483Y-123821246D01*
X165712267Y-123826232D01*
X165732300Y-123834435D01*
X165751560Y-123843508D01*
X165770047Y-123853450D01*
X165787761Y-123864262D01*
X165804703Y-123875943D01*
X165820871Y-123888494D01*
X165836267Y-123901914D01*
X165850890Y-123916203D01*
X165864741Y-123931362D01*
X165873392Y-123941966D01*
X165885322Y-123958828D01*
X165895996Y-123976836D01*
X165905415Y-123995991D01*
X165913577Y-124016292D01*
X165918321Y-124030463D01*
X165922507Y-124045143D01*
X165926135Y-124060333D01*
X165929205Y-124076032D01*
X165931717Y-124092241D01*
X165933670Y-124108959D01*
X165935065Y-124126187D01*
X165935903Y-124143924D01*
X165936182Y-124162171D01*
X165935759Y-124184149D01*
X165934493Y-124205476D01*
X165932382Y-124226155D01*
X165929427Y-124246183D01*
X165925627Y-124265562D01*
X165920983Y-124284291D01*
X165915495Y-124302370D01*
X165909162Y-124319799D01*
X165901985Y-124336579D01*
X165893964Y-124352709D01*
X165885098Y-124368189D01*
X165875388Y-124383020D01*
X165864834Y-124397201D01*
X165853435Y-124410732D01*
X165841192Y-124423613D01*
X165828104Y-124435845D01*
X165814367Y-124447380D01*
X165800175Y-124458170D01*
X165785527Y-124468217D01*
X165770425Y-124477519D01*
X165754867Y-124486077D01*
X165738854Y-124493891D01*
X165722387Y-124500961D01*
X165705464Y-124507286D01*
X165688086Y-124512867D01*
X165670253Y-124517705D01*
X165651965Y-124521798D01*
X165633221Y-124525146D01*
X165614023Y-124527751D01*
X165594370Y-124529611D01*
X165574261Y-124530728D01*
X165553697Y-124531100D01*
X165538905Y-124530904D01*
X165524205Y-124530316D01*
X165502326Y-124528698D01*
X165480653Y-124526198D01*
X165459187Y-124522816D01*
X165437926Y-124518552D01*
X165416872Y-124513405D01*
X165396023Y-124507376D01*
X165375381Y-124500465D01*
X165354945Y-124492672D01*
X165341435Y-124486986D01*
X165328017Y-124480908D01*
X165321354Y-124477719D01*
X165301914Y-124467530D01*
X165283298Y-124456407D01*
X165265506Y-124444350D01*
X165248539Y-124431360D01*
X165232396Y-124417435D01*
X165217077Y-124402577D01*
X165202583Y-124386785D01*
X165188913Y-124370059D01*
X165176067Y-124352400D01*
X165167962Y-124340108D01*
X165160222Y-124327401D01*
X165158177Y-124341432D01*
X165155464Y-124358433D01*
X165152467Y-124375615D01*
X165149754Y-124390071D01*
X165146843Y-124404652D01*
X165143736Y-124419359D01*
X165141748Y-124428103D01*
X165138149Y-124442463D01*
X165133357Y-124459340D01*
X165128051Y-124475830D01*
X165122229Y-124491935D01*
X165115892Y-124507653D01*
X164926482Y-124507653D01*
X164931227Y-124496284D01*
X164937938Y-124478844D01*
X164944159Y-124460941D01*
X164949890Y-124442574D01*
X164955133Y-124423744D01*
X164959885Y-124404449D01*
X164964149Y-124384691D01*
X164967922Y-124364470D01*
X164971207Y-124343785D01*
X164974002Y-124322636D01*
X164976307Y-124301023D01*
X164977594Y-124286540D01*
X164979368Y-124265116D01*
X164980956Y-124244053D01*
X164982356Y-124223351D01*
X164983570Y-124203009D01*
X164984597Y-124183028D01*
X164985438Y-124163407D01*
X164986091Y-124144148D01*
X164986558Y-124125248D01*
X164986838Y-124106710D01*
X164986932Y-124088532D01*
X164986932Y-123940521D01*
X165176342Y-123940521D01*
X165176342Y-123980821D01*
X165176475Y-123993546D01*
X165177174Y-124012441D01*
X165178472Y-124031104D01*
X165180368Y-124049535D01*
X165182864Y-124067735D01*
X165185958Y-124085702D01*
X165189652Y-124103438D01*
X165193944Y-124120942D01*
X165198835Y-124138214D01*
X165204325Y-124155254D01*
X165210414Y-124172063D01*
X165214782Y-124183059D01*
X165221913Y-124199061D01*
X165229740Y-124214469D01*
X165238262Y-124229286D01*
X165247480Y-124243510D01*
X165257393Y-124257141D01*
X165268002Y-124270180D01*
X165279306Y-124282626D01*
X165291306Y-124294480D01*
X165304002Y-124305741D01*
X165317392Y-124316410D01*
X165326722Y-124323065D01*
X165341355Y-124332242D01*
X165356754Y-124340453D01*
X165372919Y-124347698D01*
X165389851Y-124353977D01*
X165407549Y-124359290D01*
X165426014Y-124363637D01*
X165445245Y-124367018D01*
X165465242Y-124369433D01*
X165486005Y-124370882D01*
X165507535Y-124371365D01*
X165520750Y-124371163D01*
X165539982Y-124370104D01*
X165558506Y-124368136D01*
X165576321Y-124365261D01*
X165593428Y-124361477D01*
X165609826Y-124356786D01*
X165625516Y-124351186D01*
X165640498Y-124344679D01*
X165654771Y-124337263D01*
X165668336Y-124328939D01*
X165681192Y-124319708D01*
X165689222Y-124313044D01*
X165700296Y-124302277D01*
X165710204Y-124290582D01*
X165718946Y-124277959D01*
X165726523Y-124264410D01*
X165732934Y-124249932D01*
X165738179Y-124234528D01*
X165742259Y-124218196D01*
X165745173Y-124200937D01*
X165746921Y-124182750D01*
X165747504Y-124163636D01*
X165747069Y-124146715D01*
X165745765Y-124130574D01*
X165743592Y-124115211D01*
X165740549Y-124100628D01*
X165735139Y-124082395D01*
X165728184Y-124065548D01*
X165719683Y-124050086D01*
X165709637Y-124036010D01*
X165698045Y-124023319D01*
X165685176Y-124011715D01*
X165671483Y-124001085D01*
X165656966Y-123991428D01*
X165641625Y-123982744D01*
X165625459Y-123975033D01*
X165608469Y-123968296D01*
X165590654Y-123962531D01*
X165572016Y-123957740D01*
X165562431Y-123955655D01*
X165548007Y-123952779D01*
X165533524Y-123950206D01*
X165518984Y-123947936D01*
X165504386Y-123945969D01*
X165489729Y-123944304D01*
X165475015Y-123942942D01*
X165460243Y-123941883D01*
X165445412Y-123941126D01*
X165430524Y-123940672D01*
X165415578Y-123940521D01*
X165176342Y-123940521D01*
X164986932Y-123940521D01*
X164986932Y-123854425D01*
X164986995Y-123835718D01*
X164987184Y-123817605D01*
X164987499Y-123800089D01*
X164987939Y-123783167D01*
X164988506Y-123766841D01*
X164989199Y-123751110D01*
X164990017Y-123735975D01*
X164991481Y-123714388D01*
X164993229Y-123694141D01*
X164995259Y-123675233D01*
X164997574Y-123657664D01*
X165000171Y-123641436D01*
X165003052Y-123626546D01*
X165006212Y-123613299D01*
X165011639Y-123594066D01*
X165017890Y-123575599D01*
X165024965Y-123557899D01*
X165032865Y-123540965D01*
X165041589Y-123524797D01*
X165051137Y-123509396D01*
X165061510Y-123494761D01*
X165072707Y-123480892D01*
X165084728Y-123467790D01*
X165097574Y-123455454D01*
X165106515Y-123447582D01*
X165120314Y-123436304D01*
X165134577Y-123425664D01*
X165149303Y-123415662D01*
X165164493Y-123406297D01*
X165180146Y-123397570D01*
X165196263Y-123389480D01*
X165212844Y-123382028D01*
X165229889Y-123375213D01*
X165247397Y-123369036D01*
X165265369Y-123363497D01*
X165277482Y-123360081D01*
X165295737Y-123355370D01*
X165314095Y-123351155D01*
X165332556Y-123347436D01*
X165351121Y-123344213D01*
X165369788Y-123341485D01*
X165388559Y-123339254D01*
X165407432Y-123337518D01*
X165426409Y-123336279D01*
X165445488Y-123335535D01*
X165464671Y-123335287D01*
X165477203Y-123335376D01*
G37*
G36*
X164402214Y-124798546D02*
G01*
X164386767Y-124791380D01*
X164371796Y-124783987D01*
X164357301Y-124776367D01*
X164343281Y-124768521D01*
X164329738Y-124760448D01*
X164316670Y-124752148D01*
X164304078Y-124743621D01*
X164291962Y-124734867D01*
X164280321Y-124725886D01*
X164258468Y-124707245D01*
X164238519Y-124687696D01*
X164220472Y-124667240D01*
X164204329Y-124645876D01*
X164190090Y-124623605D01*
X164177754Y-124600427D01*
X164167321Y-124576341D01*
X164158792Y-124551348D01*
X164152165Y-124525448D01*
X164147443Y-124498640D01*
X164144624Y-124470926D01*
X164143928Y-124456728D01*
X164158529Y-124459022D01*
X164173864Y-124460439D01*
X164184960Y-124460758D01*
X164201951Y-124460145D01*
X164218116Y-124458308D01*
X164233458Y-124455245D01*
X164247975Y-124450958D01*
X164261668Y-124445445D01*
X164277625Y-124436831D01*
X164292294Y-124426304D01*
X164297801Y-124421557D01*
X164308362Y-124411167D01*
X164319584Y-124396779D01*
X164328605Y-124380835D01*
X164334238Y-124366959D01*
X164338463Y-124352087D01*
X164341279Y-124336218D01*
X164342687Y-124319354D01*
X164342863Y-124310549D01*
X164342177Y-124294108D01*
X164340116Y-124278125D01*
X164336681Y-124262601D01*
X164331873Y-124247534D01*
X164325347Y-124233062D01*
X164317126Y-124219690D01*
X164307212Y-124207417D01*
X164295602Y-124196243D01*
X164283251Y-124187021D01*
X164269276Y-124178726D01*
X164255491Y-124172132D01*
X164244311Y-124167666D01*
X164228558Y-124162537D01*
X164214172Y-124159252D01*
X164199226Y-124157088D01*
X164183718Y-124156046D01*
X164176900Y-124155943D01*
X164160893Y-124156551D01*
X164145568Y-124158377D01*
X164130925Y-124161420D01*
X164112464Y-124167371D01*
X164095216Y-124175485D01*
X164079182Y-124185763D01*
X164064361Y-124198205D01*
X164054042Y-124208957D01*
X164044406Y-124220926D01*
X164041346Y-124225186D01*
X164032965Y-124238446D01*
X164025409Y-124252672D01*
X164018677Y-124267864D01*
X164012769Y-124284021D01*
X164007686Y-124301145D01*
X164003427Y-124319235D01*
X163999992Y-124338291D01*
X163997382Y-124358313D01*
X163995596Y-124379301D01*
X163994634Y-124401255D01*
X163994451Y-124416428D01*
X163994819Y-124437864D01*
X163995922Y-124458943D01*
X163997761Y-124479664D01*
X164000336Y-124500028D01*
X164003646Y-124520033D01*
X164007692Y-124539681D01*
X164012473Y-124558971D01*
X164017990Y-124577903D01*
X164024242Y-124596477D01*
X164031231Y-124614694D01*
X164038954Y-124632553D01*
X164047414Y-124650054D01*
X164056608Y-124667197D01*
X164066539Y-124683982D01*
X164077205Y-124700410D01*
X164088607Y-124716480D01*
X164100725Y-124731899D01*
X164113451Y-124746831D01*
X164126783Y-124761277D01*
X164140722Y-124775236D01*
X164155268Y-124788708D01*
X164170420Y-124801694D01*
X164186180Y-124814193D01*
X164202546Y-124826206D01*
X164219519Y-124837732D01*
X164237099Y-124848772D01*
X164255285Y-124859325D01*
X164274079Y-124869391D01*
X164293479Y-124878971D01*
X164313486Y-124888065D01*
X164334099Y-124896671D01*
X164355320Y-124904791D01*
X164402214Y-124798546D01*
G37*
G36*
X162088258Y-124507653D02*
G01*
X161917898Y-124507653D01*
X161899580Y-124357077D01*
X161886797Y-124378150D01*
X161873087Y-124397863D01*
X161858450Y-124416217D01*
X161842885Y-124433212D01*
X161826393Y-124448847D01*
X161808974Y-124463122D01*
X161790627Y-124476038D01*
X161771353Y-124487594D01*
X161751151Y-124497791D01*
X161730022Y-124506628D01*
X161707966Y-124514105D01*
X161684982Y-124520223D01*
X161661071Y-124524982D01*
X161636233Y-124528381D01*
X161610467Y-124530420D01*
X161583774Y-124531100D01*
X161576119Y-124531048D01*
X161561038Y-124530636D01*
X161546263Y-124529812D01*
X161524675Y-124527803D01*
X161503776Y-124524866D01*
X161483566Y-124521002D01*
X161464046Y-124516211D01*
X161445214Y-124510492D01*
X161427071Y-124503846D01*
X161409618Y-124496272D01*
X161392854Y-124487772D01*
X161376778Y-124478343D01*
X161366377Y-124471570D01*
X161351269Y-124460911D01*
X161336753Y-124449652D01*
X161322830Y-124437795D01*
X161309499Y-124425339D01*
X161296761Y-124412284D01*
X161284615Y-124398631D01*
X161273061Y-124384378D01*
X161262101Y-124369526D01*
X161251732Y-124354075D01*
X161241956Y-124338026D01*
X161235702Y-124327008D01*
X161226740Y-124310207D01*
X161218280Y-124293078D01*
X161210322Y-124275620D01*
X161202867Y-124257834D01*
X161195914Y-124239719D01*
X161189463Y-124221276D01*
X161183515Y-124202504D01*
X161178069Y-124183404D01*
X161173125Y-124163976D01*
X161168683Y-124144219D01*
X161165933Y-124130936D01*
X161162140Y-124110999D01*
X161158746Y-124091051D01*
X161155751Y-124071089D01*
X161153156Y-124051114D01*
X161150960Y-124031126D01*
X161149163Y-124011126D01*
X161147766Y-123991113D01*
X161146767Y-123971086D01*
X161146168Y-123951047D01*
X161145991Y-123933193D01*
X161344905Y-123933193D01*
X161345065Y-123950527D01*
X161345546Y-123968090D01*
X161346347Y-123985881D01*
X161347469Y-124003902D01*
X161348912Y-124022151D01*
X161350675Y-124040630D01*
X161352759Y-124059337D01*
X161355163Y-124078274D01*
X161358008Y-124097181D01*
X161361414Y-124115803D01*
X161365381Y-124134138D01*
X161369909Y-124152188D01*
X161374998Y-124169951D01*
X161380648Y-124187427D01*
X161386859Y-124204618D01*
X161393631Y-124221522D01*
X161401101Y-124237802D01*
X161409408Y-124253304D01*
X161418550Y-124268027D01*
X161428527Y-124281972D01*
X161439341Y-124295138D01*
X161450990Y-124307526D01*
X161463475Y-124319135D01*
X161476796Y-124329966D01*
X161490998Y-124339669D01*
X161506311Y-124348078D01*
X161522734Y-124355193D01*
X161540268Y-124361015D01*
X161558913Y-124365543D01*
X161573625Y-124368090D01*
X161588962Y-124369910D01*
X161604923Y-124371001D01*
X161621510Y-124371365D01*
X161637968Y-124371001D01*
X161653821Y-124369910D01*
X161669069Y-124368090D01*
X161683711Y-124365543D01*
X161702293Y-124361015D01*
X161719798Y-124355193D01*
X161736227Y-124348078D01*
X161751580Y-124339669D01*
X161765857Y-124329966D01*
X161779109Y-124319141D01*
X161791571Y-124307549D01*
X161803244Y-124295190D01*
X161814126Y-124282064D01*
X161824218Y-124268170D01*
X161833520Y-124253510D01*
X161842032Y-124238083D01*
X161849755Y-124221888D01*
X161856784Y-124205064D01*
X161863218Y-124187931D01*
X161869057Y-124170489D01*
X161874301Y-124152737D01*
X161878949Y-124134676D01*
X161883002Y-124116307D01*
X161886460Y-124097628D01*
X161889322Y-124078640D01*
X161891726Y-124059600D01*
X161893810Y-124040767D01*
X161895573Y-124022140D01*
X161897016Y-124003718D01*
X161898138Y-123985503D01*
X161898939Y-123967494D01*
X161899420Y-123949691D01*
X161899580Y-123932094D01*
X161899420Y-123914755D01*
X161898939Y-123897175D01*
X161898138Y-123879355D01*
X161897016Y-123861294D01*
X161895573Y-123842993D01*
X161893810Y-123824452D01*
X161891726Y-123805670D01*
X161889322Y-123786648D01*
X161886460Y-123767671D01*
X161883002Y-123749027D01*
X161878949Y-123730714D01*
X161874301Y-123712734D01*
X161869057Y-123695085D01*
X161863218Y-123677769D01*
X161856784Y-123660784D01*
X161849755Y-123644132D01*
X161842032Y-123628029D01*
X161833520Y-123612693D01*
X161824218Y-123598125D01*
X161814126Y-123584323D01*
X161803244Y-123571288D01*
X161791571Y-123559021D01*
X161779109Y-123547521D01*
X161765857Y-123536787D01*
X161751580Y-123526998D01*
X161736227Y-123518515D01*
X161719798Y-123511336D01*
X161702293Y-123505463D01*
X161683711Y-123500895D01*
X161669069Y-123498325D01*
X161653821Y-123496490D01*
X161637968Y-123495389D01*
X161621510Y-123495022D01*
X161604923Y-123495389D01*
X161588962Y-123496490D01*
X161573625Y-123498325D01*
X161558913Y-123500895D01*
X161540268Y-123505463D01*
X161522734Y-123511336D01*
X161506311Y-123518515D01*
X161490998Y-123526998D01*
X161476796Y-123536787D01*
X161463475Y-123547532D01*
X161450990Y-123559067D01*
X161439341Y-123571391D01*
X161428527Y-123584506D01*
X161418550Y-123598411D01*
X161409408Y-123613105D01*
X161401101Y-123628590D01*
X161393631Y-123644865D01*
X161386859Y-123661603D01*
X161380648Y-123678662D01*
X161374998Y-123696041D01*
X161369909Y-123713741D01*
X161365381Y-123731762D01*
X161361414Y-123750103D01*
X161358008Y-123768764D01*
X161355163Y-123787747D01*
X161352759Y-123806769D01*
X161350675Y-123825551D01*
X161348912Y-123844092D01*
X161347469Y-123862393D01*
X161346347Y-123880454D01*
X161345546Y-123898274D01*
X161345065Y-123915854D01*
X161344905Y-123933193D01*
X161145991Y-123933193D01*
X161145969Y-123930995D01*
X161146055Y-123917805D01*
X161146505Y-123898013D01*
X161147343Y-123878216D01*
X161148566Y-123858412D01*
X161150176Y-123838601D01*
X161152173Y-123818784D01*
X161154555Y-123798961D01*
X161157325Y-123779131D01*
X161160480Y-123759295D01*
X161164022Y-123739452D01*
X161167951Y-123719603D01*
X161170811Y-123706442D01*
X161175527Y-123686981D01*
X161180751Y-123667854D01*
X161186483Y-123649062D01*
X161192725Y-123630605D01*
X161199475Y-123612483D01*
X161206734Y-123594696D01*
X161214501Y-123577243D01*
X161222778Y-123560126D01*
X161231563Y-123543343D01*
X161240857Y-123526895D01*
X161247309Y-123516176D01*
X161257480Y-123500602D01*
X161268243Y-123485634D01*
X161279599Y-123471270D01*
X161291547Y-123457512D01*
X161304088Y-123444360D01*
X161317221Y-123431812D01*
X161330947Y-123419870D01*
X161345265Y-123408534D01*
X161360176Y-123397803D01*
X161375679Y-123387677D01*
X161386320Y-123381333D01*
X161402854Y-123372584D01*
X161420078Y-123364756D01*
X161437991Y-123357849D01*
X161456593Y-123351863D01*
X161475884Y-123346798D01*
X161495864Y-123342654D01*
X161516533Y-123339431D01*
X161537891Y-123337129D01*
X161552513Y-123336105D01*
X161567441Y-123335491D01*
X161582675Y-123335287D01*
X161595555Y-123335460D01*
X161614574Y-123336369D01*
X161633233Y-123338057D01*
X161651531Y-123340525D01*
X161669469Y-123343772D01*
X161687046Y-123347798D01*
X161704262Y-123352603D01*
X161721118Y-123358188D01*
X161737613Y-123364552D01*
X161753747Y-123371695D01*
X161769521Y-123379617D01*
X161779732Y-123385301D01*
X161794528Y-123394536D01*
X161808699Y-123404621D01*
X161822245Y-123415556D01*
X161835167Y-123427342D01*
X161847464Y-123439977D01*
X161859137Y-123453462D01*
X161870185Y-123467798D01*
X161880608Y-123482983D01*
X161890406Y-123499019D01*
X161899580Y-123515904D01*
X161899580Y-122913235D01*
X162088258Y-122913235D01*
X162088258Y-124507653D01*
G37*
G36*
X160834193Y-124793417D02*
G01*
X160722452Y-124793417D01*
X160707193Y-124793004D01*
X160687890Y-124791173D01*
X160669778Y-124787875D01*
X160652857Y-124783113D01*
X160637126Y-124776884D01*
X160622586Y-124769191D01*
X160609237Y-124760032D01*
X160597078Y-124749407D01*
X160594224Y-124746522D01*
X160581339Y-124731249D01*
X160571231Y-124716819D01*
X160560743Y-124699839D01*
X160549876Y-124680309D01*
X160542420Y-124665872D01*
X160534795Y-124650301D01*
X160527001Y-124633597D01*
X160519038Y-124615760D01*
X160510907Y-124596789D01*
X160502606Y-124576685D01*
X160494137Y-124555447D01*
X160485499Y-124533076D01*
X160476692Y-124509572D01*
X160472225Y-124497394D01*
X160916258Y-123358734D01*
X160716224Y-123358734D01*
X160375871Y-124266218D01*
X160040648Y-123358734D01*
X159840613Y-123358734D01*
X160143230Y-124142387D01*
X160149878Y-124159623D01*
X160156359Y-124176433D01*
X160162672Y-124192819D01*
X160168818Y-124208779D01*
X160174797Y-124224315D01*
X160180608Y-124239425D01*
X160186251Y-124254111D01*
X160191727Y-124268371D01*
X160197036Y-124282206D01*
X160203854Y-124299992D01*
X160205512Y-124304320D01*
X160211316Y-124318694D01*
X160217123Y-124333039D01*
X160218701Y-124336927D01*
X160223992Y-124351348D01*
X160229282Y-124366174D01*
X160229692Y-124367335D01*
X160234565Y-124381195D01*
X160239545Y-124395426D01*
X160244692Y-124410170D01*
X160249689Y-124424510D01*
X160250575Y-124427052D01*
X160263031Y-124460025D01*
X160268005Y-124473977D01*
X160275403Y-124494502D01*
X160282723Y-124514545D01*
X160289966Y-124534104D01*
X160297131Y-124553180D01*
X160304220Y-124571774D01*
X160311231Y-124589884D01*
X160318164Y-124607511D01*
X160325021Y-124624656D01*
X160331800Y-124641317D01*
X160338502Y-124657495D01*
X160345006Y-124673131D01*
X160351330Y-124688025D01*
X160357474Y-124702179D01*
X160363438Y-124715593D01*
X160371108Y-124732325D01*
X160378459Y-124747741D01*
X160385488Y-124761841D01*
X160393824Y-124777613D01*
X160398586Y-124786089D01*
X160410471Y-124806320D01*
X160423138Y-124825245D01*
X160436586Y-124842864D01*
X160450816Y-124859179D01*
X160465826Y-124874189D01*
X160481619Y-124887893D01*
X160498192Y-124900292D01*
X160515548Y-124911386D01*
X160533684Y-124921175D01*
X160552602Y-124929658D01*
X160572301Y-124936837D01*
X160592782Y-124942710D01*
X160614044Y-124947278D01*
X160636087Y-124950541D01*
X160658912Y-124952499D01*
X160682518Y-124953151D01*
X160834193Y-124953151D01*
X160834193Y-124793417D01*
G37*
G36*
X157827808Y-123147708D02*
G01*
X157842684Y-123145332D01*
X157854255Y-123135973D01*
X157858462Y-123121304D01*
X157858582Y-123117666D01*
X157858582Y-122943277D01*
X157856148Y-122928755D01*
X157846561Y-122917460D01*
X157831534Y-122913353D01*
X157827808Y-122913235D01*
X157680163Y-122913235D01*
X157665286Y-122915612D01*
X157653716Y-122924970D01*
X157649508Y-122939639D01*
X157649388Y-122943277D01*
X157649388Y-123117666D01*
X157651823Y-123132189D01*
X157661410Y-123143484D01*
X157676436Y-123147591D01*
X157680163Y-123147708D01*
X157827808Y-123147708D01*
G37*
G36*
X158252424Y-124793417D02*
G01*
X158012455Y-124793417D01*
X157990096Y-124792418D01*
X157969178Y-124789421D01*
X157949704Y-124784426D01*
X157931672Y-124777434D01*
X157915082Y-124768444D01*
X157899936Y-124757456D01*
X157886231Y-124744470D01*
X157873970Y-124729486D01*
X157863150Y-124712505D01*
X157853774Y-124693525D01*
X157845840Y-124672548D01*
X157839348Y-124649573D01*
X157834299Y-124624600D01*
X157830693Y-124597629D01*
X157828529Y-124568661D01*
X157827988Y-124553427D01*
X157827808Y-124537694D01*
X157827808Y-123518469D01*
X158152773Y-123518469D01*
X158152773Y-123358734D01*
X157639130Y-123358734D01*
X157639130Y-124534397D01*
X157639491Y-124559047D01*
X157640573Y-124582986D01*
X157642376Y-124606216D01*
X157644900Y-124628736D01*
X157648146Y-124650546D01*
X157652113Y-124671646D01*
X157656801Y-124692037D01*
X157662211Y-124711717D01*
X157668342Y-124730688D01*
X157675194Y-124748949D01*
X157682767Y-124766500D01*
X157691062Y-124783342D01*
X157700078Y-124799473D01*
X157709815Y-124814895D01*
X157720274Y-124829607D01*
X157731454Y-124843609D01*
X157743291Y-124856873D01*
X157755720Y-124869283D01*
X157768741Y-124880836D01*
X157782356Y-124891534D01*
X157796562Y-124901375D01*
X157811361Y-124910361D01*
X157826753Y-124918491D01*
X157842737Y-124925766D01*
X157859314Y-124932184D01*
X157876483Y-124937747D01*
X157894244Y-124942454D01*
X157912598Y-124946305D01*
X157931545Y-124949300D01*
X157951083Y-124951440D01*
X157971215Y-124952724D01*
X157991939Y-124953151D01*
X158252424Y-124953151D01*
X158252424Y-124793417D01*
G37*
G36*
X157021806Y-123808629D02*
G01*
X156180268Y-123808629D01*
X156180268Y-123968364D01*
X157021806Y-123968364D01*
X157021806Y-123808629D01*
G37*
G36*
X155969974Y-123358734D02*
G01*
X155783495Y-123358734D01*
X155583460Y-124287468D01*
X155419329Y-123694324D01*
X155258495Y-123694324D01*
X155092166Y-124287468D01*
X154892131Y-123358734D01*
X154705651Y-123358734D01*
X154974196Y-124507653D01*
X155154814Y-124507653D01*
X155338362Y-123880071D01*
X155520812Y-124507653D01*
X155701429Y-124507653D01*
X155969974Y-123358734D01*
G37*
G36*
X154495358Y-123808629D02*
G01*
X153653819Y-123808629D01*
X153653819Y-123968364D01*
X154495358Y-123968364D01*
X154495358Y-123808629D01*
G37*
G36*
X152806750Y-123335603D02*
G01*
X152827891Y-123336552D01*
X152848595Y-123338133D01*
X152868861Y-123340347D01*
X152888689Y-123343194D01*
X152908079Y-123346673D01*
X152927031Y-123350784D01*
X152945546Y-123355528D01*
X152963622Y-123360905D01*
X152981261Y-123366914D01*
X152998461Y-123373556D01*
X153015224Y-123380830D01*
X153031548Y-123388737D01*
X153047435Y-123397277D01*
X153062884Y-123406449D01*
X153077895Y-123416253D01*
X153092459Y-123426550D01*
X153106569Y-123437291D01*
X153120223Y-123448475D01*
X153133422Y-123460103D01*
X153146166Y-123472174D01*
X153158455Y-123484689D01*
X153170289Y-123497648D01*
X153181668Y-123511050D01*
X153192591Y-123524896D01*
X153203060Y-123539186D01*
X153213073Y-123553919D01*
X153222632Y-123569096D01*
X153231735Y-123584717D01*
X153240383Y-123600781D01*
X153248576Y-123617289D01*
X153256314Y-123634240D01*
X153263590Y-123651539D01*
X153270396Y-123669090D01*
X153276733Y-123686893D01*
X153282601Y-123704948D01*
X153287999Y-123723255D01*
X153292928Y-123741814D01*
X153297387Y-123760624D01*
X153301377Y-123779687D01*
X153304898Y-123799001D01*
X153307949Y-123818567D01*
X153310530Y-123838385D01*
X153312643Y-123858455D01*
X153314286Y-123878777D01*
X153315459Y-123899350D01*
X153316163Y-123920176D01*
X153316398Y-123941253D01*
X153316250Y-123958245D01*
X153315807Y-123975012D01*
X153315068Y-123991553D01*
X153314034Y-124007869D01*
X153312704Y-124023959D01*
X153311079Y-124039824D01*
X153309158Y-124055463D01*
X153306941Y-124070878D01*
X153304429Y-124086066D01*
X153301622Y-124101030D01*
X153298519Y-124115768D01*
X153295120Y-124130280D01*
X153287437Y-124158629D01*
X153278571Y-124186076D01*
X153268523Y-124212622D01*
X153257293Y-124238266D01*
X153244881Y-124263008D01*
X153231287Y-124286849D01*
X153216511Y-124309789D01*
X153200552Y-124331826D01*
X153183412Y-124352962D01*
X153165090Y-124373197D01*
X153145729Y-124392318D01*
X153125476Y-124410205D01*
X153104330Y-124426859D01*
X153082291Y-124442279D01*
X153059359Y-124456466D01*
X153035534Y-124469419D01*
X153010816Y-124481138D01*
X152985205Y-124491624D01*
X152958701Y-124500876D01*
X152931303Y-124508895D01*
X152903013Y-124515680D01*
X152888533Y-124518609D01*
X152873830Y-124521231D01*
X152858903Y-124523544D01*
X152843754Y-124525549D01*
X152828381Y-124527245D01*
X152812785Y-124528633D01*
X152796965Y-124529712D01*
X152780922Y-124530483D01*
X152764656Y-124530946D01*
X152748167Y-124531100D01*
X152735132Y-124531007D01*
X152715645Y-124530518D01*
X152696235Y-124529611D01*
X152676902Y-124528286D01*
X152657646Y-124526542D01*
X152638468Y-124524379D01*
X152619367Y-124521798D01*
X152600343Y-124518798D01*
X152581397Y-124515379D01*
X152562528Y-124511542D01*
X152543736Y-124507286D01*
X152531244Y-124504202D01*
X152512543Y-124499345D01*
X152493887Y-124494212D01*
X152475277Y-124488801D01*
X152456711Y-124483113D01*
X152438191Y-124477149D01*
X152419716Y-124470907D01*
X152401286Y-124464389D01*
X152382900Y-124457594D01*
X152364560Y-124450521D01*
X152346265Y-124443172D01*
X152346265Y-124261089D01*
X152357969Y-124266761D01*
X152375621Y-124275070D01*
X152393389Y-124283140D01*
X152411273Y-124290972D01*
X152429273Y-124298566D01*
X152447388Y-124305921D01*
X152465620Y-124313039D01*
X152483968Y-124319918D01*
X152502431Y-124326558D01*
X152521010Y-124332961D01*
X152539706Y-124339125D01*
X152552234Y-124343029D01*
X152571122Y-124348413D01*
X152590127Y-124353230D01*
X152609247Y-124357480D01*
X152628483Y-124361164D01*
X152647835Y-124364281D01*
X152667304Y-124366831D01*
X152686888Y-124368815D01*
X152706588Y-124370232D01*
X152726403Y-124371082D01*
X152746335Y-124371365D01*
X152769064Y-124370964D01*
X152791089Y-124369762D01*
X152812410Y-124367759D01*
X152833026Y-124364954D01*
X152852939Y-124361347D01*
X152872147Y-124356939D01*
X152890651Y-124351730D01*
X152908451Y-124345719D01*
X152925547Y-124338907D01*
X152941939Y-124331294D01*
X152957627Y-124322879D01*
X152972611Y-124313663D01*
X152986891Y-124303645D01*
X153000466Y-124292826D01*
X153013337Y-124281205D01*
X153025505Y-124268783D01*
X153036906Y-124255685D01*
X153047572Y-124242038D01*
X153057503Y-124227842D01*
X153066698Y-124213096D01*
X153075157Y-124197800D01*
X153082881Y-124181955D01*
X153089869Y-124165560D01*
X153096121Y-124148616D01*
X153101638Y-124131122D01*
X153106420Y-124113078D01*
X153110466Y-124094485D01*
X153113776Y-124075343D01*
X153116350Y-124055651D01*
X153118189Y-124035409D01*
X153119293Y-124014618D01*
X153119660Y-123993277D01*
X153119660Y-123987415D01*
X152302302Y-123987415D01*
X152302302Y-123894359D01*
X152302425Y-123878075D01*
X152302797Y-123862014D01*
X152303416Y-123846176D01*
X152304282Y-123830560D01*
X152304490Y-123827680D01*
X152490979Y-123827680D01*
X153112333Y-123827680D01*
X153110936Y-123816206D01*
X153108412Y-123799241D01*
X153105372Y-123782572D01*
X153101817Y-123766199D01*
X153097747Y-123750123D01*
X153093162Y-123734343D01*
X153088061Y-123718859D01*
X153082446Y-123703671D01*
X153076315Y-123688780D01*
X153069669Y-123674185D01*
X153062508Y-123659886D01*
X153057443Y-123650572D01*
X153049400Y-123637052D01*
X153040823Y-123624073D01*
X153031712Y-123611636D01*
X153022066Y-123599739D01*
X153011885Y-123588383D01*
X153001170Y-123577568D01*
X152989921Y-123567294D01*
X152978136Y-123557561D01*
X152965818Y-123548369D01*
X152952965Y-123539718D01*
X152944039Y-123534306D01*
X152930151Y-123526842D01*
X152915664Y-123520163D01*
X152900578Y-123514271D01*
X152884894Y-123509164D01*
X152868610Y-123504843D01*
X152851728Y-123501307D01*
X152834247Y-123498557D01*
X152816166Y-123496593D01*
X152797487Y-123495414D01*
X152778209Y-123495022D01*
X152771769Y-123495065D01*
X152752924Y-123495714D01*
X152734794Y-123497143D01*
X152717380Y-123499351D01*
X152700680Y-123502338D01*
X152684694Y-123506104D01*
X152669424Y-123510650D01*
X152654869Y-123515975D01*
X152641028Y-123522079D01*
X152627902Y-123528962D01*
X152611513Y-123539352D01*
X152603771Y-123544970D01*
X152589093Y-123556946D01*
X152575492Y-123569906D01*
X152562967Y-123583851D01*
X152551518Y-123598780D01*
X152541145Y-123614694D01*
X152531849Y-123631593D01*
X152525583Y-123644913D01*
X152519922Y-123658786D01*
X152516417Y-123668290D01*
X152511584Y-123682809D01*
X152507260Y-123697644D01*
X152503444Y-123712794D01*
X152500137Y-123728260D01*
X152497339Y-123744041D01*
X152495049Y-123760138D01*
X152493269Y-123776550D01*
X152491997Y-123793278D01*
X152491234Y-123810321D01*
X152490979Y-123827680D01*
X152304490Y-123827680D01*
X152305396Y-123815166D01*
X152306758Y-123799996D01*
X152308367Y-123785047D01*
X152310224Y-123770322D01*
X152314681Y-123741538D01*
X152320128Y-123713644D01*
X152326565Y-123686640D01*
X152333992Y-123660527D01*
X152342410Y-123635303D01*
X152351818Y-123610970D01*
X152362217Y-123587527D01*
X152373605Y-123564974D01*
X152385984Y-123543312D01*
X152399354Y-123522539D01*
X152413714Y-123502657D01*
X152429064Y-123483664D01*
X152445267Y-123465697D01*
X152462277Y-123448888D01*
X152480094Y-123433239D01*
X152498719Y-123418749D01*
X152518150Y-123405418D01*
X152538389Y-123393247D01*
X152559435Y-123382234D01*
X152581288Y-123372381D01*
X152603948Y-123363687D01*
X152627416Y-123356152D01*
X152651690Y-123349777D01*
X152676772Y-123344560D01*
X152702661Y-123340503D01*
X152729357Y-123337605D01*
X152756860Y-123335866D01*
X152785170Y-123335287D01*
X152806750Y-123335603D01*
G37*
X197835227Y-124528396D02*
X197720941Y-124566491D01*
X197720941Y-124566491D02*
X197682846Y-124604587D01*
X197682846Y-124604587D02*
X197644750Y-124680777D01*
X197644750Y-124680777D02*
X197644750Y-124795063D01*
X197644750Y-124795063D02*
X197682846Y-124871253D01*
X197682846Y-124871253D02*
X197720941Y-124909349D01*
X197720941Y-124909349D02*
X197797131Y-124947444D01*
X197797131Y-124947444D02*
X198101893Y-124947444D01*
X198101893Y-124947444D02*
X198101893Y-124147444D01*
X198101893Y-124147444D02*
X197835227Y-124147444D01*
X197835227Y-124147444D02*
X197759036Y-124185539D01*
X197759036Y-124185539D02*
X197720941Y-124223634D01*
X197720941Y-124223634D02*
X197682846Y-124299825D01*
X197682846Y-124299825D02*
X197682846Y-124376015D01*
X197682846Y-124376015D02*
X197720941Y-124452206D01*
X197720941Y-124452206D02*
X197759036Y-124490301D01*
X197759036Y-124490301D02*
X197835227Y-124528396D01*
X197835227Y-124528396D02*
X198101893Y-124528396D01*
X197301893Y-124642682D02*
X196692370Y-124642682D01*
X199835227Y-124528396D02*
X199720941Y-124566491D01*
X199720941Y-124566491D02*
X199682846Y-124604587D01*
X199682846Y-124604587D02*
X199644750Y-124680777D01*
X199644750Y-124680777D02*
X199644750Y-124795063D01*
X199644750Y-124795063D02*
X199682846Y-124871253D01*
X199682846Y-124871253D02*
X199720941Y-124909349D01*
X199720941Y-124909349D02*
X199797131Y-124947444D01*
X199797131Y-124947444D02*
X200101893Y-124947444D01*
X200101893Y-124947444D02*
X200101893Y-124147444D01*
X200101893Y-124147444D02*
X199835227Y-124147444D01*
X199835227Y-124147444D02*
X199759036Y-124185539D01*
X199759036Y-124185539D02*
X199720941Y-124223634D01*
X199720941Y-124223634D02*
X199682846Y-124299825D01*
X199682846Y-124299825D02*
X199682846Y-124376015D01*
X199682846Y-124376015D02*
X199720941Y-124452206D01*
X199720941Y-124452206D02*
X199759036Y-124490301D01*
X199759036Y-124490301D02*
X199835227Y-124528396D01*
X199835227Y-124528396D02*
X200101893Y-124528396D01*
X199301893Y-124642682D02*
X198692370Y-124642682D01*
X198997131Y-124947444D02*
X198997131Y-124337920D01*
X195835227Y-124528396D02*
X195720941Y-124566491D01*
X195720941Y-124566491D02*
X195682846Y-124604587D01*
X195682846Y-124604587D02*
X195644750Y-124680777D01*
X195644750Y-124680777D02*
X195644750Y-124795063D01*
X195644750Y-124795063D02*
X195682846Y-124871253D01*
X195682846Y-124871253D02*
X195720941Y-124909349D01*
X195720941Y-124909349D02*
X195797131Y-124947444D01*
X195797131Y-124947444D02*
X196101893Y-124947444D01*
X196101893Y-124947444D02*
X196101893Y-124147444D01*
X196101893Y-124147444D02*
X195835227Y-124147444D01*
X195835227Y-124147444D02*
X195759036Y-124185539D01*
X195759036Y-124185539D02*
X195720941Y-124223634D01*
X195720941Y-124223634D02*
X195682846Y-124299825D01*
X195682846Y-124299825D02*
X195682846Y-124376015D01*
X195682846Y-124376015D02*
X195720941Y-124452206D01*
X195720941Y-124452206D02*
X195759036Y-124490301D01*
X195759036Y-124490301D02*
X195835227Y-124528396D01*
X195835227Y-124528396D02*
X196101893Y-124528396D01*
X195301893Y-124642682D02*
X194692370Y-124642682D01*
X194997131Y-124947444D02*
X194997131Y-124337920D01*
X199369567Y-153560754D02*
X199321948Y-153465516D01*
X199321948Y-153465516D02*
X199321948Y-153322659D01*
X199321948Y-153322659D02*
X199369567Y-153179802D01*
X199369567Y-153179802D02*
X199464805Y-153084564D01*
X199464805Y-153084564D02*
X199560043Y-153036945D01*
X199560043Y-153036945D02*
X199750519Y-152989326D01*
X199750519Y-152989326D02*
X199893376Y-152989326D01*
X199893376Y-152989326D02*
X200083852Y-153036945D01*
X200083852Y-153036945D02*
X200179090Y-153084564D01*
X200179090Y-153084564D02*
X200274329Y-153179802D01*
X200274329Y-153179802D02*
X200321948Y-153322659D01*
X200321948Y-153322659D02*
X200321948Y-153417897D01*
X200321948Y-153417897D02*
X200274329Y-153560754D01*
X200274329Y-153560754D02*
X200226709Y-153608373D01*
X200226709Y-153608373D02*
X199893376Y-153608373D01*
X199893376Y-153608373D02*
X199893376Y-153417897D01*
X200321948Y-154036945D02*
X199321948Y-154036945D01*
X199321948Y-154036945D02*
X200321948Y-154608373D01*
X200321948Y-154608373D02*
X199321948Y-154608373D01*
X200321948Y-155084564D02*
X199321948Y-155084564D01*
X199321948Y-155084564D02*
X199321948Y-155322659D01*
X199321948Y-155322659D02*
X199369567Y-155465516D01*
X199369567Y-155465516D02*
X199464805Y-155560754D01*
X199464805Y-155560754D02*
X199560043Y-155608373D01*
X199560043Y-155608373D02*
X199750519Y-155655992D01*
X199750519Y-155655992D02*
X199893376Y-155655992D01*
X199893376Y-155655992D02*
X200083852Y-155608373D01*
X200083852Y-155608373D02*
X200179090Y-155560754D01*
X200179090Y-155560754D02*
X200274329Y-155465516D01*
X200274329Y-155465516D02*
X200321948Y-155322659D01*
X200321948Y-155322659D02*
X200321948Y-155084564D01*
X195944748Y-164839971D02*
X195611415Y-164363780D01*
X195373320Y-164839971D02*
X195373320Y-163839971D01*
X195373320Y-163839971D02*
X195754272Y-163839971D01*
X195754272Y-163839971D02*
X195849510Y-163887590D01*
X195849510Y-163887590D02*
X195897129Y-163935209D01*
X195897129Y-163935209D02*
X195944748Y-164030447D01*
X195944748Y-164030447D02*
X195944748Y-164173304D01*
X195944748Y-164173304D02*
X195897129Y-164268542D01*
X195897129Y-164268542D02*
X195849510Y-164316161D01*
X195849510Y-164316161D02*
X195754272Y-164363780D01*
X195754272Y-164363780D02*
X195373320Y-164363780D01*
X196373320Y-164316161D02*
X196706653Y-164316161D01*
X196849510Y-164839971D02*
X196373320Y-164839971D01*
X196373320Y-164839971D02*
X196373320Y-163839971D01*
X196373320Y-163839971D02*
X196849510Y-163839971D01*
X197230463Y-164792352D02*
X197373320Y-164839971D01*
X197373320Y-164839971D02*
X197611415Y-164839971D01*
X197611415Y-164839971D02*
X197706653Y-164792352D01*
X197706653Y-164792352D02*
X197754272Y-164744732D01*
X197754272Y-164744732D02*
X197801891Y-164649494D01*
X197801891Y-164649494D02*
X197801891Y-164554256D01*
X197801891Y-164554256D02*
X197754272Y-164459018D01*
X197754272Y-164459018D02*
X197706653Y-164411399D01*
X197706653Y-164411399D02*
X197611415Y-164363780D01*
X197611415Y-164363780D02*
X197420939Y-164316161D01*
X197420939Y-164316161D02*
X197325701Y-164268542D01*
X197325701Y-164268542D02*
X197278082Y-164220923D01*
X197278082Y-164220923D02*
X197230463Y-164125685D01*
X197230463Y-164125685D02*
X197230463Y-164030447D01*
X197230463Y-164030447D02*
X197278082Y-163935209D01*
X197278082Y-163935209D02*
X197325701Y-163887590D01*
X197325701Y-163887590D02*
X197420939Y-163839971D01*
X197420939Y-163839971D02*
X197659034Y-163839971D01*
X197659034Y-163839971D02*
X197801891Y-163887590D01*
X198230463Y-164316161D02*
X198563796Y-164316161D01*
X198706653Y-164839971D02*
X198230463Y-164839971D01*
X198230463Y-164839971D02*
X198230463Y-163839971D01*
X198230463Y-163839971D02*
X198706653Y-163839971D01*
X198992368Y-163839971D02*
X199563796Y-163839971D01*
X199278082Y-164839971D02*
X199278082Y-163839971D01*
%TO.C,T1*%
X185297132Y-124385148D02*
X185297132Y-121535148D01*
X183947132Y-121535148D02*
X180047132Y-121535148D01*
X181997132Y-121535148D02*
X185297132Y-121535148D01*
X181997132Y-121535148D02*
X178697132Y-121535148D01*
X178697132Y-124385148D02*
X185297132Y-124385148D01*
X178697132Y-121535148D02*
X178697132Y-124385148D01*
D11*
%TO.C,L9*%
X160943643Y-198937613D02*
X160744017Y-200069748D01*
X162667254Y-199241532D02*
X160943643Y-198937613D01*
X162467628Y-200373667D02*
X160744017Y-200069748D01*
D12*
%TO.C,D16*%
X166636708Y-187959221D02*
X166115282Y-187461109D01*
X166706167Y-187565298D02*
X167198571Y-187652122D01*
X166775626Y-187171375D02*
X166636708Y-187959221D01*
X166115282Y-187461109D02*
X166775626Y-187171375D01*
X166115282Y-187461109D02*
X166019776Y-188002753D01*
X166115282Y-187461109D02*
X166210789Y-186919465D01*
X165721359Y-187391650D02*
X166115282Y-187461109D01*
%TO.C,D5*%
X117647137Y-147785148D02*
X117047137Y-147385148D01*
X117647137Y-147385148D02*
X118147137Y-147385148D01*
X117647137Y-146985148D02*
X117647137Y-147785148D01*
X117047137Y-147385148D02*
X117647137Y-146985148D01*
X117047137Y-147385148D02*
X117047137Y-147935148D01*
X117047137Y-147385148D02*
X117047137Y-146835148D01*
X116647137Y-147385148D02*
X117047137Y-147385148D01*
D11*
%TO.C,L9*%
X93032582Y-171694824D02*
X93132776Y-172840050D01*
X94776122Y-171542284D02*
X93032582Y-171694824D01*
X94876316Y-172687510D02*
X93132776Y-172840050D01*
X94688537Y-190622516D02*
X94788731Y-191767742D01*
X96432077Y-190469976D02*
X94688537Y-190622516D01*
X96532271Y-191615202D02*
X94788731Y-191767742D01*
D12*
%TO.C,D14*%
X174647136Y-149785156D02*
X174047136Y-149385156D01*
X174647136Y-149385156D02*
X175147136Y-149385156D01*
X174647136Y-148985156D02*
X174647136Y-149785156D01*
X174047136Y-149385156D02*
X174647136Y-148985156D01*
X174047136Y-149385156D02*
X174047136Y-149935156D01*
X174047136Y-149385156D02*
X174047136Y-148835156D01*
X173647136Y-149385156D02*
X174047136Y-149385156D01*
%TO.C,D4*%
X117647134Y-166785156D02*
X117047134Y-166385156D01*
X117647134Y-166385156D02*
X118147134Y-166385156D01*
X117647134Y-165985156D02*
X117647134Y-166785156D01*
X117047134Y-166385156D02*
X117647134Y-165985156D01*
X117047134Y-166385156D02*
X117047134Y-166935156D01*
X117047134Y-166385156D02*
X117047134Y-165835156D01*
X116647134Y-166385156D02*
X117047134Y-166385156D01*
%TO.C,D8*%
X136647136Y-137785154D02*
X136047136Y-137385154D01*
X136647136Y-137385154D02*
X137147136Y-137385154D01*
X136647136Y-136985154D02*
X136647136Y-137785154D01*
X136047136Y-137385154D02*
X136647136Y-136985154D01*
X136047136Y-137385154D02*
X136047136Y-137935154D01*
X136047136Y-137385154D02*
X136047136Y-136835154D01*
X135647136Y-137385154D02*
X136047136Y-137385154D01*
D11*
%TO.C,L9*%
X151946934Y-159585351D02*
X151946934Y-160734951D01*
X153697134Y-159585351D02*
X151946934Y-159585351D01*
X153697134Y-160734951D02*
X151946934Y-160734951D01*
D12*
%TO.C,D2*%
X95690250Y-159617031D02*
X95057671Y-159270847D01*
X95655388Y-159218553D02*
X96153485Y-159174975D01*
X95620525Y-158820075D02*
X95690250Y-159617031D01*
X95057671Y-159270847D02*
X95620525Y-158820075D01*
X95057671Y-159270847D02*
X95105607Y-159818754D01*
X95057671Y-159270847D02*
X95009735Y-158722939D01*
X94659193Y-159305709D02*
X95057671Y-159270847D01*
%TO.C,D7*%
X136647137Y-156785151D02*
X136047137Y-156385151D01*
X136647137Y-156385151D02*
X137147137Y-156385151D01*
X136647137Y-155985151D02*
X136647137Y-156785151D01*
X136047137Y-156385151D02*
X136647137Y-155985151D01*
X136047137Y-156385151D02*
X136047137Y-156935151D01*
X136047137Y-156385151D02*
X136047137Y-155835151D01*
X135647137Y-156385151D02*
X136047137Y-156385151D01*
%TO.C,D3*%
X76265759Y-155594677D02*
X75633180Y-155248493D01*
X76230897Y-155196199D02*
X76728994Y-155152621D01*
X76196034Y-154797721D02*
X76265759Y-155594677D01*
X75633180Y-155248493D02*
X76196034Y-154797721D01*
X75633180Y-155248493D02*
X75681116Y-155796400D01*
X75633180Y-155248493D02*
X75585244Y-154700585D01*
X75234702Y-155283355D02*
X75633180Y-155248493D01*
D11*
%TO.C,L9*%
X132946927Y-168585353D02*
X132946927Y-169734953D01*
X134697127Y-168585353D02*
X132946927Y-168585353D01*
X134697127Y-169734953D02*
X132946927Y-169734953D01*
X200753744Y-213510293D02*
X200178944Y-214505876D01*
X202269462Y-214385393D02*
X200753744Y-213510293D01*
X201694662Y-215380976D02*
X200178944Y-214505876D01*
X170946930Y-142585352D02*
X170946930Y-143734952D01*
X172697130Y-142585352D02*
X170946930Y-142585352D01*
X172697130Y-143734952D02*
X170946930Y-143734952D01*
D12*
%TO.C,D17*%
X188919813Y-194594055D02*
X188492806Y-194012966D01*
X189056621Y-194218178D02*
X189526467Y-194389188D01*
X189193429Y-193842301D02*
X188919813Y-194594055D01*
X188492806Y-194012966D02*
X189193429Y-193842301D01*
X188492806Y-194012966D02*
X188304695Y-194529797D01*
X188492806Y-194012966D02*
X188680917Y-193496135D01*
X188116929Y-193876158D02*
X188492806Y-194012966D01*
D11*
%TO.C,L9*%
X132946928Y-130585358D02*
X132946928Y-131734958D01*
X134697128Y-130585358D02*
X132946928Y-130585358D01*
X134697128Y-131734958D02*
X132946928Y-131734958D01*
X170946929Y-180585350D02*
X170946929Y-181734950D01*
X172697129Y-180585350D02*
X170946929Y-180585350D01*
X172697129Y-181734950D02*
X170946929Y-181734950D01*
X73608104Y-167672469D02*
X73708298Y-168817695D01*
X75351644Y-167519929D02*
X73608104Y-167672469D01*
X75451838Y-168665155D02*
X73708298Y-168817695D01*
D12*
%TO.C,D13*%
X174647137Y-168785155D02*
X174047137Y-168385155D01*
X174647137Y-168385155D02*
X175147137Y-168385155D01*
X174647137Y-167985155D02*
X174647137Y-168785155D01*
X174047137Y-168385155D02*
X174647137Y-167985155D01*
X174047137Y-168385155D02*
X174047137Y-168935155D01*
X174047137Y-168385155D02*
X174047137Y-167835155D01*
X173647137Y-168385155D02*
X174047137Y-168385155D01*
%TO.C,D19*%
X201797131Y-180935149D02*
X201397131Y-181535149D01*
X201397131Y-180935149D02*
X201397131Y-180435149D01*
X200997131Y-180935149D02*
X201797131Y-180935149D01*
X201397131Y-181535149D02*
X200997131Y-180935149D01*
X201397131Y-181535149D02*
X201947131Y-181535149D01*
X201397131Y-181535149D02*
X200847131Y-181535149D01*
X201397131Y-181935149D02*
X201397131Y-181535149D01*
D11*
%TO.C,L9*%
X170946937Y-161585355D02*
X170946937Y-162734955D01*
X172697137Y-161585355D02*
X170946937Y-161585355D01*
X172697137Y-162734955D02*
X170946937Y-162734955D01*
X151946933Y-178585354D02*
X151946933Y-179734954D01*
X153697133Y-178585354D02*
X151946933Y-178585354D01*
X153697133Y-179734954D02*
X151946933Y-179734954D01*
D12*
%TO.C,D1*%
X97346205Y-178544729D02*
X96713626Y-178198545D01*
X97311343Y-178146251D02*
X97809440Y-178102673D01*
X97276480Y-177747773D02*
X97346205Y-178544729D01*
X96713626Y-178198545D02*
X97276480Y-177747773D01*
X96713626Y-178198545D02*
X96761562Y-178746452D01*
X96713626Y-178198545D02*
X96665690Y-177650637D01*
X96315148Y-178233407D02*
X96713626Y-178198545D01*
%TO.C,D10*%
X155647135Y-166785146D02*
X155047135Y-166385146D01*
X155647135Y-166385146D02*
X156147135Y-166385146D01*
X155647135Y-165985146D02*
X155647135Y-166785146D01*
X155047135Y-166385146D02*
X155647135Y-165985146D01*
X155047135Y-166385146D02*
X155047135Y-166935146D01*
X155047135Y-166385146D02*
X155047135Y-165835146D01*
X154647135Y-166385146D02*
X155047135Y-166385146D01*
D11*
%TO.C,L9*%
X113946925Y-140585354D02*
X113946925Y-141734954D01*
X115697125Y-140585354D02*
X113946925Y-140585354D01*
X115697125Y-141734954D02*
X113946925Y-141734954D01*
D12*
%TO.C,D6*%
X117647136Y-128785148D02*
X117047136Y-128385148D01*
X117647136Y-128385148D02*
X118147136Y-128385148D01*
X117647136Y-127985148D02*
X117647136Y-128785148D01*
X117047136Y-128385148D02*
X117647136Y-127985148D01*
X117047136Y-128385148D02*
X117047136Y-128935148D01*
X117047136Y-128385148D02*
X117047136Y-127835148D01*
X116647136Y-128385148D02*
X117047136Y-128385148D01*
D11*
%TO.C,L9*%
X151946934Y-140585357D02*
X151946934Y-141734957D01*
X153697134Y-140585357D02*
X151946934Y-140585357D01*
X153697134Y-141734957D02*
X151946934Y-141734957D01*
X132946936Y-149585348D02*
X132946936Y-150734948D01*
X134697136Y-149585348D02*
X132946936Y-149585348D01*
X134697136Y-150734948D02*
X132946936Y-150734948D01*
D12*
%TO.C,D9*%
X136647131Y-118785147D02*
X136047131Y-118385147D01*
X136647131Y-118385147D02*
X137147131Y-118385147D01*
X136647131Y-117985147D02*
X136647131Y-118785147D01*
X136047131Y-118385147D02*
X136647131Y-117985147D01*
X136047131Y-118385147D02*
X136047131Y-118935147D01*
X136047131Y-118385147D02*
X136047131Y-117835147D01*
X135647131Y-118385147D02*
X136047131Y-118385147D01*
%TO.C,D11*%
X155647130Y-147785153D02*
X155047130Y-147385153D01*
X155647130Y-147385153D02*
X156147130Y-147385153D01*
X155647130Y-146985153D02*
X155647130Y-147785153D01*
X155047130Y-147385153D02*
X155647130Y-146985153D01*
X155047130Y-147385153D02*
X155047130Y-147935153D01*
X155047130Y-147385153D02*
X155047130Y-146835153D01*
X154647130Y-147385153D02*
X155047130Y-147385153D01*
%TO.C,D12*%
X155647132Y-128785150D02*
X155047132Y-128385150D01*
X155647132Y-128385150D02*
X156147132Y-128385150D01*
X155647132Y-127985150D02*
X155647132Y-128785150D01*
X155047132Y-128385150D02*
X155647132Y-127985150D01*
X155047132Y-128385150D02*
X155047132Y-128935150D01*
X155047132Y-128385150D02*
X155047132Y-127835150D01*
X154647132Y-128385150D02*
X155047132Y-128385150D01*
%TO.C,D15*%
X174647137Y-130785153D02*
X174047137Y-130385153D01*
X174647137Y-130385153D02*
X175147137Y-130385153D01*
X174647137Y-129985153D02*
X174647137Y-130785153D01*
X174047137Y-130385153D02*
X174647137Y-129985153D01*
X174047137Y-130385153D02*
X174047137Y-130935153D01*
X174047137Y-130385153D02*
X174047137Y-129835153D01*
X173647137Y-130385153D02*
X174047137Y-130385153D01*
D11*
%TO.C,L9*%
X113946940Y-178585350D02*
X113946940Y-179734950D01*
X115697140Y-178585350D02*
X113946940Y-178585350D01*
X115697140Y-179734950D02*
X113946940Y-179734950D01*
D12*
%TO.C,D18*%
X209858311Y-205141120D02*
X209538696Y-204494710D01*
X210058311Y-204794710D02*
X210491324Y-205044710D01*
X210258311Y-204448300D02*
X209858311Y-205141120D01*
X209538696Y-204494710D02*
X210258311Y-204448300D01*
X209538696Y-204494710D02*
X209263696Y-204971024D01*
X209538696Y-204494710D02*
X209813696Y-204018396D01*
X209192286Y-204294710D02*
X209538696Y-204494710D01*
D11*
%TO.C,L9*%
X181406857Y-204417080D02*
X181013671Y-205497351D01*
X183051507Y-205015684D02*
X181406857Y-204417080D01*
X182658321Y-206095955D02*
X181013671Y-205497351D01*
D10*
%TO.C,_1*%
X203747138Y-126685152D02*
X206287138Y-126685152D01*
X206287138Y-126685152D02*
X206287138Y-124145152D01*
X203747138Y-124145152D02*
X203747138Y-126685152D01*
X203747138Y-124145152D02*
X206287138Y-124145152D01*
D11*
%TO.C,L9*%
X113946938Y-159585349D02*
X113946938Y-160734949D01*
X115697138Y-159585349D02*
X113946938Y-159585349D01*
X115697138Y-160734949D02*
X113946938Y-160734949D01*
%TD*%
D13*
%TO.C,JST1*%
X197397132Y-122785149D03*
X199397132Y-122785149D03*
X195397132Y-122785149D03*
%TD*%
M02*
