%TF.GenerationSoftware,KiCad,Pcbnew,7.0.6-0*%
%TF.CreationDate,2023-08-12T20:04:25+02:00*%
%TF.ProjectId,jwe,6a77652e-6b69-4636-9164-5f7063625858,v1.0.0*%
%TF.SameCoordinates,Original*%
%TF.FileFunction,Legend,Top*%
%TF.FilePolarity,Positive*%
%FSLAX46Y46*%
G04 Gerber Fmt 4.6, Leading zero omitted, Abs format (unit mm)*
G04 Created by KiCad (PCBNEW 7.0.6-0) date 2023-08-12 20:04:25*
%MOMM*%
%LPD*%
G01*
G04 APERTURE LIST*
G04 Aperture macros list*
%AMRoundRect*
0 Rectangle with rounded corners*
0 $1 Rounding radius*
0 $2 $3 $4 $5 $6 $7 $8 $9 X,Y pos of 4 corners*
0 Add a 4 corners polygon primitive as box body*
4,1,4,$2,$3,$4,$5,$6,$7,$8,$9,$2,$3,0*
0 Add four circle primitives for the rounded corners*
1,1,$1+$1,$2,$3*
1,1,$1+$1,$4,$5*
1,1,$1+$1,$6,$7*
1,1,$1+$1,$8,$9*
0 Add four rect primitives between the rounded corners*
20,1,$1+$1,$2,$3,$4,$5,0*
20,1,$1+$1,$4,$5,$6,$7,0*
20,1,$1+$1,$6,$7,$8,$9,0*
20,1,$1+$1,$8,$9,$2,$3,0*%
G04 Aperture macros list end*
%ADD10C,0.150000*%
%ADD11C,0.120000*%
%ADD12C,0.100000*%
%ADD13RoundRect,0.375000X-0.375000X-0.750000X0.375000X-0.750000X0.375000X0.750000X-0.375000X0.750000X0*%
G04 APERTURE END LIST*
D10*
G36*
X149697141Y-122983577D02*
G01*
X149899007Y-122983577D01*
X150045919Y-124224819D01*
X150219942Y-123402331D01*
X150436464Y-123402331D01*
X150612685Y-124226651D01*
X150759597Y-122983577D01*
X150961464Y-122983577D01*
X150732852Y-124507653D01*
X150536847Y-124507653D01*
X150328753Y-123614823D01*
X150121757Y-124507653D01*
X149925752Y-124507653D01*
X149697141Y-122983577D01*
G37*
G36*
X151149042Y-124793417D02*
G01*
X151260783Y-124793417D01*
X151276042Y-124793004D01*
X151295345Y-124791173D01*
X151313457Y-124787875D01*
X151330378Y-124783113D01*
X151346109Y-124776884D01*
X151360649Y-124769191D01*
X151373998Y-124760032D01*
X151386157Y-124749407D01*
X151389011Y-124746522D01*
X151401896Y-124731249D01*
X151412004Y-124716819D01*
X151422492Y-124699839D01*
X151433359Y-124680309D01*
X151440815Y-124665872D01*
X151448440Y-124650301D01*
X151456234Y-124633597D01*
X151464197Y-124615760D01*
X151472328Y-124596789D01*
X151480629Y-124576685D01*
X151489098Y-124555447D01*
X151497736Y-124533076D01*
X151506543Y-124509572D01*
X151511010Y-124497394D01*
X151066977Y-123358734D01*
X151267011Y-123358734D01*
X151607364Y-124266218D01*
X151942587Y-123358734D01*
X152142622Y-123358734D01*
X151840005Y-124142387D01*
X151833357Y-124159623D01*
X151826876Y-124176433D01*
X151820563Y-124192819D01*
X151814417Y-124208779D01*
X151808438Y-124224315D01*
X151802627Y-124239425D01*
X151796984Y-124254111D01*
X151791508Y-124268371D01*
X151786199Y-124282206D01*
X151779381Y-124299992D01*
X151777723Y-124304320D01*
X151771919Y-124318694D01*
X151766112Y-124333039D01*
X151764534Y-124336927D01*
X151759243Y-124351348D01*
X151753953Y-124366174D01*
X151753543Y-124367335D01*
X151748670Y-124381195D01*
X151743690Y-124395426D01*
X151738543Y-124410170D01*
X151733546Y-124424510D01*
X151732660Y-124427052D01*
X151720204Y-124460025D01*
X151715229Y-124473977D01*
X151707832Y-124494502D01*
X151700512Y-124514545D01*
X151693269Y-124534104D01*
X151686104Y-124553180D01*
X151679015Y-124571774D01*
X151672004Y-124589884D01*
X151665070Y-124607511D01*
X151658214Y-124624656D01*
X151651435Y-124641317D01*
X151644733Y-124657495D01*
X151638229Y-124673131D01*
X151631904Y-124688025D01*
X151625761Y-124702179D01*
X151619797Y-124715593D01*
X151612127Y-124732325D01*
X151604776Y-124747741D01*
X151597747Y-124761841D01*
X151589411Y-124777613D01*
X151584649Y-124786089D01*
X151572764Y-124806320D01*
X151560097Y-124825245D01*
X151546649Y-124842864D01*
X151532419Y-124859179D01*
X151517408Y-124874189D01*
X151501616Y-124887893D01*
X151485043Y-124900292D01*
X151467687Y-124911386D01*
X151449551Y-124921175D01*
X151430633Y-124929658D01*
X151410934Y-124936837D01*
X151390453Y-124942710D01*
X151369191Y-124947278D01*
X151347148Y-124950541D01*
X151324323Y-124952499D01*
X151300717Y-124953151D01*
X151149042Y-124953151D01*
X151149042Y-124793417D01*
G37*
G36*
X152827723Y-124531100D02*
G01*
X152806982Y-124530816D01*
X152785792Y-124529966D01*
X152764152Y-124528550D01*
X152742063Y-124526566D01*
X152719524Y-124524016D01*
X152696536Y-124520899D01*
X152673099Y-124517215D01*
X152649212Y-124512965D01*
X152624876Y-124508148D01*
X152600091Y-124502764D01*
X152574856Y-124496813D01*
X152549172Y-124490296D01*
X152523038Y-124483212D01*
X152496455Y-124475561D01*
X152469423Y-124467344D01*
X152441942Y-124458560D01*
X152441942Y-124264387D01*
X152455359Y-124270968D01*
X152468685Y-124277341D01*
X152495059Y-124289460D01*
X152521063Y-124300743D01*
X152546699Y-124311190D01*
X152571965Y-124320801D01*
X152596862Y-124329577D01*
X152621390Y-124337516D01*
X152645549Y-124344620D01*
X152669338Y-124350889D01*
X152692758Y-124356321D01*
X152715809Y-124360918D01*
X152738491Y-124364679D01*
X152760803Y-124367604D01*
X152782746Y-124369693D01*
X152804320Y-124370947D01*
X152825525Y-124371365D01*
X152840313Y-124371172D01*
X152861791Y-124370157D01*
X152882426Y-124368274D01*
X152902217Y-124365521D01*
X152921165Y-124361898D01*
X152939269Y-124357406D01*
X152956529Y-124352045D01*
X152972945Y-124345814D01*
X152988518Y-124338714D01*
X153003248Y-124330745D01*
X153017134Y-124321906D01*
X153029966Y-124312271D01*
X153041537Y-124302049D01*
X153051845Y-124291242D01*
X153063626Y-124275920D01*
X153073163Y-124259557D01*
X153080456Y-124242152D01*
X153085505Y-124223705D01*
X153087819Y-124209186D01*
X153088871Y-124194081D01*
X153088941Y-124188916D01*
X153088002Y-124171313D01*
X153085186Y-124154592D01*
X153080492Y-124138752D01*
X153073920Y-124123794D01*
X153065471Y-124109718D01*
X153055144Y-124096523D01*
X153042939Y-124084210D01*
X153028857Y-124072778D01*
X153012806Y-124062045D01*
X152999295Y-124054333D01*
X152984521Y-124046911D01*
X152968486Y-124039778D01*
X152951188Y-124032936D01*
X152932628Y-124026383D01*
X152912806Y-124020120D01*
X152891721Y-124014147D01*
X152876963Y-124010326D01*
X152861645Y-124006634D01*
X152845765Y-124003071D01*
X152837615Y-124001337D01*
X152758847Y-123985217D01*
X152738943Y-123980978D01*
X152719714Y-123976413D01*
X152701162Y-123971521D01*
X152683284Y-123966303D01*
X152666082Y-123960759D01*
X152649556Y-123954889D01*
X152633705Y-123948692D01*
X152618529Y-123942169D01*
X152604029Y-123935320D01*
X152590205Y-123928144D01*
X152577056Y-123920642D01*
X152564582Y-123912814D01*
X152547138Y-123900460D01*
X152531214Y-123887372D01*
X152521443Y-123878239D01*
X152507955Y-123863752D01*
X152495794Y-123848318D01*
X152484960Y-123831938D01*
X152475452Y-123814612D01*
X152467272Y-123796338D01*
X152460417Y-123777118D01*
X152454890Y-123756951D01*
X152450689Y-123735837D01*
X152448625Y-123721236D01*
X152447151Y-123706213D01*
X152446266Y-123690770D01*
X152445972Y-123674907D01*
X152446412Y-123654777D01*
X152447735Y-123635236D01*
X152449939Y-123616285D01*
X152453024Y-123597924D01*
X152456991Y-123580153D01*
X152461840Y-123562971D01*
X152467570Y-123546378D01*
X152474182Y-123530376D01*
X152481675Y-123514963D01*
X152490050Y-123500139D01*
X152499306Y-123485905D01*
X152509444Y-123472261D01*
X152520464Y-123459207D01*
X152532365Y-123446742D01*
X152545148Y-123434866D01*
X152558812Y-123423581D01*
X152573289Y-123412889D01*
X152588510Y-123402887D01*
X152604476Y-123393575D01*
X152621185Y-123384952D01*
X152638639Y-123377019D01*
X152656837Y-123369777D01*
X152675779Y-123363224D01*
X152695466Y-123357360D01*
X152715896Y-123352187D01*
X152737071Y-123347703D01*
X152758990Y-123343909D01*
X152781653Y-123340805D01*
X152805060Y-123338391D01*
X152829212Y-123336666D01*
X152854107Y-123335632D01*
X152879747Y-123335287D01*
X152901775Y-123335559D01*
X152923711Y-123336374D01*
X152945555Y-123337734D01*
X152967308Y-123339637D01*
X152988969Y-123342085D01*
X153010539Y-123345076D01*
X153032017Y-123348610D01*
X153053404Y-123352689D01*
X153074699Y-123357312D01*
X153095902Y-123362478D01*
X153117014Y-123368188D01*
X153138034Y-123374442D01*
X153158962Y-123381240D01*
X153179799Y-123388581D01*
X153200545Y-123396467D01*
X153221198Y-123404896D01*
X153221198Y-123590276D01*
X153201037Y-123578742D01*
X153180761Y-123567951D01*
X153160371Y-123557905D01*
X153139866Y-123548602D01*
X153119246Y-123540044D01*
X153098512Y-123532231D01*
X153077664Y-123525161D01*
X153056701Y-123518835D01*
X153035623Y-123513254D01*
X153014432Y-123508417D01*
X152993125Y-123504324D01*
X152971704Y-123500975D01*
X152950169Y-123498370D01*
X152928519Y-123496510D01*
X152906755Y-123495394D01*
X152884876Y-123495022D01*
X152869616Y-123495185D01*
X152854841Y-123495676D01*
X152826744Y-123497638D01*
X152800585Y-123500908D01*
X152776364Y-123505486D01*
X152754080Y-123511372D01*
X152733734Y-123518566D01*
X152715325Y-123527069D01*
X152698855Y-123536879D01*
X152684322Y-123547997D01*
X152671726Y-123560423D01*
X152661069Y-123574158D01*
X152652349Y-123589200D01*
X152645567Y-123605551D01*
X152640723Y-123623209D01*
X152637816Y-123642176D01*
X152636847Y-123662450D01*
X152637366Y-123678954D01*
X152638923Y-123694350D01*
X152642160Y-123711360D01*
X152646891Y-123726773D01*
X152653116Y-123740589D01*
X152658097Y-123748912D01*
X152667568Y-123760517D01*
X152679769Y-123771426D01*
X152692023Y-123779986D01*
X152706173Y-123788063D01*
X152722220Y-123795657D01*
X152736422Y-123801384D01*
X152740162Y-123802768D01*
X152756259Y-123808200D01*
X152774142Y-123813690D01*
X152788727Y-123817845D01*
X152804316Y-123822032D01*
X152820910Y-123826251D01*
X152838508Y-123830503D01*
X152857111Y-123834786D01*
X152876719Y-123839102D01*
X152897331Y-123843450D01*
X152918948Y-123847830D01*
X152994785Y-123862119D01*
X153012321Y-123865790D01*
X153029301Y-123869844D01*
X153045724Y-123874280D01*
X153061590Y-123879097D01*
X153076899Y-123884297D01*
X153091651Y-123889879D01*
X153105847Y-123895843D01*
X153119487Y-123902190D01*
X153132569Y-123908918D01*
X153157064Y-123923521D01*
X153179332Y-123939653D01*
X153199373Y-123957313D01*
X153217188Y-123976501D01*
X153232775Y-123997218D01*
X153246136Y-124019463D01*
X153257270Y-124043236D01*
X153266178Y-124068538D01*
X153272858Y-124095369D01*
X153277312Y-124123728D01*
X153278703Y-124138480D01*
X153279538Y-124153615D01*
X153279817Y-124169132D01*
X153279343Y-124189874D01*
X153277922Y-124210062D01*
X153275553Y-124229694D01*
X153272238Y-124248770D01*
X153267974Y-124267292D01*
X153262764Y-124285258D01*
X153256606Y-124302669D01*
X153249500Y-124319524D01*
X153241447Y-124335825D01*
X153232447Y-124351570D01*
X153222499Y-124366760D01*
X153211604Y-124381394D01*
X153199762Y-124395473D01*
X153186972Y-124408997D01*
X153173235Y-124421966D01*
X153158550Y-124434380D01*
X153143090Y-124446092D01*
X153126934Y-124457048D01*
X153110083Y-124467249D01*
X153092536Y-124476695D01*
X153074294Y-124485384D01*
X153055356Y-124493318D01*
X153035722Y-124500497D01*
X153015393Y-124506920D01*
X152994369Y-124512587D01*
X152972649Y-124517499D01*
X152950233Y-124521654D01*
X152927122Y-124525055D01*
X152903316Y-124527699D01*
X152878814Y-124529589D01*
X152853616Y-124530722D01*
X152827723Y-124531100D01*
G37*
G36*
X154314429Y-124507653D02*
G01*
X154288488Y-124507323D01*
X154263510Y-124506336D01*
X154239498Y-124504690D01*
X154216450Y-124502386D01*
X154194366Y-124499424D01*
X154173247Y-124495803D01*
X154153093Y-124491524D01*
X154133903Y-124486587D01*
X154115678Y-124480991D01*
X154098418Y-124474737D01*
X154082122Y-124467825D01*
X154066790Y-124460254D01*
X154052423Y-124452025D01*
X154039021Y-124443138D01*
X154026583Y-124433593D01*
X154015110Y-124423389D01*
X154004507Y-124412389D01*
X153994588Y-124400457D01*
X153985353Y-124387591D01*
X153976802Y-124373792D01*
X153968935Y-124359060D01*
X153961752Y-124343395D01*
X153955254Y-124326797D01*
X153949439Y-124309266D01*
X153944308Y-124290802D01*
X153939862Y-124271405D01*
X153936100Y-124251074D01*
X153933021Y-124229811D01*
X153930627Y-124207614D01*
X153928917Y-124184485D01*
X153927891Y-124160422D01*
X153927549Y-124135426D01*
X153927549Y-123518469D01*
X153621268Y-123518469D01*
X153621268Y-123358734D01*
X153927549Y-123358734D01*
X153927549Y-123059415D01*
X154116226Y-122977349D01*
X154116226Y-123358734D01*
X154544873Y-123358734D01*
X154544873Y-123518469D01*
X154116226Y-123518469D01*
X154116226Y-124127000D01*
X154116415Y-124142011D01*
X154117407Y-124163459D01*
X154119249Y-124183626D01*
X154121941Y-124202511D01*
X154125483Y-124220115D01*
X154129875Y-124236437D01*
X154135117Y-124251478D01*
X154141209Y-124265237D01*
X154150655Y-124281589D01*
X154161611Y-124295662D01*
X154164586Y-124298825D01*
X154177793Y-124310331D01*
X154193232Y-124320303D01*
X154210903Y-124328741D01*
X154225621Y-124334062D01*
X154241596Y-124338521D01*
X154258826Y-124342117D01*
X154277312Y-124344849D01*
X154297054Y-124346719D01*
X154318052Y-124347726D01*
X154332748Y-124347918D01*
X154544873Y-124347918D01*
X154544873Y-124507653D01*
X154314429Y-124507653D01*
G37*
G36*
X155436703Y-123335866D02*
G01*
X155464206Y-123337605D01*
X155490902Y-123340503D01*
X155516791Y-123344560D01*
X155541873Y-123349777D01*
X155566147Y-123356152D01*
X155589615Y-123363687D01*
X155612275Y-123372381D01*
X155634128Y-123382234D01*
X155655174Y-123393247D01*
X155675413Y-123405418D01*
X155694844Y-123418749D01*
X155713469Y-123433239D01*
X155731286Y-123448888D01*
X155748296Y-123465697D01*
X155764499Y-123483664D01*
X155779849Y-123502657D01*
X155794209Y-123522539D01*
X155807578Y-123543312D01*
X155819958Y-123564974D01*
X155831346Y-123587527D01*
X155841745Y-123610970D01*
X155851153Y-123635303D01*
X155859571Y-123660527D01*
X155866998Y-123686640D01*
X155873435Y-123713644D01*
X155878882Y-123741538D01*
X155883339Y-123770322D01*
X155885195Y-123785047D01*
X155886805Y-123799996D01*
X155888166Y-123815166D01*
X155889281Y-123830560D01*
X155890147Y-123846176D01*
X155890766Y-123862014D01*
X155891137Y-123878075D01*
X155891261Y-123894359D01*
X155891261Y-123987415D01*
X155073903Y-123987415D01*
X155073903Y-123993277D01*
X155074270Y-124014618D01*
X155075374Y-124035409D01*
X155077213Y-124055651D01*
X155079787Y-124075343D01*
X155083097Y-124094485D01*
X155087143Y-124113078D01*
X155091925Y-124131122D01*
X155097441Y-124148616D01*
X155103694Y-124165560D01*
X155110682Y-124181955D01*
X155118406Y-124197800D01*
X155126865Y-124213096D01*
X155136060Y-124227842D01*
X155145990Y-124242038D01*
X155156656Y-124255685D01*
X155168058Y-124268783D01*
X155180225Y-124281205D01*
X155193097Y-124292826D01*
X155206672Y-124303645D01*
X155220952Y-124313663D01*
X155235936Y-124322879D01*
X155251624Y-124331294D01*
X155268015Y-124338907D01*
X155285112Y-124345719D01*
X155302912Y-124351730D01*
X155321416Y-124356939D01*
X155340624Y-124361347D01*
X155360537Y-124364954D01*
X155381153Y-124367759D01*
X155402474Y-124369762D01*
X155424499Y-124370964D01*
X155447228Y-124371365D01*
X155467160Y-124371082D01*
X155486975Y-124370232D01*
X155506675Y-124368815D01*
X155526259Y-124366831D01*
X155545727Y-124364281D01*
X155565080Y-124361164D01*
X155584316Y-124357480D01*
X155603436Y-124353230D01*
X155622441Y-124348413D01*
X155641329Y-124343029D01*
X155653857Y-124339125D01*
X155672552Y-124332961D01*
X155691132Y-124326558D01*
X155709595Y-124319918D01*
X155727943Y-124313039D01*
X155746175Y-124305921D01*
X155764290Y-124298566D01*
X155782290Y-124290972D01*
X155800174Y-124283140D01*
X155817942Y-124275070D01*
X155835594Y-124266761D01*
X155847298Y-124261089D01*
X155847298Y-124443172D01*
X155829003Y-124450521D01*
X155810663Y-124457594D01*
X155792277Y-124464389D01*
X155773847Y-124470907D01*
X155755372Y-124477149D01*
X155736852Y-124483113D01*
X155718286Y-124488801D01*
X155699676Y-124494212D01*
X155681020Y-124499345D01*
X155662319Y-124504202D01*
X155649827Y-124507286D01*
X155631035Y-124511542D01*
X155612166Y-124515379D01*
X155593220Y-124518798D01*
X155574196Y-124521798D01*
X155555095Y-124524379D01*
X155535917Y-124526542D01*
X155516661Y-124528286D01*
X155497328Y-124529611D01*
X155477918Y-124530518D01*
X155458430Y-124531007D01*
X155445396Y-124531100D01*
X155428907Y-124530946D01*
X155412641Y-124530483D01*
X155396598Y-124529712D01*
X155380778Y-124528633D01*
X155365182Y-124527245D01*
X155349809Y-124525549D01*
X155334659Y-124523544D01*
X155319733Y-124521231D01*
X155305030Y-124518609D01*
X155290550Y-124515680D01*
X155262260Y-124508895D01*
X155234862Y-124500876D01*
X155208358Y-124491624D01*
X155182747Y-124481138D01*
X155158029Y-124469419D01*
X155134204Y-124456466D01*
X155111272Y-124442279D01*
X155089233Y-124426859D01*
X155068087Y-124410205D01*
X155047833Y-124392318D01*
X155028473Y-124373197D01*
X155010151Y-124352962D01*
X154993010Y-124331826D01*
X154977052Y-124309789D01*
X154962276Y-124286849D01*
X154948682Y-124263008D01*
X154936270Y-124238266D01*
X154925040Y-124212622D01*
X154914992Y-124186076D01*
X154906126Y-124158629D01*
X154898443Y-124130280D01*
X154895044Y-124115768D01*
X154891941Y-124101030D01*
X154889134Y-124086066D01*
X154886622Y-124070878D01*
X154884405Y-124055463D01*
X154882484Y-124039824D01*
X154880859Y-124023959D01*
X154879529Y-124007869D01*
X154878495Y-123991553D01*
X154877756Y-123975012D01*
X154877313Y-123958245D01*
X154877165Y-123941253D01*
X154877400Y-123920176D01*
X154878104Y-123899350D01*
X154879277Y-123878777D01*
X154880920Y-123858455D01*
X154883032Y-123838385D01*
X154884427Y-123827680D01*
X155081230Y-123827680D01*
X155702584Y-123827680D01*
X155702329Y-123810321D01*
X155701566Y-123793278D01*
X155700294Y-123776550D01*
X155698514Y-123760138D01*
X155696224Y-123744041D01*
X155693426Y-123728260D01*
X155690119Y-123712794D01*
X155686303Y-123697644D01*
X155681979Y-123682809D01*
X155677146Y-123668290D01*
X155673641Y-123658786D01*
X155667980Y-123644913D01*
X155661714Y-123631593D01*
X155652417Y-123614694D01*
X155642045Y-123598780D01*
X155630596Y-123583851D01*
X155618071Y-123569906D01*
X155604470Y-123556946D01*
X155589792Y-123544970D01*
X155582050Y-123539352D01*
X155565661Y-123528962D01*
X155552535Y-123522079D01*
X155538694Y-123515975D01*
X155524139Y-123510650D01*
X155508869Y-123506104D01*
X155492883Y-123502338D01*
X155476183Y-123499351D01*
X155458769Y-123497143D01*
X155440639Y-123495714D01*
X155421794Y-123495065D01*
X155415354Y-123495022D01*
X155396076Y-123495414D01*
X155377397Y-123496593D01*
X155359316Y-123498557D01*
X155341835Y-123501307D01*
X155324953Y-123504843D01*
X155308669Y-123509164D01*
X155292984Y-123514271D01*
X155277899Y-123520163D01*
X155263412Y-123526842D01*
X155249524Y-123534306D01*
X155240598Y-123539718D01*
X155227745Y-123548369D01*
X155215426Y-123557561D01*
X155203642Y-123567294D01*
X155192393Y-123577568D01*
X155181678Y-123588383D01*
X155171497Y-123599739D01*
X155161851Y-123611636D01*
X155152740Y-123624073D01*
X155144163Y-123637052D01*
X155136120Y-123650572D01*
X155131055Y-123659886D01*
X155123894Y-123674185D01*
X155117248Y-123688780D01*
X155111117Y-123703671D01*
X155105501Y-123718859D01*
X155100401Y-123734343D01*
X155095816Y-123750123D01*
X155091746Y-123766199D01*
X155088191Y-123782572D01*
X155085151Y-123799241D01*
X155082627Y-123816206D01*
X155081230Y-123827680D01*
X154884427Y-123827680D01*
X154885614Y-123818567D01*
X154888665Y-123799001D01*
X154892186Y-123779687D01*
X154896176Y-123760624D01*
X154900635Y-123741814D01*
X154905564Y-123723255D01*
X154910962Y-123704948D01*
X154916830Y-123686893D01*
X154923167Y-123669090D01*
X154929973Y-123651539D01*
X154937249Y-123634240D01*
X154944987Y-123617289D01*
X154953180Y-123600781D01*
X154961828Y-123584717D01*
X154970931Y-123569096D01*
X154980490Y-123553919D01*
X154990503Y-123539186D01*
X155000972Y-123524896D01*
X155011895Y-123511050D01*
X155023274Y-123497648D01*
X155035108Y-123484689D01*
X155047397Y-123472174D01*
X155060141Y-123460103D01*
X155073340Y-123448475D01*
X155086994Y-123437291D01*
X155101104Y-123426550D01*
X155115668Y-123416253D01*
X155130679Y-123406449D01*
X155146128Y-123397277D01*
X155162015Y-123388737D01*
X155178339Y-123380830D01*
X155195102Y-123373556D01*
X155212302Y-123366914D01*
X155229941Y-123360905D01*
X155248017Y-123355528D01*
X155266531Y-123350784D01*
X155285484Y-123346673D01*
X155304874Y-123343194D01*
X155324702Y-123340347D01*
X155344968Y-123338133D01*
X155365672Y-123336552D01*
X155386813Y-123335603D01*
X155408393Y-123335287D01*
X155436703Y-123335866D01*
G37*
G36*
X156322838Y-123358734D02*
G01*
X156494297Y-123358734D01*
X156512615Y-123586246D01*
X156518849Y-123571308D01*
X156525461Y-123556811D01*
X156532450Y-123542755D01*
X156539818Y-123529139D01*
X156547563Y-123515965D01*
X156555686Y-123503231D01*
X156564187Y-123490937D01*
X156573065Y-123479085D01*
X156582322Y-123467673D01*
X156596915Y-123451382D01*
X156612358Y-123436083D01*
X156628651Y-123421775D01*
X156645794Y-123408460D01*
X156657695Y-123400133D01*
X156676234Y-123388545D01*
X156695442Y-123378096D01*
X156715320Y-123368787D01*
X156728945Y-123363214D01*
X156742866Y-123358148D01*
X156757086Y-123353588D01*
X156771603Y-123349535D01*
X156786418Y-123345989D01*
X156801530Y-123342949D01*
X156816941Y-123340416D01*
X156832649Y-123338390D01*
X156848654Y-123336870D01*
X156864957Y-123335857D01*
X156881558Y-123335350D01*
X156889970Y-123335287D01*
X156907504Y-123335543D01*
X156924752Y-123336312D01*
X156941713Y-123337592D01*
X156958389Y-123339386D01*
X156974778Y-123341691D01*
X156990881Y-123344509D01*
X157006697Y-123347839D01*
X157022228Y-123351682D01*
X157037472Y-123356037D01*
X157052430Y-123360904D01*
X157067102Y-123366283D01*
X157081487Y-123372175D01*
X157095586Y-123378579D01*
X157109400Y-123385496D01*
X157122926Y-123392925D01*
X157136167Y-123400866D01*
X157136167Y-123598703D01*
X157122132Y-123586148D01*
X157107780Y-123574402D01*
X157093109Y-123563467D01*
X157078121Y-123553342D01*
X157062815Y-123544027D01*
X157047192Y-123535522D01*
X157031251Y-123527827D01*
X157014992Y-123520942D01*
X156998415Y-123514867D01*
X156981521Y-123509602D01*
X156964309Y-123505147D01*
X156946780Y-123501502D01*
X156928932Y-123498667D01*
X156910767Y-123496642D01*
X156892284Y-123495427D01*
X156873484Y-123495022D01*
X156852001Y-123495461D01*
X156831152Y-123496779D01*
X156810934Y-123498976D01*
X156791350Y-123502051D01*
X156772397Y-123506005D01*
X156754078Y-123510838D01*
X156736391Y-123516550D01*
X156719336Y-123523140D01*
X156702914Y-123530609D01*
X156687125Y-123538957D01*
X156671968Y-123548183D01*
X156657443Y-123558288D01*
X156643552Y-123569272D01*
X156630292Y-123581134D01*
X156617666Y-123593876D01*
X156605672Y-123607495D01*
X156594403Y-123621937D01*
X156583861Y-123637142D01*
X156574047Y-123653112D01*
X156564959Y-123669846D01*
X156556599Y-123687344D01*
X156548965Y-123705607D01*
X156542059Y-123724633D01*
X156535879Y-123744424D01*
X156530427Y-123764979D01*
X156525701Y-123786298D01*
X156521703Y-123808382D01*
X156518431Y-123831230D01*
X156515887Y-123854841D01*
X156514069Y-123879218D01*
X156512979Y-123904358D01*
X156512615Y-123930262D01*
X156512615Y-124507653D01*
X156322838Y-124507653D01*
X156322838Y-123358734D01*
G37*
G36*
X157812842Y-123147708D02*
G01*
X157797965Y-123145332D01*
X157786395Y-123135973D01*
X157782187Y-123121304D01*
X157782067Y-123117666D01*
X157782067Y-122943277D01*
X157784502Y-122928755D01*
X157794089Y-122917460D01*
X157809115Y-122913353D01*
X157812842Y-122913235D01*
X157960487Y-122913235D01*
X157975363Y-122915612D01*
X157986934Y-122924970D01*
X157991141Y-122939639D01*
X157991261Y-122943277D01*
X157991261Y-123117666D01*
X157988827Y-123132189D01*
X157979240Y-123143484D01*
X157964213Y-123147591D01*
X157960487Y-123147708D01*
X157812842Y-123147708D01*
G37*
G36*
X158157224Y-124507653D02*
G01*
X158136366Y-124507235D01*
X158116106Y-124505981D01*
X158096444Y-124503892D01*
X158077380Y-124500966D01*
X158058914Y-124497205D01*
X158041047Y-124492609D01*
X158023777Y-124487176D01*
X158007106Y-124480908D01*
X157991034Y-124473804D01*
X157975559Y-124465864D01*
X157960683Y-124457089D01*
X157946405Y-124447477D01*
X157932725Y-124437030D01*
X157919643Y-124425747D01*
X157907159Y-124413629D01*
X157895274Y-124400674D01*
X157884050Y-124386961D01*
X157873550Y-124372567D01*
X157863774Y-124357492D01*
X157854722Y-124341735D01*
X157846394Y-124325298D01*
X157838791Y-124308179D01*
X157831911Y-124290378D01*
X157825756Y-124271897D01*
X157820325Y-124252735D01*
X157815618Y-124232891D01*
X157811635Y-124212366D01*
X157808377Y-124191160D01*
X157805842Y-124169272D01*
X157804032Y-124146704D01*
X157802946Y-124123454D01*
X157802584Y-124099523D01*
X157802584Y-123518469D01*
X157551258Y-123518469D01*
X157551258Y-123358734D01*
X157991261Y-123358734D01*
X157991261Y-124093661D01*
X157991444Y-124108911D01*
X157991994Y-124123703D01*
X157993505Y-124145032D01*
X157995841Y-124165331D01*
X157999001Y-124184599D01*
X158002985Y-124202837D01*
X158007793Y-124220045D01*
X158013426Y-124236222D01*
X158019883Y-124251369D01*
X158027165Y-124265486D01*
X158035271Y-124278572D01*
X158038156Y-124282705D01*
X158047397Y-124294359D01*
X158060901Y-124308115D01*
X158075756Y-124319833D01*
X158091962Y-124329513D01*
X158109519Y-124337155D01*
X158123573Y-124341549D01*
X158138387Y-124344797D01*
X158153961Y-124346899D01*
X158170295Y-124347854D01*
X158175909Y-124347918D01*
X158396094Y-124347918D01*
X158396094Y-124507653D01*
X158157224Y-124507653D01*
G37*
G36*
X159169987Y-123335535D02*
G01*
X159189066Y-123336279D01*
X159208043Y-123337518D01*
X159226916Y-123339254D01*
X159245687Y-123341485D01*
X159264354Y-123344213D01*
X159282919Y-123347436D01*
X159301380Y-123351155D01*
X159319738Y-123355370D01*
X159337993Y-123360081D01*
X159350106Y-123363497D01*
X159368078Y-123369036D01*
X159385586Y-123375213D01*
X159402631Y-123382028D01*
X159419212Y-123389480D01*
X159435329Y-123397570D01*
X159450982Y-123406297D01*
X159466172Y-123415662D01*
X159480898Y-123425664D01*
X159495161Y-123436304D01*
X159508960Y-123447582D01*
X159517901Y-123455454D01*
X159530747Y-123467790D01*
X159542768Y-123480892D01*
X159553965Y-123494761D01*
X159564338Y-123509396D01*
X159573886Y-123524797D01*
X159582610Y-123540965D01*
X159590510Y-123557899D01*
X159597585Y-123575599D01*
X159603836Y-123594066D01*
X159609263Y-123613299D01*
X159612423Y-123626546D01*
X159615304Y-123641436D01*
X159617901Y-123657664D01*
X159620216Y-123675233D01*
X159622246Y-123694141D01*
X159623994Y-123714388D01*
X159625458Y-123735975D01*
X159626276Y-123751110D01*
X159626969Y-123766841D01*
X159627536Y-123783167D01*
X159627976Y-123800089D01*
X159628291Y-123817605D01*
X159628480Y-123835718D01*
X159628543Y-123854425D01*
X159628543Y-124088532D01*
X159628637Y-124106710D01*
X159628917Y-124125248D01*
X159629384Y-124144148D01*
X159630037Y-124163407D01*
X159630878Y-124183028D01*
X159631905Y-124203009D01*
X159633119Y-124223351D01*
X159634519Y-124244053D01*
X159636107Y-124265116D01*
X159637881Y-124286540D01*
X159639168Y-124301023D01*
X159641473Y-124322636D01*
X159644268Y-124343785D01*
X159647553Y-124364470D01*
X159651326Y-124384691D01*
X159655590Y-124404449D01*
X159660342Y-124423744D01*
X159665585Y-124442574D01*
X159671316Y-124460941D01*
X159677537Y-124478844D01*
X159684248Y-124496284D01*
X159688993Y-124507653D01*
X159499583Y-124507653D01*
X159493246Y-124491935D01*
X159487424Y-124475830D01*
X159482118Y-124459340D01*
X159477326Y-124442463D01*
X159473727Y-124428103D01*
X159471739Y-124419359D01*
X159468632Y-124404652D01*
X159465721Y-124390071D01*
X159463008Y-124375615D01*
X159460011Y-124358433D01*
X159457298Y-124341432D01*
X159455253Y-124327401D01*
X159447513Y-124340108D01*
X159439408Y-124352400D01*
X159426562Y-124370059D01*
X159412892Y-124386785D01*
X159398398Y-124402577D01*
X159383079Y-124417435D01*
X159366936Y-124431360D01*
X159349969Y-124444350D01*
X159332177Y-124456407D01*
X159313561Y-124467530D01*
X159294121Y-124477719D01*
X159287458Y-124480908D01*
X159274040Y-124486986D01*
X159260530Y-124492672D01*
X159240094Y-124500465D01*
X159219452Y-124507376D01*
X159198603Y-124513405D01*
X159177549Y-124518552D01*
X159156288Y-124522816D01*
X159134822Y-124526198D01*
X159113149Y-124528698D01*
X159091270Y-124530316D01*
X159076570Y-124530904D01*
X159061778Y-124531100D01*
X159041214Y-124530728D01*
X159021105Y-124529611D01*
X159001452Y-124527751D01*
X158982254Y-124525146D01*
X158963510Y-124521798D01*
X158945222Y-124517705D01*
X158927389Y-124512867D01*
X158910011Y-124507286D01*
X158893088Y-124500961D01*
X158876621Y-124493891D01*
X158860608Y-124486077D01*
X158845050Y-124477519D01*
X158829948Y-124468217D01*
X158815300Y-124458170D01*
X158801108Y-124447380D01*
X158787371Y-124435845D01*
X158774283Y-124423613D01*
X158762040Y-124410732D01*
X158750641Y-124397201D01*
X158740087Y-124383020D01*
X158730377Y-124368189D01*
X158721511Y-124352709D01*
X158713490Y-124336579D01*
X158706313Y-124319799D01*
X158699980Y-124302370D01*
X158694492Y-124284291D01*
X158689848Y-124265562D01*
X158686048Y-124246183D01*
X158683093Y-124226155D01*
X158680982Y-124205476D01*
X158679716Y-124184149D01*
X158679321Y-124163636D01*
X158867971Y-124163636D01*
X158868554Y-124182750D01*
X158870302Y-124200937D01*
X158873216Y-124218196D01*
X158877296Y-124234528D01*
X158882541Y-124249932D01*
X158888952Y-124264410D01*
X158896529Y-124277959D01*
X158905271Y-124290582D01*
X158915179Y-124302277D01*
X158926253Y-124313044D01*
X158934283Y-124319708D01*
X158947139Y-124328939D01*
X158960704Y-124337263D01*
X158974977Y-124344679D01*
X158989959Y-124351186D01*
X159005649Y-124356786D01*
X159022047Y-124361477D01*
X159039154Y-124365261D01*
X159056969Y-124368136D01*
X159075493Y-124370104D01*
X159094725Y-124371163D01*
X159107940Y-124371365D01*
X159129470Y-124370882D01*
X159150233Y-124369433D01*
X159170230Y-124367018D01*
X159189461Y-124363637D01*
X159207926Y-124359290D01*
X159225624Y-124353977D01*
X159242556Y-124347698D01*
X159258721Y-124340453D01*
X159274120Y-124332242D01*
X159288753Y-124323065D01*
X159298083Y-124316410D01*
X159311473Y-124305741D01*
X159324169Y-124294480D01*
X159336169Y-124282626D01*
X159347473Y-124270180D01*
X159358082Y-124257141D01*
X159367995Y-124243510D01*
X159377213Y-124229286D01*
X159385735Y-124214469D01*
X159393562Y-124199061D01*
X159400693Y-124183059D01*
X159405061Y-124172063D01*
X159411150Y-124155254D01*
X159416640Y-124138214D01*
X159421531Y-124120942D01*
X159425823Y-124103438D01*
X159429517Y-124085702D01*
X159432611Y-124067735D01*
X159435107Y-124049535D01*
X159437003Y-124031104D01*
X159438301Y-124012441D01*
X159439000Y-123993546D01*
X159439133Y-123980821D01*
X159439133Y-123940521D01*
X159199897Y-123940521D01*
X159184951Y-123940672D01*
X159170063Y-123941126D01*
X159155232Y-123941883D01*
X159140460Y-123942942D01*
X159125746Y-123944304D01*
X159111089Y-123945969D01*
X159096491Y-123947936D01*
X159081951Y-123950206D01*
X159067468Y-123952779D01*
X159053044Y-123955655D01*
X159043459Y-123957740D01*
X159024821Y-123962531D01*
X159007006Y-123968296D01*
X158990016Y-123975033D01*
X158973850Y-123982744D01*
X158958509Y-123991428D01*
X158943992Y-124001085D01*
X158930299Y-124011715D01*
X158917430Y-124023319D01*
X158905838Y-124036010D01*
X158895792Y-124050086D01*
X158887291Y-124065548D01*
X158880336Y-124082395D01*
X158874926Y-124100628D01*
X158871883Y-124115211D01*
X158869710Y-124130574D01*
X158868406Y-124146715D01*
X158867971Y-124163636D01*
X158679321Y-124163636D01*
X158679293Y-124162171D01*
X158679572Y-124143924D01*
X158680410Y-124126187D01*
X158681805Y-124108959D01*
X158683758Y-124092241D01*
X158686270Y-124076032D01*
X158689340Y-124060333D01*
X158692968Y-124045143D01*
X158697154Y-124030463D01*
X158701898Y-124016292D01*
X158710060Y-123995991D01*
X158719479Y-123976836D01*
X158730153Y-123958828D01*
X158742083Y-123941966D01*
X158750734Y-123931362D01*
X158764585Y-123916203D01*
X158779208Y-123901914D01*
X158794604Y-123888494D01*
X158810772Y-123875943D01*
X158827714Y-123864262D01*
X158845428Y-123853450D01*
X158863915Y-123843508D01*
X158883175Y-123834435D01*
X158903208Y-123826232D01*
X158916992Y-123821246D01*
X158931120Y-123816646D01*
X158938313Y-123814491D01*
X158952889Y-123810410D01*
X158967582Y-123806592D01*
X158982392Y-123803037D01*
X158997320Y-123799745D01*
X159012366Y-123796717D01*
X159027528Y-123793952D01*
X159042808Y-123791450D01*
X159058206Y-123789212D01*
X159073720Y-123787237D01*
X159089352Y-123785526D01*
X159105102Y-123784077D01*
X159120968Y-123782892D01*
X159136952Y-123781971D01*
X159153054Y-123781312D01*
X159169273Y-123780917D01*
X159185609Y-123780786D01*
X159439133Y-123780786D01*
X159439133Y-123751477D01*
X159438842Y-123733865D01*
X159437971Y-123716935D01*
X159436518Y-123700687D01*
X159434485Y-123685119D01*
X159431870Y-123670233D01*
X159426859Y-123649180D01*
X159420540Y-123629661D01*
X159412914Y-123611674D01*
X159403980Y-123595219D01*
X159393740Y-123580298D01*
X159382192Y-123566909D01*
X159369336Y-123555053D01*
X159364761Y-123551442D01*
X159350288Y-123541359D01*
X159334759Y-123532268D01*
X159318174Y-123524168D01*
X159300533Y-123517061D01*
X159281835Y-123510945D01*
X159262082Y-123505821D01*
X159241272Y-123501688D01*
X159219406Y-123498548D01*
X159204242Y-123497005D01*
X159188608Y-123495903D01*
X159172506Y-123495242D01*
X159155933Y-123495022D01*
X159136388Y-123495276D01*
X159116907Y-123496039D01*
X159097490Y-123497311D01*
X159078138Y-123499092D01*
X159058850Y-123501381D01*
X159039627Y-123504179D01*
X159020468Y-123507486D01*
X159001373Y-123511302D01*
X158982343Y-123515626D01*
X158963377Y-123520460D01*
X158950769Y-123523964D01*
X158932063Y-123529591D01*
X158913589Y-123535617D01*
X158895347Y-123542042D01*
X158877336Y-123548866D01*
X158859557Y-123556089D01*
X158842011Y-123563712D01*
X158824696Y-123571734D01*
X158807612Y-123580156D01*
X158790761Y-123588976D01*
X158774142Y-123598196D01*
X158763191Y-123604565D01*
X158763191Y-123415521D01*
X158780930Y-123409101D01*
X158798701Y-123402894D01*
X158816504Y-123396899D01*
X158834340Y-123391117D01*
X158852208Y-123385548D01*
X158870108Y-123380191D01*
X158888040Y-123375046D01*
X158906004Y-123370114D01*
X158924001Y-123365395D01*
X158942029Y-123360888D01*
X158954067Y-123358001D01*
X158972168Y-123353942D01*
X158990341Y-123350282D01*
X159008584Y-123347021D01*
X159026899Y-123344160D01*
X159045284Y-123341697D01*
X159063740Y-123339635D01*
X159082266Y-123337971D01*
X159100864Y-123336706D01*
X159119533Y-123335841D01*
X159138272Y-123335376D01*
X159150804Y-123335287D01*
X159169987Y-123335535D01*
G37*
G36*
X160213261Y-124798546D02*
G01*
X160228708Y-124791380D01*
X160243679Y-124783987D01*
X160258174Y-124776367D01*
X160272194Y-124768521D01*
X160285737Y-124760448D01*
X160298805Y-124752148D01*
X160311397Y-124743621D01*
X160323513Y-124734867D01*
X160335154Y-124725886D01*
X160357007Y-124707245D01*
X160376956Y-124687696D01*
X160395003Y-124667240D01*
X160411146Y-124645876D01*
X160425385Y-124623605D01*
X160437721Y-124600427D01*
X160448154Y-124576341D01*
X160456683Y-124551348D01*
X160463310Y-124525448D01*
X160468032Y-124498640D01*
X160470851Y-124470926D01*
X160471547Y-124456728D01*
X160456946Y-124459022D01*
X160441611Y-124460439D01*
X160430515Y-124460758D01*
X160413524Y-124460145D01*
X160397359Y-124458308D01*
X160382017Y-124455245D01*
X160367500Y-124450958D01*
X160353807Y-124445445D01*
X160337850Y-124436831D01*
X160323181Y-124426304D01*
X160317674Y-124421557D01*
X160307113Y-124411167D01*
X160295891Y-124396779D01*
X160286870Y-124380835D01*
X160281237Y-124366959D01*
X160277012Y-124352087D01*
X160274196Y-124336218D01*
X160272788Y-124319354D01*
X160272612Y-124310549D01*
X160273298Y-124294108D01*
X160275359Y-124278125D01*
X160278794Y-124262601D01*
X160283602Y-124247534D01*
X160290128Y-124233062D01*
X160298349Y-124219690D01*
X160308263Y-124207417D01*
X160319873Y-124196243D01*
X160332224Y-124187021D01*
X160346199Y-124178726D01*
X160359984Y-124172132D01*
X160371164Y-124167666D01*
X160386917Y-124162537D01*
X160401303Y-124159252D01*
X160416249Y-124157088D01*
X160431757Y-124156046D01*
X160438575Y-124155943D01*
X160454582Y-124156551D01*
X160469907Y-124158377D01*
X160484550Y-124161420D01*
X160503011Y-124167371D01*
X160520259Y-124175485D01*
X160536293Y-124185763D01*
X160551114Y-124198205D01*
X160561433Y-124208957D01*
X160571069Y-124220926D01*
X160574129Y-124225186D01*
X160582510Y-124238446D01*
X160590066Y-124252672D01*
X160596798Y-124267864D01*
X160602706Y-124284021D01*
X160607789Y-124301145D01*
X160612048Y-124319235D01*
X160615483Y-124338291D01*
X160618093Y-124358313D01*
X160619879Y-124379301D01*
X160620841Y-124401255D01*
X160621024Y-124416428D01*
X160620656Y-124437864D01*
X160619553Y-124458943D01*
X160617714Y-124479664D01*
X160615139Y-124500028D01*
X160611829Y-124520033D01*
X160607783Y-124539681D01*
X160603002Y-124558971D01*
X160597485Y-124577903D01*
X160591233Y-124596477D01*
X160584244Y-124614694D01*
X160576521Y-124632553D01*
X160568061Y-124650054D01*
X160558867Y-124667197D01*
X160548936Y-124683982D01*
X160538270Y-124700410D01*
X160526868Y-124716480D01*
X160514750Y-124731899D01*
X160502024Y-124746831D01*
X160488692Y-124761277D01*
X160474753Y-124775236D01*
X160460207Y-124788708D01*
X160445055Y-124801694D01*
X160429295Y-124814193D01*
X160412929Y-124826206D01*
X160395956Y-124837732D01*
X160378376Y-124848772D01*
X160360190Y-124859325D01*
X160341396Y-124869391D01*
X160321996Y-124878971D01*
X160301989Y-124888065D01*
X160281376Y-124896671D01*
X160260155Y-124904791D01*
X160213261Y-124798546D01*
G37*
G36*
X162715895Y-123515904D02*
G01*
X162725069Y-123499019D01*
X162734867Y-123482983D01*
X162745290Y-123467798D01*
X162756338Y-123453462D01*
X162768011Y-123439977D01*
X162780308Y-123427342D01*
X162793230Y-123415556D01*
X162806776Y-123404621D01*
X162820947Y-123394536D01*
X162835743Y-123385301D01*
X162845954Y-123379617D01*
X162861728Y-123371695D01*
X162877862Y-123364552D01*
X162894357Y-123358188D01*
X162911213Y-123352603D01*
X162928429Y-123347798D01*
X162946006Y-123343772D01*
X162963944Y-123340525D01*
X162982242Y-123338057D01*
X163000901Y-123336369D01*
X163019920Y-123335460D01*
X163032800Y-123335287D01*
X163048034Y-123335491D01*
X163062962Y-123336105D01*
X163077584Y-123337129D01*
X163098942Y-123339431D01*
X163119611Y-123342654D01*
X163139591Y-123346798D01*
X163158882Y-123351863D01*
X163177484Y-123357849D01*
X163195397Y-123364756D01*
X163212621Y-123372584D01*
X163229155Y-123381333D01*
X163239796Y-123387677D01*
X163255299Y-123397803D01*
X163270210Y-123408534D01*
X163284528Y-123419870D01*
X163298254Y-123431812D01*
X163311387Y-123444360D01*
X163323928Y-123457512D01*
X163335876Y-123471270D01*
X163347232Y-123485634D01*
X163357995Y-123500602D01*
X163368166Y-123516176D01*
X163374618Y-123526895D01*
X163383912Y-123543343D01*
X163392697Y-123560126D01*
X163400974Y-123577243D01*
X163408741Y-123594696D01*
X163416000Y-123612483D01*
X163422750Y-123630605D01*
X163428992Y-123649062D01*
X163434724Y-123667854D01*
X163439948Y-123686981D01*
X163444664Y-123706442D01*
X163447524Y-123719603D01*
X163451453Y-123739452D01*
X163454995Y-123759295D01*
X163458150Y-123779131D01*
X163460920Y-123798961D01*
X163463302Y-123818784D01*
X163465299Y-123838601D01*
X163466909Y-123858412D01*
X163468132Y-123878216D01*
X163468970Y-123898013D01*
X163469420Y-123917805D01*
X163469506Y-123930995D01*
X163469307Y-123951047D01*
X163468708Y-123971086D01*
X163467709Y-123991113D01*
X163466312Y-124011126D01*
X163464515Y-124031126D01*
X163462319Y-124051114D01*
X163459724Y-124071089D01*
X163456729Y-124091051D01*
X163453335Y-124110999D01*
X163449542Y-124130936D01*
X163446792Y-124144219D01*
X163442350Y-124163976D01*
X163437406Y-124183404D01*
X163431960Y-124202504D01*
X163426012Y-124221276D01*
X163419561Y-124239719D01*
X163412608Y-124257834D01*
X163405153Y-124275620D01*
X163397195Y-124293078D01*
X163388735Y-124310207D01*
X163379773Y-124327008D01*
X163373519Y-124338026D01*
X163363743Y-124354075D01*
X163353374Y-124369526D01*
X163342414Y-124384378D01*
X163330860Y-124398631D01*
X163318714Y-124412284D01*
X163305976Y-124425339D01*
X163292645Y-124437795D01*
X163278722Y-124449652D01*
X163264206Y-124460911D01*
X163249098Y-124471570D01*
X163238697Y-124478343D01*
X163222621Y-124487772D01*
X163205857Y-124496272D01*
X163188404Y-124503846D01*
X163170261Y-124510492D01*
X163151429Y-124516211D01*
X163131909Y-124521002D01*
X163111699Y-124524866D01*
X163090800Y-124527803D01*
X163069212Y-124529812D01*
X163054437Y-124530636D01*
X163039356Y-124531048D01*
X163031701Y-124531100D01*
X163005008Y-124530420D01*
X162979242Y-124528381D01*
X162954404Y-124524982D01*
X162930493Y-124520223D01*
X162907509Y-124514105D01*
X162885453Y-124506628D01*
X162864324Y-124497791D01*
X162844122Y-124487594D01*
X162824848Y-124476038D01*
X162806501Y-124463122D01*
X162789082Y-124448847D01*
X162772590Y-124433212D01*
X162757025Y-124416217D01*
X162742388Y-124397863D01*
X162728678Y-124378150D01*
X162715895Y-124357077D01*
X162697577Y-124507653D01*
X162527217Y-124507653D01*
X162527217Y-123932094D01*
X162715895Y-123932094D01*
X162716055Y-123949691D01*
X162716536Y-123967494D01*
X162717337Y-123985503D01*
X162718459Y-124003718D01*
X162719902Y-124022140D01*
X162721665Y-124040767D01*
X162723749Y-124059600D01*
X162726153Y-124078640D01*
X162729015Y-124097628D01*
X162732473Y-124116307D01*
X162736526Y-124134676D01*
X162741174Y-124152737D01*
X162746418Y-124170489D01*
X162752257Y-124187931D01*
X162758691Y-124205064D01*
X162765720Y-124221888D01*
X162773443Y-124238083D01*
X162781955Y-124253510D01*
X162791257Y-124268170D01*
X162801349Y-124282064D01*
X162812231Y-124295190D01*
X162823904Y-124307549D01*
X162836366Y-124319141D01*
X162849618Y-124329966D01*
X162863895Y-124339669D01*
X162879248Y-124348078D01*
X162895677Y-124355193D01*
X162913182Y-124361015D01*
X162931764Y-124365543D01*
X162946406Y-124368090D01*
X162961654Y-124369910D01*
X162977507Y-124371001D01*
X162993965Y-124371365D01*
X163010552Y-124371001D01*
X163026513Y-124369910D01*
X163041850Y-124368090D01*
X163056562Y-124365543D01*
X163075207Y-124361015D01*
X163092741Y-124355193D01*
X163109164Y-124348078D01*
X163124477Y-124339669D01*
X163138679Y-124329966D01*
X163152000Y-124319135D01*
X163164485Y-124307526D01*
X163176134Y-124295138D01*
X163186948Y-124281972D01*
X163196925Y-124268027D01*
X163206067Y-124253304D01*
X163214374Y-124237802D01*
X163221844Y-124221522D01*
X163228616Y-124204618D01*
X163234827Y-124187427D01*
X163240477Y-124169951D01*
X163245566Y-124152188D01*
X163250094Y-124134138D01*
X163254061Y-124115803D01*
X163257467Y-124097181D01*
X163260312Y-124078274D01*
X163262716Y-124059337D01*
X163264800Y-124040630D01*
X163266563Y-124022151D01*
X163268006Y-124003902D01*
X163269128Y-123985881D01*
X163269929Y-123968090D01*
X163270410Y-123950527D01*
X163270570Y-123933193D01*
X163270410Y-123915854D01*
X163269929Y-123898274D01*
X163269128Y-123880454D01*
X163268006Y-123862393D01*
X163266563Y-123844092D01*
X163264800Y-123825551D01*
X163262716Y-123806769D01*
X163260312Y-123787747D01*
X163257467Y-123768764D01*
X163254061Y-123750103D01*
X163250094Y-123731762D01*
X163245566Y-123713741D01*
X163240477Y-123696041D01*
X163234827Y-123678662D01*
X163228616Y-123661603D01*
X163221844Y-123644865D01*
X163214374Y-123628590D01*
X163206067Y-123613105D01*
X163196925Y-123598411D01*
X163186948Y-123584506D01*
X163176134Y-123571391D01*
X163164485Y-123559067D01*
X163152000Y-123547532D01*
X163138679Y-123536787D01*
X163124477Y-123526998D01*
X163109164Y-123518515D01*
X163092741Y-123511336D01*
X163075207Y-123505463D01*
X163056562Y-123500895D01*
X163041850Y-123498325D01*
X163026513Y-123496490D01*
X163010552Y-123495389D01*
X162993965Y-123495022D01*
X162977507Y-123495389D01*
X162961654Y-123496490D01*
X162946406Y-123498325D01*
X162931764Y-123500895D01*
X162913182Y-123505463D01*
X162895677Y-123511336D01*
X162879248Y-123518515D01*
X162863895Y-123526998D01*
X162849618Y-123536787D01*
X162836366Y-123547521D01*
X162823904Y-123559021D01*
X162812231Y-123571288D01*
X162801349Y-123584323D01*
X162791257Y-123598125D01*
X162781955Y-123612693D01*
X162773443Y-123628029D01*
X162765720Y-123644132D01*
X162758691Y-123660784D01*
X162752257Y-123677769D01*
X162746418Y-123695085D01*
X162741174Y-123712734D01*
X162736526Y-123730714D01*
X162732473Y-123749027D01*
X162729015Y-123767671D01*
X162726153Y-123786648D01*
X162723749Y-123805670D01*
X162721665Y-123824452D01*
X162719902Y-123842993D01*
X162718459Y-123861294D01*
X162717337Y-123879355D01*
X162716536Y-123897175D01*
X162716055Y-123914755D01*
X162715895Y-123932094D01*
X162527217Y-123932094D01*
X162527217Y-122913235D01*
X162715895Y-122913235D01*
X162715895Y-123515904D01*
G37*
G36*
X163781282Y-124793417D02*
G01*
X163893023Y-124793417D01*
X163908282Y-124793004D01*
X163927585Y-124791173D01*
X163945697Y-124787875D01*
X163962618Y-124783113D01*
X163978349Y-124776884D01*
X163992889Y-124769191D01*
X164006238Y-124760032D01*
X164018397Y-124749407D01*
X164021251Y-124746522D01*
X164034136Y-124731249D01*
X164044244Y-124716819D01*
X164054732Y-124699839D01*
X164065599Y-124680309D01*
X164073055Y-124665872D01*
X164080680Y-124650301D01*
X164088474Y-124633597D01*
X164096437Y-124615760D01*
X164104568Y-124596789D01*
X164112869Y-124576685D01*
X164121338Y-124555447D01*
X164129976Y-124533076D01*
X164138783Y-124509572D01*
X164143250Y-124497394D01*
X163699217Y-123358734D01*
X163899251Y-123358734D01*
X164239604Y-124266218D01*
X164574827Y-123358734D01*
X164774862Y-123358734D01*
X164472245Y-124142387D01*
X164465597Y-124159623D01*
X164459116Y-124176433D01*
X164452803Y-124192819D01*
X164446657Y-124208779D01*
X164440678Y-124224315D01*
X164434867Y-124239425D01*
X164429224Y-124254111D01*
X164423748Y-124268371D01*
X164418439Y-124282206D01*
X164411621Y-124299992D01*
X164409963Y-124304320D01*
X164404159Y-124318694D01*
X164398352Y-124333039D01*
X164396774Y-124336927D01*
X164391483Y-124351348D01*
X164386193Y-124366174D01*
X164385783Y-124367335D01*
X164380910Y-124381195D01*
X164375930Y-124395426D01*
X164370783Y-124410170D01*
X164365786Y-124424510D01*
X164364900Y-124427052D01*
X164352444Y-124460025D01*
X164347470Y-124473977D01*
X164340072Y-124494502D01*
X164332752Y-124514545D01*
X164325509Y-124534104D01*
X164318344Y-124553180D01*
X164311255Y-124571774D01*
X164304244Y-124589884D01*
X164297311Y-124607511D01*
X164290454Y-124624656D01*
X164283675Y-124641317D01*
X164276973Y-124657495D01*
X164270469Y-124673131D01*
X164264145Y-124688025D01*
X164258001Y-124702179D01*
X164252037Y-124715593D01*
X164244367Y-124732325D01*
X164237016Y-124747741D01*
X164229987Y-124761841D01*
X164221651Y-124777613D01*
X164216889Y-124786089D01*
X164205004Y-124806320D01*
X164192337Y-124825245D01*
X164178889Y-124842864D01*
X164164659Y-124859179D01*
X164149649Y-124874189D01*
X164133856Y-124887893D01*
X164117283Y-124900292D01*
X164099927Y-124911386D01*
X164081791Y-124921175D01*
X164062873Y-124929658D01*
X164043174Y-124936837D01*
X164022693Y-124942710D01*
X164001431Y-124947278D01*
X163979388Y-124950541D01*
X163956563Y-124952499D01*
X163932957Y-124953151D01*
X163781282Y-124953151D01*
X163781282Y-124793417D01*
G37*
G36*
X166787667Y-123147708D02*
G01*
X166772791Y-123145332D01*
X166761220Y-123135973D01*
X166757013Y-123121304D01*
X166756893Y-123117666D01*
X166756893Y-122943277D01*
X166759327Y-122928755D01*
X166768914Y-122917460D01*
X166783941Y-122913353D01*
X166787667Y-122913235D01*
X166935312Y-122913235D01*
X166950189Y-122915612D01*
X166961759Y-122924970D01*
X166965967Y-122939639D01*
X166966087Y-122943277D01*
X166966087Y-123117666D01*
X166963652Y-123132189D01*
X166954065Y-123143484D01*
X166939039Y-123147591D01*
X166935312Y-123147708D01*
X166787667Y-123147708D01*
G37*
G36*
X166363051Y-124793417D02*
G01*
X166603020Y-124793417D01*
X166625379Y-124792418D01*
X166646297Y-124789421D01*
X166665771Y-124784426D01*
X166683803Y-124777434D01*
X166700393Y-124768444D01*
X166715539Y-124757456D01*
X166729244Y-124744470D01*
X166741505Y-124729486D01*
X166752325Y-124712505D01*
X166761701Y-124693525D01*
X166769635Y-124672548D01*
X166776127Y-124649573D01*
X166781176Y-124624600D01*
X166784782Y-124597629D01*
X166786946Y-124568661D01*
X166787487Y-124553427D01*
X166787667Y-124537694D01*
X166787667Y-123518469D01*
X166462702Y-123518469D01*
X166462702Y-123358734D01*
X166976345Y-123358734D01*
X166976345Y-124534397D01*
X166975984Y-124559047D01*
X166974902Y-124582986D01*
X166973099Y-124606216D01*
X166970575Y-124628736D01*
X166967329Y-124650546D01*
X166963362Y-124671646D01*
X166958674Y-124692037D01*
X166953264Y-124711717D01*
X166947133Y-124730688D01*
X166940281Y-124748949D01*
X166932708Y-124766500D01*
X166924413Y-124783342D01*
X166915397Y-124799473D01*
X166905660Y-124814895D01*
X166895201Y-124829607D01*
X166884021Y-124843609D01*
X166872184Y-124856873D01*
X166859755Y-124869283D01*
X166846734Y-124880836D01*
X166833119Y-124891534D01*
X166818913Y-124901375D01*
X166804114Y-124910361D01*
X166788722Y-124918491D01*
X166772738Y-124925766D01*
X166756161Y-124932184D01*
X166738992Y-124937747D01*
X166721231Y-124942454D01*
X166702877Y-124946305D01*
X166683930Y-124949300D01*
X166664392Y-124951440D01*
X166644260Y-124952724D01*
X166623536Y-124953151D01*
X166363051Y-124953151D01*
X166363051Y-124793417D01*
G37*
G36*
X167593669Y-123808629D02*
G01*
X168435207Y-123808629D01*
X168435207Y-123968364D01*
X167593669Y-123968364D01*
X167593669Y-123808629D01*
G37*
G36*
X168645501Y-123358734D02*
G01*
X168831980Y-123358734D01*
X169032015Y-124287468D01*
X169196146Y-123694324D01*
X169356980Y-123694324D01*
X169523309Y-124287468D01*
X169723344Y-123358734D01*
X169909824Y-123358734D01*
X169641279Y-124507653D01*
X169460661Y-124507653D01*
X169277113Y-123880071D01*
X169094663Y-124507653D01*
X168914046Y-124507653D01*
X168645501Y-123358734D01*
G37*
G36*
X170120117Y-123808629D02*
G01*
X170961656Y-123808629D01*
X170961656Y-123968364D01*
X170120117Y-123968364D01*
X170120117Y-123808629D01*
G37*
G36*
X171858615Y-123335866D02*
G01*
X171886118Y-123337605D01*
X171912814Y-123340503D01*
X171938703Y-123344560D01*
X171963785Y-123349777D01*
X171988059Y-123356152D01*
X172011527Y-123363687D01*
X172034187Y-123372381D01*
X172056040Y-123382234D01*
X172077086Y-123393247D01*
X172097325Y-123405418D01*
X172116756Y-123418749D01*
X172135381Y-123433239D01*
X172153198Y-123448888D01*
X172170208Y-123465697D01*
X172186411Y-123483664D01*
X172201761Y-123502657D01*
X172216121Y-123522539D01*
X172229491Y-123543312D01*
X172241870Y-123564974D01*
X172253258Y-123587527D01*
X172263657Y-123610970D01*
X172273065Y-123635303D01*
X172281483Y-123660527D01*
X172288910Y-123686640D01*
X172295347Y-123713644D01*
X172300794Y-123741538D01*
X172305251Y-123770322D01*
X172307108Y-123785047D01*
X172308717Y-123799996D01*
X172310079Y-123815166D01*
X172311193Y-123830560D01*
X172312059Y-123846176D01*
X172312678Y-123862014D01*
X172313050Y-123878075D01*
X172313173Y-123894359D01*
X172313173Y-123987415D01*
X171495815Y-123987415D01*
X171495815Y-123993277D01*
X171496182Y-124014618D01*
X171497286Y-124035409D01*
X171499125Y-124055651D01*
X171501699Y-124075343D01*
X171505009Y-124094485D01*
X171509055Y-124113078D01*
X171513837Y-124131122D01*
X171519354Y-124148616D01*
X171525606Y-124165560D01*
X171532594Y-124181955D01*
X171540318Y-124197800D01*
X171548777Y-124213096D01*
X171557972Y-124227842D01*
X171567903Y-124242038D01*
X171578569Y-124255685D01*
X171589970Y-124268783D01*
X171602138Y-124281205D01*
X171615009Y-124292826D01*
X171628584Y-124303645D01*
X171642864Y-124313663D01*
X171657848Y-124322879D01*
X171673536Y-124331294D01*
X171689928Y-124338907D01*
X171707024Y-124345719D01*
X171724824Y-124351730D01*
X171743328Y-124356939D01*
X171762536Y-124361347D01*
X171782449Y-124364954D01*
X171803065Y-124367759D01*
X171824386Y-124369762D01*
X171846411Y-124370964D01*
X171869140Y-124371365D01*
X171889072Y-124371082D01*
X171908887Y-124370232D01*
X171928587Y-124368815D01*
X171948171Y-124366831D01*
X171967640Y-124364281D01*
X171986992Y-124361164D01*
X172006228Y-124357480D01*
X172025348Y-124353230D01*
X172044353Y-124348413D01*
X172063241Y-124343029D01*
X172075769Y-124339125D01*
X172094465Y-124332961D01*
X172113044Y-124326558D01*
X172131507Y-124319918D01*
X172149855Y-124313039D01*
X172168087Y-124305921D01*
X172186202Y-124298566D01*
X172204202Y-124290972D01*
X172222086Y-124283140D01*
X172239854Y-124275070D01*
X172257506Y-124266761D01*
X172269210Y-124261089D01*
X172269210Y-124443172D01*
X172250915Y-124450521D01*
X172232575Y-124457594D01*
X172214189Y-124464389D01*
X172195759Y-124470907D01*
X172177284Y-124477149D01*
X172158764Y-124483113D01*
X172140198Y-124488801D01*
X172121588Y-124494212D01*
X172102932Y-124499345D01*
X172084231Y-124504202D01*
X172071739Y-124507286D01*
X172052947Y-124511542D01*
X172034078Y-124515379D01*
X172015132Y-124518798D01*
X171996108Y-124521798D01*
X171977007Y-124524379D01*
X171957829Y-124526542D01*
X171938573Y-124528286D01*
X171919240Y-124529611D01*
X171899830Y-124530518D01*
X171880343Y-124531007D01*
X171867308Y-124531100D01*
X171850819Y-124530946D01*
X171834553Y-124530483D01*
X171818510Y-124529712D01*
X171802690Y-124528633D01*
X171787094Y-124527245D01*
X171771721Y-124525549D01*
X171756572Y-124523544D01*
X171741645Y-124521231D01*
X171726942Y-124518609D01*
X171712462Y-124515680D01*
X171684172Y-124508895D01*
X171656774Y-124500876D01*
X171630270Y-124491624D01*
X171604659Y-124481138D01*
X171579941Y-124469419D01*
X171556116Y-124456466D01*
X171533184Y-124442279D01*
X171511145Y-124426859D01*
X171489999Y-124410205D01*
X171469746Y-124392318D01*
X171450385Y-124373197D01*
X171432063Y-124352962D01*
X171414923Y-124331826D01*
X171398964Y-124309789D01*
X171384188Y-124286849D01*
X171370594Y-124263008D01*
X171358182Y-124238266D01*
X171346952Y-124212622D01*
X171336904Y-124186076D01*
X171328038Y-124158629D01*
X171320355Y-124130280D01*
X171316956Y-124115768D01*
X171313853Y-124101030D01*
X171311046Y-124086066D01*
X171308534Y-124070878D01*
X171306317Y-124055463D01*
X171304396Y-124039824D01*
X171302771Y-124023959D01*
X171301441Y-124007869D01*
X171300407Y-123991553D01*
X171299668Y-123975012D01*
X171299225Y-123958245D01*
X171299077Y-123941253D01*
X171299312Y-123920176D01*
X171300016Y-123899350D01*
X171301189Y-123878777D01*
X171302832Y-123858455D01*
X171304945Y-123838385D01*
X171306339Y-123827680D01*
X171503142Y-123827680D01*
X172124496Y-123827680D01*
X172124241Y-123810321D01*
X172123478Y-123793278D01*
X172122206Y-123776550D01*
X172120426Y-123760138D01*
X172118136Y-123744041D01*
X172115338Y-123728260D01*
X172112031Y-123712794D01*
X172108215Y-123697644D01*
X172103891Y-123682809D01*
X172099058Y-123668290D01*
X172095553Y-123658786D01*
X172089892Y-123644913D01*
X172083626Y-123631593D01*
X172074330Y-123614694D01*
X172063957Y-123598780D01*
X172052508Y-123583851D01*
X172039983Y-123569906D01*
X172026382Y-123556946D01*
X172011704Y-123544970D01*
X172003962Y-123539352D01*
X171987573Y-123528962D01*
X171974447Y-123522079D01*
X171960606Y-123515975D01*
X171946051Y-123510650D01*
X171930781Y-123506104D01*
X171914795Y-123502338D01*
X171898095Y-123499351D01*
X171880681Y-123497143D01*
X171862551Y-123495714D01*
X171843706Y-123495065D01*
X171837266Y-123495022D01*
X171817988Y-123495414D01*
X171799309Y-123496593D01*
X171781228Y-123498557D01*
X171763747Y-123501307D01*
X171746865Y-123504843D01*
X171730581Y-123509164D01*
X171714897Y-123514271D01*
X171699811Y-123520163D01*
X171685324Y-123526842D01*
X171671436Y-123534306D01*
X171662510Y-123539718D01*
X171649657Y-123548369D01*
X171637339Y-123557561D01*
X171625554Y-123567294D01*
X171614305Y-123577568D01*
X171603590Y-123588383D01*
X171593409Y-123599739D01*
X171583763Y-123611636D01*
X171574652Y-123624073D01*
X171566075Y-123637052D01*
X171558032Y-123650572D01*
X171552967Y-123659886D01*
X171545806Y-123674185D01*
X171539160Y-123688780D01*
X171533029Y-123703671D01*
X171527414Y-123718859D01*
X171522313Y-123734343D01*
X171517728Y-123750123D01*
X171513658Y-123766199D01*
X171510103Y-123782572D01*
X171507063Y-123799241D01*
X171504539Y-123816206D01*
X171503142Y-123827680D01*
X171306339Y-123827680D01*
X171307526Y-123818567D01*
X171310577Y-123799001D01*
X171314098Y-123779687D01*
X171318088Y-123760624D01*
X171322547Y-123741814D01*
X171327476Y-123723255D01*
X171332874Y-123704948D01*
X171338742Y-123686893D01*
X171345079Y-123669090D01*
X171351885Y-123651539D01*
X171359161Y-123634240D01*
X171366899Y-123617289D01*
X171375092Y-123600781D01*
X171383740Y-123584717D01*
X171392843Y-123569096D01*
X171402402Y-123553919D01*
X171412415Y-123539186D01*
X171422884Y-123524896D01*
X171433807Y-123511050D01*
X171445186Y-123497648D01*
X171457020Y-123484689D01*
X171469309Y-123472174D01*
X171482053Y-123460103D01*
X171495252Y-123448475D01*
X171508906Y-123437291D01*
X171523016Y-123426550D01*
X171537580Y-123416253D01*
X171552591Y-123406449D01*
X171568040Y-123397277D01*
X171583927Y-123388737D01*
X171600251Y-123380830D01*
X171617014Y-123373556D01*
X171634214Y-123366914D01*
X171651853Y-123360905D01*
X171669929Y-123355528D01*
X171688444Y-123350784D01*
X171707396Y-123346673D01*
X171726786Y-123343194D01*
X171746614Y-123340347D01*
X171766880Y-123338133D01*
X171787584Y-123336552D01*
X171808725Y-123335603D01*
X171830305Y-123335287D01*
X171858615Y-123335866D01*
G37*
X195944748Y-164839971D02*
X195611415Y-164363780D01*
X195373320Y-164839971D02*
X195373320Y-163839971D01*
X195373320Y-163839971D02*
X195754272Y-163839971D01*
X195754272Y-163839971D02*
X195849510Y-163887590D01*
X195849510Y-163887590D02*
X195897129Y-163935209D01*
X195897129Y-163935209D02*
X195944748Y-164030447D01*
X195944748Y-164030447D02*
X195944748Y-164173304D01*
X195944748Y-164173304D02*
X195897129Y-164268542D01*
X195897129Y-164268542D02*
X195849510Y-164316161D01*
X195849510Y-164316161D02*
X195754272Y-164363780D01*
X195754272Y-164363780D02*
X195373320Y-164363780D01*
X196373320Y-164316161D02*
X196706653Y-164316161D01*
X196849510Y-164839971D02*
X196373320Y-164839971D01*
X196373320Y-164839971D02*
X196373320Y-163839971D01*
X196373320Y-163839971D02*
X196849510Y-163839971D01*
X197230463Y-164792352D02*
X197373320Y-164839971D01*
X197373320Y-164839971D02*
X197611415Y-164839971D01*
X197611415Y-164839971D02*
X197706653Y-164792352D01*
X197706653Y-164792352D02*
X197754272Y-164744732D01*
X197754272Y-164744732D02*
X197801891Y-164649494D01*
X197801891Y-164649494D02*
X197801891Y-164554256D01*
X197801891Y-164554256D02*
X197754272Y-164459018D01*
X197754272Y-164459018D02*
X197706653Y-164411399D01*
X197706653Y-164411399D02*
X197611415Y-164363780D01*
X197611415Y-164363780D02*
X197420939Y-164316161D01*
X197420939Y-164316161D02*
X197325701Y-164268542D01*
X197325701Y-164268542D02*
X197278082Y-164220923D01*
X197278082Y-164220923D02*
X197230463Y-164125685D01*
X197230463Y-164125685D02*
X197230463Y-164030447D01*
X197230463Y-164030447D02*
X197278082Y-163935209D01*
X197278082Y-163935209D02*
X197325701Y-163887590D01*
X197325701Y-163887590D02*
X197420939Y-163839971D01*
X197420939Y-163839971D02*
X197659034Y-163839971D01*
X197659034Y-163839971D02*
X197801891Y-163887590D01*
X198230463Y-164316161D02*
X198563796Y-164316161D01*
X198706653Y-164839971D02*
X198230463Y-164839971D01*
X198230463Y-164839971D02*
X198230463Y-163839971D01*
X198230463Y-163839971D02*
X198706653Y-163839971D01*
X198992368Y-163839971D02*
X199563796Y-163839971D01*
X199278082Y-164839971D02*
X199278082Y-163839971D01*
X198959036Y-124528396D02*
X199073322Y-124566491D01*
X199073322Y-124566491D02*
X199111417Y-124604587D01*
X199111417Y-124604587D02*
X199149513Y-124680777D01*
X199149513Y-124680777D02*
X199149513Y-124795063D01*
X199149513Y-124795063D02*
X199111417Y-124871253D01*
X199111417Y-124871253D02*
X199073322Y-124909349D01*
X199073322Y-124909349D02*
X198997132Y-124947444D01*
X198997132Y-124947444D02*
X198692370Y-124947444D01*
X198692370Y-124947444D02*
X198692370Y-124147444D01*
X198692370Y-124147444D02*
X198959036Y-124147444D01*
X198959036Y-124147444D02*
X199035227Y-124185539D01*
X199035227Y-124185539D02*
X199073322Y-124223634D01*
X199073322Y-124223634D02*
X199111417Y-124299825D01*
X199111417Y-124299825D02*
X199111417Y-124376015D01*
X199111417Y-124376015D02*
X199073322Y-124452206D01*
X199073322Y-124452206D02*
X199035227Y-124490301D01*
X199035227Y-124490301D02*
X198959036Y-124528396D01*
X198959036Y-124528396D02*
X198692370Y-124528396D01*
X199492370Y-124642682D02*
X200101894Y-124642682D01*
X199797132Y-124947444D02*
X199797132Y-124337920D01*
X194959036Y-124528396D02*
X195073322Y-124566491D01*
X195073322Y-124566491D02*
X195111417Y-124604587D01*
X195111417Y-124604587D02*
X195149513Y-124680777D01*
X195149513Y-124680777D02*
X195149513Y-124795063D01*
X195149513Y-124795063D02*
X195111417Y-124871253D01*
X195111417Y-124871253D02*
X195073322Y-124909349D01*
X195073322Y-124909349D02*
X194997132Y-124947444D01*
X194997132Y-124947444D02*
X194692370Y-124947444D01*
X194692370Y-124947444D02*
X194692370Y-124147444D01*
X194692370Y-124147444D02*
X194959036Y-124147444D01*
X194959036Y-124147444D02*
X195035227Y-124185539D01*
X195035227Y-124185539D02*
X195073322Y-124223634D01*
X195073322Y-124223634D02*
X195111417Y-124299825D01*
X195111417Y-124299825D02*
X195111417Y-124376015D01*
X195111417Y-124376015D02*
X195073322Y-124452206D01*
X195073322Y-124452206D02*
X195035227Y-124490301D01*
X195035227Y-124490301D02*
X194959036Y-124528396D01*
X194959036Y-124528396D02*
X194692370Y-124528396D01*
X195492370Y-124642682D02*
X196101894Y-124642682D01*
X195797132Y-124947444D02*
X195797132Y-124337920D01*
X196959036Y-124528396D02*
X197073322Y-124566491D01*
X197073322Y-124566491D02*
X197111417Y-124604587D01*
X197111417Y-124604587D02*
X197149513Y-124680777D01*
X197149513Y-124680777D02*
X197149513Y-124795063D01*
X197149513Y-124795063D02*
X197111417Y-124871253D01*
X197111417Y-124871253D02*
X197073322Y-124909349D01*
X197073322Y-124909349D02*
X196997132Y-124947444D01*
X196997132Y-124947444D02*
X196692370Y-124947444D01*
X196692370Y-124947444D02*
X196692370Y-124147444D01*
X196692370Y-124147444D02*
X196959036Y-124147444D01*
X196959036Y-124147444D02*
X197035227Y-124185539D01*
X197035227Y-124185539D02*
X197073322Y-124223634D01*
X197073322Y-124223634D02*
X197111417Y-124299825D01*
X197111417Y-124299825D02*
X197111417Y-124376015D01*
X197111417Y-124376015D02*
X197073322Y-124452206D01*
X197073322Y-124452206D02*
X197035227Y-124490301D01*
X197035227Y-124490301D02*
X196959036Y-124528396D01*
X196959036Y-124528396D02*
X196692370Y-124528396D01*
X197492370Y-124642682D02*
X198101894Y-124642682D01*
X194359567Y-155329551D02*
X194311948Y-155424789D01*
X194311948Y-155424789D02*
X194311948Y-155567646D01*
X194311948Y-155567646D02*
X194359567Y-155710503D01*
X194359567Y-155710503D02*
X194454805Y-155805741D01*
X194454805Y-155805741D02*
X194550043Y-155853360D01*
X194550043Y-155853360D02*
X194740519Y-155900979D01*
X194740519Y-155900979D02*
X194883376Y-155900979D01*
X194883376Y-155900979D02*
X195073852Y-155853360D01*
X195073852Y-155853360D02*
X195169090Y-155805741D01*
X195169090Y-155805741D02*
X195264329Y-155710503D01*
X195264329Y-155710503D02*
X195311948Y-155567646D01*
X195311948Y-155567646D02*
X195311948Y-155472408D01*
X195311948Y-155472408D02*
X195264329Y-155329551D01*
X195264329Y-155329551D02*
X195216709Y-155281932D01*
X195216709Y-155281932D02*
X194883376Y-155281932D01*
X194883376Y-155281932D02*
X194883376Y-155472408D01*
X195311948Y-154853360D02*
X194311948Y-154853360D01*
X194311948Y-154853360D02*
X195311948Y-154281932D01*
X195311948Y-154281932D02*
X194311948Y-154281932D01*
X195311948Y-153805741D02*
X194311948Y-153805741D01*
X194311948Y-153805741D02*
X194311948Y-153567646D01*
X194311948Y-153567646D02*
X194359567Y-153424789D01*
X194359567Y-153424789D02*
X194454805Y-153329551D01*
X194454805Y-153329551D02*
X194550043Y-153281932D01*
X194550043Y-153281932D02*
X194740519Y-153234313D01*
X194740519Y-153234313D02*
X194883376Y-153234313D01*
X194883376Y-153234313D02*
X195073852Y-153281932D01*
X195073852Y-153281932D02*
X195169090Y-153329551D01*
X195169090Y-153329551D02*
X195264329Y-153424789D01*
X195264329Y-153424789D02*
X195311948Y-153567646D01*
X195311948Y-153567646D02*
X195311948Y-153805741D01*
D11*
%TO.C,L9*%
X160639956Y-200661061D02*
X160440260Y-201793590D01*
X160639956Y-200661061D02*
X162363369Y-200964946D01*
X160440260Y-201793590D02*
X162163674Y-202097475D01*
D12*
%TO.C,D16*%
X166636708Y-187959221D02*
X166115282Y-187461109D01*
X166706167Y-187565298D02*
X167198571Y-187652122D01*
X166775626Y-187171375D02*
X166636708Y-187959221D01*
X166115282Y-187461109D02*
X166775626Y-187171375D01*
X166115282Y-187461109D02*
X166019776Y-188002753D01*
X166115282Y-187461109D02*
X166210789Y-186919465D01*
X165721359Y-187391650D02*
X166115282Y-187461109D01*
%TO.C,D5*%
X117647137Y-147785148D02*
X117047137Y-147385148D01*
X117647137Y-147385148D02*
X118147137Y-147385148D01*
X117647137Y-146985148D02*
X117647137Y-147785148D01*
X117047137Y-147385148D02*
X117647137Y-146985148D01*
X117047137Y-147385148D02*
X117047137Y-147935148D01*
X117047137Y-147385148D02*
X117047137Y-146835148D01*
X116647137Y-147385148D02*
X117047137Y-147385148D01*
D11*
%TO.C,L9*%
X93185304Y-173438147D02*
X93285533Y-174583771D01*
X93185304Y-173438147D02*
X94928645Y-173285625D01*
X93285533Y-174583771D02*
X95028874Y-174431249D01*
X94841259Y-192365839D02*
X94941488Y-193511463D01*
X94841259Y-192365839D02*
X96584600Y-192213317D01*
X94941488Y-193511463D02*
X96684829Y-193358941D01*
D12*
%TO.C,D14*%
X174647136Y-149785156D02*
X174047136Y-149385156D01*
X174647136Y-149385156D02*
X175147136Y-149385156D01*
X174647136Y-148985156D02*
X174647136Y-149785156D01*
X174047136Y-149385156D02*
X174647136Y-148985156D01*
X174047136Y-149385156D02*
X174047136Y-149935156D01*
X174047136Y-149385156D02*
X174047136Y-148835156D01*
X173647136Y-149385156D02*
X174047136Y-149385156D01*
%TO.C,D4*%
X117647134Y-166785156D02*
X117047134Y-166385156D01*
X117647134Y-166385156D02*
X118147134Y-166385156D01*
X117647134Y-165985156D02*
X117647134Y-166785156D01*
X117047134Y-166385156D02*
X117647134Y-165985156D01*
X117047134Y-166385156D02*
X117047134Y-166935156D01*
X117047134Y-166385156D02*
X117047134Y-165835156D01*
X116647134Y-166385156D02*
X117047134Y-166385156D01*
%TO.C,D8*%
X136647136Y-137785154D02*
X136047136Y-137385154D01*
X136647136Y-137385154D02*
X137147136Y-137385154D01*
X136647136Y-136985154D02*
X136647136Y-137785154D01*
X136047136Y-137385154D02*
X136647136Y-136985154D01*
X136047136Y-137385154D02*
X136047136Y-137935154D01*
X136047136Y-137385154D02*
X136047136Y-136835154D01*
X135647136Y-137385154D02*
X136047136Y-137385154D01*
D11*
%TO.C,L9*%
X151947134Y-161335351D02*
X151947134Y-162485351D01*
X151947134Y-161335351D02*
X153697134Y-161335351D01*
X151947134Y-162485351D02*
X153697134Y-162485351D01*
D12*
%TO.C,D2*%
X95690250Y-159617031D02*
X95057671Y-159270847D01*
X95655388Y-159218553D02*
X96153485Y-159174975D01*
X95620525Y-158820075D02*
X95690250Y-159617031D01*
X95057671Y-159270847D02*
X95620525Y-158820075D01*
X95057671Y-159270847D02*
X95105607Y-159818754D01*
X95057671Y-159270847D02*
X95009735Y-158722939D01*
X94659193Y-159305709D02*
X95057671Y-159270847D01*
%TO.C,D7*%
X136647137Y-156785151D02*
X136047137Y-156385151D01*
X136647137Y-156385151D02*
X137147137Y-156385151D01*
X136647137Y-155985151D02*
X136647137Y-156785151D01*
X136047137Y-156385151D02*
X136647137Y-155985151D01*
X136047137Y-156385151D02*
X136047137Y-156935151D01*
X136047137Y-156385151D02*
X136047137Y-155835151D01*
X135647137Y-156385151D02*
X136047137Y-156385151D01*
%TO.C,D3*%
X76265759Y-155594677D02*
X75633180Y-155248493D01*
X76230897Y-155196199D02*
X76728994Y-155152621D01*
X76196034Y-154797721D02*
X76265759Y-155594677D01*
X75633180Y-155248493D02*
X76196034Y-154797721D01*
X75633180Y-155248493D02*
X75681116Y-155796400D01*
X75633180Y-155248493D02*
X75585244Y-154700585D01*
X75234702Y-155283355D02*
X75633180Y-155248493D01*
D11*
%TO.C,L9*%
X132947127Y-170335353D02*
X132947127Y-171485353D01*
X132947127Y-170335353D02*
X134697127Y-170335353D01*
X132947127Y-171485353D02*
X134697127Y-171485353D01*
X199878917Y-215025937D02*
X199303917Y-216021867D01*
X199878917Y-215025937D02*
X201394462Y-215900937D01*
X199303917Y-216021867D02*
X200819462Y-216896867D01*
%TO.C,ROT1*%
X200277133Y-181145147D02*
G75*
G03*
X200277133Y-181145147I-3000000J0D01*
G01*
X203377133Y-187045147D02*
X199277133Y-187045147D01*
X203377133Y-184445147D02*
X203377133Y-187045147D01*
X203377133Y-179845147D02*
X203377133Y-182445147D01*
X203377133Y-175245147D02*
X203377133Y-177845147D01*
X199277133Y-175245147D02*
X203377133Y-175245147D01*
X197277133Y-180645147D02*
X197277133Y-181645147D01*
X196777133Y-181145147D02*
X197777133Y-181145147D01*
X195277133Y-187045147D02*
X191177133Y-187045147D01*
X195277133Y-175345147D02*
X191177133Y-175345147D01*
X191177133Y-175345147D02*
X191177133Y-187045147D01*
X190077133Y-177045147D02*
X189777133Y-177345147D01*
X189777133Y-177345147D02*
X189477133Y-177045147D01*
X189477133Y-177045147D02*
X190077133Y-177045147D01*
%TO.C,L9*%
X170947130Y-144335352D02*
X170947130Y-145485352D01*
X170947130Y-144335352D02*
X172697130Y-144335352D01*
X170947130Y-145485352D02*
X172697130Y-145485352D01*
D12*
%TO.C,D17*%
X188919813Y-194594055D02*
X188492806Y-194012966D01*
X189056621Y-194218178D02*
X189526467Y-194389188D01*
X189193429Y-193842301D02*
X188919813Y-194594055D01*
X188492806Y-194012966D02*
X189193429Y-193842301D01*
X188492806Y-194012966D02*
X188304695Y-194529797D01*
X188492806Y-194012966D02*
X188680917Y-193496135D01*
X188116929Y-193876158D02*
X188492806Y-194012966D01*
D11*
%TO.C,L9*%
X132947128Y-132335358D02*
X132947128Y-133485358D01*
X132947128Y-132335358D02*
X134697128Y-132335358D01*
X132947128Y-133485358D02*
X134697128Y-133485358D01*
X170947129Y-182335350D02*
X170947129Y-183485350D01*
X170947129Y-182335350D02*
X172697129Y-182335350D01*
X170947129Y-183485350D02*
X172697129Y-183485350D01*
X73760826Y-169415792D02*
X73861055Y-170561416D01*
X73760826Y-169415792D02*
X75504167Y-169263270D01*
X73861055Y-170561416D02*
X75604396Y-170408894D01*
D12*
%TO.C,D13*%
X174647137Y-168785155D02*
X174047137Y-168385155D01*
X174647137Y-168385155D02*
X175147137Y-168385155D01*
X174647137Y-167985155D02*
X174647137Y-168785155D01*
X174047137Y-168385155D02*
X174647137Y-167985155D01*
X174047137Y-168385155D02*
X174047137Y-168935155D01*
X174047137Y-168385155D02*
X174047137Y-167835155D01*
X173647137Y-168385155D02*
X174047137Y-168385155D01*
D10*
%TO.C,T2*%
X185297132Y-124385148D02*
X185297132Y-121535148D01*
X183947132Y-121535148D02*
X180047132Y-121535148D01*
X181997132Y-121535148D02*
X185297132Y-121535148D01*
X181997132Y-121535148D02*
X178697132Y-121535148D01*
X178697132Y-124385148D02*
X185297132Y-124385148D01*
X178697132Y-121535148D02*
X178697132Y-124385148D01*
D12*
%TO.C,D19*%
X201797131Y-180935149D02*
X201397131Y-181535149D01*
X201397131Y-180935149D02*
X201397131Y-180435149D01*
X200997131Y-180935149D02*
X201797131Y-180935149D01*
X201397131Y-181535149D02*
X200997131Y-180935149D01*
X201397131Y-181535149D02*
X201947131Y-181535149D01*
X201397131Y-181535149D02*
X200847131Y-181535149D01*
X201397131Y-181935149D02*
X201397131Y-181535149D01*
D11*
%TO.C,L9*%
X170947137Y-163335355D02*
X170947137Y-164485355D01*
X170947137Y-163335355D02*
X172697137Y-163335355D01*
X170947137Y-164485355D02*
X172697137Y-164485355D01*
X151947133Y-180335354D02*
X151947133Y-181485354D01*
X151947133Y-180335354D02*
X153697133Y-180335354D01*
X151947133Y-181485354D02*
X153697133Y-181485354D01*
D12*
%TO.C,D1*%
X97346205Y-178544729D02*
X96713626Y-178198545D01*
X97311343Y-178146251D02*
X97809440Y-178102673D01*
X97276480Y-177747773D02*
X97346205Y-178544729D01*
X96713626Y-178198545D02*
X97276480Y-177747773D01*
X96713626Y-178198545D02*
X96761562Y-178746452D01*
X96713626Y-178198545D02*
X96665690Y-177650637D01*
X96315148Y-178233407D02*
X96713626Y-178198545D01*
%TO.C,D10*%
X155647135Y-166785146D02*
X155047135Y-166385146D01*
X155647135Y-166385146D02*
X156147135Y-166385146D01*
X155647135Y-165985146D02*
X155647135Y-166785146D01*
X155047135Y-166385146D02*
X155647135Y-165985146D01*
X155047135Y-166385146D02*
X155047135Y-166935146D01*
X155047135Y-166385146D02*
X155047135Y-165835146D01*
X154647135Y-166385146D02*
X155047135Y-166385146D01*
D11*
%TO.C,L9*%
X113947125Y-142335354D02*
X113947125Y-143485354D01*
X113947125Y-142335354D02*
X115697125Y-142335354D01*
X113947125Y-143485354D02*
X115697125Y-143485354D01*
D12*
%TO.C,D6*%
X117647136Y-128785148D02*
X117047136Y-128385148D01*
X117647136Y-128385148D02*
X118147136Y-128385148D01*
X117647136Y-127985148D02*
X117647136Y-128785148D01*
X117047136Y-128385148D02*
X117647136Y-127985148D01*
X117047136Y-128385148D02*
X117047136Y-128935148D01*
X117047136Y-128385148D02*
X117047136Y-127835148D01*
X116647136Y-128385148D02*
X117047136Y-128385148D01*
D11*
%TO.C,L9*%
X151947134Y-142335357D02*
X151947134Y-143485357D01*
X151947134Y-142335357D02*
X153697134Y-142335357D01*
X151947134Y-143485357D02*
X153697134Y-143485357D01*
X132947136Y-151335348D02*
X132947136Y-152485348D01*
X132947136Y-151335348D02*
X134697136Y-151335348D01*
X132947136Y-152485348D02*
X134697136Y-152485348D01*
D12*
%TO.C,D9*%
X136647131Y-118785147D02*
X136047131Y-118385147D01*
X136647131Y-118385147D02*
X137147131Y-118385147D01*
X136647131Y-117985147D02*
X136647131Y-118785147D01*
X136047131Y-118385147D02*
X136647131Y-117985147D01*
X136047131Y-118385147D02*
X136047131Y-118935147D01*
X136047131Y-118385147D02*
X136047131Y-117835147D01*
X135647131Y-118385147D02*
X136047131Y-118385147D01*
%TO.C,D11*%
X155647130Y-147785153D02*
X155047130Y-147385153D01*
X155647130Y-147385153D02*
X156147130Y-147385153D01*
X155647130Y-146985153D02*
X155647130Y-147785153D01*
X155047130Y-147385153D02*
X155647130Y-146985153D01*
X155047130Y-147385153D02*
X155047130Y-147935153D01*
X155047130Y-147385153D02*
X155047130Y-146835153D01*
X154647130Y-147385153D02*
X155047130Y-147385153D01*
%TO.C,D12*%
X155647132Y-128785150D02*
X155047132Y-128385150D01*
X155647132Y-128385150D02*
X156147132Y-128385150D01*
X155647132Y-127985150D02*
X155647132Y-128785150D01*
X155047132Y-128385150D02*
X155647132Y-127985150D01*
X155047132Y-128385150D02*
X155047132Y-128935150D01*
X155047132Y-128385150D02*
X155047132Y-127835150D01*
X154647132Y-128385150D02*
X155047132Y-128385150D01*
%TO.C,D15*%
X174647137Y-130785153D02*
X174047137Y-130385153D01*
X174647137Y-130385153D02*
X175147137Y-130385153D01*
X174647137Y-129985153D02*
X174647137Y-130785153D01*
X174047137Y-130385153D02*
X174647137Y-129985153D01*
X174047137Y-130385153D02*
X174047137Y-130935153D01*
X174047137Y-130385153D02*
X174047137Y-129835153D01*
X173647137Y-130385153D02*
X174047137Y-130385153D01*
D11*
%TO.C,L9*%
X113947140Y-180335350D02*
X113947140Y-181485350D01*
X113947140Y-180335350D02*
X115697140Y-180335350D01*
X113947140Y-181485350D02*
X115697140Y-181485350D01*
D12*
%TO.C,D18*%
X209858311Y-205141120D02*
X209538696Y-204494710D01*
X210058311Y-204794710D02*
X210491324Y-205044710D01*
X210258311Y-204448300D02*
X209858311Y-205141120D01*
X209538696Y-204494710D02*
X210258311Y-204448300D01*
X209538696Y-204494710D02*
X209263696Y-204971024D01*
X209538696Y-204494710D02*
X209813696Y-204018396D01*
X209192286Y-204294710D02*
X209538696Y-204494710D01*
D11*
%TO.C,L9*%
X180808510Y-206061611D02*
X180415187Y-207142257D01*
X180808510Y-206061611D02*
X182452972Y-206660146D01*
X180415187Y-207142257D02*
X182059649Y-207740793D01*
D10*
%TO.C,_1*%
X188507138Y-126685152D02*
X188507138Y-124145152D01*
X191047138Y-126685152D02*
X188507138Y-126685152D01*
X191047138Y-124145152D02*
X191047138Y-126685152D01*
X191047138Y-124145152D02*
X188507138Y-124145152D01*
D11*
%TO.C,L9*%
X113947138Y-161335349D02*
X113947138Y-162485349D01*
X113947138Y-161335349D02*
X115697138Y-161335349D01*
X113947138Y-162485349D02*
X115697138Y-162485349D01*
%TD*%
D13*
%TO.C,JST1*%
X197397132Y-122785149D03*
X199397132Y-122785149D03*
X195397132Y-122785149D03*
%TD*%
M02*
