0
SECTION
2
HEADER
9
$INSUNITS
70
4
0
ENDSEC
0
SECTION
2
TABLES
0
TABLE
2
LTYPE
0
LTYPE
72
65
70
64
2
CONTINUOUS
3
______
73
0
40
0
0
ENDTAB
0
TABLE
2
LAYER
0
ENDTAB
0
ENDSEC
0
SECTION
2
ENTITIES
0
LINE
8
0
10
108.6420081
20
-200.5443569
11
127.07161
21
-198.9319756
0
LINE
8
0
10
127.07161
20
-198.9319756
11
125.4592287
21
-180.5023737
0
LINE
8
0
10
125.4592287
20
-180.5023737
11
107.0296268
21
-182.114755
0
LINE
8
0
10
107.0296268
20
-182.114755
11
108.6420081
21
-200.5443569
0
LINE
8
0
10
106.9860489
20
-181.6166577
11
125.4156508
21
-180.0042764
0
LINE
8
0
10
125.4156508
20
-180.0042764
11
123.8032695
21
-161.5746745
0
LINE
8
0
10
123.8032695
20
-161.5746745
11
105.3736676
21
-163.1870558
0
LINE
8
0
10
105.3736676
20
-163.1870558
11
106.9860489
21
-181.6166577
0
LINE
8
0
10
87.7271579
20
-179.4870769
11
106.1567598
21
-177.8746956
0
LINE
8
0
10
106.1567598
20
-177.8746956
11
104.5443785
21
-159.4450937
0
LINE
8
0
10
104.5443785
20
-159.4450937
11
86.1147766
21
-161.057475
0
LINE
8
0
10
86.1147766
20
-161.057475
11
87.7271579
21
-179.4870769
0
LINE
8
0
10
127.3510522
20
-188.0247256
11
145.8510522
21
-188.0247256
0
LINE
8
0
10
145.8510522
20
-188.0247256
11
145.8510522
21
-169.5247256
0
LINE
8
0
10
145.8510522
20
-169.5247256
11
127.3510522
21
-169.5247256
0
LINE
8
0
10
127.3510522
20
-169.5247256
11
127.3510522
21
-188.0247256
0
LINE
8
0
10
127.3510522
20
-169.0247256
11
145.8510522
21
-169.0247256
0
LINE
8
0
10
145.8510522
20
-169.0247256
11
145.8510522
21
-150.5247256
0
LINE
8
0
10
145.8510522
20
-150.5247256
11
127.3510522
21
-150.5247256
0
LINE
8
0
10
127.3510522
20
-150.5247256
11
127.3510522
21
-169.0247256
0
LINE
8
0
10
127.3510522
20
-150.0247256
11
145.8510522
21
-150.0247256
0
LINE
8
0
10
145.8510522
20
-150.0247256
11
145.8510522
21
-131.5247256
0
LINE
8
0
10
145.8510522
20
-131.5247256
11
127.3510522
21
-131.5247256
0
LINE
8
0
10
127.3510522
20
-131.5247256
11
127.3510522
21
-150.0247256
0
LINE
8
0
10
146.3510522
20
-178.0247256
11
164.8510522
21
-178.0247256
0
LINE
8
0
10
164.8510522
20
-178.0247256
11
164.8510522
21
-159.5247256
0
LINE
8
0
10
164.8510522
20
-159.5247256
11
146.3510522
21
-159.5247256
0
LINE
8
0
10
146.3510522
20
-159.5247256
11
146.3510522
21
-178.0247256
0
LINE
8
0
10
146.3510522
20
-159.0247256
11
164.8510522
21
-159.0247256
0
LINE
8
0
10
164.8510522
20
-159.0247256
11
164.8510522
21
-140.5247256
0
LINE
8
0
10
164.8510522
20
-140.5247256
11
146.3510522
21
-140.5247256
0
LINE
8
0
10
146.3510522
20
-140.5247256
11
146.3510522
21
-159.0247256
0
LINE
8
0
10
146.3510522
20
-140.0247255
11
164.8510522
21
-140.0247255
0
LINE
8
0
10
164.8510522
20
-140.0247255
11
164.8510522
21
-121.5247255
0
LINE
8
0
10
164.8510522
20
-121.5247255
11
146.3510522
21
-121.5247255
0
LINE
8
0
10
146.3510522
20
-121.5247255
11
146.3510522
21
-140.0247255
0
LINE
8
0
10
165.3510522
20
-188.0247256
11
183.8510522
21
-188.0247256
0
LINE
8
0
10
183.8510522
20
-188.0247256
11
183.8510522
21
-169.5247256
0
LINE
8
0
10
183.8510522
20
-169.5247256
11
165.3510522
21
-169.5247256
0
LINE
8
0
10
165.3510522
20
-169.5247256
11
165.3510522
21
-188.0247256
0
LINE
8
0
10
165.3510522
20
-169.0247256
11
183.8510522
21
-169.0247256
0
LINE
8
0
10
183.8510522
20
-169.0247256
11
183.8510522
21
-150.5247256
0
LINE
8
0
10
183.8510522
20
-150.5247256
11
165.3510522
21
-150.5247256
0
LINE
8
0
10
165.3510522
20
-150.5247256
11
165.3510522
21
-169.0247256
0
LINE
8
0
10
165.3510522
20
-150.0247255
11
183.8510522
21
-150.0247255
0
LINE
8
0
10
183.8510522
20
-150.0247255
11
183.8510522
21
-131.5247255
0
LINE
8
0
10
183.8510522
20
-131.5247255
11
165.3510522
21
-131.5247255
0
LINE
8
0
10
165.3510522
20
-131.5247255
11
165.3510522
21
-150.0247255
0
LINE
8
0
10
184.3510522
20
-190.0247256
11
202.8510522
21
-190.0247256
0
LINE
8
0
10
202.8510522
20
-190.0247256
11
202.8510522
21
-171.5247256
0
LINE
8
0
10
202.8510522
20
-171.5247256
11
184.3510522
21
-171.5247256
0
LINE
8
0
10
184.3510522
20
-171.5247256
11
184.3510522
21
-190.0247256
0
LINE
8
0
10
184.3510522
20
-171.0247256
11
202.8510522
21
-171.0247256
0
LINE
8
0
10
202.8510522
20
-171.0247256
11
202.8510522
21
-152.5247256
0
LINE
8
0
10
202.8510522
20
-152.5247256
11
184.3510522
21
-152.5247256
0
LINE
8
0
10
184.3510522
20
-152.5247256
11
184.3510522
21
-171.0247256
0
LINE
8
0
10
184.3510522
20
-152.0247255
11
202.8510522
21
-152.0247255
0
LINE
8
0
10
202.8510522
20
-152.0247255
11
202.8510522
21
-133.5247255
0
LINE
8
0
10
202.8510522
20
-133.5247255
11
184.3510522
21
-133.5247255
0
LINE
8
0
10
184.3510522
20
-133.5247255
11
184.3510522
21
-152.0247255
0
LINE
8
0
10
173.3853348
20
-207.2779517
11
191.6042783
21
-210.490443
0
LINE
8
0
10
191.6042783
20
-210.490443
11
194.8167696
21
-192.2714995
0
LINE
8
0
10
194.8167696
20
-192.2714995
11
176.5978261
21
-189.0590082
0
LINE
8
0
10
176.5978261
20
-189.0590082
11
173.3853348
21
-207.2779517
0
LINE
8
0
10
193.091594
20
-211.5079571
11
210.4759075
21
-217.8353298
0
LINE
8
0
10
210.4759075
20
-217.8353298
11
216.8032802
21
-200.4510163
0
LINE
8
0
10
216.8032802
20
-200.4510163
11
199.4189667
21
-194.1236436
0
LINE
8
0
10
199.4189667
20
-194.1236436
11
193.091594
21
-211.5079571
0
LINE
8
0
10
211.9099894
20
-219.2392476
11
227.9314594
21
-228.4892476
0
LINE
8
0
10
227.9314594
20
-228.4892476
11
237.1814594
21
-212.4677776
0
LINE
8
0
10
237.1814594
20
-212.4677776
11
221.1599894
21
-203.2177776
0
LINE
8
0
10
221.1599894
20
-203.2177776
11
211.9099894
21
-219.2392476
0
LINE
8
0
10
207.3510522
20
-193.8247256
11
225.8510522
21
-193.8247256
0
LINE
8
0
10
225.8510522
20
-193.8247256
11
225.8510522
21
-175.3247256
0
LINE
8
0
10
225.8510522
20
-175.3247256
11
207.3510522
21
-175.3247256
0
LINE
8
0
10
207.3510522
20
-175.3247256
11
207.3510522
21
-193.8247256
0
ENDSEC
0
EOF