0
SECTION
2
HEADER
9
$INSUNITS
70
4
0
ENDSEC
0
SECTION
2
TABLES
0
TABLE
2
LTYPE
0
LTYPE
72
65
70
64
2
CONTINUOUS
3
______
73
0
40
0
0
ENDTAB
0
TABLE
2
LAYER
0
ENDTAB
0
ENDSEC
0
SECTION
2
ENTITIES
0
LINE
8
0
10
129.8543295
20
-193.449037
11
130.4181874
21
-199.8939629
0
LINE
8
0
10
107.6800208
20
-203.8909343
11
128.6001094
21
-202.0606637
0
LINE
8
0
10
103.874792
20
-183.3443962
11
105.51332
21
-202.0728563
0
LINE
8
0
10
107.8299469
20
-159.7097447
11
122.2753636
21
-158.4459345
0
LINE
8
0
10
84.5862772
20
-157.9287869
11
105.5063658
21
-156.0985163
0
LINE
8
0
10
107.6730666
20
-157.9165943
11
107.8299469
21
-159.7097447
0
LINE
8
0
10
86.7651706
20
-182.8336543
11
101.7080912
21
-181.5263181
0
LINE
8
0
10
82.7681992
20
-160.0954877
11
84.5984698
21
-181.0155763
0
LINE
8
0
10
131.8467189
20
-191.2747256
11
170.5234918
21
-191.2747256
0
LINE
8
0
10
124.1010522
20
-156.4535451
11
124.1010522
21
-130.2747256
0
LINE
8
0
10
126.1010522
20
-128.2747256
11
141.1010522
21
-128.2747256
0
LINE
8
0
10
145.1010522
20
-118.2747255
11
166.1010522
21
-118.2747255
0
LINE
8
0
10
168.1010522
20
-120.2747255
11
168.1010522
21
-122.2747255
0
LINE
8
0
10
143.1010522
20
-126.2747256
11
143.1010522
21
-120.2747255
0
LINE
8
0
10
206.1010522
20
-171.0747256
11
206.1010522
21
-126.2747255
0
LINE
8
0
10
170.1374026
20
-206.9818875
11
172.4931072
21
-193.622022
0
LINE
8
0
10
230.1010522
20
-204.6271259
11
239.8889911
21
-210.2781951
0
LINE
8
0
10
230.3465834
20
-230.80613
11
240.6210419
21
-213.0102459
0
LINE
8
0
10
208.1010522
20
-173.0747256
11
227.1010522
21
-173.0747256
0
LINE
8
0
10
229.1010522
20
-202.8950751
11
229.1010522
21
-175.0747256
0
ARC
8
0
10
156.0818058
20
-329.8859159
40
121.6
50
54.0673149
51
82.5504115
0
LINE
8
0
10
170.1010522
20
-124.2747255
11
204.1010522
21
-124.2747255
0
ARC
8
0
10
128.425798
20
-200.0682743
40
2
50
274.9999976
51
4.9999976
0
ARC
8
0
10
107.5057094
20
-201.8985449
40
2
50
184.9999976
51
274.9999976
0
ARC
8
0
10
101.8824026
20
-183.5187076
40
2
50
4.9999976
51
94.9999976
0
ARC
8
0
10
86.5908592
20
-180.8412649
40
2
50
184.9999976
51
274.9999976
0
ARC
8
0
10
84.7605886
20
-159.9211763
40
2
50
94.9999976
51
184.9999976
0
ARC
8
0
10
105.6806772
20
-158.0909057
40
2
50
4.9999976
51
94.9999976
0
ARC
8
0
10
122.1010522
20
-156.4535451
40
2
50
274.9999976
51
0
0
ARC
8
0
10
126.1010522
20
-130.2747256
40
2
50
90
51
180
0
ARC
8
0
10
141.1010522
20
-126.2747256
40
2
50
270
51
0
0
ARC
8
0
10
145.1010522
20
-120.2747255
40
2
50
90
51
180
0
ARC
8
0
10
166.1010522
20
-120.2747255
40
2
50
0
51
90
0
ARC
8
0
10
170.1010522
20
-122.2747255
40
2
50
180
51
270
0
ARC
8
0
10
204.1010522
20
-126.2747255
40
2
50
0
51
90
0
ARC
8
0
10
208.1010522
20
-171.0747256
40
2
50
180
51
270
0
ARC
8
0
10
227.1010522
20
-175.0747256
40
2
50
0
51
90
0
ARC
8
0
10
231.1010522
20
-202.8950751
40
2
50
180
51
239.9999999
0
ARC
8
0
10
238.8889911
20
-212.0102459
40
2
50
329.9999999
51
59.9999999
0
ARC
8
0
10
228.6145327
20
-229.8061301
40
2
50
234.0673149
51
329.9999999
0
ARC
8
0
10
172.1070182
20
-207.3291839
40
2
50
169.9999992
51
262.5504115
0
ARC
8
0
10
170.5234918
20
-193.2747256
40
2
50
349.9999992
51
90
0
ARC
8
0
10
131.8467189
20
-193.2747256
40
2
50
90
51
184.9999976
0
CIRCLE
8
0
10
106.3447993
20
-177.1555705
40
1.1
0
CIRCLE
8
0
10
146.1010522
20
-135.5247255
40
1.1
0
CIRCLE
8
0
10
146.1010522
20
-173.5247256
40
1.1
0
CIRCLE
8
0
10
184.1010522
20
-147.5247255
40
1.1
0
CIRCLE
8
0
10
184.1010522
20
-185.5247256
40
1.1
0
CIRCLE
8
0
10
213.9434831
20
-215.2171333
40
1.1
0
ENDSEC
0
EOF