0
SECTION
2
HEADER
9
$INSUNITS
70
4
0
ENDSEC
0
SECTION
2
TABLES
0
TABLE
2
LTYPE
0
LTYPE
72
65
70
64
2
CONTINUOUS
3
______
73
0
40
0
0
ENDTAB
0
TABLE
2
LAYER
0
ENDTAB
0
ENDSEC
0
SECTION
2
ENTITIES
0
LINE
8
0
10
110.6873457
20
-198.1068184
11
124.6340715
21
-196.886638
0
LINE
8
0
10
124.6340715
20
-196.886638
11
123.4138911
21
-182.9399122
0
LINE
8
0
10
123.4138911
20
-182.9399122
11
109.4671653
21
-184.1600926
0
LINE
8
0
10
109.4671653
20
-184.1600926
11
110.6873457
21
-198.1068184
0
LINE
8
0
10
109.0313865
20
-179.1791192
11
122.9781123
21
-177.9589388
0
LINE
8
0
10
122.9781123
20
-177.9589388
11
121.7579319
21
-164.012213
0
LINE
8
0
10
121.7579319
20
-164.012213
11
107.8112061
21
-165.2323934
0
LINE
8
0
10
107.8112061
20
-165.2323934
11
109.0313865
21
-179.1791192
0
LINE
8
0
10
89.7724955
20
-177.0495384
11
103.7192213
21
-175.829358
0
LINE
8
0
10
103.7192213
20
-175.829358
11
102.4990409
21
-161.8826322
0
LINE
8
0
10
102.4990409
20
-161.8826322
11
88.5523151
21
-163.1028126
0
LINE
8
0
10
88.5523151
20
-163.1028126
11
89.7724955
21
-177.0495384
0
LINE
8
0
10
129.6010522
20
-185.7747256
11
143.6010522
21
-185.7747256
0
LINE
8
0
10
143.6010522
20
-185.7747256
11
143.6010522
21
-171.7747256
0
LINE
8
0
10
143.6010522
20
-171.7747256
11
129.6010522
21
-171.7747256
0
LINE
8
0
10
129.6010522
20
-171.7747256
11
129.6010522
21
-185.7747256
0
LINE
8
0
10
129.6010522
20
-166.7747256
11
143.6010522
21
-166.7747256
0
LINE
8
0
10
143.6010522
20
-166.7747256
11
143.6010522
21
-152.7747256
0
LINE
8
0
10
143.6010522
20
-152.7747256
11
129.6010522
21
-152.7747256
0
LINE
8
0
10
129.6010522
20
-152.7747256
11
129.6010522
21
-166.7747256
0
LINE
8
0
10
129.6010522
20
-147.7747256
11
143.6010522
21
-147.7747256
0
LINE
8
0
10
143.6010522
20
-147.7747256
11
143.6010522
21
-133.7747256
0
LINE
8
0
10
143.6010522
20
-133.7747256
11
129.6010522
21
-133.7747256
0
LINE
8
0
10
129.6010522
20
-133.7747256
11
129.6010522
21
-147.7747256
0
LINE
8
0
10
148.6010522
20
-175.7747256
11
162.6010522
21
-175.7747256
0
LINE
8
0
10
162.6010522
20
-175.7747256
11
162.6010522
21
-161.7747256
0
LINE
8
0
10
162.6010522
20
-161.7747256
11
148.6010522
21
-161.7747256
0
LINE
8
0
10
148.6010522
20
-161.7747256
11
148.6010522
21
-175.7747256
0
LINE
8
0
10
148.6010522
20
-156.7747256
11
162.6010522
21
-156.7747256
0
LINE
8
0
10
162.6010522
20
-156.7747256
11
162.6010522
21
-142.7747256
0
LINE
8
0
10
162.6010522
20
-142.7747256
11
148.6010522
21
-142.7747256
0
LINE
8
0
10
148.6010522
20
-142.7747256
11
148.6010522
21
-156.7747256
0
LINE
8
0
10
148.6010522
20
-137.7747255
11
162.6010522
21
-137.7747255
0
LINE
8
0
10
162.6010522
20
-137.7747255
11
162.6010522
21
-123.7747255
0
LINE
8
0
10
162.6010522
20
-123.7747255
11
148.6010522
21
-123.7747255
0
LINE
8
0
10
148.6010522
20
-123.7747255
11
148.6010522
21
-137.7747255
0
LINE
8
0
10
167.6010522
20
-185.7747256
11
181.6010522
21
-185.7747256
0
LINE
8
0
10
181.6010522
20
-185.7747256
11
181.6010522
21
-171.7747256
0
LINE
8
0
10
181.6010522
20
-171.7747256
11
167.6010522
21
-171.7747256
0
LINE
8
0
10
167.6010522
20
-171.7747256
11
167.6010522
21
-185.7747256
0
LINE
8
0
10
167.6010522
20
-166.7747256
11
181.6010522
21
-166.7747256
0
LINE
8
0
10
181.6010522
20
-166.7747256
11
181.6010522
21
-152.7747256
0
LINE
8
0
10
181.6010522
20
-152.7747256
11
167.6010522
21
-152.7747256
0
LINE
8
0
10
167.6010522
20
-152.7747256
11
167.6010522
21
-166.7747256
0
LINE
8
0
10
167.6010522
20
-147.7747255
11
181.6010522
21
-147.7747255
0
LINE
8
0
10
181.6010522
20
-147.7747255
11
181.6010522
21
-133.7747255
0
LINE
8
0
10
181.6010522
20
-133.7747255
11
167.6010522
21
-133.7747255
0
LINE
8
0
10
167.6010522
20
-133.7747255
11
167.6010522
21
-147.7747255
0
LINE
8
0
10
186.6010522
20
-187.7747256
11
200.6010522
21
-187.7747256
0
LINE
8
0
10
200.6010522
20
-187.7747256
11
200.6010522
21
-173.7747256
0
LINE
8
0
10
200.6010522
20
-173.7747256
11
186.6010522
21
-173.7747256
0
LINE
8
0
10
186.6010522
20
-173.7747256
11
186.6010522
21
-187.7747256
0
LINE
8
0
10
186.6010522
20
-168.7747256
11
200.6010522
21
-168.7747256
0
LINE
8
0
10
200.6010522
20
-168.7747256
11
200.6010522
21
-154.7747256
0
LINE
8
0
10
200.6010522
20
-154.7747256
11
186.6010522
21
-154.7747256
0
LINE
8
0
10
186.6010522
20
-154.7747256
11
186.6010522
21
-168.7747256
0
LINE
8
0
10
186.6010522
20
-149.7747255
11
200.6010522
21
-149.7747255
0
LINE
8
0
10
200.6010522
20
-149.7747255
11
200.6010522
21
-135.7747255
0
LINE
8
0
10
200.6010522
20
-135.7747255
11
186.6010522
21
-135.7747255
0
LINE
8
0
10
186.6010522
20
-135.7747255
11
186.6010522
21
-149.7747255
0
LINE
8
0
10
175.9918607
20
-205.4528426
11
189.7791692
21
-207.8839171
0
LINE
8
0
10
189.7791692
20
-207.8839171
11
192.2102437
21
-194.0966086
0
LINE
8
0
10
192.2102437
20
-194.0966086
11
178.4229352
21
-191.6655341
0
LINE
8
0
10
178.4229352
20
-191.6655341
11
175.9918607
21
-205.4528426
0
LINE
8
0
10
195.9754478
20
-210.163194
11
209.1311444
21
-214.951476
0
LINE
8
0
10
209.1311444
20
-214.951476
11
213.9194264
21
-201.7957794
0
LINE
8
0
10
213.9194264
20
-201.7957794
11
200.7637298
21
-197.0074974
0
LINE
8
0
10
200.7637298
20
-197.0074974
11
195.9754478
21
-210.163194
0
LINE
8
0
10
214.9835466
20
-218.4156904
11
227.1079022
21
-225.4156904
0
LINE
8
0
10
227.1079022
20
-225.4156904
11
234.1079022
21
-213.2913348
0
LINE
8
0
10
234.1079022
20
-213.2913348
11
221.9835466
21
-206.2913348
0
LINE
8
0
10
221.9835466
20
-206.2913348
11
214.9835466
21
-218.4156904
0
LINE
8
0
10
209.6010522
20
-191.5747256
11
223.6010522
21
-191.5747256
0
LINE
8
0
10
223.6010522
20
-191.5747256
11
223.6010522
21
-177.5747256
0
LINE
8
0
10
223.6010522
20
-177.5747256
11
209.6010522
21
-177.5747256
0
LINE
8
0
10
209.6010522
20
-177.5747256
11
209.6010522
21
-191.5747256
0
ENDSEC
0
EOF