<svg width="145.556mm" height="101.641mm" viewBox="0 0 145.556 101.641" xmlns="http://www.w3.org/2000/svg"><g id="svgGroup" stroke-linecap="round" fill-rule="evenodd" font-size="9pt" stroke="#000" stroke-width="0.25mm" fill="none" style="stroke:#000;stroke-width:0.25mm;fill:none"><path d="M 22.135 74.332 L 36.082 73.112 L 34.862 59.165 L 20.915 60.385 L 22.135 74.332 Z M 20.479 55.404 L 34.426 54.184 L 33.206 40.237 L 19.259 41.458 L 20.479 55.404 Z M 1.22 53.275 L 15.167 52.055 L 13.947 38.108 L 0 39.328 L 1.22 53.275 Z M 41.049 62 L 55.049 62 L 55.049 48 L 41.049 48 L 41.049 62 Z M 41.049 43 L 55.049 43 L 55.049 29 L 41.049 29 L 41.049 43 Z M 41.049 24 L 55.049 24 L 55.049 10 L 41.049 10 L 41.049 24 Z M 60.049 52 L 74.049 52 L 74.049 38 L 60.049 38 L 60.049 52 Z M 60.049 33 L 74.049 33 L 74.049 19 L 60.049 19 L 60.049 33 Z M 60.049 14 L 74.049 14 L 74.049 0 L 60.049 0 L 60.049 14 Z M 79.049 62 L 93.049 62 L 93.049 48 L 79.049 48 L 79.049 62 Z M 79.049 43 L 93.049 43 L 93.049 29 L 79.049 29 L 79.049 43 Z M 79.049 24 L 93.049 24 L 93.049 10 L 79.049 10 L 79.049 24 Z M 98.049 64 L 112.049 64 L 112.049 50 L 98.049 50 L 98.049 64 Z M 98.049 45 L 112.049 45 L 112.049 31 L 98.049 31 L 98.049 45 Z M 98.049 26 L 112.049 26 L 112.049 12 L 98.049 12 L 98.049 26 Z M 121.049 67.8 L 135.049 67.8 L 135.049 53.8 L 121.049 53.8 L 121.049 67.8 Z M 87.44 81.678 L 101.227 84.109 L 103.658 70.322 L 89.871 67.891 L 87.44 81.678 Z M 126.431 94.641 L 138.556 101.641 L 145.556 89.517 L 133.431 82.517 L 126.431 94.641 Z M 107.423 86.388 L 120.579 91.177 L 125.367 78.021 L 112.211 73.233 L 107.423 86.388 Z" vector-effect="non-scaling-stroke"/></g></svg>