0
SECTION
2
HEADER
9
$INSUNITS
70
4
0
ENDSEC
0
SECTION
2
TABLES
0
TABLE
2
LTYPE
0
LTYPE
72
65
70
64
2
CONTINUOUS
3
______
73
0
40
0
0
ENDTAB
0
TABLE
2
LAYER
0
ENDTAB
0
ENDSEC
0
SECTION
2
ENTITIES
0
LINE
8
0
10
129.6720599
20
-191.3656866
11
130.5053432
21
-200.8901575
0
LINE
8
0
10
106.6838262
20
-203.9780901
11
129.5963042
21
-201.9735079
0
LINE
8
0
10
103.7876363
20
-182.3482014
11
105.6004758
21
-203.0690511
0
LINE
8
0
10
108.8261416
20
-159.622589
11
123.1010522
21
-158.3736961
0
LINE
8
0
10
83.5900824
20
-158.0159427
11
106.5025604
21
-156.0113605
0
LINE
8
0
10
107.5859108
20
-156.9203995
11
107.7427912
21
-158.71355
0
LINE
8
0
10
85.768976
20
-182.9208101
11
102.7042859
21
-181.4391624
0
LINE
8
0
10
82.6810434
20
-159.0992931
11
84.6856256
21
-182.0117711
0
LINE
8
0
10
130.6682546
20
-190.2785309
11
172.1570704
21
-190.2785309
0
LINE
8
0
10
124.0138965
20
-157.3775014
11
124.0138965
21
-128.2785309
0
LINE
8
0
10
125.0138965
20
-127.2785309
11
142.0138964
21
-127.2785309
0
LINE
8
0
10
144.0138964
20
-116.2785308
11
167.0138964
21
-116.2785308
0
LINE
8
0
10
168.0138964
20
-117.2785308
11
168.0138964
21
-121.2785308
0
LINE
8
0
10
143.0138964
20
-126.2785309
11
143.0138964
21
-117.2785308
0
LINE
8
0
10
169.8679165
20
-210.0197393
11
173.1418782
21
-191.4521791
0
LINE
8
0
10
229.5138964
20
-205.9369571
11
237.1465895
21
-210.3436945
0
LINE
8
0
10
226.2090882
20
-231.288002
11
237.5126149
21
-211.7097199
0
LINE
8
0
10
229.0138964
20
-205.0709317
11
229.0138964
21
-138.2785308
0
ARC
8
0
10
155.99465
20
-331.8897212
40
121.6
50
55.5527164
51
83.0391293
0
LINE
8
0
10
169.0138964
20
-122.2785308
11
233.3138964
21
-122.2785308
0
LINE
8
0
10
230.0138964
20
-137.2785308
11
233.3138964
21
-137.2785308
0
LINE
8
0
10
234.3138964
20
-136.2785308
11
234.3138964
21
-123.2785308
0
ARC
8
0
10
129.5091485
20
-200.9773132
40
1
50
274.9999976
51
4.9999976
0
ARC
8
0
10
106.5966705
20
-202.9818954
40
1
50
184.9999976
51
274.9999976
0
ARC
8
0
10
102.7914416
20
-182.4353571
40
1
50
4.9999976
51
94.9999976
0
ARC
8
0
10
85.6818203
20
-181.9246154
40
1
50
184.9999976
51
274.9999976
0
ARC
8
0
10
83.6772381
20
-159.0121374
40
1
50
94.9999976
51
184.9999976
0
ARC
8
0
10
106.5897161
20
-157.0075552
40
1
50
4.9999976
51
94.9999976
0
ARC
8
0
10
108.7389859
20
-158.6263943
40
1
50
184.9999976
51
274.9999976
0
ARC
8
0
10
123.0138965
20
-157.3775014
40
1
50
274.9999976
51
0
0
ARC
8
0
10
125.0138965
20
-128.2785309
40
1
50
90
51
180
0
ARC
8
0
10
142.0138964
20
-126.2785309
40
1
50
270
51
0
0
ARC
8
0
10
144.0138964
20
-117.2785308
40
1
50
90
51
180
0
ARC
8
0
10
167.0138964
20
-117.2785308
40
1
50
0
51
90
0
ARC
8
0
10
169.0138964
20
-121.2785308
40
1
50
180
51
270
0
ARC
8
0
10
233.3138964
20
-123.2785308
40
1
50
0
51
90
0
ARC
8
0
10
233.3138964
20
-136.2785308
40
1
50
270
51
0
0
ARC
8
0
10
230.0138964
20
-138.2785308
40
1
50
90
51
180
0
ARC
8
0
10
230.0138964
20
-205.0709317
40
1
50
180
51
239.9999999
0
ARC
8
0
10
236.6465895
20
-211.2097199
40
1
50
329.9999999
51
59.9999999
0
ARC
8
0
10
225.3430629
20
-230.788002
40
1
50
235.5527164
51
329.9999999
0
ARC
8
0
10
170.8527243
20
-210.1933875
40
1
50
169.9999992
51
263.0391293
0
ARC
8
0
10
172.1570704
20
-191.2785309
40
1
50
349.9999992
51
90
0
ARC
8
0
10
130.6682546
20
-191.2785309
40
1
50
90
51
184.9999976
0
CIRCLE
8
0
10
106.3447993
20
-177.1555705
40
1.1
0
CIRCLE
8
0
10
146.0138964
20
-133.5285308
40
1.1
0
CIRCLE
8
0
10
146.0138965
20
-171.5285309
40
1.1
0
CIRCLE
8
0
10
184.0138964
20
-145.5285308
40
1.1
0
CIRCLE
8
0
10
184.0138964
20
-183.5285309
40
1.1
0
CIRCLE
8
0
10
210.3350561
20
-214.7826327
40
1.1
0
ENDSEC
0
EOF