<svg width="158.128mm" height="113.531mm" viewBox="0 0 158.128 113.531" xmlns="http://www.w3.org/2000/svg"><g id="svgGroup" stroke-linecap="round" fill-rule="evenodd" font-size="9pt" stroke="#000" stroke-width="0.25mm" fill="none" style="stroke:#000;stroke-width:0.25mm;fill:none"><path d="M 47.094 75.174 L 47.658 81.619 A 2 2 0 0 1 45.84 83.786 L 24.919 85.616 A 2 2 0 0 1 22.753 83.798 L 21.114 65.07 A 2 2 0 0 0 18.948 63.252 L 4.005 64.559 A 2 2 0 0 1 1.838 62.741 L 0.008 41.821 A 2 2 0 0 1 1.826 39.654 L 22.746 37.824 A 2 2 0 0 1 24.912 39.642 L 25.069 41.435 L 39.515 40.171 A 2 2 0 0 0 41.34 38.179 L 41.34 12 A 2 2 0 0 1 43.34 10 L 58.34 10 A 2 2 0 0 0 60.34 8 L 60.34 2 A 2 2 0 0 1 62.34 0 L 83.34 0 A 2 2 0 0 1 85.34 2 L 85.34 4 A 2 2 0 0 0 87.34 6 L 149.64 6 A 2 2 0 0 1 151.64 8 L 151.64 19 A 2 2 0 0 1 149.64 21 L 148.34 21 A 2 2 0 0 0 146.34 23 L 146.34 84.62 A 2 2 0 0 0 147.34 86.352 L 157.128 92.003 A 2 2 0 0 1 157.86 94.736 L 147.586 112.531 A 2 2 0 0 1 144.68 113.151 A 121.6 121.6 0 0 0 89.087 91.038 A 2 2 0 0 1 87.377 88.707 L 89.733 75.347 A 2 2 0 0 0 87.763 73 L 49.086 73 A 2 2 0 0 0 47.094 75.174 Z M 23.584 58.881 m -1.1 0 a 1.1 1.1 0 0 1 2.2 0 a 1.1 1.1 0 0 1 -2.2 0 z M 63.34 17.25 m -1.1 0 a 1.1 1.1 0 0 1 2.2 0 a 1.1 1.1 0 0 1 -2.2 0 z M 63.34 55.25 m -1.1 0 a 1.1 1.1 0 0 1 2.2 0 a 1.1 1.1 0 0 1 -2.2 0 z M 101.34 29.25 m -1.1 0 a 1.1 1.1 0 0 1 2.2 0 a 1.1 1.1 0 0 1 -2.2 0 z M 101.34 67.25 m -1.1 0 a 1.1 1.1 0 0 1 2.2 0 a 1.1 1.1 0 0 1 -2.2 0 z M 131.183 96.942 m -1.1 0 a 1.1 1.1 0 0 1 2.2 0 a 1.1 1.1 0 0 1 -2.2 0 z" vector-effect="non-scaling-stroke"/></g></svg>