<svg width="243.2mm" height="333.211mm" viewBox="0 0 243.2 333.211" xmlns="http://www.w3.org/2000/svg"><g id="svgGroup" stroke-linecap="round" fill-rule="evenodd" font-size="9pt" stroke="#000" stroke-width="0.25mm" fill="none" style="stroke:#000;stroke-width:0.25mm;fill:none"><path d="M 121.6 211.611 m -121.6 0 a 121.6 121.6 0 0 0 243.2 0 a 121.6 121.6 0 0 0 -243.2 0 z M 135.619 6 L 197.919 6 A 2 2 0 0 1 199.919 8 L 199.919 19 A 2 2 0 0 1 197.919 21 L 196.619 21 A 2 2 0 0 0 194.619 23 L 194.619 84.62 M 72.019 57.792 A 1.1 1.1 0 0 0 71.521 57.835 L 70.063 41.17 L 51.633 42.783 L 53.245 61.212 L 71.079 59.652 A 1.1 1.1 0 0 0 72.205 59.926 L 72.504 63.342 L 90.934 61.73 L 89.321 43.3 L 70.892 44.912 L 72.019 57.792 Z M 111.369 18.321 A 1.1 1.1 0 0 0 111.869 18.321 L 111.869 21.75 L 130.369 21.75 L 130.369 3.25 L 111.869 3.25 L 111.869 16.179 A 1.1 1.1 0 0 0 111.369 16.179 L 111.369 13.25 L 92.869 13.25 L 92.869 31.75 L 111.369 31.75 L 111.369 18.321 Z M 111.369 56.321 A 1.1 1.1 0 0 0 111.869 56.321 L 111.869 59.75 L 130.369 59.75 L 130.369 41.25 L 111.869 41.25 L 111.869 54.179 A 1.1 1.1 0 0 0 111.369 54.179 L 111.369 51.25 L 92.869 51.25 L 92.869 69.75 L 111.369 69.75 L 111.369 56.321 Z M 149.369 30.321 A 1.1 1.1 0 0 0 149.869 30.321 L 149.869 33.75 L 168.369 33.75 L 168.369 15.25 L 149.869 15.25 L 149.869 28.179 A 1.1 1.1 0 0 0 149.369 28.179 L 149.369 13.25 L 130.869 13.25 L 130.869 31.75 L 149.369 31.75 L 149.369 30.321 Z M 149.369 68.321 A 1.1 1.1 0 0 0 149.869 68.321 L 149.869 71.75 L 168.369 71.75 L 168.369 53.25 L 149.869 53.25 L 149.869 66.179 A 1.1 1.1 0 0 0 149.369 66.179 L 149.369 51.25 L 130.869 51.25 L 130.869 69.75 L 149.369 69.75 L 149.369 68.321 Z M 180.214 96.14 A 1.1 1.1 0 1 0 179.143 97.995 L 177.428 100.965 L 193.45 110.215 L 202.7 94.193 L 186.678 84.943 L 180.214 96.14 Z M 138.904 89.003 L 157.122 92.216 L 160.335 73.997 L 142.116 70.784 L 138.904 89.003 Z M 158.61 93.233 L 175.994 99.561 L 182.321 82.176 L 164.937 75.849 L 158.61 93.233 Z M 92.869 50.75 L 111.369 50.75 L 111.369 32.25 L 92.869 32.25 L 92.869 50.75 Z M 111.869 40.75 L 130.369 40.75 L 130.369 22.25 L 111.869 22.25 L 111.869 40.75 Z M 130.869 50.75 L 149.369 50.75 L 149.369 32.25 L 130.869 32.25 L 130.869 50.75 Z M 149.869 52.75 L 168.369 52.75 L 168.369 34.25 L 149.869 34.25 L 149.869 52.75 Z M 172.869 75.55 L 191.369 75.55 L 191.369 57.05 L 172.869 57.05 L 172.869 75.55 Z M 74.16 82.27 L 92.59 80.657 L 90.977 62.228 L 72.548 63.84 L 74.16 82.27 Z M 169.619 6 A 2 2 0 0 1 171.619 8 L 171.619 52.8 A 2 2 0 0 0 173.619 54.8 L 192.619 54.8 A 2 2 0 0 1 194.619 56.8 M 76.206 79.832 L 90.152 78.612 L 88.932 64.665 L 74.985 65.885 L 76.206 79.832 Z M 74.55 60.904 L 88.496 59.684 L 87.276 45.737 L 73.329 46.958 L 74.55 60.904 Z M 55.291 58.775 L 69.237 57.555 L 68.017 43.608 L 54.071 44.828 L 55.291 58.775 Z M 95.119 67.5 L 109.119 67.5 L 109.119 53.5 L 95.119 53.5 L 95.119 67.5 Z M 95.119 48.5 L 109.119 48.5 L 109.119 34.5 L 95.119 34.5 L 95.119 48.5 Z M 95.119 29.5 L 109.119 29.5 L 109.119 15.5 L 95.119 15.5 L 95.119 29.5 Z M 114.119 57.5 L 128.119 57.5 L 128.119 43.5 L 114.119 43.5 L 114.119 57.5 Z M 114.119 38.5 L 128.119 38.5 L 128.119 24.5 L 114.119 24.5 L 114.119 38.5 Z M 114.119 19.5 L 128.119 19.5 L 128.119 5.5 L 114.119 5.5 L 114.119 19.5 Z M 133.119 67.5 L 147.119 67.5 L 147.119 53.5 L 133.119 53.5 L 133.119 67.5 Z M 133.119 48.5 L 147.119 48.5 L 147.119 34.5 L 133.119 34.5 L 133.119 48.5 Z M 133.119 29.5 L 147.119 29.5 L 147.119 15.5 L 133.119 15.5 L 133.119 29.5 Z M 152.119 69.5 L 166.119 69.5 L 166.119 55.5 L 152.119 55.5 L 152.119 69.5 Z M 152.119 50.5 L 166.119 50.5 L 166.119 36.5 L 152.119 36.5 L 152.119 50.5 Z M 152.119 31.5 L 166.119 31.5 L 166.119 17.5 L 152.119 17.5 L 152.119 31.5 Z M 175.119 73.3 L 189.119 73.3 L 189.119 59.3 L 175.119 59.3 L 175.119 73.3 Z M 141.51 87.178 L 155.297 89.609 L 157.728 75.822 L 143.941 73.391 L 141.51 87.178 Z M 180.502 100.141 L 192.626 107.141 L 199.626 95.017 L 187.502 88.017 L 180.502 100.141 Z M 161.494 91.888 L 174.649 96.677 L 179.438 83.521 L 166.282 78.733 L 161.494 91.888 Z M 73.198 85.616 L 94.118 83.786 A 2 2 0 0 0 95.936 81.619 L 95.373 75.174 M 87.794 40.171 L 73.348 41.435 L 73.191 39.642 M 52.109 62.567 m -2 0 a 2 2 0 0 0 4 0 a 2 2 0 0 0 -4 0 z M 87.619 38.179 m -2 0 a 2 2 0 0 0 4 0 a 2 2 0 0 0 -4 0 z M 73.024 83.624 m -2 0 a 2 2 0 0 0 4 0 a 2 2 0 0 0 -4 0 z M 67.401 65.244 m -2 0 a 2 2 0 0 0 4 0 a 2 2 0 0 0 -4 0 z M 50.279 41.646 m -2 0 a 2 2 0 0 0 4 0 a 2 2 0 0 0 -4 0 z M 71.199 39.816 m -2 0 a 2 2 0 0 0 4 0 a 2 2 0 0 0 -4 0 z M 91.619 12 m -2 0 a 2 2 0 0 0 4 0 a 2 2 0 0 0 -4 0 z M 106.619 8 m -2 0 a 2 2 0 0 0 4 0 a 2 2 0 0 0 -4 0 z M 110.619 2 m -2 0 a 2 2 0 0 0 4 0 a 2 2 0 0 0 -4 0 z M 131.619 2 m -2 0 a 2 2 0 0 0 4 0 a 2 2 0 0 0 -4 0 z M 135.619 4 m -2 0 a 2 2 0 0 0 4 0 a 2 2 0 0 0 -4 0 z M 196.619 84.62 m -2 0 a 2 2 0 0 0 4 0 a 2 2 0 0 0 -4 0 z M 204.407 93.736 m -2 0 a 2 2 0 0 0 4 0 a 2 2 0 0 0 -4 0 z M 194.133 111.531 m -2 0 a 2 2 0 0 0 4 0 a 2 2 0 0 0 -4 0 z M 137.625 89.054 m -2 0 a 2 2 0 0 0 4 0 a 2 2 0 0 0 -4 0 z M 97.365 75 m -2 0 a 2 2 0 0 0 4 0 a 2 2 0 0 0 -4 0 z M 136.042 75 m -2 0 a 2 2 0 0 0 4 0 a 2 2 0 0 0 -4 0 z M 71.863 58.881 m -1.1 0 a 1.1 1.1 0 0 1 2.2 0 a 1.1 1.1 0 0 1 -2.2 0 z M 111.619 17.25 m -1.1 0 a 1.1 1.1 0 0 1 2.2 0 a 1.1 1.1 0 0 1 -2.2 0 z M 111.619 55.25 m -1.1 0 a 1.1 1.1 0 0 1 2.2 0 a 1.1 1.1 0 0 1 -2.2 0 z M 149.619 29.25 m -1.1 0 a 1.1 1.1 0 0 1 2.2 0 a 1.1 1.1 0 0 1 -2.2 0 z M 149.619 67.25 m -1.1 0 a 1.1 1.1 0 0 1 2.2 0 a 1.1 1.1 0 0 1 -2.2 0 z M 179.462 96.942 m -1.1 0 a 1.1 1.1 0 0 1 2.2 0 a 1.1 1.1 0 0 1 -2.2 0 z M 69.393 65.07 71.032 83.798 M 50.104 39.654 71.025 37.824 M 52.283 64.559 67.226 63.252 M 48.286 41.821 50.117 62.741 M 97.365 73 136.042 73 M 89.619 38.179 89.619 12 M 91.619 10 106.619 10 M 110.619 0 131.619 0 M 133.619 4 133.619 2 M 108.619 8 108.619 2 M 135.656 88.707 138.011 75.347 M 195.619 86.352 205.407 92.003 M 195.865 112.531 206.139 94.736" vector-effect="non-scaling-stroke"/></g></svg>