0
SECTION
2
HEADER
9
$INSUNITS
70
4
0
ENDSEC
0
SECTION
2
TABLES
0
TABLE
2
LTYPE
0
LTYPE
72
65
70
64
2
CONTINUOUS
3
______
73
0
40
0
0
ENDTAB
0
TABLE
2
LAYER
0
ENDTAB
0
ENDSEC
0
SECTION
2
ENTITIES
0
LINE
8
0
10
129.6720599
20
-191.3656866
11
130.5053432
21
-200.8901575
0
LINE
8
0
10
106.6838262
20
-203.9780901
11
129.5963042
21
-201.9735079
0
LINE
8
0
10
103.7876363
20
-182.3482014
11
105.6004758
21
-203.0690511
0
LINE
8
0
10
108.8261416
20
-159.622589
11
123.1010522
21
-158.3736961
0
LINE
8
0
10
83.5900824
20
-158.0159427
11
106.5025604
21
-156.0113605
0
LINE
8
0
10
107.5859108
20
-156.9203995
11
107.7427912
21
-158.71355
0
LINE
8
0
10
85.768976
20
-182.9208101
11
102.7042859
21
-181.4391624
0
LINE
8
0
10
82.6810434
20
-159.0992931
11
84.6856256
21
-182.0117711
0
LINE
8
0
10
130.6682546
20
-190.2785309
11
172.1570704
21
-190.2785309
0
LINE
8
0
10
124.0138965
20
-157.3775014
11
124.0138965
21
-128.2785309
0
LINE
8
0
10
125.0138965
20
-127.2785309
11
142.0138964
21
-127.2785309
0
LINE
8
0
10
144.0138964
20
-116.2785308
11
167.0138964
21
-116.2785308
0
LINE
8
0
10
168.0138964
20
-117.2785308
11
168.0138964
21
-121.2785308
0
LINE
8
0
10
143.0138964
20
-126.2785309
11
143.0138964
21
-117.2785308
0
LINE
8
0
10
206.0138964
20
-172.0785309
11
206.0138964
21
-123.2785308
0
LINE
8
0
10
169.8679165
20
-210.0197393
11
173.1418782
21
-191.4521791
0
LINE
8
0
10
229.5138964
20
-205.9369571
11
237.1465895
21
-210.3436945
0
LINE
8
0
10
226.2090882
20
-231.288002
11
237.5126149
21
-211.7097199
0
LINE
8
0
10
207.0138964
20
-173.0785309
11
228.0138964
21
-173.0785309
0
LINE
8
0
10
229.0138964
20
-205.0709317
11
229.0138964
21
-174.0785309
0
ARC
8
0
10
155.99465
20
-331.8897212
40
121.6
50
55.5527164
51
83.0391293
0
LINE
8
0
10
169.0138964
20
-122.2785308
11
205.0138964
21
-122.2785308
0
ARC
8
0
10
129.5091485
20
-200.9773132
40
1
50
274.9999976
51
4.9999976
0
ARC
8
0
10
106.5966705
20
-202.9818954
40
1
50
184.9999976
51
274.9999976
0
ARC
8
0
10
102.7914416
20
-182.4353571
40
1
50
4.9999976
51
94.9999976
0
ARC
8
0
10
85.6818203
20
-181.9246154
40
1
50
184.9999976
51
274.9999976
0
ARC
8
0
10
83.6772381
20
-159.0121374
40
1
50
94.9999976
51
184.9999976
0
ARC
8
0
10
106.5897161
20
-157.0075552
40
1
50
4.9999976
51
94.9999976
0
ARC
8
0
10
108.7389859
20
-158.6263943
40
1
50
184.9999976
51
274.9999976
0
ARC
8
0
10
123.0138965
20
-157.3775014
40
1
50
274.9999976
51
0
0
ARC
8
0
10
125.0138965
20
-128.2785309
40
1
50
90
51
180
0
ARC
8
0
10
142.0138964
20
-126.2785309
40
1
50
270
51
0
0
ARC
8
0
10
144.0138964
20
-117.2785308
40
1
50
90
51
180
0
ARC
8
0
10
167.0138964
20
-117.2785308
40
1
50
0
51
90
0
ARC
8
0
10
169.0138964
20
-121.2785308
40
1
50
180
51
270
0
ARC
8
0
10
205.0138964
20
-123.2785308
40
1
50
0
51
90
0
ARC
8
0
10
207.0138964
20
-172.0785309
40
1
50
180
51
270
0
ARC
8
0
10
228.0138964
20
-174.0785309
40
1
50
0
51
90
0
ARC
8
0
10
230.0138964
20
-205.0709317
40
1
50
180
51
239.9999999
0
ARC
8
0
10
236.6465895
20
-211.2097199
40
1
50
329.9999999
51
59.9999999
0
ARC
8
0
10
225.3430629
20
-230.788002
40
1
50
235.5527164
51
329.9999999
0
ARC
8
0
10
170.8527243
20
-210.1933875
40
1
50
169.9999992
51
263.0391293
0
ARC
8
0
10
172.1570704
20
-191.2785309
40
1
50
349.9999992
51
90
0
ARC
8
0
10
130.6682546
20
-191.2785309
40
1
50
90
51
184.9999976
0
CIRCLE
8
0
10
106.3447993
20
-177.1555705
40
1.1
0
CIRCLE
8
0
10
146.0138964
20
-133.5285308
40
1.1
0
CIRCLE
8
0
10
146.0138965
20
-171.5285309
40
1.1
0
CIRCLE
8
0
10
184.0138964
20
-145.5285308
40
1.1
0
CIRCLE
8
0
10
184.0138964
20
-183.5285309
40
1.1
0
CIRCLE
8
0
10
210.3350561
20
-214.7826327
40
1.1
0
LINE
8
0
10
110.6873457
20
-198.1068184
11
124.6340715
21
-196.886638
0
LINE
8
0
10
124.6340715
20
-196.886638
11
123.4138911
21
-182.9399122
0
LINE
8
0
10
123.4138911
20
-182.9399122
11
109.4671653
21
-184.1600926
0
LINE
8
0
10
109.4671653
20
-184.1600926
11
110.6873457
21
-198.1068184
0
LINE
8
0
10
109.0313865
20
-179.1791192
11
122.9781123
21
-177.9589388
0
LINE
8
0
10
122.9781123
20
-177.9589388
11
121.7579319
21
-164.012213
0
LINE
8
0
10
121.7579319
20
-164.012213
11
107.8112061
21
-165.2323934
0
LINE
8
0
10
107.8112061
20
-165.2323934
11
109.0313865
21
-179.1791192
0
LINE
8
0
10
89.7724955
20
-177.0495384
11
103.7192213
21
-175.829358
0
LINE
8
0
10
103.7192213
20
-175.829358
11
102.4990409
21
-161.8826322
0
LINE
8
0
10
102.4990409
20
-161.8826322
11
88.5523151
21
-163.1028126
0
LINE
8
0
10
88.5523151
20
-163.1028126
11
89.7724955
21
-177.0495384
0
LINE
8
0
10
129.5138965
20
-184.7785309
11
143.5138965
21
-184.7785309
0
LINE
8
0
10
143.5138965
20
-184.7785309
11
143.5138965
21
-170.7785309
0
LINE
8
0
10
143.5138965
20
-170.7785309
11
129.5138965
21
-170.7785309
0
LINE
8
0
10
129.5138965
20
-170.7785309
11
129.5138965
21
-184.7785309
0
LINE
8
0
10
129.5138965
20
-165.7785309
11
143.5138965
21
-165.7785309
0
LINE
8
0
10
143.5138965
20
-165.7785309
11
143.5138965
21
-151.7785309
0
LINE
8
0
10
143.5138965
20
-151.7785309
11
129.5138965
21
-151.7785309
0
LINE
8
0
10
129.5138965
20
-151.7785309
11
129.5138965
21
-165.7785309
0
LINE
8
0
10
129.5138965
20
-146.7785309
11
143.5138965
21
-146.7785309
0
LINE
8
0
10
143.5138965
20
-146.7785309
11
143.5138965
21
-132.7785309
0
LINE
8
0
10
143.5138965
20
-132.7785309
11
129.5138965
21
-132.7785309
0
LINE
8
0
10
129.5138965
20
-132.7785309
11
129.5138965
21
-146.7785309
0
LINE
8
0
10
148.5138965
20
-173.7785309
11
162.5138965
21
-173.7785309
0
LINE
8
0
10
162.5138965
20
-173.7785309
11
162.5138965
21
-159.7785309
0
LINE
8
0
10
162.5138965
20
-159.7785309
11
148.5138965
21
-159.7785309
0
LINE
8
0
10
148.5138965
20
-159.7785309
11
148.5138965
21
-173.7785309
0
LINE
8
0
10
148.5138964
20
-154.7785309
11
162.5138964
21
-154.7785309
0
LINE
8
0
10
162.5138964
20
-154.7785309
11
162.5138964
21
-140.7785309
0
LINE
8
0
10
162.5138964
20
-140.7785309
11
148.5138964
21
-140.7785309
0
LINE
8
0
10
148.5138964
20
-140.7785309
11
148.5138964
21
-154.7785309
0
LINE
8
0
10
148.5138964
20
-135.7785308
11
162.5138964
21
-135.7785308
0
LINE
8
0
10
162.5138964
20
-135.7785308
11
162.5138964
21
-121.7785308
0
LINE
8
0
10
162.5138964
20
-121.7785308
11
148.5138964
21
-121.7785308
0
LINE
8
0
10
148.5138964
20
-121.7785308
11
148.5138964
21
-135.7785308
0
LINE
8
0
10
167.5138965
20
-183.7785309
11
181.5138965
21
-183.7785309
0
LINE
8
0
10
181.5138965
20
-183.7785309
11
181.5138965
21
-169.7785309
0
LINE
8
0
10
181.5138965
20
-169.7785309
11
167.5138965
21
-169.7785309
0
LINE
8
0
10
167.5138965
20
-169.7785309
11
167.5138965
21
-183.7785309
0
LINE
8
0
10
167.5138965
20
-164.7785309
11
181.5138965
21
-164.7785309
0
LINE
8
0
10
181.5138965
20
-164.7785309
11
181.5138965
21
-150.7785309
0
LINE
8
0
10
181.5138965
20
-150.7785309
11
167.5138965
21
-150.7785309
0
LINE
8
0
10
167.5138965
20
-150.7785309
11
167.5138965
21
-164.7785309
0
LINE
8
0
10
167.5138965
20
-145.7785308
11
181.5138965
21
-145.7785308
0
LINE
8
0
10
181.5138965
20
-145.7785308
11
181.5138965
21
-131.7785308
0
LINE
8
0
10
181.5138965
20
-131.7785308
11
167.5138965
21
-131.7785308
0
LINE
8
0
10
167.5138965
20
-131.7785308
11
167.5138965
21
-145.7785308
0
LINE
8
0
10
186.5138964
20
-185.7785309
11
200.5138964
21
-185.7785309
0
LINE
8
0
10
200.5138964
20
-185.7785309
11
200.5138964
21
-171.7785309
0
LINE
8
0
10
200.5138964
20
-171.7785309
11
186.5138964
21
-171.7785309
0
LINE
8
0
10
186.5138964
20
-171.7785309
11
186.5138964
21
-185.7785309
0
LINE
8
0
10
186.5138964
20
-166.7785309
11
200.5138964
21
-166.7785309
0
LINE
8
0
10
200.5138964
20
-166.7785309
11
200.5138964
21
-152.7785309
0
LINE
8
0
10
200.5138964
20
-152.7785309
11
186.5138964
21
-152.7785309
0
LINE
8
0
10
186.5138964
20
-152.7785309
11
186.5138964
21
-166.7785309
0
LINE
8
0
10
186.5138964
20
-147.7785308
11
200.5138964
21
-147.7785308
0
LINE
8
0
10
200.5138964
20
-147.7785308
11
200.5138964
21
-133.7785308
0
LINE
8
0
10
200.5138964
20
-133.7785308
11
186.5138964
21
-133.7785308
0
LINE
8
0
10
186.5138964
20
-133.7785308
11
186.5138964
21
-147.7785308
0
LINE
8
0
10
175.9047049
20
-207.4566479
11
189.6920134
21
-209.8877224
0
LINE
8
0
10
189.6920134
20
-209.8877224
11
192.1230879
21
-196.1004139
0
LINE
8
0
10
192.1230879
20
-196.1004139
11
178.3357794
21
-193.6693394
0
LINE
8
0
10
178.3357794
20
-193.6693394
11
175.9047049
21
-207.4566479
0
LINE
8
0
10
193.9784105
20
-211.1202714
11
207.1341071
21
-215.9085534
0
LINE
8
0
10
207.1341071
20
-215.9085534
11
211.9223891
21
-202.7528568
0
LINE
8
0
10
211.9223891
20
-202.7528568
11
198.7666925
21
-197.9645748
0
LINE
8
0
10
198.7666925
20
-197.9645748
11
193.9784105
21
-211.1202714
0
LINE
8
0
10
211.3751196
20
-217.9811898
11
223.4994752
21
-224.9811898
0
LINE
8
0
10
223.4994752
20
-224.9811898
11
230.4994752
21
-212.8568342
0
LINE
8
0
10
230.4994752
20
-212.8568342
11
218.3751196
21
-205.8568342
0
LINE
8
0
10
218.3751196
20
-205.8568342
11
211.3751196
21
-217.9811898
0
LINE
8
0
10
209.5138964
20
-191.5785309
11
223.5138964
21
-191.5785309
0
LINE
8
0
10
223.5138964
20
-191.5785309
11
223.5138964
21
-177.5785309
0
LINE
8
0
10
223.5138964
20
-177.5785309
11
209.5138964
21
-177.5785309
0
LINE
8
0
10
209.5138964
20
-177.5785309
11
209.5138964
21
-191.5785309
0
ENDSEC
0
EOF